<svg width="329" height="228" viewBox="0 0 329 228" fill="none" xmlns="http://www.w3.org/2000/svg">
<mask id="path-1-inside-1" fill="white">
<path d="M49.3241 34.7728V27.8182L43.3013 24.341L43.3013 3.47728L49.3241 6.95456V0L73.4154 13.9091V4.92897e-06L85.461 6.95457V55.6365L49.3241 34.7728ZM55.3469 31.2955L73.4154 41.7273V20.8637L55.3469 10.4318V31.2955Z"/>
<path d="M101.843 23.3673V16.4128L113.889 23.3673V30.3219L101.843 23.3673ZM89.7975 58.1401L89.7975 51.1855L101.843 58.1401V37.2764L95.8203 33.7992V26.8446L113.889 37.2764V65.0947L125.934 72.0492V79.0038L89.7975 58.1401Z"/>
<path d="M130.271 88.462V81.5074L154.362 95.4165V88.462L130.271 74.5529V67.5983L124.248 64.121V50.2119L130.271 53.6892V46.7346L166.408 67.5983V102.371L160.385 98.8938V105.848L130.271 88.462ZM136.294 71.0756L154.362 81.5074V67.5983L136.294 57.1665V71.0756Z"/>
<path d="M182.79 70.1019V63.1474L194.836 70.102V77.0565L182.79 70.1019ZM170.744 104.875V97.9202L182.79 104.875V84.0111L176.767 80.5338V73.5792L194.836 84.0111V111.829L206.881 118.784V125.738L170.744 104.875Z"/>
<path d="M223.263 135.197V107.378L211.218 100.424V93.4693L223.263 100.424V86.5147L235.309 93.4693V107.378L247.355 114.333V121.287L235.309 114.333V142.151L223.263 135.197Z"/>
<path d="M251.691 151.609V144.655L245.668 141.178V134.223L251.691 137.7V130.746L275.782 144.655V137.7L251.691 123.791V116.837L281.805 134.223V141.178L287.828 144.655V172.473L251.691 151.609ZM257.714 148.132L275.782 158.564V151.609L257.714 141.178V148.132Z"/>
<path d="M292.164 174.977V168.022L304.21 174.977V140.204L298.187 136.727V129.772L316.256 140.204V181.931L328.301 188.886V195.84L292.164 174.977Z"/>
</mask>
<path d="M49.3241 34.7728V27.8182L43.3013 24.341L43.3013 3.47728L49.3241 6.95456V0L73.4154 13.9091V4.92897e-06L85.461 6.95457V55.6365L49.3241 34.7728ZM55.3469 31.2955L73.4154 41.7273V20.8637L55.3469 10.4318V31.2955Z" fill="#0000FF"/>
<path d="M101.843 23.3673V16.4128L113.889 23.3673V30.3219L101.843 23.3673ZM89.7975 58.1401L89.7975 51.1855L101.843 58.1401V37.2764L95.8203 33.7992V26.8446L113.889 37.2764V65.0947L125.934 72.0492V79.0038L89.7975 58.1401Z" fill="#0000FF"/>
<path d="M130.271 88.462V81.5074L154.362 95.4165V88.462L130.271 74.5529V67.5983L124.248 64.121V50.2119L130.271 53.6892V46.7346L166.408 67.5983V102.371L160.385 98.8938V105.848L130.271 88.462ZM136.294 71.0756L154.362 81.5074V67.5983L136.294 57.1665V71.0756Z" fill="#0000FF"/>
<path d="M182.79 70.1019V63.1474L194.836 70.102V77.0565L182.79 70.1019ZM170.744 104.875V97.9202L182.79 104.875V84.0111L176.767 80.5338V73.5792L194.836 84.0111V111.829L206.881 118.784V125.738L170.744 104.875Z" fill="#0000FF"/>
<path d="M223.263 135.197V107.378L211.218 100.424V93.4693L223.263 100.424V86.5147L235.309 93.4693V107.378L247.355 114.333V121.287L235.309 114.333V142.151L223.263 135.197Z" fill="#0000FF"/>
<path d="M251.691 151.609V144.655L245.668 141.178V134.223L251.691 137.7V130.746L275.782 144.655V137.7L251.691 123.791V116.837L281.805 134.223V141.178L287.828 144.655V172.473L251.691 151.609ZM257.714 148.132L275.782 158.564V151.609L257.714 141.178V148.132Z" fill="#0000FF"/>
<path d="M292.164 174.977V168.022L304.21 174.977V140.204L298.187 136.727V129.772L316.256 140.204V181.931L328.301 188.886V195.84L292.164 174.977Z" fill="#0000FF"/>
<path d="M49.3241 34.7728V27.8182L43.3013 24.341L43.3013 3.47728L49.3241 6.95456V0L73.4154 13.9091V4.92897e-06L85.461 6.95457V55.6365L49.3241 34.7728ZM55.3469 31.2955L73.4154 41.7273V20.8637L55.3469 10.4318V31.2955Z" stroke="black" stroke-width="2" mask="url(#path-1-inside-1)"/>
<path d="M101.843 23.3673V16.4128L113.889 23.3673V30.3219L101.843 23.3673ZM89.7975 58.1401L89.7975 51.1855L101.843 58.1401V37.2764L95.8203 33.7992V26.8446L113.889 37.2764V65.0947L125.934 72.0492V79.0038L89.7975 58.1401Z" stroke="black" stroke-width="2" mask="url(#path-1-inside-1)"/>
<path d="M130.271 88.462V81.5074L154.362 95.4165V88.462L130.271 74.5529V67.5983L124.248 64.121V50.2119L130.271 53.6892V46.7346L166.408 67.5983V102.371L160.385 98.8938V105.848L130.271 88.462ZM136.294 71.0756L154.362 81.5074V67.5983L136.294 57.1665V71.0756Z" stroke="black" stroke-width="2" mask="url(#path-1-inside-1)"/>
<path d="M182.79 70.1019V63.1474L194.836 70.102V77.0565L182.79 70.1019ZM170.744 104.875V97.9202L182.79 104.875V84.0111L176.767 80.5338V73.5792L194.836 84.0111V111.829L206.881 118.784V125.738L170.744 104.875Z" stroke="black" stroke-width="2" mask="url(#path-1-inside-1)"/>
<path d="M223.263 135.197V107.378L211.218 100.424V93.4693L223.263 100.424V86.5147L235.309 93.4693V107.378L247.355 114.333V121.287L235.309 114.333V142.151L223.263 135.197Z" stroke="black" stroke-width="2" mask="url(#path-1-inside-1)"/>
<path d="M251.691 151.609V144.655L245.668 141.178V134.223L251.691 137.7V130.746L275.782 144.655V137.7L251.691 123.791V116.837L281.805 134.223V141.178L287.828 144.655V172.473L251.691 151.609ZM257.714 148.132L275.782 158.564V151.609L257.714 141.178V148.132Z" stroke="black" stroke-width="2" mask="url(#path-1-inside-1)"/>
<path d="M292.164 174.977V168.022L304.21 174.977V140.204L298.187 136.727V129.772L316.256 140.204V181.931L328.301 188.886V195.84L292.164 174.977Z" stroke="black" stroke-width="2" mask="url(#path-1-inside-1)"/>
<path d="M48.3241 27.8181L6.02282 52.2408L0.999999 49.3408L43.3013 24.9182L48.3241 27.8181Z" fill="#0000FF" stroke="black" stroke-linejoin="round"/>
<path d="M48.8241 28.6841V34.484L6.52283 58.9066V53.1068L48.8241 28.6841Z" fill="#0000FF" stroke="black" stroke-linejoin="round"/>
<path d="M42.8013 4.34332V24.0523L0.5 48.4749V28.766L42.8013 4.34332Z" fill="#0000FF" stroke="black" stroke-linejoin="round"/>
<path d="M84.461 55.6364L42.1598 80.059L7.02283 59.7727L49.3241 35.3501L84.461 55.6364Z" fill="#0000FF" stroke="black" stroke-linejoin="round"/>
<path d="M48.3241 6.95457L6.02282 31.3772L0.999999 28.4773L43.3013 4.05465L48.3241 6.95457Z" fill="#0000FF" stroke="black" stroke-linejoin="round"/>
<path d="M54.8469 31.0069L12.5457 55.4295V35.7206L54.8469 11.2979V31.0069Z" fill="#0000FF" stroke="black" stroke-linejoin="round"/>
<path d="M72.4154 41.7272L30.1141 66.1499L13.0457 56.2954L55.3469 31.8728L72.4154 41.7272Z" fill="#0000FF" stroke="black" stroke-linejoin="round"/>
<path d="M48.8241 0.866025V6.66589L6.52283 31.0885V25.2887L48.8241 0.866025Z" fill="#0000FF" stroke="black" stroke-linejoin="round"/>
<path d="M72.4154 20.8637L30.1141 45.2864L13.0457 35.4319L55.3469 11.0092L72.4154 20.8637Z" fill="#0000FF" stroke="black" stroke-linejoin="round"/>
<path d="M72.9154 21.7296V41.4385L30.6141 65.8612V46.1522L72.9154 21.7296Z" fill="#0000FF" stroke="black" stroke-linejoin="round"/>
<path d="M72.4154 13.9091L30.1141 38.3318L7.02283 25L49.3241 0.57735L72.4154 13.9091Z" fill="#0000FF" stroke="black" stroke-linejoin="round"/>
<path d="M89.2975 52.0516L89.2975 57.8514L46.9962 82.2741L46.9962 76.4742L89.2975 52.0516Z" fill="#0000FF" stroke="black" stroke-linejoin="round"/>
<path d="M100.843 58.1401L58.5419 82.5628L47.4962 76.1855L89.7975 51.7629L100.843 58.1401Z" fill="#0000FF" stroke="black" stroke-linejoin="round"/>
<path d="M84.9611 55.3478L42.6598 79.7705V32.2433L84.9611 7.82062V55.3478Z" fill="#0000FF" stroke="black" stroke-linejoin="round"/>
<path d="M124.934 79.0036L82.6332 103.426L47.4962 83.1399L89.7975 58.7172L124.934 79.0036Z" fill="#0000FF" stroke="black" stroke-linejoin="round"/>
<path d="M72.9154 0.866025V13.6204L30.6141 38.0431V25.2887L72.9154 0.866025Z" fill="#0000FF" stroke="black" stroke-linejoin="round"/>
<path d="M101.343 38.1424V57.8514L59.0419 82.274V62.565L101.343 38.1424Z" fill="#0000FF" stroke="black" stroke-linejoin="round"/>
<path d="M84.4611 6.95456L42.1598 31.3772L31.1141 25L73.4154 0.57735L84.4611 6.95456Z" fill="#0000FF" stroke="black" stroke-linejoin="round"/>
<path d="M100.843 37.2763L58.5419 61.699L53.519 58.7991L95.8203 34.3764L100.843 37.2763Z" fill="#0000FF" stroke="black" stroke-linejoin="round"/>
<path d="M95.3203 27.7105V33.5104L53.019 57.933V52.1332L95.3203 27.7105Z" fill="#0000FF" stroke="black" stroke-linejoin="round"/>
<path d="M124.934 72.049L82.6332 96.4717L71.5875 90.0945L113.889 65.6718L124.934 72.049Z" fill="#0000FF" stroke="black" stroke-linejoin="round"/>
<path d="M129.771 82.3733V88.1732L87.4696 112.596V106.796L129.771 82.3733Z" fill="#0000FF" stroke="black" stroke-linejoin="round"/>
<path d="M125.434 78.7149L83.1332 103.138V97.3377L125.434 72.9151V78.7149Z" fill="#0000FF" stroke="black" stroke-linejoin="round"/>
<path d="M113.389 64.8059L71.0875 89.2286V62.565L113.389 38.1424V64.8059Z" fill="#0000FF" stroke="black" stroke-linejoin="round"/>
<path d="M112.889 37.2763L70.5875 61.699L53.519 51.8445L95.8203 27.4218L112.889 37.2763Z" fill="#0000FF" stroke="black" stroke-linejoin="round"/>
<path d="M129.271 67.5981L86.9696 92.0208L81.9468 89.1208L124.248 64.6982L129.271 67.5981Z" fill="#0000FF" stroke="black" stroke-linejoin="round"/>
<path d="M129.771 68.4644V74.2643L87.4696 98.6869V92.8871L129.771 68.4644Z" fill="#0000FF" stroke="black" stroke-linejoin="round"/>
<path d="M159.385 105.848L117.084 130.271L87.9696 113.462L130.271 89.0393L159.385 105.848Z" fill="#0000FF" stroke="black" stroke-linejoin="round"/>
<path d="M101.343 17.2789V23.0787L59.0419 47.5014V41.7015L101.343 17.2789Z" fill="#0000FF" stroke="black" stroke-linejoin="round"/>
<path d="M123.748 51.0779V63.8324L81.4468 88.255V75.5006L123.748 51.0779Z" fill="#0000FF" stroke="black" stroke-linejoin="round"/>
<path d="M153.362 95.4164L111.061 119.839L87.9696 106.507L130.271 82.0847L153.362 95.4164Z" fill="#0000FF" stroke="black" stroke-linejoin="round"/>
<path d="M112.889 30.3217L70.5875 54.7444L59.5419 48.3672L101.843 23.9445L112.889 30.3217Z" fill="#0000FF" stroke="black" stroke-linejoin="round"/>
<path d="M153.362 88.4618L111.061 112.884L87.9696 99.5527L130.271 75.1301L153.362 88.4618Z" fill="#0000FF" stroke="black" stroke-linejoin="round"/>
<path d="M112.889 23.3674L70.5875 47.7901L59.5419 41.4128L101.843 16.9902L112.889 23.3674Z" fill="#0000FF" stroke="black" stroke-linejoin="round"/>
<path d="M129.271 53.6892L86.9696 78.1118L81.9468 75.2119L124.248 50.7893L129.271 53.6892Z" fill="#0000FF" stroke="black" stroke-linejoin="round"/>
<path d="M113.389 30.0331L71.0875 54.4557V48.6559L113.389 24.2332V30.0331Z" fill="#0000FF" stroke="black" stroke-linejoin="round"/>
<path d="M135.794 70.7867L93.4924 95.2093V82.4549L135.794 58.0323V70.7867Z" fill="#0000FF" stroke="black" stroke-linejoin="round"/>
<path d="M153.862 89.3279V95.1278L111.561 119.55V113.751L153.862 89.3279Z" fill="#0000FF" stroke="black" stroke-linejoin="round"/>
<path d="M129.771 47.6006V53.4005L87.4696 77.8232V72.0233L129.771 47.6006Z" fill="#0000FF" stroke="black" stroke-linejoin="round"/>
<path d="M159.885 105.56L117.584 129.982V124.182L159.885 99.7598V105.56Z" fill="#0000FF" stroke="black" stroke-linejoin="round"/>
<path d="M153.362 81.5073L111.061 105.93L93.9924 96.0754L136.294 71.6528L153.362 81.5073Z" fill="#0000FF" stroke="black" stroke-linejoin="round"/>
<path d="M165.408 102.371L123.107 126.794L118.084 123.894L160.385 99.4711L165.408 102.371Z" fill="#0000FF" stroke="black" stroke-linejoin="round"/>
<path d="M153.362 67.5981L111.061 92.0207L93.9924 82.1663L136.294 57.7436L153.362 67.5981Z" fill="#0000FF" stroke="black" stroke-linejoin="round"/>
<path d="M153.862 68.4644V81.2188L111.561 105.641V92.8871L153.862 68.4644Z" fill="#0000FF" stroke="black" stroke-linejoin="round"/>
<path d="M170.244 98.7862V104.586L127.943 129.009V123.209L170.244 98.7862Z" fill="#0000FF" stroke="black" stroke-linejoin="round"/>
<path d="M165.408 67.5983L123.107 92.0209L87.9696 71.7346L130.271 47.312L165.408 67.5983Z" fill="#0000FF" stroke="black" stroke-linejoin="round"/>
<path d="M165.908 102.083L123.606 126.505V92.8871L165.908 68.4644V102.083Z" fill="#0000FF" stroke="black" stroke-linejoin="round"/>
<path d="M181.79 104.875L139.489 129.297L128.443 122.92L170.744 98.4975L181.79 104.875Z" fill="#0000FF" stroke="black" stroke-linejoin="round"/>
<path d="M205.881 125.738L163.58 150.161L128.443 129.875L170.744 105.452L205.881 125.738Z" fill="#0000FF" stroke="black" stroke-linejoin="round"/>
<path d="M182.29 84.877V104.586L139.989 129.009V109.3L182.29 84.877Z" fill="#0000FF" stroke="black" stroke-linejoin="round"/>
<path d="M176.267 74.4451V80.245L133.966 104.668V98.8678L176.267 74.4451Z" fill="#0000FF" stroke="black" stroke-linejoin="round"/>
<path d="M181.79 84.011L139.489 108.434L134.466 105.534L176.767 81.111L181.79 84.011Z" fill="#0000FF" stroke="black" stroke-linejoin="round"/>
<path d="M205.881 118.784L163.58 143.207L152.534 136.829L194.835 112.407L205.881 118.784Z" fill="#0000FF" stroke="black" stroke-linejoin="round"/>
<path d="M206.381 125.45L164.08 149.872V144.073L206.381 119.65V125.45Z" fill="#0000FF" stroke="black" stroke-linejoin="round"/>
<path d="M194.335 111.541L152.034 135.963V109.3L194.335 84.877V111.541Z" fill="#0000FF" stroke="black" stroke-linejoin="round"/>
<path d="M193.836 84.0109L151.534 108.434L134.466 98.5791L176.767 74.1565L193.836 84.0109Z" fill="#0000FF" stroke="black" stroke-linejoin="round"/>
<path d="M182.29 64.0132V69.8131L139.989 94.2357V88.4359L182.29 64.0132Z" fill="#0000FF" stroke="black" stroke-linejoin="round"/>
<path d="M193.835 77.0564L151.534 101.479L140.489 95.1018L182.79 70.6792L193.835 77.0564Z" fill="#0000FF" stroke="black" stroke-linejoin="round"/>
<path d="M234.309 142.151L192.008 166.574L180.962 160.197L223.263 135.774L234.309 142.151Z" fill="#0000FF" stroke="black" stroke-linejoin="round"/>
<path d="M193.835 70.1018L151.534 94.5244L140.489 88.1472L182.79 63.7246L193.835 70.1018Z" fill="#0000FF" stroke="black" stroke-linejoin="round"/>
<path d="M194.335 76.7677L152.034 101.19V95.3905L194.335 70.9678V76.7677Z" fill="#0000FF" stroke="black" stroke-linejoin="round"/>
<path d="M222.763 108.244V134.908L180.462 159.33V132.667L222.763 108.244Z" fill="#0000FF" stroke="black" stroke-linejoin="round"/>
<path d="M210.718 94.3353V100.135L168.416 124.558V118.758L210.718 94.3353Z" fill="#0000FF" stroke="black" stroke-linejoin="round"/>
<path d="M222.263 107.378L179.962 131.801L168.916 125.424L211.218 101.001L222.263 107.378Z" fill="#0000FF" stroke="black" stroke-linejoin="round"/>
<path d="M234.809 141.862L192.508 166.285V139.621L234.809 115.199V141.862Z" fill="#0000FF" stroke="black" stroke-linejoin="round"/>
<path d="M222.263 100.424L179.962 124.846L168.916 118.469L211.218 94.0466L222.263 100.424Z" fill="#0000FF" stroke="black" stroke-linejoin="round"/>
<path d="M245.168 135.089V140.889L202.867 165.311V159.512L245.168 135.089Z" fill="#0000FF" stroke="black" stroke-linejoin="round"/>
<path d="M250.691 144.655L208.39 169.077L203.367 166.177L245.668 141.755L250.691 144.655Z" fill="#0000FF" stroke="black" stroke-linejoin="round"/>
<path d="M251.191 145.521V151.321L208.89 175.743V169.943L251.191 145.521Z" fill="#0000FF" stroke="black" stroke-linejoin="round"/>
<path d="M222.763 87.3807V100.135L180.462 124.558V111.803L222.763 87.3807Z" fill="#0000FF" stroke="black" stroke-linejoin="round"/>
<path d="M250.691 137.7L208.39 162.123L203.367 159.223L245.668 134.8L250.691 137.7Z" fill="#0000FF" stroke="black" stroke-linejoin="round"/>
<path d="M246.354 121.287L204.053 145.71L193.008 139.333L235.309 114.91L246.354 121.287Z" fill="#0000FF" stroke="black" stroke-linejoin="round"/>
<path d="M251.191 131.612V137.411L208.89 161.834V156.034L251.191 131.612Z" fill="#0000FF" stroke="black" stroke-linejoin="round"/>
<path d="M257.214 147.843L214.913 172.266V166.466L257.214 142.044V147.843Z" fill="#0000FF" stroke="black" stroke-linejoin="round"/>
<path d="M286.828 172.473L244.527 196.896L209.39 176.609L251.691 152.187L286.828 172.473Z" fill="#0000FF" stroke="black" stroke-linejoin="round"/>
<path d="M234.809 107.09L192.508 131.512V118.758L234.809 94.3353V107.09Z" fill="#0000FF" stroke="black" stroke-linejoin="round"/>
<path d="M234.309 93.4692L192.008 117.892L180.962 111.515L223.263 87.092L234.309 93.4692Z" fill="#0000FF" stroke="black" stroke-linejoin="round"/>
<path d="M246.354 114.333L204.053 138.755L193.008 132.378L235.309 107.956L246.354 114.333Z" fill="#0000FF" stroke="black" stroke-linejoin="round"/>
<path d="M274.782 158.564L232.481 182.987L215.413 173.132L257.714 148.709L274.782 158.564Z" fill="#0000FF" stroke="black" stroke-linejoin="round"/>
<path d="M246.854 120.999L204.553 145.421V139.621L246.854 115.199V120.999Z" fill="#0000FF" stroke="black" stroke-linejoin="round"/>
<path d="M251.191 117.703V123.503L208.89 147.925V142.125L251.191 117.703Z" fill="#0000FF" stroke="black" stroke-linejoin="round"/>
<path d="M274.782 151.609L232.481 176.032L215.413 166.177L257.714 141.755L274.782 151.609Z" fill="#0000FF" stroke="black" stroke-linejoin="round"/>
<path d="M274.782 144.655L232.481 169.077L209.39 155.746L251.691 131.323L274.782 144.655Z" fill="#0000FF" stroke="black" stroke-linejoin="round"/>
<path d="M275.282 152.475V158.275L232.981 182.698V176.898L275.282 152.475Z" fill="#0000FF" stroke="black" stroke-linejoin="round"/>
<path d="M274.782 137.7L232.481 162.123L209.39 148.791L251.691 124.368L274.782 137.7Z" fill="#0000FF" stroke="black" stroke-linejoin="round"/>
<path d="M291.664 168.888V174.688L249.363 199.111V193.311L291.664 168.888Z" fill="#0000FF" stroke="black" stroke-linejoin="round"/>
<path d="M275.282 138.566V144.366L232.981 168.789V162.989L275.282 138.566Z" fill="#0000FF" stroke="black" stroke-linejoin="round"/>
<path d="M280.805 134.223L238.504 158.646L209.39 141.837L251.691 117.414L280.805 134.223Z" fill="#0000FF" stroke="black" stroke-linejoin="round"/>
<path d="M287.328 172.184L245.027 196.607V169.943L287.328 145.521V172.184Z" fill="#0000FF" stroke="black" stroke-linejoin="round"/>
<path d="M303.21 174.977L260.909 199.399L249.863 193.022L292.164 168.6L303.21 174.977Z" fill="#0000FF" stroke="black" stroke-linejoin="round"/>
<path d="M281.305 140.889L239.004 165.311V159.512L281.305 135.089V140.889Z" fill="#0000FF" stroke="black" stroke-linejoin="round"/>
<path d="M286.828 144.655L244.527 169.077L239.504 166.177L281.805 141.755L286.828 144.655Z" fill="#0000FF" stroke="black" stroke-linejoin="round"/>
<path d="M327.301 195.84L285 220.263L249.863 199.977L292.164 175.554L327.301 195.84Z" fill="#0000FF" stroke="black" stroke-linejoin="round"/>
<path d="M303.71 141.07V174.688L261.409 199.111V165.493L303.71 141.07Z" fill="#0000FF" stroke="black" stroke-linejoin="round"/>
<path d="M327.301 188.886L285 213.308L273.954 206.931L316.256 182.509L327.301 188.886Z" fill="#0000FF" stroke="black" stroke-linejoin="round"/>
<path d="M327.801 195.552L285.5 219.974V214.174L327.801 189.752V195.552Z" fill="#0000FF" stroke="black" stroke-linejoin="round"/>
<path d="M297.687 130.638V136.438L255.386 160.861V155.061L297.687 130.638Z" fill="#0000FF" stroke="black" stroke-linejoin="round"/>
<path d="M303.21 140.204L260.909 164.626L255.886 161.727L298.187 137.304L303.21 140.204Z" fill="#0000FF" stroke="black" stroke-linejoin="round"/>
<path d="M315.756 181.643L273.454 206.065V165.493L315.756 141.07V181.643Z" fill="#0000FF" stroke="black" stroke-linejoin="round"/>
<path d="M315.256 140.204L272.954 164.626L255.886 154.772L298.187 130.349L315.256 140.204Z" fill="#0000FF" stroke="black" stroke-linejoin="round"/>
<path d="M6.02282 59.7727L6.02282 52.8181L-9.19275e-07 49.3409L-4.59637e-07 28.4772L6.02282 31.9545L6.02282 24.9999L30.1141 38.909L30.1141 24.9999L42.1598 31.9545L42.1598 80.6364L6.02282 59.7727ZM12.0456 56.2954L30.1141 66.7273L30.1141 45.8636L12.0456 35.4318L12.0456 56.2954Z" fill="black"/>
<path d="M58.5419 48.3672L58.5419 41.4127L70.5875 48.3672L70.5875 55.3218L58.5419 48.3672ZM46.4962 83.14L46.4962 76.1855L58.5419 83.14L58.5419 62.2763L52.519 58.7991L52.519 51.8445L70.5875 62.2763L70.5875 90.0946L82.6331 97.0491L82.6331 104.004L46.4962 83.14Z" fill="black"/>
<path d="M86.9696 113.462L86.9696 106.507L111.061 120.416L111.061 113.462L86.9696 99.5528L86.9696 92.5982L80.9468 89.1209L80.9468 75.2118L86.9696 78.6891L86.9696 71.7345L123.107 92.5982L123.107 127.371L117.084 123.894L117.084 130.848L86.9696 113.462ZM92.9924 96.0755L111.061 106.507L111.061 92.5982L92.9924 82.1664L92.9924 96.0755Z" fill="black"/>
<path d="M139.489 95.1019L139.489 88.1473L151.534 95.1019L151.534 102.056L139.489 95.1019ZM127.443 129.875L127.443 122.92L139.489 129.875L139.489 109.011L133.466 105.534L133.466 98.5791L151.534 109.011L151.534 136.829L163.58 143.784L163.58 150.738L127.443 129.875Z" fill="black"/>
<path d="M179.962 160.197L179.962 132.378L167.916 125.424L167.916 118.469L179.962 125.424L179.962 111.515L192.008 118.469L192.008 132.378L204.053 139.333L204.053 146.287L192.008 139.333L192.008 167.151L179.962 160.197Z" fill="black"/>
<path d="M208.39 176.609L208.39 169.655L202.367 166.177L202.367 159.223L208.39 162.7L208.39 155.746L232.481 169.655L232.481 162.7L208.39 148.791L208.39 141.836L238.504 159.223L238.504 166.177L244.527 169.655L244.527 197.473L208.39 176.609ZM214.413 173.132L232.481 183.564L232.481 176.609L214.413 166.177L214.413 173.132Z" fill="black"/>
<path d="M248.863 199.977L248.863 193.022L260.909 199.977L260.909 165.204L254.886 161.727L254.886 154.772L272.954 165.204L272.954 206.931L285 213.886L285 220.84L248.863 199.977Z" fill="black"/>
</svg>
