<svg width="226" height="336" viewBox="0 0 226 336" fill="none" xmlns="http://www.w3.org/2000/svg">
<path d="M141 223L113 207L85.0001 223V255L113 271L141 255V223Z" fill="#0000FF"/>
<path d="M141 223L113 207L85.0001 223M141 223V255L113 271M141 223L113 239M113 271L85.0001 255V223M113 271V239M85.0001 223L113 239" stroke="black"/>
<path d="M225 207L197 191L169 207V239L197 255L225 239V207Z" fill="black"/>
<path d="M225 207L197 191L169 207M225 207V239L197 255M225 207L197 223M197 255L169 239V207M197 255V223M169 207L197 223" stroke="#0000FF"/>
<path d="M169 239L141 223L113 239V271L141 287L169 271V239Z" fill="#0000FF"/>
<path d="M169 239L141 223L113 239M169 239V271L141 287M169 239L141 255M141 287L113 271V239M141 287V255M113 239L141 255" stroke="black"/>
<path d="M141 287L113 271L85.0001 287V319L113 335L141 319V287Z" fill="#0000FF"/>
<path d="M141 287L113 271L85.0001 287M141 287V319L113 335M141 287L113 303M113 335L85.0001 319V287M113 335V303M85.0001 287L113 303" stroke="black"/>
<path d="M113 271L85.0001 255L57.0001 271V303L85.0001 319L113 303V271Z" fill="black"/>
<path d="M113 271L85.0001 255L57.0001 271M113 271V303L85.0001 319M113 271L85.0001 287M85.0001 319L57.0001 303V271M85.0001 319V287M57.0001 271L85.0001 287" stroke="#0000FF"/>
<path d="M85 255L57 239L29 255V287L57 303L85 287V255Z" fill="white"/>
<path d="M85 255L57 239L29 255M85 255V287L57 303M85 255L57 271M57 303L29 287V255M57 303V271M29 255L57 271" stroke="black"/>
<path d="M113 207L85.0001 191L57.0001 207V239L85.0001 255L113 239V207Z" fill="#0000FF"/>
<path d="M113 207L85.0001 191L57.0001 207M113 207V239L85.0001 255M113 207L85.0001 223M85.0001 255L57.0001 239V207M85.0001 255V223M57.0001 207L85.0001 223" stroke="black"/>
<path d="M85.0001 159L57.0001 143L29.0001 159V191L57.0001 207L85.0001 191V159Z" fill="#0000FF"/>
<path d="M85.0001 159L57.0001 143L29.0001 159M85.0001 159V191L57.0001 207M85.0001 159L57.0001 175M57.0001 207L29.0001 191V159M57.0001 207V175M29.0001 159L57.0001 175" stroke="black"/>
<path d="M113 175L85.0001 159L57.0001 175V207L85.0001 223L113 207V175Z" fill="#0000FF"/>
<path d="M113 175L85.0001 159L57.0001 175M113 175V207L85.0001 223M113 175L85.0001 191M85.0001 223L57.0001 207V175M85.0001 223V191M57.0001 175L85.0001 191" stroke="black"/>
<path d="M57.0001 207L29.0001 191L1.00006 207V239L29.0001 255L57.0001 239V207Z" fill="#0000FF"/>
<path d="M57.0001 207L29.0001 191L1.00006 207M57.0001 207V239L29.0001 255M57.0001 207L29.0001 223M29.0001 255L1.00006 239V207M29.0001 255V223M1.00006 207L29.0001 223" stroke="black"/>
<path d="M169 175L141 159L113 175V207L141 223L169 207V175Z" fill="white"/>
<path d="M169 175L141 159L113 175M169 175V207L141 223M169 175L141 191M141 223L113 207V175M141 223V191M113 175L141 191" stroke="black"/>
<path d="M16.2254 119.266L17.3403 120.642C18.4553 122.017 19.767 123.459 21.0787 124.834C35.1796 139.051 56.7572 147.764 74.8588 147.698L76.8919 147.633C58.2656 148.288 35.5075 139.313 20.8819 124.507C19.1767 122.738 17.6027 121.035 16.2254 119.266Z" fill="black"/>
<path d="M6.58433 102.757L7.10902 104.002C9.53568 109.439 13.4708 115.073 18.7832 120.511C38.6556 140.688 71.5795 151.17 94.0097 145.012L95.4526 144.619C72.76 151.301 38.9835 140.688 18.652 120.117C13.0117 114.418 9.01099 108.522 6.58433 102.757Z" fill="black"/>
<path d="M1.92773 87.2305L2.19007 88.4752C3.89529 97.0573 9.14212 106.294 17.865 115.139C40.8199 138.395 79.5153 150.057 104.307 141.147C106.209 140.492 107.914 139.706 109.553 138.854L110.734 138.199C108.963 139.182 106.996 140.099 104.897 140.885C79.9088 149.86 40.951 138.199 17.7994 114.746C8.81419 105.508 3.56736 96.0091 1.92773 87.2305Z" fill="black"/>
<path d="M0.747156 71.8352L0.747156 73.08C0.615985 84.086 6.38751 96.7298 18.2585 108.719C42.853 133.613 84.303 146.06 110.865 136.496C115.39 134.858 119.194 132.696 122.277 130.075L123.261 129.224C120.113 131.975 116.112 134.334 111.39 136.037C84.6965 145.667 43.0498 133.155 18.3241 108.063C6.25634 95.8782 0.41923 82.9723 0.747156 71.8352Z" fill="black"/>
<path d="M2.71475 56.7674L2.4524 58.0121C-0.367758 70.7215 5.40376 86.5099 19.9637 101.25C45.6732 127.258 88.894 140.23 116.637 130.272C123.72 127.717 129.098 123.917 132.771 119.2L133.492 118.218C129.819 123.066 124.31 127.062 117.03 129.682C89.2875 139.706 45.9356 126.669 20.2261 100.595C5.40376 85.6582 -0.302191 69.6078 2.71475 56.7674Z" fill="black"/>
<path d="M7.76482 42.4858L7.24014 43.665C1.1407 57.2915 6.32194 75.8315 23.3086 92.9956C49.346 119.331 93.2882 132.499 121.424 122.411C130.869 119.004 137.296 113.37 140.772 106.426L141.297 105.246C137.952 112.387 131.393 118.152 121.752 121.624C93.6161 131.779 49.6739 118.545 23.6365 92.144C6.5187 74.8488 1.33744 56.1778 7.76482 42.4858Z" fill="black"/>
<path d="M15.5696 29.5145L14.7826 30.5627C4.81356 44.2547 9.01104 65.022 27.8996 84.1515C53.6747 110.291 97.1578 123.328 124.966 113.304C136.575 109.046 143.658 101.447 146.019 92.2095L146.347 90.9648C144.051 100.464 136.968 108.129 125.228 112.387C97.4202 122.411 54.0682 109.374 28.3587 83.2999C9.40455 64.1048 5.27267 43.141 15.5696 29.5145Z" fill="black"/>
<path d="M25.8008 18.4429L24.8171 19.2946C10.6506 32.135 13.4052 54.6711 33.6055 75.1764C58.4624 100.333 100.371 112.911 127.13 103.216C140.641 98.3677 147.79 88.7374 148.314 77.2073L148.38 75.9625C148.052 87.6892 140.969 97.4505 127.327 102.364C100.634 111.994 58.9871 99.4814 34.1958 74.3902C13.7987 53.8195 11.2409 31.1523 25.8008 18.4429Z" fill="black"/>
<path d="M38.3932 9.533L37.2126 10.1881C18.3896 21.1942 19.1111 44.975 40.2952 66.3975C63.578 89.9818 102.864 101.774 127.983 92.7333C143.133 87.2303 149.692 75.5037 147.396 61.8116L147.199 60.5669C149.757 74.39 143.264 86.3132 127.983 91.8162C102.995 100.791 63.9715 89.1302 40.8198 65.6769C19.6357 44.1889 19.1111 20.277 38.3932 9.533Z" fill="black"/>
<path d="M53.5435 3.1129L52.1007 3.57148C51.6416 3.70251 51.1169 3.89904 50.6578 4.03007C27.7685 12.2846 26.3912 36.393 47.6409 57.881C68.8905 79.369 104.635 90.0474 127.524 81.8584C143.986 75.8968 149.298 61.7462 143.068 46.2854L142.543 45.0406C149.167 60.6325 143.986 74.9797 127.393 81.0068C104.7 89.1958 69.284 78.5173 48.2967 57.2259C27.2438 35.9345 28.6211 12.0881 51.3136 3.89904C52.0351 3.57148 52.8221 3.30943 53.5435 3.1129Z" fill="black"/>
<path d="M72.1042 0.0340103L72.0386 0.0340103L70.4646 0.0995164C66.1359 0.361564 62.0696 1.0822 58.3313 2.45795C38.2621 9.72979 37.016 30.8902 55.7078 49.7577C74.3341 68.6251 105.75 78.0589 125.819 70.787C143.658 64.3668 146.609 46.9406 133.951 29.9075L132.902 28.4662C146.216 45.6304 143.592 63.3842 125.622 69.8699C105.75 77.0107 74.7932 67.708 56.3637 49.1025C37.9342 30.4971 39.1147 9.53325 58.9871 2.39244C62.9878 0.951171 67.3821 0.230544 72.1042 0.0340103Z" fill="black"/>
<path d="M124.769 20.0151C140.116 35.5414 139.132 52.9676 122.605 58.9292C106.077 64.8908 80.1712 57.1604 64.8242 41.5686C49.4772 26.0422 50.461 8.61599 66.9885 2.65439C83.5816 -3.30721 109.422 4.48873 124.769 20.0151C124.9 20.0806 124.966 20.1461 125.097 20.2116C109.488 4.4232 83.1881 -3.50375 66.3326 2.58887C49.4772 8.6815 48.4934 26.3698 64.1027 42.2237C79.7121 58.0121 106.012 65.939 122.867 59.8464C139.723 53.7538 140.707 36.0655 125.097 20.2116C125.032 20.1461 124.9 20.0806 124.769 20.0151Z" fill="black"/>
<path d="M120.113 18.1151C132.049 30.1693 131.262 43.7303 118.407 48.3162C105.553 52.9676 85.4836 46.9404 73.547 34.8862C61.6105 22.832 62.3975 9.27101 75.2523 4.68516C88.107 -0.0317042 108.176 5.9954 120.113 18.1151C120.244 18.1806 120.375 18.1806 120.572 18.2462C108.373 5.86438 87.7791 -0.293747 74.5964 4.42312C61.4137 9.13999 60.6267 23.0285 72.8256 35.4103C85.0245 47.7921 105.618 53.9502 118.801 49.2334C131.984 44.5165 132.771 30.6279 120.572 18.2462C120.375 18.1806 120.244 18.1151 120.113 18.1151Z" fill="black"/>
<path d="M114.276 17.5257C122.408 25.7802 121.884 35.0174 113.095 38.2275C104.307 41.3721 90.5337 37.2448 82.4011 28.9903C74.2685 20.7358 74.7932 11.4986 83.5816 8.28846C92.4356 5.14388 106.143 9.20563 114.276 17.5257C114.472 17.5257 114.604 17.5257 114.8 17.5257C106.34 8.94358 92.0421 4.61978 82.9258 7.9609C73.8094 11.2365 73.2191 20.8668 81.7452 29.4489C90.2057 38.031 104.503 42.3548 113.62 39.0136C122.736 35.738 123.326 26.1078 114.8 17.5257C114.669 17.4602 114.472 17.4602 114.276 17.5257Z" fill="black"/>
<path d="M107.389 18.3119C111.521 22.5047 111.259 27.156 106.799 28.7283C102.339 30.3006 95.4525 28.2697 91.3206 24.077C87.1887 19.8842 87.4511 15.2328 91.9109 13.6605C96.3051 12.0227 103.257 14.1191 107.389 18.3119C107.586 18.2464 107.783 18.2464 107.979 18.1809C103.52 13.6605 95.9772 11.4331 91.1895 13.1364C86.4017 14.8398 86.0738 19.9497 90.5336 24.47C94.9934 28.9904 102.536 31.2178 107.323 29.5145C112.111 27.8111 112.439 22.7012 107.979 18.1809C107.783 18.2464 107.586 18.2464 107.389 18.3119Z" fill="black"/>
<path d="M99.65 20.4736C99.7812 20.4081 99.9123 20.3426 100.109 20.3426C99.9123 20.146 99.5188 20.015 99.2565 20.0805C98.9941 20.146 98.9941 20.4081 99.2565 20.6701C99.4532 20.8667 99.8467 20.9977 100.109 20.9322C100.371 20.8667 100.371 20.6046 100.109 20.3426C99.9779 20.4081 99.7812 20.4081 99.65 20.4736Z" fill="black"/>
<path d="M57.7409 123.59C61.8728 127.717 61.6105 132.368 57.1506 134.006C52.7564 135.578 45.8044 133.547 41.7381 129.355C37.6062 125.227 37.8685 120.576 42.3283 118.938C46.7882 117.366 53.6746 119.462 57.7409 123.59C57.4786 123.721 57.2818 123.852 57.0195 123.917C53.2811 120.117 46.9193 118.218 42.9186 119.659C38.8523 121.1 38.6556 125.358 42.3939 129.158C46.1323 132.958 52.4941 134.858 56.4948 133.416C60.5611 131.975 60.7578 127.717 57.0195 123.917C57.2818 123.852 57.5442 123.721 57.7409 123.59Z" fill="black"/>
<path d="M66.5949 118.742C74.7275 126.996 74.2028 136.233 65.4144 139.378C56.6259 142.523 42.9186 138.395 34.786 130.206C26.6534 121.952 27.1781 112.715 35.9665 109.57C44.755 106.36 58.4623 110.487 66.5949 118.742C66.3326 118.873 66.0702 119.069 65.8735 119.2C58.0688 111.273 44.8861 107.343 36.4912 110.356C28.0963 113.37 27.5716 122.279 35.3763 130.141C43.1809 138.068 56.3636 141.998 64.7585 138.985C73.1535 135.971 73.6781 127.062 65.8735 119.2C66.1358 119.069 66.3326 118.873 66.5949 118.742Z" fill="black"/>
<path d="M75.449 112.846C87.32 124.9 86.5985 138.395 73.7438 143.047C60.9546 147.698 40.8855 141.671 29.0145 129.617C17.1436 117.563 17.865 104.067 30.7198 99.4158C43.5089 94.7644 63.5781 100.791 75.449 112.846C75.1867 113.042 74.9899 113.173 74.7276 113.37C63.1189 101.643 43.5745 95.7471 31.1133 100.267C18.5864 104.788 17.865 117.956 29.4736 129.682C41.0822 141.409 60.6267 147.305 73.0879 142.785C85.6148 138.264 86.3362 125.096 74.7276 113.37C74.9899 113.239 75.2523 113.042 75.449 112.846Z" fill="black"/>
<path d="M84.2375 106.098C99.5845 121.624 98.6007 139.051 82.0732 145.012C65.5456 150.974 39.705 143.243 24.358 127.717C9.01098 112.191 9.99476 94.7645 26.5223 88.8029C43.0498 82.8413 68.8905 90.5718 84.2375 106.098C83.9751 106.295 83.7784 106.491 83.516 106.688C68.4314 91.4234 43.1154 83.824 26.8502 89.6546C10.585 95.4852 9.66684 112.584 24.6859 127.848C39.7705 143.112 65.0865 150.777 81.3517 144.881C97.6169 139.051 98.5351 121.952 83.516 106.688C83.7128 106.491 83.9751 106.295 84.2375 106.098Z" fill="black"/>
<path d="M16.2253 119.266C2.8459 102.102 5.46932 84.3479 23.5053 77.8622C43.3121 70.7214 74.334 80.0241 92.6979 98.6295C92.4356 98.8261 92.2388 99.0881 91.9765 99.2847C73.8093 80.8758 43.2465 71.7041 23.6365 78.7794C5.5349 85.3306 3.17383 103.412 17.2747 120.642L16.2253 119.266Z" fill="black"/>
<path d="M92.6979 98.6297C111.062 117.235 109.881 138.133 90.0745 145.274C86.0738 146.716 81.614 147.502 76.8919 147.633L74.8587 147.698C80.1055 147.698 85.0244 146.912 89.4187 145.34C109.029 138.265 110.144 117.628 92.0421 99.2848C92.2388 99.0883 92.5012 98.8262 92.6979 98.6297Z" fill="black"/>
<path d="M6.58427 102.757C-0.0398574 87.1649 5.1414 72.7522 21.6689 66.7906C44.3615 58.6016 79.712 69.2801 100.765 90.506C100.568 90.768 100.306 90.9646 100.109 91.2266C79.3185 70.1317 44.2303 59.6498 21.8001 67.7078C5.14139 73.7349 0.0913301 88.2786 7.10897 104.001L6.58427 102.757Z" fill="black"/>
<path d="M100.765 90.5717C121.752 111.863 120.441 135.709 97.7481 143.899C97.0266 144.161 96.2396 144.423 95.4526 144.619L94.0097 145.012C95.0591 144.75 96.1084 144.423 97.0922 144.03C119.588 135.972 120.9 112.322 100.109 91.2268C100.306 91.0303 100.503 90.7682 100.765 90.5717Z" fill="black"/>
<path d="M1.92773 87.2305C-0.630105 73.4075 5.86285 61.4188 21.1443 55.9813C46.1323 47.0061 85.09 58.6673 108.242 82.1206C108.045 82.3826 107.848 82.5792 107.651 82.8412C84.6965 59.5844 45.9355 47.9233 21.1443 56.8984C5.79726 62.467 -0.630105 74.5867 2.19007 88.5408L1.92773 87.2305Z" fill="black"/>
<path d="M108.176 82.0551C129.36 103.543 129.95 127.324 110.8 138.133L109.619 138.789C129.229 128.241 128.901 104.329 107.651 82.7757C107.783 82.5792 107.979 82.3172 108.176 82.0551Z" fill="black"/>
<path d="M0.7472 71.8351C1.07513 60.1084 8.15835 50.3471 21.8001 45.3682C48.4934 35.7379 90.1401 48.2507 114.866 73.3419C114.669 73.6039 114.538 73.866 114.341 74.0625C89.7466 49.1024 48.231 36.6551 21.6689 46.2199C7.83042 51.1988 0.812781 61.1566 0.68161 73.0798L0.7472 71.8351Z" fill="black"/>
<path d="M114.931 73.2765C135.263 93.8473 137.821 116.449 123.326 129.224L122.343 130.075C137.23 117.432 134.804 94.6989 114.407 73.9971C114.538 73.8006 114.735 73.5385 114.931 73.2765Z" fill="black"/>
<path d="M2.71473 56.7673C5.01021 47.268 12.0279 39.5376 23.8332 35.3448C51.5759 25.3215 94.9278 38.3584 120.637 64.4322C120.506 64.6942 120.309 64.9563 120.178 65.1528C94.5343 39.1445 51.2479 26.1732 23.5709 36.131C11.6343 40.4548 4.48553 48.3162 2.3868 58.012L2.71473 56.7673Z" fill="black"/>
<path d="M120.703 64.4323C139.657 83.6274 143.789 104.526 133.492 118.218L132.705 119.2C143.33 105.574 139.329 84.479 120.244 65.0875C120.441 64.8909 120.572 64.6289 120.703 64.4323Z" fill="black"/>
<path d="M7.76485 42.4856C11.1097 35.3448 17.6682 29.5798 27.3093 26.0421C55.4455 15.8877 99.3877 29.1212 125.425 55.5225C125.294 55.7846 125.163 55.9811 125.097 56.2432C99.0598 29.8418 55.1175 16.6739 26.9814 26.7627C17.1436 30.3004 10.5194 36.262 7.24017 43.5994L7.76485 42.4856Z" fill="black"/>
<path d="M125.425 55.5226C142.543 72.8833 147.724 91.6197 141.231 105.312L140.707 106.491C147.462 92.7989 142.346 73.866 125.097 56.3087C125.228 55.9812 125.36 55.7846 125.425 55.5226Z" fill="black"/>
<path d="M15.5695 29.5144C19.2423 24.6665 24.7515 20.6702 32.0314 18.0498C59.7741 8.0264 103.126 21.0633 128.901 47.1371C128.836 47.3337 128.77 47.5957 128.704 47.7922C102.929 21.6529 59.4461 8.616 31.6379 18.6394C24.1612 21.3254 18.5208 25.4526 14.848 30.4971L15.5695 29.5144Z" fill="black"/>
<path d="M128.835 47.0716C143.658 62.0739 149.429 78.1244 146.347 90.9647L146.019 92.2095C149.364 79.3036 143.658 62.9911 128.639 47.7923C128.704 47.5302 128.77 47.3337 128.835 47.0716Z" fill="black"/>
<path d="M25.8008 18.4429C28.9489 15.6914 32.9496 13.3984 37.6717 11.6296C64.365 1.99932 106.012 14.5121 130.803 39.6033C130.737 39.7998 130.737 39.9963 130.672 40.1929C105.815 15.0362 63.9715 2.45791 37.147 12.0882C32.1625 13.857 28.0307 16.3465 24.817 19.229L25.8008 18.4429Z" fill="black"/>
<path d="M130.803 39.6031C142.871 51.7883 148.642 64.7597 148.314 75.9623L148.249 77.207C148.774 65.8734 142.936 52.64 130.606 40.1927C130.738 39.9962 130.738 39.7996 130.803 39.6031Z" fill="black"/>
<path d="M38.3932 9.53326C40.164 8.55058 42.066 7.69893 44.1647 6.91278C69.1528 -2.06237 108.176 9.59876 131.328 33.0521C131.328 33.2486 131.328 33.3796 131.328 33.5762C108.045 9.99184 68.7593 -1.80033 43.64 7.24034C41.279 8.092 39.1802 9.07468 37.2782 10.1884L38.3932 9.53326Z" fill="black"/>
<path d="M131.262 33.052C140.247 42.1582 145.56 51.7229 147.199 60.567L147.396 61.8118C145.888 52.7711 140.575 42.9443 131.262 33.5761C131.328 33.3795 131.262 33.2485 131.262 33.052Z" fill="black"/>
<path d="M53.5435 3.11306C76.236 -3.63468 110.078 6.97828 130.41 27.5491C130.475 27.6801 130.475 27.8111 130.541 27.9421C109.75 6.91276 75.0555 -3.83123 52.1006 3.50613L53.5435 3.11306Z" fill="black"/>
<path d="M130.41 27.549C136.05 33.2486 140.116 39.2102 142.543 44.9752L143.068 46.22C140.641 40.1929 136.443 33.9692 130.541 27.9421C130.475 27.8766 130.475 27.6801 130.41 27.549Z" fill="black"/>
<path d="M72.0385 0.0339023L72.1041 0.0339023C90.7959 -0.62122 113.554 8.28842 128.245 23.2252C128.311 23.3562 128.376 23.4217 128.508 23.5527C113.292 8.15739 89.6154 -0.948782 70.53 0.164926L72.0385 0.0339023Z" fill="black"/>
<path d="M128.245 23.2252C129.951 24.994 131.525 26.7628 132.902 28.5316L133.951 29.9729C132.377 27.811 130.541 25.6491 128.442 23.5527C128.376 23.4217 128.311 23.2907 128.245 23.2252Z" fill="black"/>
</svg>
