<svg width="80" height="80" viewBox="0 0 80 80" fill="none" xmlns="http://www.w3.org/2000/svg">
<path d="M8.78234 0H0L8.78234 8.78234V0Z" fill="black"/>
<path d="M23.0239 14.2416H14.2416L23.0239 23.024V14.2416Z" fill="black"/>
<path d="M37.2656 28.4832H28.4833L37.2656 37.2656V28.4832Z" fill="black"/>
<path d="M51.5072 42.7249H42.7249L51.5072 51.5073V42.7249Z" fill="black"/>
<path d="M65.7489 56.9666H56.9666L65.7489 65.7489V56.9666Z" fill="black"/>
<path d="M79.9905 71.2081H71.2082L79.9905 80V71.2081Z" fill="black"/>
<path d="M37.2656 0H28.4833L37.2656 8.78234V0Z" fill="black"/>
<path d="M51.5072 14.2416H42.7249L51.5072 23.024V14.2416Z" fill="black"/>
<path d="M65.7489 28.4832H56.9666L65.7489 37.2656V28.4832Z" fill="black"/>
<path d="M79.9905 42.7249H71.2082L79.9905 51.5073V42.7249Z" fill="black"/>
<path d="M65.7489 0H56.9666L65.7489 8.78234V0Z" fill="black"/>
<path d="M79.9905 14.2416H71.2082L79.9905 23.024V14.2416Z" fill="black"/>
<path d="M23.0239 0H14.2416L23.0239 8.78234V0Z" fill="black"/>
<path d="M37.2751 14.2416H28.4833L37.2751 23.024V14.2416Z" fill="black"/>
<path d="M51.5072 28.4832H42.7249L51.5072 37.2656V28.4832Z" fill="black"/>
<path d="M65.7489 42.7249H56.9666L65.7489 51.5073V42.7249Z" fill="black"/>
<path d="M79.9905 56.9666H71.2082L79.9905 65.7489V56.9666Z" fill="black"/>
<path d="M51.5072 0H42.7249L51.5072 8.78234V0Z" fill="black"/>
<path d="M65.7489 14.2416H56.9666L65.7489 23.024V14.2416Z" fill="black"/>
<path d="M79.9905 28.4832H71.2082L79.9905 37.2656V28.4832Z" fill="black"/>
<path d="M80 0H71.2082L80 8.78234V0Z" fill="black"/>
</svg>
