<svg width="170" height="178" viewBox="0 0 170 178" fill="none" xmlns="http://www.w3.org/2000/svg">
<path d="M57 81L29 65L1 81V113L29 129L57 113V81Z" fill="#0000FF"/>
<path d="M57 81L29 65L1 81M57 81V113L29 129M57 81L29 97M29 129L1 113V81M29 129V97M1 81L29 97" stroke="black"/>
<path d="M57 49L29 33L1 49V81L29 97L57 81V49Z" fill="#0000FF"/>
<path d="M57 49L29 33L1 49M57 49V81L29 97M57 49L29 65M29 97L1 81V49M29 97V65M1 49L29 65" stroke="black"/>
<path d="M57 17L29 1L1 17V49L29 65L57 49V17Z" fill="#0000FF"/>
<path d="M57 17L29 1L1 17M57 17V49L29 65M57 17L29 33M29 65L1 49V17M29 65V33M1 17L29 33" stroke="black"/>
<path d="M113 113L85 97L57 113V145L85 161L113 145V113Z" fill="#0000FF"/>
<path d="M113 113L85 97L57 113M113 113V145L85 161M113 113L85 129M85 161L57 145V113M85 161V129M57 113L85 129" stroke="black"/>
<path d="M113 81L85 65L57 81V113L85 129L113 113V81Z" fill="#0000FF"/>
<path d="M113 81L85 65L57 81M113 81V113L85 129M113 81L85 97M85 129L57 113V81M85 129V97M57 81L85 97" stroke="black"/>
<path d="M113 49L85 33L57 49V81L85 97L113 81V49Z" fill="#0000FF"/>
<path d="M113 49L85 33L57 49M113 49V81L85 97M113 49L85 65M85 97L57 81V49M85 97V65M57 49L85 65" stroke="black"/>
<path d="M85 129L57 113L29 129V161L57 177L85 161V129Z" fill="#0000FF"/>
<path d="M85 129L57 113L29 129M85 129V161L57 177M85 129L57 145M57 177L29 161V129M57 177V145M29 129L57 145" stroke="black"/>
<path d="M85 97L57 81L29 97V129L57 145L85 129V97Z" fill="#0000FF"/>
<path d="M85 97L57 81L29 97M85 97V129L57 145M85 97L57 113M57 145L29 129V97M57 145V113M29 97L57 113" stroke="black"/>
<path d="M141 129L113 113L85 129V161L113 177L141 161V129Z" fill="#0000FF"/>
<path d="M141 129L113 113L85 129M141 129V161L113 177M141 129L113 145M113 177L85 161V129M113 177V145M85 129L113 145" stroke="black"/>
<path d="M141 97L113 81L85 97V129L113 145L141 129V97Z" fill="#0000FF"/>
<path d="M141 97L113 81L85 97M141 97V129L113 145M141 97L113 113M113 145L85 129V97M113 145V113M85 97L113 113" stroke="black"/>
<path d="M169 114L141 98L113 114V146L141 162L169 146V114Z" fill="black"/>
<path d="M169 114L141 98L113 114M169 114V146L141 162M169 114L141 130M141 162L113 146V114M141 162V130M113 114L141 130" stroke="#0000FF"/>
<path d="M113 113L85 97L57 113V145L85 161L113 145V113Z" fill="#0000FF"/>
<path d="M113 113L85 97L57 113M113 113V145L85 161M113 113L85 129M85 161L57 145V113M85 161V129M57 113L85 129" stroke="black"/>
<path d="M85 65L57 49L29 65V97L57 113L85 97V65Z" fill="white"/>
<path d="M85 65L57 49L29 65M85 65V97L57 113M85 65L57 81M57 113L29 97V65M57 113V81M29 65L57 81" stroke="black"/>
</svg>
