<svg width="100" height="130" viewBox="0 0 100 130" fill="none" xmlns="http://www.w3.org/2000/svg">
<path d="M99 49L70.5 33L42 49V81L70.5 97L99 81V49Z" fill="#0000FF"/>
<path d="M99 49L70.5 33L42 49M99 49V81L70.5 97M99 49L70.5 65M70.5 97L42 81V49M70.5 97V65M42 49L70.5 65" stroke="black"/>
<path d="M99 17L70.5 1L42 17V49L70.5 65L99 49V17Z" fill="white"/>
<path d="M99 17L70.5 1L42 17M99 17V49L70.5 65M99 17L70.5 33M70.5 65L42 49V17M70.5 65V33M42 17L70.5 33" stroke="black"/>
<path d="M29.7568 129L1 113.124L29.7568 65L58 113.124L29.7568 129Z" fill="white"/>
<path d="M29.7568 129L1 113.124L29.7568 65M29.7568 129L58 113.124L29.7568 65M29.7568 129V65" stroke="black"/>
</svg>
