<svg width="240" height="256" viewBox="0 0 240 256" fill="none" xmlns="http://www.w3.org/2000/svg">
<mask id="mask0" mask-type="alpha" maskUnits="userSpaceOnUse" x="0" y="0" width="368" height="368">
<path fill-rule="evenodd" clip-rule="evenodd" d="M184 368C285.62 368 368 285.62 368 184C368 82.3796 285.62 0 184 0C82.3796 0 0 82.3796 0 184C0 285.62 82.3796 368 184 368ZM184 283.797C239.116 283.797 283.797 239.116 283.797 184C283.797 128.884 239.116 84.2034 184 84.2034C128.884 84.2034 84.2033 128.884 84.2033 184C84.2033 239.116 128.884 283.797 184 283.797Z" fill="black"/>
</mask>
<g mask="url(#mask0)">
<path d="M-188.73 183.688L581.167 -260.812L586.667 -251.285L-183.23 193.215L-188.73 183.688Z" stroke="black"/>
<path d="M-176.73 204.473L593.167 -240.027L598.667 -230.501L-171.23 213.999L-176.73 204.473Z" stroke="black"/>
<path d="M-164.73 225.258L605.167 -219.242L610.667 -209.716L-159.23 234.784L-164.73 225.258Z" stroke="black"/>
<path d="M-152.73 246.042L617.167 -198.458L622.667 -188.931L-147.23 255.569L-152.73 246.042Z" stroke="black"/>
<path d="M-140.73 266.827L629.167 -177.673L634.667 -168.147L-135.23 276.353L-140.73 266.827Z" stroke="black"/>
<path d="M-128.73 287.611L641.167 -156.889L646.667 -147.362L-123.23 297.138L-128.73 287.611Z" stroke="black"/>
<path d="M-116.73 308.396L653.167 -136.104L658.667 -126.578L-111.23 317.922L-116.73 308.396Z" stroke="black"/>
<path d="M-104.73 329.181L665.167 -115.319L670.667 -105.793L-99.23 338.707L-104.73 329.181Z" stroke="black"/>
<path d="M-92.73 349.965L677.167 -94.5348L682.667 -85.0085L-87.23 359.492L-92.73 349.965Z" stroke="black"/>
<path d="M-80.73 370.75L689.167 -73.7501L694.667 -64.2238L-75.23 380.276L-80.73 370.75Z" stroke="black"/>
<path d="M-68.73 391.534L701.167 -52.9655L706.667 -43.4393L-63.23 401.061L-68.73 391.534Z" stroke="black"/>
<path d="M-56.73 412.319L713.167 -32.1809L718.667 -22.6546L-51.23 421.845L-56.73 412.319Z" stroke="black"/>
<path d="M-44.73 433.104L725.167 -11.3963L730.667 -1.87005L-39.23 442.63L-44.73 433.104Z" stroke="black"/>
<path d="M-32.73 453.888L737.167 9.38833L742.667 18.9146L-27.23 463.415L-32.73 453.888Z" stroke="black"/>
<path d="M-20.73 474.673L749.167 30.1729L754.667 39.6992L-15.23 484.199L-20.73 474.673Z" stroke="black"/>
<path d="M-8.72995 495.458L761.167 50.9575L766.667 60.4838L-3.22995 504.984L-8.72995 495.458Z" stroke="black"/>
</g>
</svg>
