<svg width="96" height="96" viewBox="0 0 96 96" fill="none" xmlns="http://www.w3.org/2000/svg">
<path d="M49.8991 4.57479C48.8517 5.62228 47.1575 5.62228 46.11 4.57479C45.0625 3.52731 45.0625 1.8331 46.11 0.785616C47.1575 -0.261872 48.8517 -0.261872 49.8991 0.785616C50.9375 1.824 50.9375 3.52731 49.8991 4.57479ZM61.2302 12.1076C60.1828 11.0601 58.4885 11.0601 57.4411 12.1076C56.3936 13.1551 56.3936 14.8493 57.4411 15.8968C58.4885 16.9443 60.1828 16.9443 61.2302 15.8968C62.2686 14.8584 62.2686 13.1551 61.2302 12.1076ZM72.5522 23.4387C71.5047 22.3912 69.8105 22.3912 68.763 23.4387C67.7155 24.4862 67.7155 26.1804 68.763 27.2279C69.8105 28.2753 71.5047 28.2753 72.5522 27.2279C73.5997 26.1804 73.5997 24.4862 72.5522 23.4387ZM83.8833 34.7697C82.8358 33.7222 81.1416 33.7222 80.0941 34.7697C79.0466 35.8172 79.0466 37.5115 80.0941 38.5589C81.1416 39.6064 82.8358 39.6064 83.8833 38.5589C84.9308 37.5115 84.9308 35.8172 83.8833 34.7697ZM95.2144 46.1008C94.1669 45.0533 92.4727 45.0533 91.4252 46.1008C90.3777 47.1483 90.3777 48.8425 91.4252 49.89C92.4727 50.9375 94.1669 50.9375 95.2144 49.89C96.2619 48.8425 96.2619 47.1483 95.2144 46.1008ZM38.5681 12.1076C37.5206 11.0601 35.8264 11.0601 34.7789 12.1076C33.7314 13.1551 33.7314 14.8493 34.7789 15.8968C35.8264 16.9443 37.5206 16.9443 38.5681 15.8968C39.6155 14.8584 39.6155 13.1551 38.5681 12.1076ZM49.8991 23.4387C48.8517 22.3912 47.1575 22.3912 46.11 23.4387C45.0625 24.4862 45.0625 26.1804 46.11 27.2279C47.1575 28.2753 48.8517 28.2753 49.8991 27.2279C50.9375 26.1804 50.9375 24.4862 49.8991 23.4387ZM61.2302 34.7697C60.1828 33.7222 58.4885 33.7222 57.4411 34.7697C56.3936 35.8172 56.3936 37.5115 57.4411 38.5589C58.4885 39.6064 60.1828 39.6064 61.2302 38.5589C62.2686 37.5115 62.2686 35.8172 61.2302 34.7697ZM72.5522 46.1008C71.5047 45.0533 69.8105 45.0533 68.763 46.1008C67.7155 47.1483 67.7155 48.8425 68.763 49.89C69.8105 50.9375 71.5047 50.9375 72.5522 49.89C73.5997 48.8425 73.5997 47.1483 72.5522 46.1008ZM83.8833 57.4319C82.8358 56.3844 81.1416 56.3844 80.0941 57.4319C79.0466 58.4794 79.0466 60.1736 80.0941 61.2211C81.1416 62.2686 82.8358 62.2686 83.8833 61.2211C84.9308 60.1736 84.9308 58.4794 83.8833 57.4319ZM27.237 23.4387C26.1895 22.3912 24.4953 22.3912 23.4478 23.4387C22.4003 24.4862 22.4003 26.1804 23.4478 27.2279C24.4953 28.2753 26.1895 28.2753 27.237 27.2279C28.2845 26.1804 28.2845 24.4862 27.237 23.4387ZM38.5681 34.7697C37.5206 33.7222 35.8264 33.7222 34.7789 34.7697C33.7314 35.8172 33.7314 37.5115 34.7789 38.5589C35.8264 39.6064 37.5206 39.6064 38.5681 38.5589C39.6155 37.5115 39.6155 35.8172 38.5681 34.7697ZM49.8991 46.1008C48.8517 45.0533 47.1575 45.0533 46.11 46.1008C45.0625 47.1483 45.0625 48.8425 46.11 49.89C47.1575 50.9375 48.8517 50.9375 49.8991 49.89C50.9375 48.8425 50.9375 47.1483 49.8991 46.1008ZM61.2302 57.4319C60.1828 56.3844 58.4885 56.3844 57.4411 57.4319C56.3936 58.4794 56.3936 60.1736 57.4411 61.2211C58.4885 62.2686 60.1828 62.2686 61.2302 61.2211C62.2686 60.1736 62.2686 58.4794 61.2302 57.4319ZM72.5522 68.763C71.5047 67.7155 69.8105 67.7155 68.763 68.763C67.7155 69.8105 67.7155 71.5047 68.763 72.5522C69.8105 73.5997 71.5047 73.5997 72.5522 72.5522C73.5997 71.5047 73.5997 69.8105 72.5522 68.763ZM15.9059 34.7697C14.8584 33.7222 13.1642 33.7222 12.1167 34.7697C11.0692 35.8172 11.0692 37.5115 12.1167 38.5589C13.1642 39.6064 14.8584 39.6064 15.9059 38.5589C16.9534 37.5115 16.9534 35.8172 15.9059 34.7697ZM27.237 46.1008C26.1895 45.0533 24.4953 45.0533 23.4478 46.1008C22.4003 47.1483 22.4003 48.8425 23.4478 49.89C24.4953 50.9375 26.1895 50.9375 27.237 49.89C28.2845 48.8425 28.2845 47.1483 27.237 46.1008ZM38.5681 57.4319C37.5206 56.3844 35.8264 56.3844 34.7789 57.4319C33.7314 58.4794 33.7314 60.1736 34.7789 61.2211C35.8264 62.2686 37.5206 62.2686 38.5681 61.2211C39.6155 60.1736 39.6155 58.4794 38.5681 57.4319ZM49.8991 68.763C48.8517 67.7155 47.1575 67.7155 46.11 68.763C45.0625 69.8105 45.0625 71.5047 46.11 72.5522C47.1575 73.5997 48.8517 73.5997 49.8991 72.5522C50.9375 71.5047 50.9375 69.8105 49.8991 68.763ZM61.2302 80.0941C60.1828 79.0466 58.4885 79.0466 57.4411 80.0941C56.3936 81.1416 56.3936 82.8358 57.4411 83.8833C58.4885 84.9308 60.1828 84.9308 61.2302 83.8833C62.2686 82.8358 62.2686 81.1416 61.2302 80.0941ZM4.57479 46.1008C3.52731 45.0533 1.8331 45.0533 0.785616 46.1008C-0.261872 47.1483 -0.261872 48.8425 0.785616 49.89C1.8331 50.9375 3.52731 50.9375 4.57479 49.89C5.62228 48.8425 5.62228 47.1483 4.57479 46.1008ZM15.9059 57.4319C14.8584 56.3844 13.1642 56.3844 12.1167 57.4319C11.0692 58.4794 11.0692 60.1736 12.1167 61.2211C13.1642 62.2686 14.8584 62.2686 15.9059 61.2211C16.9534 60.1736 16.9534 58.4794 15.9059 57.4319ZM27.237 68.763C26.1895 67.7155 24.4953 67.7155 23.4478 68.763C22.4003 69.8105 22.4003 71.5047 23.4478 72.5522C24.4953 73.5997 26.1895 73.5997 27.237 72.5522C28.2845 71.5047 28.2845 69.8105 27.237 68.763ZM38.5681 80.0941C37.5206 79.0466 35.8264 79.0466 34.7789 80.0941C33.7314 81.1416 33.7314 82.8358 34.7789 83.8833C35.8264 84.9308 37.5206 84.9308 38.5681 83.8833C39.6155 82.8358 39.6155 81.1416 38.5681 80.0941ZM49.8991 91.4252C48.8517 90.3777 47.1575 90.3777 46.11 91.4252C45.0625 92.4727 45.0625 94.1669 46.11 95.2144C47.1575 96.2619 48.8517 96.2619 49.8991 95.2144C50.9466 94.1669 50.9375 92.4727 49.8991 91.4252Z" fill="black"/>
</svg>
