<svg width="209" height="323" viewBox="0 0 209 323" fill="none" xmlns="http://www.w3.org/2000/svg">
<path d="M57 210L29 194L1 210V242L29 258L57 242V210Z" fill="#0000FF"/>
<path d="M57 210L29 194L1 210M57 210V242L29 258M57 210L29 226M29 258L1 242V210M29 258V226M1 210L29 226" stroke="black"/>
<path d="M57 178L29 162L1 178V210L29 226L57 210V178Z" fill="#0000FF"/>
<path d="M57 178L29 162L1 178M57 178V210L29 226M57 178L29 194M29 226L1 210V178M29 226V194M1 178L29 194" stroke="black"/>
<path d="M101 162L73 146L45 162V194L73 210L101 194V162Z" fill="#0000FF"/>
<path d="M101 162L73 146L45 162M101 162V194L73 210M101 162L73 178M73 210L45 194V162M73 210V178M45 162L73 178" stroke="black"/>
<path d="M57 274L29 258L1 274V306L29 322L57 306V274Z" fill="#0000FF"/>
<path d="M57 274L29 258L1 274M57 274V306L29 322M57 274L29 290M29 322L1 306V274M29 322V290M1 274L29 290" stroke="black"/>
<path d="M101 130L73 114L45 130V162L73 178L101 162V130Z" fill="#0000FF"/>
<path d="M101 130L73 114L45 130M101 130V162L73 178M101 130L73 146M73 178L45 162V130M73 178V146M45 130L73 146" stroke="black"/>
<path d="M57 146L29 130L1 146V178L29 194L57 178V146Z" fill="#0000FF"/>
<path d="M57 146L29 130L1 146M57 146V178L29 194M57 146L29 162M29 194L1 178V146M29 194V162M1 146L29 162" stroke="black"/>
<path d="M85 226L57 210L29 226V258L57 274L85 258V226Z" fill="white"/>
<path d="M85 226L57 210L29 226M85 226V258L57 274M85 226L57 242M57 274L29 258V226M57 274V242M29 226L57 242" stroke="black"/>
<path d="M57 114L29 98L1 114V146L29 162L57 146V114Z" fill="black"/>
<path d="M57 114L29 98L1 114M57 114V146L29 162M57 114L29 130M29 162L1 146V114M29 162V130M1 114L29 130" stroke="#0000FF"/>
<path d="M57 113L29 129L1 113L29 1L57 113Z" fill="white"/>
<path d="M29 129L57 113L29 1M29 129V1M29 129L1 113L29 1" stroke="black"/>
<path d="M81 131.609L81.5191 137.215L83.4915 148.842C83.4915 148.842 83.4915 148.842 83.4915 148.946L87.8516 159.638L91.7964 165.348L98.9594 175.106C98.9594 175.106 98.9594 175.106 99.0633 175.21L108.51 182.996L114.635 186.526L126.054 191.716C126.054 191.716 126.054 191.716 126.158 191.716L139.135 194C139.135 194 139.135 194 139.238 194H144.948L157.925 193.066C157.925 193.066 157.925 193.066 158.028 193.066L171.005 188.913L183.151 181.75L193.636 171.888L201.733 159.846L206.924 146.558L209 132.855C209 132.855 209 132.855 209 132.751L207.754 119.359L206.509 113.857L202.045 101.088C202.045 101.088 202.045 101.088 202.045 100.985L194.882 89.8767L190.002 84.5823L180.452 76.3812C180.452 76.3812 180.452 76.3812 180.348 76.3812L169.032 70.8792L162.285 68.3877L150.658 66C150.658 66 150.658 66 150.554 66L138.616 66.4152L132.802 67.3496L122.109 70.0487L112.04 74.9278L102.904 81.5718L95.0146 89.7729L88.6821 99.2198L84.1144 109.497L81.5191 120.605L81 131.609C81 131.505 81 131.505 81 131.609C81 131.505 81 131.609 81 131.609ZM83.4915 141.99L84.322 139.395L85.7753 135.139L87.9554 140.329L88.6821 141.99L86.9173 150.399L83.4915 141.99ZM181.697 114.273L193.532 118.425L191.352 131.921L180.867 126.834L179.621 126.315L181.697 114.273ZM181.075 102.023L192.598 104.722L193.532 117.698L181.801 113.546L181.697 112.612L181.075 102.023ZM114.635 124.757L117.438 124.238L121.487 140.329L115.569 141.264L114.635 124.757ZM114.843 141.264L110.379 140.848L109.237 140.745L111.209 124.55C111.832 124.55 112.974 124.654 113.701 124.654H113.908L114.012 125.588L114.843 141.264ZM123.355 105.864L130.933 103.891V106.59L118.476 107.006L123.355 105.864ZM118.684 106.383L130.311 100.777L130.622 101.919L130.933 103.268L118.684 106.383ZM163.115 121.955L159.793 130.156L155.848 127.976L144.948 122.058L145.26 121.436L147.647 115.726L163.634 120.916L163.115 121.955ZM164.361 121.02L178.791 126.73L174.015 138.357L160.416 130.363L161.454 127.872L164.361 121.02ZM121.487 122.474L124.082 120.709L134.255 133.789L128.753 137.526L121.487 122.474ZM128.027 137.838L122.109 140.225L118.061 124.031L120.864 122.889L121.279 123.719L128.027 137.838ZM124.705 120.294L125.224 119.775L126.989 118.01L133.425 123.408L139.654 128.599L139.238 129.014L134.775 133.478L124.705 120.294ZM127.404 117.387L129.169 114.688L135.19 117.802L143.91 122.266L140.173 127.976L127.404 117.387ZM140.277 129.014L153.253 139.706L145.986 146.869L139.55 139.187L135.19 133.997L140.277 129.014ZM140.692 128.391L141.418 127.353L144.637 122.577L154.603 128.079L159.482 130.779L158.028 132.959L153.772 139.291L140.692 128.391ZM147.128 114.584L131.037 110.328L131.245 109.29L131.66 107.317L148.374 108.148L147.128 114.584ZM135.501 112.3L146.921 115.311L144.325 121.539L129.584 113.961L130.83 111.054L135.501 112.3ZM130.933 107.421L130.311 110.224L118.372 107.836L130.933 107.421ZM130.103 110.951L129.376 112.612L128.961 113.753L118.061 108.563L130.103 110.951ZM123.251 111.885L128.546 114.376L126.885 116.868L117.646 109.082L123.251 111.885ZM122.94 114.584L126.366 117.491L126.054 117.802L124.186 119.671L117.127 109.705L122.94 114.584ZM123.667 120.19L123.251 120.501L121.175 121.955L116.607 110.431L123.667 120.19ZM120.552 122.162L117.957 123.304L115.985 110.847L120.552 122.162ZM121.694 141.056L127.092 156.42L121.071 157.251L118.372 157.562L115.777 141.99L121.694 141.056ZM122.421 140.848L128.442 138.461L136.539 152.994L130.207 155.382L127.715 156.316L122.421 140.848ZM129.065 138.149L134.671 134.412L145.467 147.388L137.162 152.683L129.065 138.149ZM137.993 153.098L145.986 147.908L149.516 151.852L156.471 159.534L145.986 166.075L137.681 153.306L137.993 153.098ZM146.505 147.388L153.876 140.225L160.312 145.52L166.126 150.295L159.897 156.316L156.99 159.119L146.505 147.388ZM154.291 139.706L160.105 131.09L167.475 135.45L173.704 139.084L166.541 149.672L154.291 139.706ZM174.327 139.395L185.539 146.454L177.441 158.393L167.164 150.088L174.327 139.395ZM174.638 138.772L179.414 127.041L190.418 132.336L191.144 132.647L185.85 145.831L174.638 138.772ZM178.998 126.003L164.569 120.294L166.333 110.639L181.075 114.065L178.998 126.003ZM149.101 108.355L165.503 110.535L163.738 120.086L147.751 114.895L149.101 108.355ZM148.997 101.296L165.191 100.673L165.607 109.809L161.973 109.29L149.204 107.525L148.997 101.296ZM143.079 107.213L131.764 106.59V103.684L148.27 101.296L148.478 107.525L143.079 107.213ZM131.66 103.061L131.349 101.815L131.037 100.466L144.429 95.8978L146.713 95.1711L147.232 97.1436L148.27 100.777L131.66 103.061ZM130.726 99.7388L129.48 97.455L142.041 90.4996L143.599 89.6691L144.948 92.0568L146.298 94.4444L130.726 99.7388ZM129.999 99.9465L118.476 105.552L128.857 97.8702L129.999 99.9465ZM118.165 104.929L121.798 101.088L126.885 95.5864L128.442 97.2474L118.165 104.929ZM121.798 99.8427L117.646 104.41L124.29 94.0292L126.262 95.1711L121.798 99.8427ZM116.919 104.099L121.279 93.0949L123.563 93.7178L116.919 104.099ZM118.995 97.0397L116.192 104.099L118.165 92.9911C118.476 92.9911 118.891 92.9911 119.307 92.9911H120.656L118.995 97.0397ZM115.362 104.307L115.154 99.9465L114.843 93.7178L115.777 93.5101L117.23 93.1987L115.362 104.307ZM115.258 111.885V111.158L117.127 123.512L114.531 124.031L115.258 111.885ZM111.728 95.0673L114.22 94.0292L114.635 101.919L114.739 104.722L111.728 95.0673ZM113.908 124.031L111.417 123.927L114.531 111.47L113.908 124.031ZM111.521 120.709L110.794 123.719L108.51 122.993L112.87 113.546L113.908 111.366L111.521 120.709ZM107.783 122.681L105.915 121.332L113.078 111.054L107.783 122.681ZM105.396 120.916L103.942 119.152L112.559 110.743L105.396 120.916ZM112.144 110.016L103.527 118.529L103.008 117.283L102.593 116.349L112.144 110.016ZM102.281 115.622L101.762 113.234L108.822 110.431L111.936 109.186L102.281 115.622ZM101.97 109.082L102.489 107.006L102.593 106.487L112.351 107.629L101.97 109.082ZM112.04 108.459L101.762 112.508V111.677V109.912L112.04 108.459ZM101.97 116.868L102.593 118.217L103.008 119.152L96.1565 128.287L94.7032 130.26L92.6269 125.484L101.97 116.868ZM103.423 119.671L104.981 121.539L98.2328 134.827L95.0146 130.882L103.423 119.671ZM99.6861 133.685L105.5 122.058L107.472 123.408L102.904 138.461L98.7518 135.45L99.6861 133.685ZM103.423 139.499L108.51 141.367L108.614 156.42L101.347 153.513L103.423 139.499ZM108.51 140.641L103.527 138.772L104.877 134.308L108.199 123.616L110.586 124.446L108.51 140.641ZM114.946 142.094L117.542 157.666L115.881 157.354L109.341 156.524L109.237 141.471L114.946 142.094ZM111.002 157.562L117.749 158.393L118.891 162.13L121.798 171.68L111.521 170.227L110.586 164.621L109.444 157.354C109.756 157.354 110.275 157.458 111.002 157.562ZM118.476 158.289L124.497 157.562L127.3 157.147L130.622 164.31L133.425 170.539L122.525 171.68L118.476 158.289ZM128.027 156.939L131.868 155.486L136.955 153.617L139.342 157.251L145.363 166.386L134.255 170.331L128.027 156.939ZM145.675 167.009L153.461 176.975L140.899 181.231L136.124 173.549L134.567 170.954L145.675 167.009ZM146.401 166.697L150.969 163.895L156.99 160.157L159.586 162.856L166.126 169.5L154.291 176.767L146.401 166.697ZM159.274 161.507L157.406 159.638L166.645 150.71L176.922 159.119L166.541 169.085L159.274 161.507ZM177.545 159.534L185.227 165.659L180.659 170.019L174.327 176.041L171.628 173.653L167.06 169.5L177.545 159.534ZM177.96 158.912L186.058 146.869L194.051 152.579L185.539 165.14L177.96 158.912ZM186.473 146.247L189.483 138.772L191.767 132.959L199.968 138.045L199.242 139.914L194.57 151.852L186.473 146.247ZM166.333 109.912L165.918 100.673C166.333 100.673 167.164 100.777 168.202 100.881L180.348 101.919L181.075 113.338L166.333 109.912ZM177.234 100.881L165.814 99.9465L163.323 91.6415L169.24 91.3301L176.818 90.9148L180.14 101.192L177.234 100.881ZM164.049 96.6245L164.984 99.8427L148.789 100.466L147.44 95.1711L147.336 94.8597L162.596 91.7453L164.049 96.6245ZM147.024 94.133L144.221 89.2539L157.925 84.0633L161.143 89.2539L162.181 90.9148L147.024 94.133ZM143.806 88.631L139.965 84.8938L151.696 78.146L157.406 83.4404L143.806 88.631ZM143.079 89.0462L129.065 96.8321L128.546 96.3131L127.404 95.0673L136.539 87.6967L139.446 85.309L143.079 89.0462ZM136.332 86.8662L126.781 94.6521L124.705 93.4063L134.152 82.5061L136.539 83.8556L138.616 84.9976L136.332 86.8662ZM123.978 93.0949L123.459 92.9911L121.694 92.472L128.442 81.0527L133.529 82.2985L123.978 93.0949ZM121.175 91.8491L120.864 92.2644H118.372L122.213 81.0527H122.525L127.508 80.9489L121.175 91.8491ZM117.542 92.3682L114.946 92.9911L115.777 84.7899L115.985 82.5061L121.383 81.1565L117.542 92.3682ZM114.531 89.2539L114.22 93.1987L111.624 94.3406L110.067 85.309L115.258 82.8175L114.531 89.2539ZM114.012 105.137L111.313 100.881L108.822 97.1436L110.586 95.8978L111.002 95.5864L114.012 105.137ZM112.559 104.307L113.493 105.76L106.33 99.635L108.199 97.6626L108.303 97.5588L112.559 104.307ZM113.078 106.279L108.199 104.203L104.254 102.542L105.915 100.258L113.078 106.279ZM112.663 106.902L102.8 105.76L103.942 103.165L112.663 106.902ZM102.593 104.41L101.97 105.76H96.5718H93.2498L95.0146 101.711L95.6375 100.258L103.216 102.957L102.593 104.41ZM101.866 106.487L101.243 109.29L91.7964 112.092L92.3155 110.12L93.146 106.487H101.866ZM101.139 110.12V112.092V112.923L91.3812 118.425L91.485 116.349L91.5888 112.923L101.139 110.12ZM95.4298 116.868L101.139 113.546L101.347 114.584L101.659 116.037L92.3155 124.55L91.3812 119.359L95.4298 116.868ZM93.8727 130.26L94.1841 130.882L91.2774 136.592L89.0973 141.056L86.1906 134.101L92.0041 126.003L93.8727 130.26ZM94.5994 131.505L97.8175 135.554L94.9108 144.689L93.9765 147.7L89.4088 141.783L94.5994 131.505ZM94.4955 149.257L100.517 153.825L100.932 165.452L93.5612 159.638L93.9765 155.071L94.4955 149.257ZM100.62 152.994L94.5994 148.427L97.7137 138.461L98.4404 136.177L102.178 138.876L102.697 139.291L101.036 150.503L100.62 152.994ZM108.614 157.147L109.652 163.479L110.69 169.812L101.659 165.971L101.451 160.573L101.243 154.24L108.614 157.147ZM110.794 170.746L114.324 180.193L104.358 175.729L101.866 166.905L110.794 170.746ZM111.728 170.954L122.006 172.407L126.885 182.477L115.362 180.608L114.946 179.466L111.728 170.954ZM122.732 172.407L133.736 171.265L140.069 181.543L127.612 182.685L122.732 172.407ZM133.84 182.685L140.588 182.062L142.664 184.345L146.505 188.706L133.529 189.744L128.234 183.204L133.84 182.685ZM141.418 181.854L153.98 177.598L160.52 184.242L147.336 188.602L141.418 181.854ZM158.651 181.335L154.706 177.286L166.645 170.019L173.081 175.833L173.808 176.56L161.35 184.138L158.651 181.335ZM174.327 176.975L179.206 180.401L166.956 187.771L161.973 184.449L174.327 176.975ZM174.95 176.456L185.85 166.075L190.625 169.812L179.933 179.985L174.95 176.456ZM186.265 165.556L194.778 152.994L199.345 156.939L198.93 157.562L191.041 169.293L186.265 165.556ZM195.089 152.371L200.591 138.564L205.055 142.717L204.744 143.444L199.657 156.316L195.089 152.371ZM200.903 137.838L202.979 123.719L207.235 127.976L205.159 141.783L200.903 137.838ZM200.176 137.319L191.975 132.232L194.155 118.633L202.356 123.097L200.176 137.319ZM194.259 117.906L193.324 105.033L201.214 108.874L202.045 118.425L202.356 122.37L194.259 117.906ZM196.127 105.552L193.117 104.099L191.041 97.974L189.276 92.6796L196.75 95.8978L198.826 101.919L200.903 107.836L196.127 105.552ZM189.483 95.3787L192.39 103.891L191.56 103.684L181.075 101.192L177.649 90.9148L188.445 92.3682L189.483 95.3787ZM177.649 90.1882H177.337L171.835 81.5718L181.594 81.987L182.736 83.7518L187.926 91.5377L177.649 90.1882ZM176.507 90.0843L170.693 90.3958L163.011 90.9148L158.755 83.9594L161.454 83.4404L171.005 81.6756L176.507 90.0843ZM158.236 83.2328L153.461 78.7689L152.526 77.9384L163.115 74.5126L170.382 80.9489L158.236 83.2328ZM151.8 77.3155L145.052 73.8897L153.772 69.841L162.181 73.9935L151.8 77.3155ZM148.166 76.2774L150.969 77.7307L139.342 84.3747L134.775 81.8832L144.325 74.3049L148.166 76.2774ZM134.048 81.5718L128.961 80.326L130.622 78.4574L136.02 72.4363L143.495 73.9935L134.048 81.5718ZM129.376 78.7689L128.027 80.2222L122.629 80.326L127.3 72.644L130.933 72.5401L134.982 72.4363L129.376 78.7689ZM123.044 78.2498L121.798 80.326L116.296 81.6756L118.684 74.824L126.366 72.8516L123.044 78.2498ZM116.607 78.4574L115.362 81.8832L113.805 82.6099L110.067 84.4785L110.379 78.7689L117.749 75.2393L116.607 78.4574ZM110.898 94.7559L108.822 96.3131L108.51 96.5207L104.565 89.2539L107.368 87.1776L109.341 85.7242L110.898 94.7559ZM107.887 96.9359L105.707 99.116L103.112 96.8321L99.8938 94.0292L104.046 89.6691L107.887 96.9359ZM105.292 99.7388L104.565 100.777L103.527 102.334L95.9489 99.635L98.2328 96.2092L99.2709 94.6521L105.292 99.7388ZM96.6756 97.3512L95.326 99.4274L93.2498 99.0122L91.2774 98.5969L96.0527 91.5377L98.9594 94.133L96.6756 97.3512ZM94.9108 100.154L92.4193 105.76L87.3325 106.902L90.7583 99.2198L94.9108 100.154ZM92.2117 106.59L90.8621 112.404L85.1525 115.726L86.1906 111.158L87.0211 107.732L92.2117 106.59ZM90.7583 113.338L90.6545 118.944L90.1354 119.463L84.7372 124.55L85.0487 116.66L90.7583 113.338ZM90.7583 119.878L91.6926 125.173L85.983 133.062L84.6334 125.484L90.7583 119.878ZM84.2182 148.53L83.8029 144.482L86.8135 151.645L87.5401 156.42L84.2182 148.53ZM89.3049 142.717L93.8727 148.634L93.7689 149.672L92.9384 158.704L89.3049 154.032L87.4363 151.541L89.3049 142.717ZM92.5231 164.621L88.5783 159.223L87.644 152.994L92.8345 160.054L94.2879 167.217L92.5231 164.621ZM94.3917 163.895L93.7689 160.78L97.9213 164.102L100.932 166.49L103.32 175.002L99.2709 171.784L95.2222 168.566L94.3917 163.895ZM99.5823 174.691L96.7794 170.642L103.839 176.352L103.942 176.456L106.953 180.712L99.5823 174.691ZM109.029 182.373L105.188 176.871L105.5 176.975L114.946 181.127L119.307 186.837L109.029 182.373ZM115.881 181.439L125.12 182.892L127.3 183.204L129.688 186.214L132.387 189.64L120.448 187.564L115.881 181.439ZM126.47 190.989L122.213 188.602L133.114 190.47L137.266 192.962L126.47 190.989ZM144.429 192.858L139.342 193.273L134.463 190.367L141.938 189.744L147.024 189.328L151.8 192.235L144.429 192.858ZM148.062 189.121L157.094 186.214L161.143 184.865L166.022 188.083L157.821 190.678L153.045 192.235L148.062 189.121ZM157.925 192.339L155.225 192.235L166.022 188.706L166.852 188.394L169.032 188.602L157.925 192.339ZM170.901 188.187H170.797L168.098 187.875L173.704 184.553L180.036 180.816H180.14L182.32 181.439L170.901 188.187ZM182.943 181.024L180.556 180.297L190.106 171.161L191.041 170.227L191.56 170.539L192.805 171.473L182.943 181.024ZM193.428 170.954L192.079 170.019L191.663 169.708L199.865 157.562L201.214 159.534L193.428 170.954ZM201.526 158.704L200.28 156.835L205.47 143.651V143.755L206.405 146.247L201.526 158.704ZM206.716 144.793L205.886 142.613L207.858 129.74L208.585 132.543L206.716 144.793ZM207.339 119.255L208.17 128.183L208.066 127.872L207.235 118.944L207.339 119.255ZM206.197 115.207L207.235 126.834L206.612 126.211L203.083 122.785L202.252 112.404L202.045 109.601L204.121 111.781L206.093 113.857L206.197 115.207ZM205.574 112.196L201.941 108.355L200.072 102.853L198.1 97.0397L201.733 100.881L205.574 112.196ZM194.259 90.292L198.93 97.1436L197.269 95.3787L192.598 88.5272L194.259 90.292ZM189.483 85.1014L189.795 85.6204L196.024 94.7559L188.964 91.6415L183.358 83.2328L182.736 82.4023L188.964 84.8938L189.483 85.1014ZM179.933 76.9002L187.822 83.648L182.009 81.3642L174.534 74.9278L179.933 76.9002ZM180.763 81.2603L172.458 80.8451H171.316L167.475 77.4193L164.153 74.4088L172.666 74.2011L180.763 81.2603ZM171.212 73.4745L163.219 73.6821L161.35 72.7478L155.018 69.6334L155.745 69.5296L161.973 68.9067L171.212 73.4745ZM150.554 66.7267L159.586 68.4915L153.772 69.1144L145.571 67.4534L150.554 66.7267ZM150.865 69.2182L152.63 69.6334L144.221 73.5783L136.851 72.0211L143.599 67.8686L150.865 69.2182ZM132.906 68.0762H134.048L142.041 67.7648L135.709 71.7097L129.584 71.9173H128.131L132.906 68.0762ZM122.006 71.0868L122.317 70.6715L131.141 68.3877L126.781 71.8135L119.307 73.6821L122.006 71.0868ZM112.351 75.6545L120.552 71.7097L118.165 74.3049L111.105 77.6269L112.351 75.6545ZM103.423 82.1946L110.69 76.7964L110.483 77.0041L109.652 78.146L103.008 83.0251L103.423 82.1946ZM109.548 79.2879L109.444 80.326L109.133 84.8938L104.15 88.5272L102.8 84.1671L109.548 79.2879ZM103.423 88.2157L103.631 88.9424L100.517 92.1606L99.2709 93.5101L96.8832 91.3301L96.3642 90.9148L102.281 84.7899L103.423 88.2157ZM102.281 83.3366L102.178 83.648L102.074 83.8556L95.8451 90.3958L95.7413 90.1882L102.281 83.3366ZM95.2222 90.811L95.326 90.9148L90.3431 98.5969L90.0316 98.8045L95.2222 90.811ZM89.2011 99.9465L89.824 99.635L86.502 107.317L85.5677 108.251L89.2011 99.9465ZM84.7372 110.12L86.0868 108.667L84.322 116.245L82.661 118.736L84.7372 110.12ZM82.1419 120.813L83.9067 118.114L84.2182 117.698L83.9067 125.277L83.0762 127.145L81.8305 129.74L82.1419 120.813ZM84.1144 126.626L85.3601 133.997L83.18 140.433L81.7267 131.609L84.1144 126.626Z" fill="black"/>
</svg>
