<svg width="161" height="160" viewBox="0 0 161 160" fill="none" xmlns="http://www.w3.org/2000/svg">
<path d="M18.0647 0H0.5L18.0647 17.5647V0Z" fill="black"/>
<path d="M46.5479 28.4832H28.9832L46.5479 46.0478V28.4832Z" fill="black"/>
<path d="M75.0312 56.9666H57.4666L75.0312 74.5312V56.9666Z" fill="black"/>
<path d="M103.514 85.45H85.9498L103.514 103.015V85.45Z" fill="black"/>
<path d="M131.998 113.933H114.433L131.998 131.498V113.933Z" fill="black"/>
<path d="M160.481 142.416H142.916L160.481 160V142.416Z" fill="black"/>
<path d="M75.0312 0H57.4666L75.0312 17.5647V0Z" fill="black"/>
<path d="M103.514 28.4832H85.9498L103.514 46.0478V28.4832Z" fill="black"/>
<path d="M131.998 56.9666H114.433L131.998 74.5312V56.9666Z" fill="black"/>
<path d="M160.481 85.45H142.916L160.481 103.015V85.45Z" fill="black"/>
<path d="M131.998 0H114.433L131.998 17.5647V0Z" fill="black"/>
<path d="M160.481 28.4832H142.916L160.481 46.0478V28.4832Z" fill="black"/>
<path d="M46.5479 0H28.9832L46.5479 17.5647V0Z" fill="black"/>
<path d="M75.0502 28.4832H57.4666L75.0502 46.0478V28.4832Z" fill="black"/>
<path d="M103.514 56.9666H85.9498L103.514 74.5312V56.9666Z" fill="black"/>
<path d="M131.998 85.45H114.433L131.998 103.015V85.45Z" fill="black"/>
<path d="M160.481 113.933H142.916L160.481 131.498V113.933Z" fill="black"/>
<path d="M103.514 0H85.9498L103.514 17.5647V0Z" fill="black"/>
<path d="M131.998 28.4832H114.433L131.998 46.0478V28.4832Z" fill="black"/>
<path d="M160.481 56.9666H142.916L160.481 74.5312V56.9666Z" fill="black"/>
<path d="M160.5 0H142.916L160.5 17.5647V0Z" fill="black"/>
</svg>
