<svg width="93" height="168" viewBox="0 0 93 168" fill="none" xmlns="http://www.w3.org/2000/svg">
<path d="M6.27712e-06 8L16 8M8 16L8 -1.22711e-07L8 16Z" stroke="black" stroke-width="2" stroke-miterlimit="10"/>
<path d="M38.3845 8L54.3845 8M46.3845 16L46.3845 -1.22712e-07L46.3845 16Z" stroke="black" stroke-width="2" stroke-miterlimit="10"/>
<path d="M76.5385 8L92.5385 8M84.5385 16L84.5385 -1.69713e-07L84.5385 16Z" stroke="black" stroke-width="2" stroke-miterlimit="10"/>
<path d="M6.27711e-06 45.8948L16 45.8948M8 53.8948L8 37.8948L8 53.8948Z" stroke="black" stroke-width="2" stroke-miterlimit="10"/>
<path d="M38.3845 45.8948L54.3845 45.8948M46.3845 53.8948L46.3845 37.8948L46.3845 53.8948Z" stroke="black" stroke-width="2" stroke-miterlimit="10"/>
<path d="M76.5385 45.8948L92.5385 45.8948M84.5385 53.8948L84.5385 37.8948L84.5385 53.8948Z" stroke="black" stroke-width="2" stroke-miterlimit="10"/>
<path d="M38.3845 83.7893L54.3845 83.7893M46.3845 91.7893L46.3845 75.7893L46.3845 91.7893Z" stroke="black" stroke-width="2" stroke-miterlimit="10"/>
<path d="M76.5385 83.7893L92.5385 83.7893M84.5385 91.7893L84.5385 75.7893L84.5385 91.7893Z" stroke="black" stroke-width="2" stroke-miterlimit="10"/>
<path d="M38.3845 121.684L54.3845 121.684M46.3845 129.684L46.3845 113.684L46.3845 129.684Z" stroke="black" stroke-width="2" stroke-miterlimit="10"/>
<path d="M76.5385 121.684L92.5385 121.684M84.5385 129.684L84.5385 113.684L84.5385 129.684Z" stroke="black" stroke-width="2" stroke-miterlimit="10"/>
<path d="M38.3845 159.579L54.3845 159.579M46.3845 167.579L46.3845 151.579L46.3845 167.579Z" stroke="black" stroke-width="2" stroke-miterlimit="10"/>
<path d="M76.5385 159.579L92.5385 159.579M84.5385 167.579L84.5385 151.579L84.5385 167.579Z" stroke="black" stroke-width="2" stroke-miterlimit="10"/>
</svg>
