<svg width="32" height="34" viewBox="0 0 32 34" fill="none" xmlns="http://www.w3.org/2000/svg">
<path d="M9.4707 12.6537V21.5396L16.0589 24.6278L22.6472 21.5396V12.6537L16.0589 9.35962L9.4707 12.6537ZM15.1178 11.9347V17.3755L11.3531 19.3755V13.817L15.1178 11.9347ZM12.5171 20.8887L16.0589 19.007L19.6008 20.8886L16.0589 22.5489L12.5171 20.8887ZM20.7648 19.3755L17.0001 17.3755V11.9347L20.7648 13.817V19.3755Z" fill="white" stroke="white" stroke-width="1.00392"/>
<path d="M31.1176 13.2353V6.64706H27.3529V1H4.76471V6.64706H1V13.2353H2.88235V8.52941H4.76471V25.4706H2.88235V20.7647H1V27.3529H4.76471V33H27.3529V27.3529H31.1176V20.7647H29.2353V25.4706H27.3529V8.52941H29.2353V13.2353H31.1176ZM25.4706 25.4706H23.5882V27.3529H25.4706V31.1176H6.64706V27.3529H8.52941V25.4706H6.64706V8.52941H8.52941V6.64706H6.64706V2.88235H25.4706V6.64706H23.5882V8.52941H25.4706V25.4706Z" fill="white" stroke="white" stroke-width="1.00392"/>
<path d="M14.1768 27.353H17.9415V29.2354H14.1768V27.353Z" fill="white" stroke="white" stroke-width="1.00392"/>
<path d="M15.1172 4.76465H16.9995V6.647H15.1172V4.76465Z" fill="white" stroke="white" stroke-width="1.00392"/>
</svg>
