<svg width="14" height="10" viewBox="0 0 14 10" fill="none" xmlns="http://www.w3.org/2000/svg">
<rect x="14" y="6" width="14" height="2" transform="rotate(-180 14 6)" fill="white"/>
<rect x="13" y="7" width="2" height="2" transform="rotate(-180 13 7)" fill="white"/>
<rect x="12" y="8" width="2" height="2" transform="rotate(-180 12 8)" fill="white"/>
<rect x="11" y="9" width="2" height="2" transform="rotate(-180 11 9)" fill="white"/>
<rect x="10" y="10" width="2" height="2" transform="rotate(-180 10 10)" fill="white"/>
<rect x="11" y="5" width="2" height="2" transform="rotate(-90 11 5)" fill="white"/>
<rect x="10" y="4" width="2" height="2" transform="rotate(-90 10 4)" fill="white"/>
<rect x="9" y="3" width="2" height="2" transform="rotate(-90 9 3)" fill="white"/>
<rect x="8" y="2" width="2" height="2" transform="rotate(-90 8 2)" fill="white"/>
</svg>
