<svg width="16" height="16" viewBox="0 0 16 16" fill="none" xmlns="http://www.w3.org/2000/svg">
<rect x="7" y="12" width="2" height="2" transform="rotate(-90 7 12)" fill="#0000FF"/>
<rect x="6" y="11" width="2" height="2" transform="rotate(-90 6 11)" fill="#0000FF"/>
<rect x="5" y="10" width="2" height="2" transform="rotate(-90 5 10)" fill="#0000FF"/>
<rect x="4" y="9" width="2" height="2" transform="rotate(-90 4 9)" fill="#0000FF"/>
<rect x="3" y="8" width="2" height="2" transform="rotate(-90 3 8)" fill="#0000FF"/>
<rect x="2" y="7" width="2" height="2" transform="rotate(-90 2 7)" fill="#0000FF"/>
<rect x="8" y="9" width="2" height="2" fill="#0000FF"/>
<rect x="9" y="8" width="2" height="2" fill="#0000FF"/>
<rect x="10" y="7" width="2" height="2" fill="#0000FF"/>
<rect x="11" y="6" width="2" height="2" fill="#0000FF"/>
<rect x="12" y="5" width="2" height="2" fill="#0000FF"/>
</svg>
