<svg width="743" height="179" viewBox="0 0 743 179" fill="none" xmlns="http://www.w3.org/2000/svg">
<mask id="path-1-inside-1" fill="white">
<path d="M84.77 178.448C84.0085 178.448 83.2491 178.438 82.4916 178.419C76.6721 178.272 70.9715 177.56 65.39 176.282C59.158 174.762 54.028 172.748 50 170.24L58.664 150.632C62.464 152.836 66.72 154.622 71.432 155.99C76.144 157.282 80.666 157.928 84.998 157.928C88.722 157.928 91.382 157.586 92.978 156.902C94.574 156.142 95.372 155.04 95.372 153.596C95.372 151.924 94.308 150.67 92.18 149.834C90.128 148.998 86.708 148.086 81.92 147.098C75.764 145.806 70.634 144.438 66.53 142.994C62.426 141.474 58.854 139.042 55.814 135.698C52.774 132.278 51.254 127.68 51.254 121.904C51.254 116.888 52.66 112.328 55.472 108.224C58.284 104.12 62.464 100.89 68.012 98.534C73.636 96.178 80.438 95 88.418 95C89.0273 95 89.6351 95.0075 90.2416 95.0226C95.0817 95.1429 99.8319 95.7434 104.492 96.824C109.812 97.964 114.486 99.674 118.514 101.954L110.42 121.448C102.592 117.496 95.182 115.52 88.19 115.52C81.274 115.52 77.816 117.192 77.816 120.536C77.816 122.132 78.842 123.348 80.894 124.184C82.946 124.944 86.328 125.78 91.04 126.692C97.12 127.832 102.25 129.162 106.43 130.682C110.61 132.126 114.22 134.52 117.26 137.864C120.376 141.208 121.934 145.768 121.934 151.544C121.934 156.56 120.528 161.12 117.716 165.224C114.904 169.252 110.686 172.482 105.062 174.914C99.514 177.27 92.75 178.448 84.77 178.448Z"/>
<path d="M149.149 96.824C158.753 96.824 168.358 96.824 168.358 96.824C175.73 96.824 182.152 98.04 187.624 100.472C193.096 102.904 197.314 106.4 200.278 110.96C203.242 115.52 204.724 120.84 204.724 126.92C204.724 133 203.242 138.32 200.278 142.88C197.314 147.44 193.096 150.936 187.624 153.368C182.152 155.8 175.73 157.016 168.358 157.016C168.358 157.016 165.479 157.016 162.601 157.016C159.722 157.016 156.844 157.016 156.844 157.016V176.624C156.844 176.624 150.118 176.624 143.392 176.624C136.666 176.624 129.94 176.624 129.94 176.624V96.824C129.94 96.824 139.544 96.824 149.149 96.824ZM161.746 136.268C164.197 136.268 166.648 136.268 166.648 136.268C170.296 136.268 173.032 135.47 174.856 133.874C176.68 132.202 177.592 129.884 177.592 126.92C177.592 123.956 176.68 121.676 174.856 120.08C173.032 118.408 170.296 117.572 166.648 117.572C166.648 117.572 164.197 117.572 161.746 117.572C159.295 117.572 156.844 117.572 156.844 117.572V136.268C156.844 136.268 159.295 136.268 161.746 136.268Z"/>
<path d="M263.917 162.716C263.917 162.716 256.336 162.716 248.755 162.716C241.174 162.716 233.593 162.716 233.593 162.716L228.235 176.624C228.235 176.624 221.395 176.624 214.555 176.624C207.715 176.624 200.875 176.624 200.875 176.624L235.759 96.824C235.759 96.824 242.371 96.824 248.983 96.824C255.595 96.824 262.207 96.824 262.207 96.824L297.091 176.624C297.091 176.624 290.137 176.624 283.183 176.624C276.229 176.624 269.275 176.624 269.275 176.624L263.917 162.716ZM248.755 143.336C252.631 143.336 256.507 143.336 256.507 143.336L248.755 123.272L241.003 143.336C241.003 143.336 244.879 143.336 248.755 143.336Z"/>
<path d="M341.54 178.448C333.104 178.448 325.504 176.7 318.74 173.204C311.976 169.632 306.656 164.692 302.78 158.384C298.98 152 297.08 144.78 297.08 136.724C297.08 128.668 298.98 121.486 302.78 115.178C306.656 108.794 311.976 103.854 318.74 100.358C325.504 96.786 333.104 95 341.54 95C349.292 95 356.208 96.368 362.288 99.104C368.368 101.84 373.384 105.792 377.336 110.96L360.35 126.122C355.41 119.89 349.596 116.774 342.908 116.774C337.284 116.774 332.762 118.598 329.342 122.246C325.922 125.818 324.212 130.644 324.212 136.724C324.212 142.804 325.922 147.668 329.342 151.316C332.762 154.888 337.284 156.674 342.908 156.674C349.596 156.674 355.41 153.558 360.35 147.326L377.336 162.488C373.384 167.656 368.368 171.608 362.288 174.344C356.208 177.08 349.292 178.448 341.54 178.448Z"/>
<path d="M431.502 156.332C441.477 156.332 451.452 156.332 451.452 156.332V176.624C451.452 176.624 434.865 176.624 418.278 176.624C401.691 176.624 385.104 176.624 385.104 176.624V96.824C385.104 96.824 401.32 96.824 417.537 96.824C433.753 96.824 449.97 96.824 449.97 96.824V117.116C449.97 117.116 440.365 117.116 430.761 117.116C421.156 117.116 411.552 117.116 411.552 117.116V126.464C411.552 126.464 419.988 126.464 428.424 126.464C436.86 126.464 445.296 126.464 445.296 126.464V145.844C445.296 145.844 436.86 145.844 428.424 145.844C419.988 145.844 411.552 145.844 411.552 145.844V156.332C411.552 156.332 421.527 156.332 431.502 156.332Z"/>
<path d="M491.563 178.448C490.802 178.448 490.042 178.438 489.285 178.419C483.465 178.272 477.765 177.56 472.183 176.282C465.951 174.762 460.821 172.748 456.793 170.24L465.457 150.632C469.257 152.836 473.513 154.622 478.225 155.99C482.937 157.282 487.459 157.928 491.791 157.928C495.515 157.928 498.175 157.586 499.771 156.902C501.367 156.142 502.165 155.04 502.165 153.596C502.165 151.924 501.101 150.67 498.973 149.834C496.921 148.998 493.501 148.086 488.713 147.098C482.557 145.806 477.427 144.438 473.323 142.994C469.219 141.474 465.647 139.042 462.607 135.698C459.567 132.278 458.047 127.68 458.047 121.904C458.047 116.888 459.453 112.328 462.265 108.224C465.077 104.12 469.257 100.89 474.805 98.534C480.429 96.178 487.231 95 495.211 95C495.82 95 496.428 95.0075 497.035 95.0226C501.875 95.1429 506.625 95.7434 511.285 96.824C516.605 97.964 521.279 99.674 525.307 101.954L517.213 121.448C509.385 117.496 501.975 115.52 494.983 115.52C488.067 115.52 484.609 117.192 484.609 120.536C484.609 122.132 485.635 123.348 487.687 124.184C489.739 124.944 493.121 125.78 497.833 126.692C503.913 127.832 509.043 129.162 513.223 130.682C517.403 132.126 521.013 134.52 524.053 137.864C527.169 141.208 528.727 145.768 528.727 151.544C528.727 156.56 527.321 161.12 524.509 165.224C521.697 169.252 517.479 172.482 511.855 174.914C506.307 177.27 499.543 178.448 491.563 178.448Z"/>
<path d="M601.941 96.824C608.667 96.824 615.393 96.824 615.393 96.824V176.624C615.393 176.624 608.667 176.624 601.941 176.624C595.215 176.624 588.489 176.624 588.489 176.624V147.212C588.489 147.212 582.276 147.212 576.063 147.212C569.85 147.212 563.637 147.212 563.637 147.212V176.624C563.637 176.624 556.911 176.624 550.185 176.624C543.459 176.624 536.733 176.624 536.733 176.624V96.824C536.733 96.824 543.459 96.824 550.185 96.824C556.911 96.824 563.637 96.824 563.637 96.824V125.096C563.637 125.096 569.85 125.096 576.063 125.096C582.276 125.096 588.489 125.096 588.489 125.096V96.824C588.489 96.824 595.215 96.824 601.941 96.824Z"/>
<path d="M628.356 96.824C628.356 96.824 635.082 96.824 641.808 96.824C648.534 96.824 655.26 96.824 655.26 96.824V176.624C655.26 176.624 648.534 176.624 641.808 176.624C635.082 176.624 628.356 176.624 628.356 176.624V96.824Z"/>
<path d="M687.42 96.824C697.025 96.824 706.629 96.824 706.629 96.824C714.001 96.824 720.423 98.04 725.895 100.472C731.367 102.904 735.585 106.4 738.549 110.96C741.513 115.52 742.995 120.84 742.995 126.92C742.995 133 741.513 138.32 738.549 142.88C735.585 147.44 731.367 150.936 725.895 153.368C720.423 155.8 714.001 157.016 706.629 157.016C706.629 157.016 703.751 157.016 700.872 157.016C697.994 157.016 695.115 157.016 695.115 157.016V176.624C695.115 176.624 688.389 176.624 681.663 176.624C674.937 176.624 668.211 176.624 668.211 176.624V96.824C668.211 96.824 677.816 96.824 687.42 96.824ZM700.017 136.268C702.468 136.268 704.919 136.268 704.919 136.268C708.567 136.268 711.303 135.47 713.127 133.874C714.951 132.202 715.863 129.884 715.863 126.92C715.863 123.956 714.951 121.676 713.127 120.08C711.303 118.408 708.567 117.572 704.919 117.572C704.919 117.572 702.468 117.572 700.017 117.572C697.566 117.572 695.115 117.572 695.115 117.572V136.268C695.115 136.268 697.566 136.268 700.017 136.268Z"/>
</mask>
<path d="M84.77 178.448C84.0085 178.448 83.2491 178.438 82.4916 178.419C76.6721 178.272 70.9715 177.56 65.39 176.282C59.158 174.762 54.028 172.748 50 170.24L58.664 150.632C62.464 152.836 66.72 154.622 71.432 155.99C76.144 157.282 80.666 157.928 84.998 157.928C88.722 157.928 91.382 157.586 92.978 156.902C94.574 156.142 95.372 155.04 95.372 153.596C95.372 151.924 94.308 150.67 92.18 149.834C90.128 148.998 86.708 148.086 81.92 147.098C75.764 145.806 70.634 144.438 66.53 142.994C62.426 141.474 58.854 139.042 55.814 135.698C52.774 132.278 51.254 127.68 51.254 121.904C51.254 116.888 52.66 112.328 55.472 108.224C58.284 104.12 62.464 100.89 68.012 98.534C73.636 96.178 80.438 95 88.418 95C89.0273 95 89.6351 95.0075 90.2416 95.0226C95.0817 95.1429 99.8319 95.7434 104.492 96.824C109.812 97.964 114.486 99.674 118.514 101.954L110.42 121.448C102.592 117.496 95.182 115.52 88.19 115.52C81.274 115.52 77.816 117.192 77.816 120.536C77.816 122.132 78.842 123.348 80.894 124.184C82.946 124.944 86.328 125.78 91.04 126.692C97.12 127.832 102.25 129.162 106.43 130.682C110.61 132.126 114.22 134.52 117.26 137.864C120.376 141.208 121.934 145.768 121.934 151.544C121.934 156.56 120.528 161.12 117.716 165.224C114.904 169.252 110.686 172.482 105.062 174.914C99.514 177.27 92.75 178.448 84.77 178.448Z" fill="black"/>
<path d="M149.149 96.824C158.753 96.824 168.358 96.824 168.358 96.824C175.73 96.824 182.152 98.04 187.624 100.472C193.096 102.904 197.314 106.4 200.278 110.96C203.242 115.52 204.724 120.84 204.724 126.92C204.724 133 203.242 138.32 200.278 142.88C197.314 147.44 193.096 150.936 187.624 153.368C182.152 155.8 175.73 157.016 168.358 157.016C168.358 157.016 165.479 157.016 162.601 157.016C159.722 157.016 156.844 157.016 156.844 157.016V176.624C156.844 176.624 150.118 176.624 143.392 176.624C136.666 176.624 129.94 176.624 129.94 176.624V96.824C129.94 96.824 139.544 96.824 149.149 96.824ZM161.746 136.268C164.197 136.268 166.648 136.268 166.648 136.268C170.296 136.268 173.032 135.47 174.856 133.874C176.68 132.202 177.592 129.884 177.592 126.92C177.592 123.956 176.68 121.676 174.856 120.08C173.032 118.408 170.296 117.572 166.648 117.572C166.648 117.572 164.197 117.572 161.746 117.572C159.295 117.572 156.844 117.572 156.844 117.572V136.268C156.844 136.268 159.295 136.268 161.746 136.268Z" fill="black"/>
<path d="M263.917 162.716C263.917 162.716 256.336 162.716 248.755 162.716C241.174 162.716 233.593 162.716 233.593 162.716L228.235 176.624C228.235 176.624 221.395 176.624 214.555 176.624C207.715 176.624 200.875 176.624 200.875 176.624L235.759 96.824C235.759 96.824 242.371 96.824 248.983 96.824C255.595 96.824 262.207 96.824 262.207 96.824L297.091 176.624C297.091 176.624 290.137 176.624 283.183 176.624C276.229 176.624 269.275 176.624 269.275 176.624L263.917 162.716ZM248.755 143.336C252.631 143.336 256.507 143.336 256.507 143.336L248.755 123.272L241.003 143.336C241.003 143.336 244.879 143.336 248.755 143.336Z" fill="black"/>
<path d="M341.54 178.448C333.104 178.448 325.504 176.7 318.74 173.204C311.976 169.632 306.656 164.692 302.78 158.384C298.98 152 297.08 144.78 297.08 136.724C297.08 128.668 298.98 121.486 302.78 115.178C306.656 108.794 311.976 103.854 318.74 100.358C325.504 96.786 333.104 95 341.54 95C349.292 95 356.208 96.368 362.288 99.104C368.368 101.84 373.384 105.792 377.336 110.96L360.35 126.122C355.41 119.89 349.596 116.774 342.908 116.774C337.284 116.774 332.762 118.598 329.342 122.246C325.922 125.818 324.212 130.644 324.212 136.724C324.212 142.804 325.922 147.668 329.342 151.316C332.762 154.888 337.284 156.674 342.908 156.674C349.596 156.674 355.41 153.558 360.35 147.326L377.336 162.488C373.384 167.656 368.368 171.608 362.288 174.344C356.208 177.08 349.292 178.448 341.54 178.448Z" fill="black"/>
<path d="M431.502 156.332C441.477 156.332 451.452 156.332 451.452 156.332V176.624C451.452 176.624 434.865 176.624 418.278 176.624C401.691 176.624 385.104 176.624 385.104 176.624V96.824C385.104 96.824 401.32 96.824 417.537 96.824C433.753 96.824 449.97 96.824 449.97 96.824V117.116C449.97 117.116 440.365 117.116 430.761 117.116C421.156 117.116 411.552 117.116 411.552 117.116V126.464C411.552 126.464 419.988 126.464 428.424 126.464C436.86 126.464 445.296 126.464 445.296 126.464V145.844C445.296 145.844 436.86 145.844 428.424 145.844C419.988 145.844 411.552 145.844 411.552 145.844V156.332C411.552 156.332 421.527 156.332 431.502 156.332Z" fill="black"/>
<path d="M491.563 178.448C490.802 178.448 490.042 178.438 489.285 178.419C483.465 178.272 477.765 177.56 472.183 176.282C465.951 174.762 460.821 172.748 456.793 170.24L465.457 150.632C469.257 152.836 473.513 154.622 478.225 155.99C482.937 157.282 487.459 157.928 491.791 157.928C495.515 157.928 498.175 157.586 499.771 156.902C501.367 156.142 502.165 155.04 502.165 153.596C502.165 151.924 501.101 150.67 498.973 149.834C496.921 148.998 493.501 148.086 488.713 147.098C482.557 145.806 477.427 144.438 473.323 142.994C469.219 141.474 465.647 139.042 462.607 135.698C459.567 132.278 458.047 127.68 458.047 121.904C458.047 116.888 459.453 112.328 462.265 108.224C465.077 104.12 469.257 100.89 474.805 98.534C480.429 96.178 487.231 95 495.211 95C495.82 95 496.428 95.0075 497.035 95.0226C501.875 95.1429 506.625 95.7434 511.285 96.824C516.605 97.964 521.279 99.674 525.307 101.954L517.213 121.448C509.385 117.496 501.975 115.52 494.983 115.52C488.067 115.52 484.609 117.192 484.609 120.536C484.609 122.132 485.635 123.348 487.687 124.184C489.739 124.944 493.121 125.78 497.833 126.692C503.913 127.832 509.043 129.162 513.223 130.682C517.403 132.126 521.013 134.52 524.053 137.864C527.169 141.208 528.727 145.768 528.727 151.544C528.727 156.56 527.321 161.12 524.509 165.224C521.697 169.252 517.479 172.482 511.855 174.914C506.307 177.27 499.543 178.448 491.563 178.448Z" fill="black"/>
<path d="M601.941 96.824C608.667 96.824 615.393 96.824 615.393 96.824V176.624C615.393 176.624 608.667 176.624 601.941 176.624C595.215 176.624 588.489 176.624 588.489 176.624V147.212C588.489 147.212 582.276 147.212 576.063 147.212C569.85 147.212 563.637 147.212 563.637 147.212V176.624C563.637 176.624 556.911 176.624 550.185 176.624C543.459 176.624 536.733 176.624 536.733 176.624V96.824C536.733 96.824 543.459 96.824 550.185 96.824C556.911 96.824 563.637 96.824 563.637 96.824V125.096C563.637 125.096 569.85 125.096 576.063 125.096C582.276 125.096 588.489 125.096 588.489 125.096V96.824C588.489 96.824 595.215 96.824 601.941 96.824Z" fill="black"/>
<path d="M628.356 96.824C628.356 96.824 635.082 96.824 641.808 96.824C648.534 96.824 655.26 96.824 655.26 96.824V176.624C655.26 176.624 648.534 176.624 641.808 176.624C635.082 176.624 628.356 176.624 628.356 176.624V96.824Z" fill="black"/>
<path d="M687.42 96.824C697.025 96.824 706.629 96.824 706.629 96.824C714.001 96.824 720.423 98.04 725.895 100.472C731.367 102.904 735.585 106.4 738.549 110.96C741.513 115.52 742.995 120.84 742.995 126.92C742.995 133 741.513 138.32 738.549 142.88C735.585 147.44 731.367 150.936 725.895 153.368C720.423 155.8 714.001 157.016 706.629 157.016C706.629 157.016 703.751 157.016 700.872 157.016C697.994 157.016 695.115 157.016 695.115 157.016V176.624C695.115 176.624 688.389 176.624 681.663 176.624C674.937 176.624 668.211 176.624 668.211 176.624V96.824C668.211 96.824 677.816 96.824 687.42 96.824ZM700.017 136.268C702.468 136.268 704.919 136.268 704.919 136.268C708.567 136.268 711.303 135.47 713.127 133.874C714.951 132.202 715.863 129.884 715.863 126.92C715.863 123.956 714.951 121.676 713.127 120.08C711.303 118.408 708.567 117.572 704.919 117.572C704.919 117.572 702.468 117.572 700.017 117.572C697.566 117.572 695.115 117.572 695.115 117.572V136.268C695.115 136.268 697.566 136.268 700.017 136.268Z" fill="black"/>
<path d="M84.77 178.448C84.0085 178.448 83.2491 178.438 82.4916 178.419C76.6721 178.272 70.9715 177.56 65.39 176.282C59.158 174.762 54.028 172.748 50 170.24L58.664 150.632C62.464 152.836 66.72 154.622 71.432 155.99C76.144 157.282 80.666 157.928 84.998 157.928C88.722 157.928 91.382 157.586 92.978 156.902C94.574 156.142 95.372 155.04 95.372 153.596C95.372 151.924 94.308 150.67 92.18 149.834C90.128 148.998 86.708 148.086 81.92 147.098C75.764 145.806 70.634 144.438 66.53 142.994C62.426 141.474 58.854 139.042 55.814 135.698C52.774 132.278 51.254 127.68 51.254 121.904C51.254 116.888 52.66 112.328 55.472 108.224C58.284 104.12 62.464 100.89 68.012 98.534C73.636 96.178 80.438 95 88.418 95C89.0273 95 89.6351 95.0075 90.2416 95.0226C95.0817 95.1429 99.8319 95.7434 104.492 96.824C109.812 97.964 114.486 99.674 118.514 101.954L110.42 121.448C102.592 117.496 95.182 115.52 88.19 115.52C81.274 115.52 77.816 117.192 77.816 120.536C77.816 122.132 78.842 123.348 80.894 124.184C82.946 124.944 86.328 125.78 91.04 126.692C97.12 127.832 102.25 129.162 106.43 130.682C110.61 132.126 114.22 134.52 117.26 137.864C120.376 141.208 121.934 145.768 121.934 151.544C121.934 156.56 120.528 161.12 117.716 165.224C114.904 169.252 110.686 172.482 105.062 174.914C99.514 177.27 92.75 178.448 84.77 178.448Z" stroke="white" stroke-width="2" mask="url(#path-1-inside-1)"/>
<path d="M149.149 96.824C158.753 96.824 168.358 96.824 168.358 96.824C175.73 96.824 182.152 98.04 187.624 100.472C193.096 102.904 197.314 106.4 200.278 110.96C203.242 115.52 204.724 120.84 204.724 126.92C204.724 133 203.242 138.32 200.278 142.88C197.314 147.44 193.096 150.936 187.624 153.368C182.152 155.8 175.73 157.016 168.358 157.016C168.358 157.016 165.479 157.016 162.601 157.016C159.722 157.016 156.844 157.016 156.844 157.016V176.624C156.844 176.624 150.118 176.624 143.392 176.624C136.666 176.624 129.94 176.624 129.94 176.624V96.824C129.94 96.824 139.544 96.824 149.149 96.824ZM161.746 136.268C164.197 136.268 166.648 136.268 166.648 136.268C170.296 136.268 173.032 135.47 174.856 133.874C176.68 132.202 177.592 129.884 177.592 126.92C177.592 123.956 176.68 121.676 174.856 120.08C173.032 118.408 170.296 117.572 166.648 117.572C166.648 117.572 164.197 117.572 161.746 117.572C159.295 117.572 156.844 117.572 156.844 117.572V136.268C156.844 136.268 159.295 136.268 161.746 136.268Z" stroke="white" stroke-width="2" mask="url(#path-1-inside-1)"/>
<path d="M263.917 162.716C263.917 162.716 256.336 162.716 248.755 162.716C241.174 162.716 233.593 162.716 233.593 162.716L228.235 176.624C228.235 176.624 221.395 176.624 214.555 176.624C207.715 176.624 200.875 176.624 200.875 176.624L235.759 96.824C235.759 96.824 242.371 96.824 248.983 96.824C255.595 96.824 262.207 96.824 262.207 96.824L297.091 176.624C297.091 176.624 290.137 176.624 283.183 176.624C276.229 176.624 269.275 176.624 269.275 176.624L263.917 162.716ZM248.755 143.336C252.631 143.336 256.507 143.336 256.507 143.336L248.755 123.272L241.003 143.336C241.003 143.336 244.879 143.336 248.755 143.336Z" stroke="white" stroke-width="2" mask="url(#path-1-inside-1)"/>
<path d="M341.54 178.448C333.104 178.448 325.504 176.7 318.74 173.204C311.976 169.632 306.656 164.692 302.78 158.384C298.98 152 297.08 144.78 297.08 136.724C297.08 128.668 298.98 121.486 302.78 115.178C306.656 108.794 311.976 103.854 318.74 100.358C325.504 96.786 333.104 95 341.54 95C349.292 95 356.208 96.368 362.288 99.104C368.368 101.84 373.384 105.792 377.336 110.96L360.35 126.122C355.41 119.89 349.596 116.774 342.908 116.774C337.284 116.774 332.762 118.598 329.342 122.246C325.922 125.818 324.212 130.644 324.212 136.724C324.212 142.804 325.922 147.668 329.342 151.316C332.762 154.888 337.284 156.674 342.908 156.674C349.596 156.674 355.41 153.558 360.35 147.326L377.336 162.488C373.384 167.656 368.368 171.608 362.288 174.344C356.208 177.08 349.292 178.448 341.54 178.448Z" stroke="white" stroke-width="2" mask="url(#path-1-inside-1)"/>
<path d="M431.502 156.332C441.477 156.332 451.452 156.332 451.452 156.332V176.624C451.452 176.624 434.865 176.624 418.278 176.624C401.691 176.624 385.104 176.624 385.104 176.624V96.824C385.104 96.824 401.32 96.824 417.537 96.824C433.753 96.824 449.97 96.824 449.97 96.824V117.116C449.97 117.116 440.365 117.116 430.761 117.116C421.156 117.116 411.552 117.116 411.552 117.116V126.464C411.552 126.464 419.988 126.464 428.424 126.464C436.86 126.464 445.296 126.464 445.296 126.464V145.844C445.296 145.844 436.86 145.844 428.424 145.844C419.988 145.844 411.552 145.844 411.552 145.844V156.332C411.552 156.332 421.527 156.332 431.502 156.332Z" stroke="white" stroke-width="2" mask="url(#path-1-inside-1)"/>
<path d="M491.563 178.448C490.802 178.448 490.042 178.438 489.285 178.419C483.465 178.272 477.765 177.56 472.183 176.282C465.951 174.762 460.821 172.748 456.793 170.24L465.457 150.632C469.257 152.836 473.513 154.622 478.225 155.99C482.937 157.282 487.459 157.928 491.791 157.928C495.515 157.928 498.175 157.586 499.771 156.902C501.367 156.142 502.165 155.04 502.165 153.596C502.165 151.924 501.101 150.67 498.973 149.834C496.921 148.998 493.501 148.086 488.713 147.098C482.557 145.806 477.427 144.438 473.323 142.994C469.219 141.474 465.647 139.042 462.607 135.698C459.567 132.278 458.047 127.68 458.047 121.904C458.047 116.888 459.453 112.328 462.265 108.224C465.077 104.12 469.257 100.89 474.805 98.534C480.429 96.178 487.231 95 495.211 95C495.82 95 496.428 95.0075 497.035 95.0226C501.875 95.1429 506.625 95.7434 511.285 96.824C516.605 97.964 521.279 99.674 525.307 101.954L517.213 121.448C509.385 117.496 501.975 115.52 494.983 115.52C488.067 115.52 484.609 117.192 484.609 120.536C484.609 122.132 485.635 123.348 487.687 124.184C489.739 124.944 493.121 125.78 497.833 126.692C503.913 127.832 509.043 129.162 513.223 130.682C517.403 132.126 521.013 134.52 524.053 137.864C527.169 141.208 528.727 145.768 528.727 151.544C528.727 156.56 527.321 161.12 524.509 165.224C521.697 169.252 517.479 172.482 511.855 174.914C506.307 177.27 499.543 178.448 491.563 178.448Z" stroke="white" stroke-width="2" mask="url(#path-1-inside-1)"/>
<path d="M601.941 96.824C608.667 96.824 615.393 96.824 615.393 96.824V176.624C615.393 176.624 608.667 176.624 601.941 176.624C595.215 176.624 588.489 176.624 588.489 176.624V147.212C588.489 147.212 582.276 147.212 576.063 147.212C569.85 147.212 563.637 147.212 563.637 147.212V176.624C563.637 176.624 556.911 176.624 550.185 176.624C543.459 176.624 536.733 176.624 536.733 176.624V96.824C536.733 96.824 543.459 96.824 550.185 96.824C556.911 96.824 563.637 96.824 563.637 96.824V125.096C563.637 125.096 569.85 125.096 576.063 125.096C582.276 125.096 588.489 125.096 588.489 125.096V96.824C588.489 96.824 595.215 96.824 601.941 96.824Z" stroke="white" stroke-width="2" mask="url(#path-1-inside-1)"/>
<path d="M628.356 96.824C628.356 96.824 635.082 96.824 641.808 96.824C648.534 96.824 655.26 96.824 655.26 96.824V176.624C655.26 176.624 648.534 176.624 641.808 176.624C635.082 176.624 628.356 176.624 628.356 176.624V96.824Z" stroke="white" stroke-width="2" mask="url(#path-1-inside-1)"/>
<path d="M687.42 96.824C697.025 96.824 706.629 96.824 706.629 96.824C714.001 96.824 720.423 98.04 725.895 100.472C731.367 102.904 735.585 106.4 738.549 110.96C741.513 115.52 742.995 120.84 742.995 126.92C742.995 133 741.513 138.32 738.549 142.88C735.585 147.44 731.367 150.936 725.895 153.368C720.423 155.8 714.001 157.016 706.629 157.016C706.629 157.016 703.751 157.016 700.872 157.016C697.994 157.016 695.115 157.016 695.115 157.016V176.624C695.115 176.624 688.389 176.624 681.663 176.624C674.937 176.624 668.211 176.624 668.211 176.624V96.824C668.211 96.824 677.816 96.824 687.42 96.824ZM700.017 136.268C702.468 136.268 704.919 136.268 704.919 136.268C708.567 136.268 711.303 135.47 713.127 133.874C714.951 132.202 715.863 129.884 715.863 126.92C715.863 123.956 714.951 121.676 713.127 120.08C711.303 118.408 708.567 117.572 704.919 117.572C704.919 117.572 702.468 117.572 700.017 117.572C697.566 117.572 695.115 117.572 695.115 117.572V136.268C695.115 136.268 697.566 136.268 700.017 136.268Z" stroke="white" stroke-width="2" mask="url(#path-1-inside-1)"/>
<path d="M54.5435 108.724C52.1058 112.569 50.8436 116.799 50.7586 121.404H1.7588C1.84753 116.773 3.17295 112.55 5.73718 108.724H54.5435Z" fill="black" stroke="white" stroke-linejoin="round"/>
<path d="M6.04066 135.198C3.28414 132.008 1.84197 127.759 1.75793 122.404H50.7578C50.8369 127.595 52.1546 131.873 54.7472 135.198H6.04066Z" fill="black" stroke="white" stroke-linejoin="round"/>
<path d="M57.8964 151.132L49.6743 169.74H0.767565L8.9897 151.132H57.8964Z" fill="black" stroke="white" stroke-linejoin="round"/>
<path d="M61.6136 175.782H15.4502C10.0704 174.466 5.53702 172.783 1.84064 170.74H49.8576C53.0963 172.738 57.0173 174.417 61.6136 175.782Z" fill="black" stroke="white" stroke-linejoin="round"/>
<path d="M64.0621 142.494H16.62C12.9779 141.131 9.76364 139.035 6.97451 136.198H55.5939C58.0705 138.883 60.8939 140.983 64.0621 142.494Z" fill="black" stroke="white" stroke-linejoin="round"/>
<path d="M65.7262 99.0339C61.222 101.27 57.7098 104.163 55.2103 107.724H6.44583C9.16192 104.103 13.0424 101.203 18.1141 99.0339H65.7262Z" fill="black" stroke="white" stroke-linejoin="round"/>
<path d="M68.1988 155.49H21.5032C17.5376 154.334 13.903 152.881 10.5976 151.132H58.5298C61.4848 152.835 64.7082 154.288 68.1988 155.49Z" fill="black" stroke="white" stroke-linejoin="round"/>
<path d="M71.2778 177.919H32.498C28.441 177.816 24.4428 177.437 20.503 176.782H65.3336C67.3004 177.231 69.2818 177.61 71.2778 177.919Z" fill="black" stroke="white" stroke-linejoin="round"/>
<path d="M77.3662 146.598H31.972C27.2534 145.606 23.1471 144.571 19.6508 143.494H66.4448C69.5228 144.573 73.164 145.607 77.3662 146.598Z" fill="black" stroke="white" stroke-linejoin="round"/>
<path d="M38.418 95.5H76.6371C73.4768 96.0859 70.5678 96.9299 67.9118 98.034H20.7615C25.7835 96.3486 31.6659 95.5 38.418 95.5Z" fill="black" stroke="white" stroke-linejoin="round"/>
<path d="M71.3648 156.49C72.6972 156.854 74.0152 157.166 75.3187 157.428H34.998C32.0041 157.428 28.9147 157.116 25.7293 156.49H71.3648Z" fill="black" stroke="white" stroke-linejoin="round"/>
<path d="M78.9644 123.684H30.9933C30.0616 123.293 29.3984 122.833 28.9677 122.322C28.6417 121.936 28.4393 121.51 28.3576 121.036H77.3469C77.4368 121.751 77.7235 122.399 78.2034 122.967C78.4207 123.225 78.675 123.463 78.9644 123.684Z" fill="black" stroke="white" stroke-linejoin="round"/>
<path d="M28.3467 120.036C28.4142 119.504 28.5926 119.037 28.8761 118.625C29.2479 118.086 29.8207 117.614 30.6272 117.224C32.2538 116.438 34.7564 116.02 38.19 116.02H80.9016C80.6523 116.114 80.4157 116.216 80.1919 116.324C79.2694 116.77 78.5454 117.343 78.0528 118.058C77.6481 118.645 77.413 119.308 77.3404 120.036H28.3467Z" fill="black" stroke="white" stroke-linejoin="round"/>
<mask id="path-15-inside-2" fill="white">
<path d="M32.4916 178.419C33.249 178.438 34.0085 178.448 34.77 178.448H84.77C84.0085 178.448 83.249 178.438 82.4916 178.419H32.4916Z"/>
</mask>
<path d="M32.4916 178.419C33.249 178.438 34.0085 178.448 34.77 178.448H84.77C84.0085 178.448 83.249 178.438 82.4916 178.419H32.4916Z" fill="black"/>
<path d="M32.4916 178.419V177.419C31.9442 177.419 31.4986 177.859 31.4917 178.407C31.4847 178.954 31.9191 179.405 32.4663 179.419L32.4916 178.419ZM82.4916 178.419L82.5169 177.42C82.5084 177.419 82.5 177.419 82.4916 177.419V178.419ZM84.77 179.448C85.3222 179.448 85.77 179 85.77 178.448C85.77 177.896 85.3222 177.448 84.77 177.448V179.448ZM34.77 177.448C34.0169 177.448 33.2658 177.438 32.5169 177.42L32.4663 179.419C33.2322 179.438 34.0001 179.448 34.77 179.448V177.448ZM32.4916 179.419H82.4916V177.419H32.4916V179.419ZM82.4663 179.419C83.2322 179.438 84.0001 179.448 84.77 179.448V177.448C84.0169 177.448 83.2658 177.438 82.5169 177.42L82.4663 179.419ZM84.77 177.448H34.77V179.448H84.77V177.448Z" fill="white" mask="url(#path-15-inside-2)"/>
<path d="M86.2169 126.192H41.088C38.3503 125.661 36.0745 125.159 34.2558 124.684H80.805C82.1121 125.161 83.918 125.664 86.2169 126.192Z" fill="black" stroke="white" stroke-linejoin="round"/>
<path d="M89.1289 149.334H42.2772C40.9015 148.782 38.9618 148.204 36.4659 147.598H81.869C84.8243 148.209 87.242 148.788 89.1289 149.334Z" fill="black" stroke="white" stroke-linejoin="round"/>
<path d="M86.686 157.402C86.1522 157.419 85.5896 157.428 84.998 157.428H43.0144C43.036 157.419 43.0574 157.411 43.0786 157.402H86.686Z" fill="black" stroke="white" stroke-linejoin="round"/>
<mask id="path-20-inside-3" fill="white">
<path d="M40.2415 95.0226C39.6351 95.0075 39.0272 95 38.418 95H88.418C89.0272 95 89.6351 95.0075 90.2415 95.0226H40.2415Z"/>
</mask>
<path d="M40.2415 95.0226C39.6351 95.0075 39.0272 95 38.418 95H88.418C89.0272 95 89.6351 95.0075 90.2415 95.0226H40.2415Z" fill="black"/>
<path d="M38.418 94C37.8657 94 37.418 94.4477 37.418 95C37.418 95.5523 37.8657 96 38.418 96V94ZM40.2415 95.0226L40.2167 96.0223C40.2249 96.0225 40.2332 96.0226 40.2415 96.0226V95.0226ZM90.2415 95.0226V96.0226C90.789 96.0226 91.2346 95.5824 91.2414 95.035C91.2482 94.4876 90.8136 94.0365 90.2664 94.0229L90.2415 95.0226ZM38.418 96C39.019 96 39.6185 96.0074 40.2167 96.0223L40.2664 94.0229C39.6516 94.0076 39.0355 94 38.418 94V96ZM40.2415 96.0226H90.2415V94.0226H40.2415V96.0226ZM90.2664 94.0229C89.6516 94.0076 89.0355 94 88.418 94V96C89.019 96 89.6185 96.0074 90.2167 96.0223L90.2664 94.0229ZM88.418 94H38.418V96H88.418V94Z" fill="white" mask="url(#path-20-inside-3)"/>
<path d="M44.9553 151.078C44.7273 150.809 44.4598 150.562 44.1551 150.334H92.0841C93.0539 150.726 93.7443 151.196 94.1928 151.725C94.5379 152.132 94.7509 152.586 94.8332 153.096H45.8427C45.7528 152.345 45.4564 151.669 44.9553 151.078Z" fill="black" stroke="white" stroke-linejoin="round"/>
<path d="M45.8424 154.096H94.8326C94.7646 154.51 94.6091 154.88 94.3686 155.212C94.0465 155.657 93.5545 156.058 92.8629 156.402H44.6401C44.8429 156.215 45.0229 156.014 45.1785 155.799C45.5468 155.29 45.767 154.719 45.8424 154.096Z" fill="black" stroke="white" stroke-linejoin="round"/>
<path d="M55.1634 175.414H102.344C97.3777 177.099 91.5231 177.948 84.77 177.948H46.5189C49.6603 177.362 52.5423 176.518 55.1634 175.414Z" fill="black" stroke="white" stroke-linejoin="round"/>
<path d="M99.2589 96.3241H54.5491C53.2268 96.0186 51.8972 95.7515 50.5605 95.5227H90.2354C93.2794 95.5986 96.2872 95.8658 99.2589 96.3241Z" fill="black" stroke="white" stroke-linejoin="round"/>
<path d="M103.379 130.182H56.5179C53.487 129.085 49.97 128.089 45.969 127.192H90.9935C95.7014 128.076 99.829 129.073 103.379 130.182Z" fill="black" stroke="white" stroke-linejoin="round"/>
<path d="M60.5388 120.948C55.9136 118.622 51.424 116.978 47.0713 116.02H88.1899C94.5077 116.02 101.192 117.656 108.247 120.948H60.5388Z" fill="black" stroke="white" stroke-linejoin="round"/>
<path d="M104.958 174.414H57.3243C61.9067 172.128 65.4645 169.234 67.9749 165.724H116.731C114.011 169.277 110.096 172.178 104.958 174.414Z" fill="black" stroke="white" stroke-linejoin="round"/>
<path d="M116.515 101.454H68.6452C65.6331 99.7621 62.272 98.3862 58.5643 97.324H104.439C108.939 98.2922 112.963 99.67 116.515 101.454Z" fill="black" stroke="white" stroke-linejoin="round"/>
<path d="M67.4801 137.364C65.024 134.703 62.2037 132.641 59.0218 131.182H106.346C110.055 132.476 113.304 134.535 116.098 137.364H67.4801Z" fill="black" stroke="white" stroke-linejoin="round"/>
<path d="M110.086 120.948H61.169L68.8478 102.454H117.765L110.086 120.948Z" fill="black" stroke="white" stroke-linejoin="round"/>
<path d="M72.4301 151.044C72.3493 145.866 71.0044 141.625 68.3574 138.364H117.04C119.865 141.482 121.344 145.691 121.43 151.044H72.4301Z" fill="black" stroke="white" stroke-linejoin="round"/>
<path d="M117.451 164.724H68.6446C71.0823 160.879 72.3445 156.649 72.4295 152.044H121.429C121.341 156.675 120.015 160.898 117.451 164.724Z" fill="black" stroke="white" stroke-linejoin="round"/>
<path d="M129.44 176.124H80.4398V97.324H129.44V176.124Z" fill="black" stroke="white" stroke-linejoin="round"/>
<path d="M93.3918 176.624C86.6658 176.624 79.9398 176.624 79.9398 176.624H129.94C129.94 176.624 136.666 176.624 143.392 176.624H93.3918Z" stroke="white" stroke-linejoin="round"/>
<path d="M79.9398 96.824C79.9398 96.824 89.5443 96.824 99.1488 96.824H149.149C139.544 96.824 129.94 96.824 129.94 96.824H79.9398Z" stroke="white" stroke-linejoin="round"/>
<path d="M106.844 176.624C106.844 176.624 100.118 176.624 93.3918 176.624H143.392C150.118 176.624 156.844 176.624 156.844 176.624H106.844Z" stroke="white" stroke-linejoin="round"/>
<path d="M107.344 176.124V157.516H156.344V176.124H107.344Z" fill="black" stroke="white" stroke-linejoin="round"/>
<path d="M107.344 135.768V118.072H156.344V135.768H107.344Z" fill="black" stroke="white" stroke-linejoin="round"/>
<path d="M99.1488 96.824C108.753 96.824 118.358 96.824 118.358 96.824H168.358C168.358 96.824 158.753 96.824 149.149 96.824H99.1488Z" stroke="white" stroke-linejoin="round"/>
<path d="M106.844 136.268C106.844 136.268 109.295 136.268 111.746 136.268H161.746C159.295 136.268 156.844 136.268 156.844 136.268H106.844Z" stroke="white" stroke-linejoin="round"/>
<path d="M111.746 117.572C109.295 117.572 106.844 117.572 106.844 117.572H156.844C156.844 117.572 159.295 117.572 161.746 117.572H111.746Z" stroke="white" stroke-linejoin="round"/>
<path d="M112.601 157.016C109.722 157.016 106.844 157.016 106.844 157.016H156.844C156.844 157.016 159.722 157.016 162.601 157.016H112.601Z" stroke="white" stroke-linejoin="round"/>
<path d="M116.648 117.572C116.648 117.572 114.197 117.572 111.746 117.572H161.746C164.197 117.572 166.648 117.572 166.648 117.572H116.648Z" stroke="white" stroke-linejoin="round"/>
<path d="M111.746 136.268C114.197 136.268 116.648 136.268 116.648 136.268H166.648C166.648 136.268 164.197 136.268 161.746 136.268H111.746Z" stroke="white" stroke-linejoin="round"/>
<path d="M118.358 157.016C118.358 157.016 115.479 157.016 112.601 157.016H162.601C165.479 157.016 168.358 157.016 168.358 157.016H118.358Z" stroke="white" stroke-linejoin="round"/>
<path d="M173.277 134.374C171.642 135.29 169.446 135.768 166.648 135.768H122.677C123.57 135.405 124.359 134.942 125.04 134.374H173.277Z" fill="black" stroke="white" stroke-linejoin="round"/>
<path d="M125.047 119.58C124.336 118.96 123.508 118.459 122.568 118.072H166.648C169.49 118.072 171.709 118.589 173.352 119.58H125.047Z" fill="black" stroke="white" stroke-linejoin="round"/>
<path d="M128.083 127.42H177.083C176.988 129.952 176.168 131.92 174.658 133.374H126.019C127.32 131.797 128.001 129.801 128.083 127.42Z" fill="black" stroke="white" stroke-linejoin="round"/>
<path d="M128.083 126.42C128.001 124.062 127.331 122.103 126.047 120.58H174.664C176.168 121.964 176.988 123.891 177.083 126.42H128.083Z" fill="black" stroke="white" stroke-linejoin="round"/>
<path d="M129.205 97.324H168.358C174.628 97.324 180.187 98.2101 185.044 99.972H137.73C135.099 98.8121 132.257 97.93 129.205 97.324Z" fill="black" stroke="white" stroke-linejoin="round"/>
<path d="M137.73 153.868H185.044C180.187 155.63 174.628 156.516 168.358 156.516H129.205C132.257 155.91 135.099 155.028 137.73 153.868Z" fill="black" stroke="white" stroke-linejoin="round"/>
<path d="M150.548 110.46C147.91 106.488 144.327 103.326 139.813 100.972H187.517C192.549 103.226 196.483 106.39 199.337 110.46H150.548Z" fill="black" stroke="white" stroke-linejoin="round"/>
<path d="M187.517 152.868H139.813C144.327 150.514 147.91 147.352 150.548 143.38H199.337C196.483 147.45 192.549 150.614 187.517 152.868Z" fill="black" stroke="white" stroke-linejoin="round"/>
<path d="M155.221 126.42C155.146 120.798 153.803 115.806 151.181 111.46H200.005C202.733 115.754 204.143 120.735 204.22 126.42H155.221Z" fill="black" stroke="white" stroke-linejoin="round"/>
<path d="M200.005 142.38H151.181C153.803 138.034 155.146 133.042 155.221 127.42H204.22C204.143 133.105 202.733 138.086 200.005 142.38Z" fill="black" stroke="white" stroke-linejoin="round"/>
<path d="M164.555 176.624C157.715 176.624 150.875 176.624 150.875 176.624H200.875C200.875 176.624 207.715 176.624 214.555 176.624H164.555Z" stroke="white" stroke-linejoin="round"/>
<path d="M234.995 97.324L200.548 176.124H151.64L186.087 97.324H234.995Z" fill="black" stroke="white" stroke-linejoin="round"/>
<path d="M178.235 176.624C178.235 176.624 171.395 176.624 164.555 176.624H214.555C221.395 176.624 228.235 176.624 228.235 176.624H178.235Z" stroke="white" stroke-linejoin="round"/>
<path d="M227.892 176.124H178.964L183.937 163.216H232.865L227.892 176.124Z" fill="black" stroke="white" stroke-linejoin="round"/>
<path d="M198.756 162.716C191.175 162.716 183.594 162.716 183.594 162.716H233.594C233.594 162.716 241.175 162.716 248.756 162.716H198.756Z" stroke="white" stroke-linejoin="round"/>
<path d="M185.759 96.824C185.759 96.824 192.371 96.824 198.983 96.824H248.983C242.371 96.824 235.759 96.824 235.759 96.824H185.759Z" stroke="white" stroke-linejoin="round"/>
<path d="M240.661 142.836H191.733L199.098 123.772H248.026L240.661 142.836Z" fill="black" stroke="white" stroke-linejoin="round"/>
<path d="M191.003 143.336C191.003 143.336 194.879 143.336 198.755 143.336H248.755C244.879 143.336 241.003 143.336 241.003 143.336H191.003Z" stroke="white" stroke-linejoin="round"/>
<path d="M206.85 142.836L199.485 123.772H248.413L255.778 142.836H206.85Z" fill="black" stroke="white" stroke-linejoin="round"/>
<path d="M198.755 143.336C202.631 143.336 206.507 143.336 206.507 143.336H256.507C256.507 143.336 252.631 143.336 248.755 143.336H198.755Z" stroke="white" stroke-linejoin="round"/>
<path d="M198.983 96.824C205.595 96.824 212.207 96.824 212.207 96.824H262.207C262.207 96.824 255.595 96.824 248.983 96.824H198.983Z" stroke="white" stroke-linejoin="round"/>
<path d="M213.917 162.716C213.917 162.716 206.336 162.716 198.755 162.716H248.755C256.336 162.716 263.917 162.716 263.917 162.716H213.917Z" stroke="white" stroke-linejoin="round"/>
<path d="M219.619 176.124L214.646 163.216H263.574L268.547 176.124H219.619Z" fill="black" stroke="white" stroke-linejoin="round"/>
<path d="M233.183 176.624C226.229 176.624 219.275 176.624 219.275 176.624H269.275C269.275 176.624 276.229 176.624 283.183 176.624H233.183Z" stroke="white" stroke-linejoin="round"/>
<path d="M247.419 176.124L212.972 97.324H261.88L296.327 176.124H247.419Z" fill="black" stroke="white" stroke-linejoin="round"/>
<path d="M247.091 176.624C247.091 176.624 240.137 176.624 233.183 176.624H283.183C290.137 176.624 297.091 176.624 297.091 176.624H247.091Z" stroke="white" stroke-linejoin="round"/>
<path d="M253.065 157.884C249.489 151.777 247.658 144.894 247.582 137.224H296.582C296.656 144.848 298.43 151.738 301.911 157.884H253.065Z" fill="black" stroke="white" stroke-linejoin="round"/>
<path d="M301.906 115.678C298.428 121.754 296.656 128.606 296.582 136.224H247.582C247.658 128.556 249.489 121.712 253.064 115.678H301.906Z" fill="black" stroke="white" stroke-linejoin="round"/>
<path d="M316.809 172.704H268.864C262.503 169.323 257.446 164.717 253.685 158.884H302.501C306.079 164.622 310.851 169.23 316.809 172.704Z" fill="black" stroke="white" stroke-linejoin="round"/>
<path d="M316.779 100.858C310.833 104.274 306.071 108.882 302.5 114.678H253.68C257.441 108.774 262.499 104.169 268.862 100.858H316.779Z" fill="black" stroke="white" stroke-linejoin="round"/>
<path d="M274.716 136.224C274.806 130.567 276.434 126.092 279.557 122.746H328.221C325.291 126.227 323.801 130.734 323.716 136.224H274.716Z" fill="black" stroke="white" stroke-linejoin="round"/>
<path d="M279.56 150.816C276.434 147.398 274.806 142.883 274.716 137.224H323.716C323.801 142.727 325.296 147.27 328.235 150.816H279.56Z" fill="black" stroke="white" stroke-linejoin="round"/>
<path d="M318.619 173.704C322.456 175.674 326.556 177.089 330.918 177.948H291.54C283.975 177.948 277.101 176.531 270.911 173.704H318.619Z" fill="black" stroke="white" stroke-linejoin="round"/>
<path d="M291.54 95.5H331.025C326.623 96.376 322.486 97.8281 318.616 99.858H270.866C277.069 96.9551 283.957 95.5 291.54 95.5Z" fill="black" stroke="white" stroke-linejoin="round"/>
<path d="M280.552 121.746C283.754 118.771 287.859 117.274 292.908 117.274H336.219C333.501 118.166 331.134 119.655 329.127 121.746H280.552Z" fill="black" stroke="white" stroke-linejoin="round"/>
<path d="M329.13 151.816C331.121 153.848 333.466 155.299 336.156 156.174H292.908C287.868 156.174 283.77 154.714 280.572 151.816H329.13Z" fill="black" stroke="white" stroke-linejoin="round"/>
<path d="M310.591 125.622C307.232 121.442 303.457 118.65 299.271 117.274H342.908C349.121 117.274 354.579 120.029 359.295 125.622H310.591Z" fill="black" stroke="white" stroke-linejoin="round"/>
<path d="M359.295 147.826C354.579 153.419 349.121 156.174 342.908 156.174H299.271C303.457 154.798 307.232 152.006 310.591 147.826H359.295Z" fill="black" stroke="white" stroke-linejoin="round"/>
<path d="M302.457 95.5H341.54C348.265 95.5 354.342 96.5374 359.777 98.604H312.395C309.293 97.2175 305.98 96.1834 302.457 95.5Z" fill="black" stroke="white" stroke-linejoin="round"/>
<path d="M312.395 174.844H359.776C354.342 176.911 348.265 177.948 341.54 177.948H302.457C305.98 177.265 309.293 176.23 312.395 174.844Z" fill="black" stroke="white" stroke-linejoin="round"/>
<path d="M360.159 125.622H311.661L327.527 111.46H376.025L360.159 125.622Z" fill="black" stroke="white" stroke-linejoin="round"/>
<path d="M376.025 161.988H327.527L311.661 147.826H360.159L376.025 161.988Z" fill="black" stroke="white" stroke-linejoin="round"/>
<path d="M327.582 110.46C324.044 105.892 319.675 102.272 314.48 99.604H362.18C367.824 102.161 372.531 105.779 376.307 110.46H327.582Z" fill="black" stroke="white" stroke-linejoin="round"/>
<path d="M362.18 173.844H314.48C319.675 171.176 324.044 167.556 327.582 162.988H376.307C372.531 167.669 367.824 171.287 362.18 173.844Z" fill="black" stroke="white" stroke-linejoin="round"/>
<path d="M384.604 176.124H335.604V97.324H384.604V176.124Z" fill="black" stroke="white" stroke-linejoin="round"/>
<path d="M335.104 96.824C335.104 96.824 351.32 96.824 367.537 96.824H417.537C401.32 96.824 385.104 96.824 385.104 96.824H335.104Z" stroke="white" stroke-linejoin="round"/>
<path d="M368.278 176.624C351.691 176.624 335.104 176.624 335.104 176.624H385.104C385.104 176.624 401.691 176.624 418.278 176.624H368.278Z" stroke="white" stroke-linejoin="round"/>
<path d="M362.052 125.964V117.616H411.052V125.964H362.052Z" fill="black" stroke="white" stroke-linejoin="round"/>
<path d="M362.052 155.832V146.344H411.052V155.832H362.052Z" fill="black" stroke="white" stroke-linejoin="round"/>
<path d="M361.552 126.464C361.552 126.464 369.988 126.464 378.424 126.464H428.424C419.988 126.464 411.552 126.464 411.552 126.464H361.552Z" stroke="white" stroke-linejoin="round"/>
<path d="M378.424 145.844C369.988 145.844 361.552 145.844 361.552 145.844H411.552C411.552 145.844 419.988 145.844 428.424 145.844H378.424Z" stroke="white" stroke-linejoin="round"/>
<path d="M380.761 117.116C371.156 117.116 361.552 117.116 361.552 117.116H411.552C411.552 117.116 421.156 117.116 430.761 117.116H380.761Z" stroke="white" stroke-linejoin="round"/>
<path d="M361.552 156.332C361.552 156.332 371.527 156.332 381.502 156.332H431.502C421.527 156.332 411.552 156.332 411.552 156.332H361.552Z" stroke="white" stroke-linejoin="round"/>
<path d="M367.537 96.824C383.753 96.824 399.97 96.824 399.97 96.824H449.97C449.97 96.824 433.753 96.824 417.537 96.824H367.537Z" stroke="white" stroke-linejoin="round"/>
<path d="M401.452 176.624C401.452 176.624 384.865 176.624 368.278 176.624H418.278C434.865 176.624 451.452 176.624 451.452 176.624H401.452Z" stroke="white" stroke-linejoin="round"/>
<path d="M395.296 145.844C395.296 145.844 386.86 145.844 378.424 145.844H428.424C436.86 145.844 445.296 145.844 445.296 145.844H395.296Z" stroke="white" stroke-linejoin="round"/>
<path d="M378.424 126.464C386.86 126.464 395.296 126.464 395.296 126.464H445.296C445.296 126.464 436.86 126.464 428.424 126.464H378.424Z" stroke="white" stroke-linejoin="round"/>
<path d="M399.97 117.116C399.97 117.116 390.365 117.116 380.761 117.116H430.761C440.365 117.116 449.97 117.116 449.97 117.116H399.97Z" stroke="white" stroke-linejoin="round"/>
<path d="M381.502 156.332C391.477 156.332 401.452 156.332 401.452 156.332H451.452C451.452 156.332 441.477 156.332 431.502 156.332H381.502Z" stroke="white" stroke-linejoin="round"/>
<path d="M395.796 145.344V126.964H444.796V145.344H395.796Z" fill="black" stroke="white" stroke-linejoin="round"/>
<path d="M400.47 116.616V97.324H449.47V116.616H400.47Z" fill="black" stroke="white" stroke-linejoin="round"/>
<path d="M401.952 176.124V156.832H450.952V176.124H401.952Z" fill="black" stroke="white" stroke-linejoin="round"/>
<path d="M461.336 108.724C458.899 112.569 457.637 116.799 457.552 121.404H408.552C408.641 116.773 409.966 112.55 412.53 108.724H461.336Z" fill="black" stroke="white" stroke-linejoin="round"/>
<path d="M412.834 135.198C410.077 132.008 408.635 127.759 408.551 122.404H457.551C457.63 127.595 458.948 131.873 461.54 135.198H412.834Z" fill="black" stroke="white" stroke-linejoin="round"/>
<path d="M464.689 151.132L456.467 169.74H407.561L415.783 151.132H464.689Z" fill="black" stroke="white" stroke-linejoin="round"/>
<path d="M468.407 175.782H422.243C416.863 174.466 412.33 172.783 408.634 170.74H456.651C459.889 172.738 463.81 174.417 468.407 175.782Z" fill="black" stroke="white" stroke-linejoin="round"/>
<path d="M470.855 142.494H423.413C419.771 141.131 416.557 139.035 413.767 136.198H462.387C464.864 138.883 467.687 140.983 470.855 142.494Z" fill="black" stroke="white" stroke-linejoin="round"/>
<path d="M472.519 99.0339C468.015 101.27 464.503 104.163 462.003 107.724H413.239C415.955 104.103 419.835 101.203 424.907 99.0339H472.519Z" fill="black" stroke="white" stroke-linejoin="round"/>
<path d="M474.992 155.49H428.296C424.331 154.334 420.696 152.881 417.391 151.132H465.323C468.278 152.835 471.501 154.288 474.992 155.49Z" fill="black" stroke="white" stroke-linejoin="round"/>
<path d="M478.071 177.919H439.291C435.234 177.816 431.236 177.437 427.296 176.782H472.127C474.093 177.231 476.075 177.61 478.071 177.919Z" fill="black" stroke="white" stroke-linejoin="round"/>
<path d="M484.159 146.598H438.765C434.046 145.606 429.94 144.571 426.444 143.494H473.238C476.316 144.573 479.957 145.607 484.159 146.598Z" fill="black" stroke="white" stroke-linejoin="round"/>
<path d="M445.211 95.5H483.43C480.27 96.0859 477.361 96.9299 474.705 98.034H427.554C432.576 96.3486 438.459 95.5 445.211 95.5Z" fill="black" stroke="white" stroke-linejoin="round"/>
<path d="M478.158 156.49C479.49 156.854 480.808 157.166 482.112 157.428H441.791C438.797 157.428 435.708 157.116 432.522 156.49H478.158Z" fill="black" stroke="white" stroke-linejoin="round"/>
<path d="M485.757 123.684H437.786C436.855 123.293 436.191 122.833 435.761 122.322C435.435 121.936 435.232 121.51 435.151 121.036H484.14C484.23 121.751 484.516 122.399 484.996 122.967C485.214 123.225 485.468 123.463 485.757 123.684Z" fill="black" stroke="white" stroke-linejoin="round"/>
<path d="M435.14 120.036C435.207 119.504 435.386 119.037 435.669 118.625C436.041 118.086 436.614 117.614 437.42 117.224C439.047 116.438 441.549 116.02 444.983 116.02H487.695C487.445 116.114 487.209 116.216 486.985 116.324C486.062 116.77 485.338 117.343 484.846 118.058C484.441 118.645 484.206 119.308 484.133 120.036H435.14Z" fill="black" stroke="white" stroke-linejoin="round"/>
<mask id="path-122-inside-4" fill="white">
<path d="M439.285 178.419C440.042 178.438 440.802 178.448 441.563 178.448H491.563C490.802 178.448 490.042 178.438 489.285 178.419H439.285Z"/>
</mask>
<path d="M439.285 178.419C440.042 178.438 440.802 178.448 441.563 178.448H491.563C490.802 178.448 490.042 178.438 489.285 178.419H439.285Z" fill="black"/>
<path d="M439.285 178.419V177.419C438.737 177.419 438.292 177.859 438.285 178.407C438.278 178.954 438.712 179.405 439.259 179.419L439.285 178.419ZM489.285 178.419L489.31 177.42C489.302 177.419 489.293 177.419 489.285 177.419V178.419ZM491.563 179.448C492.115 179.448 492.563 179 492.563 178.448C492.563 177.896 492.115 177.448 491.563 177.448V179.448ZM441.563 177.448C440.81 177.448 440.059 177.438 439.31 177.42L439.259 179.419C440.025 179.438 440.793 179.448 441.563 179.448V177.448ZM439.285 179.419H489.285V177.419H439.285V179.419ZM489.259 179.419C490.025 179.438 490.793 179.448 491.563 179.448V177.448C490.81 177.448 490.059 177.438 489.31 177.42L489.259 179.419ZM491.563 177.448H441.563V179.448H491.563V177.448Z" fill="white" mask="url(#path-122-inside-4)"/>
<path d="M493.01 126.192H447.881C445.143 125.661 442.867 125.159 441.049 124.684H487.598C488.905 125.161 490.711 125.664 493.01 126.192Z" fill="black" stroke="white" stroke-linejoin="round"/>
<path d="M495.922 149.334H449.07C447.694 148.782 445.755 148.204 443.259 147.598H488.662C491.617 148.209 494.035 148.788 495.922 149.334Z" fill="black" stroke="white" stroke-linejoin="round"/>
<path d="M493.479 157.402C492.945 157.419 492.383 157.428 491.791 157.428H449.807C449.829 157.419 449.85 157.411 449.872 157.402H493.479Z" fill="black" stroke="white" stroke-linejoin="round"/>
<mask id="path-127-inside-5" fill="white">
<path d="M447.034 95.0226C446.428 95.0075 445.82 95 445.211 95H495.211C495.82 95 496.428 95.0075 497.034 95.0226H447.034Z"/>
</mask>
<path d="M447.034 95.0226C446.428 95.0075 445.82 95 445.211 95H495.211C495.82 95 496.428 95.0075 497.034 95.0226H447.034Z" fill="black"/>
<path d="M445.211 94C444.659 94 444.211 94.4477 444.211 95C444.211 95.5523 444.659 96 445.211 96V94ZM447.034 95.0226L447.01 96.0223C447.018 96.0225 447.026 96.0226 447.034 96.0226V95.0226ZM497.034 95.0226V96.0226C497.582 96.0226 498.028 95.5824 498.034 95.035C498.041 94.4876 497.607 94.0365 497.059 94.0229L497.034 95.0226ZM445.211 96C445.812 96 446.412 96.0074 447.01 96.0223L447.059 94.0229C446.445 94.0076 445.828 94 445.211 94V96ZM447.034 96.0226H497.034V94.0226H447.034V96.0226ZM497.059 94.0229C496.445 94.0076 495.828 94 495.211 94V96C495.812 96 496.412 96.0074 497.01 96.0223L497.059 94.0229ZM495.211 94H445.211V96H495.211V94Z" fill="white" mask="url(#path-127-inside-5)"/>
<path d="M451.748 151.078C451.52 150.809 451.253 150.562 450.948 150.334H498.877C499.847 150.726 500.537 151.196 500.986 151.725C501.331 152.132 501.544 152.586 501.626 153.096H452.636C452.546 152.345 452.249 151.669 451.748 151.078Z" fill="black" stroke="white" stroke-linejoin="round"/>
<path d="M452.635 154.096H501.626C501.558 154.51 501.402 154.88 501.162 155.212C500.839 155.657 500.347 156.058 499.656 156.402H451.433C451.636 156.215 451.816 156.014 451.971 155.799C452.34 155.29 452.56 154.719 452.635 154.096Z" fill="black" stroke="white" stroke-linejoin="round"/>
<path d="M461.956 175.414H509.137C504.171 177.099 498.316 177.948 491.563 177.948H453.312C456.453 177.362 459.335 176.518 461.956 175.414Z" fill="black" stroke="white" stroke-linejoin="round"/>
<path d="M506.052 96.3241H461.342C460.02 96.0186 458.69 95.7515 457.353 95.5227H497.028C500.072 95.5986 503.08 95.8658 506.052 96.3241Z" fill="black" stroke="white" stroke-linejoin="round"/>
<path d="M510.172 130.182H463.311C460.28 129.085 456.763 128.089 452.762 127.192H497.787C502.494 128.076 506.622 129.073 510.172 130.182Z" fill="black" stroke="white" stroke-linejoin="round"/>
<path d="M467.332 120.948C462.707 118.622 458.217 116.978 453.864 116.02H494.983C501.301 116.02 507.985 117.656 515.04 120.948H467.332Z" fill="black" stroke="white" stroke-linejoin="round"/>
<path d="M511.751 174.414H464.117C468.7 172.128 472.257 169.234 474.768 165.724H523.524C520.804 169.277 516.889 172.178 511.751 174.414Z" fill="black" stroke="white" stroke-linejoin="round"/>
<path d="M523.308 101.454H475.438C472.426 99.7621 469.065 98.3862 465.357 97.324H511.232C515.732 98.2922 519.756 99.67 523.308 101.454Z" fill="black" stroke="white" stroke-linejoin="round"/>
<path d="M474.273 137.364C471.817 134.703 468.997 132.641 465.815 131.182H513.139C516.848 132.476 520.097 134.535 522.891 137.364H474.273Z" fill="black" stroke="white" stroke-linejoin="round"/>
<path d="M516.879 120.948H467.962L475.641 102.454H524.558L516.879 120.948Z" fill="black" stroke="white" stroke-linejoin="round"/>
<path d="M479.223 151.044C479.142 145.866 477.797 141.625 475.15 138.364H523.833C526.658 141.482 528.137 145.691 528.223 151.044H479.223Z" fill="black" stroke="white" stroke-linejoin="round"/>
<path d="M524.244 164.724H475.438C477.875 160.879 479.137 156.649 479.222 152.044H528.222C528.134 156.675 526.808 160.898 524.244 164.724Z" fill="black" stroke="white" stroke-linejoin="round"/>
<path d="M536.233 176.124H487.233V97.324H536.233V176.124Z" fill="black" stroke="white" stroke-linejoin="round"/>
<path d="M486.733 96.824C486.733 96.824 493.459 96.824 500.185 96.824H550.185C543.459 96.824 536.733 96.824 536.733 96.824H486.733Z" stroke="white" stroke-linejoin="round"/>
<path d="M500.185 176.624C493.459 176.624 486.733 176.624 486.733 176.624H536.733C536.733 176.624 543.459 176.624 550.185 176.624H500.185Z" stroke="white" stroke-linejoin="round"/>
<path d="M513.637 176.624C513.637 176.624 506.911 176.624 500.185 176.624H550.185C556.911 176.624 563.637 176.624 563.637 176.624H513.637Z" stroke="white" stroke-linejoin="round"/>
<path d="M500.185 96.824C506.911 96.824 513.637 96.824 513.637 96.824H563.637C563.637 96.824 556.911 96.824 550.185 96.824H500.185Z" stroke="white" stroke-linejoin="round"/>
<path d="M514.137 176.124V147.712H563.137V176.124H514.137Z" fill="black" stroke="white" stroke-linejoin="round"/>
<path d="M514.137 124.596V97.324H563.137V124.596H514.137Z" fill="black" stroke="white" stroke-linejoin="round"/>
<path d="M513.637 125.096C513.637 125.096 519.85 125.096 526.063 125.096H576.063C569.85 125.096 563.637 125.096 563.637 125.096H513.637Z" stroke="white" stroke-linejoin="round"/>
<path d="M526.063 147.212C519.85 147.212 513.637 147.212 513.637 147.212H563.637C563.637 147.212 569.85 147.212 576.063 147.212H526.063Z" stroke="white" stroke-linejoin="round"/>
<path d="M538.489 147.212C538.489 147.212 532.276 147.212 526.063 147.212H576.063C582.276 147.212 588.489 147.212 588.489 147.212H538.489Z" stroke="white" stroke-linejoin="round"/>
<path d="M526.063 125.096C532.276 125.096 538.489 125.096 538.489 125.096H588.489C588.489 125.096 582.276 125.096 576.063 125.096H526.063Z" stroke="white" stroke-linejoin="round"/>
<path d="M587.989 176.124H538.989V147.712H587.989V176.124Z" fill="black" stroke="white" stroke-linejoin="round"/>
<path d="M587.989 124.596H538.989V97.324H587.989V124.596Z" fill="black" stroke="white" stroke-linejoin="round"/>
<path d="M538.489 96.824C538.489 96.824 545.215 96.824 551.941 96.824H601.941C595.215 96.824 588.489 96.824 588.489 96.824H538.489Z" stroke="white" stroke-linejoin="round"/>
<path d="M551.941 176.624C545.215 176.624 538.489 176.624 538.489 176.624H588.489C588.489 176.624 595.215 176.624 601.941 176.624H551.941Z" stroke="white" stroke-linejoin="round"/>
<path d="M565.393 176.624C565.393 176.624 558.667 176.624 551.941 176.624H601.941C608.667 176.624 615.393 176.624 615.393 176.624H565.393Z" stroke="white" stroke-linejoin="round"/>
<path d="M551.941 96.824C558.667 96.824 565.393 96.824 565.393 96.824H615.393C615.393 96.824 608.667 96.824 601.941 96.824H551.941Z" stroke="white" stroke-linejoin="round"/>
<path d="M565.893 176.124V97.324H614.893V176.124H565.893Z" fill="black" stroke="white" stroke-linejoin="round"/>
<path d="M627.856 176.124H578.856V97.324H627.856V176.124Z" fill="black" stroke="white" stroke-linejoin="round"/>
<path d="M578.356 96.824C578.356 96.824 585.082 96.824 591.808 96.824H641.808C635.082 96.824 628.356 96.824 628.356 96.824H578.356Z" stroke="white" stroke-linejoin="round"/>
<path d="M591.808 176.624C585.082 176.624 578.356 176.624 578.356 176.624H628.356C628.356 176.624 635.082 176.624 641.808 176.624H591.808Z" stroke="white" stroke-linejoin="round"/>
<path d="M605.26 176.624C605.26 176.624 598.534 176.624 591.808 176.624H641.808C648.534 176.624 655.26 176.624 655.26 176.624H605.26Z" stroke="white" stroke-linejoin="round"/>
<path d="M591.808 96.824C598.534 96.824 605.26 96.824 605.26 96.824H655.26C655.26 96.824 648.534 96.824 641.808 96.824H591.808Z" stroke="white" stroke-linejoin="round"/>
<path d="M605.76 176.124V97.324H654.76V176.124H605.76Z" fill="black" stroke="white" stroke-linejoin="round"/>
<path d="M667.711 176.124H618.711V97.324H667.711V176.124Z" fill="black" stroke="white" stroke-linejoin="round"/>
<path d="M631.663 176.624C624.937 176.624 618.211 176.624 618.211 176.624H668.211C668.211 176.624 674.937 176.624 681.663 176.624H631.663Z" stroke="white" stroke-linejoin="round"/>
<path d="M618.211 96.824C618.211 96.824 627.816 96.824 637.42 96.824H687.42C677.816 96.824 668.211 96.824 668.211 96.824H618.211Z" stroke="white" stroke-linejoin="round"/>
<path d="M645.115 176.624C645.115 176.624 638.389 176.624 631.663 176.624H681.663C688.389 176.624 695.115 176.624 695.115 176.624H645.115Z" stroke="white" stroke-linejoin="round"/>
<path d="M645.615 176.124V157.516H694.615V176.124H645.615Z" fill="black" stroke="white" stroke-linejoin="round"/>
<path d="M645.615 135.768V118.072H694.615V135.768H645.615Z" fill="black" stroke="white" stroke-linejoin="round"/>
<path d="M637.42 96.824C647.025 96.824 656.629 96.824 656.629 96.824H706.629C706.629 96.824 697.025 96.824 687.42 96.824H637.42Z" stroke="white" stroke-linejoin="round"/>
<path d="M645.115 136.268C645.115 136.268 647.566 136.268 650.017 136.268H700.017C697.566 136.268 695.115 136.268 695.115 136.268H645.115Z" stroke="white" stroke-linejoin="round"/>
<path d="M650.017 117.572C647.566 117.572 645.115 117.572 645.115 117.572H695.115C695.115 117.572 697.566 117.572 700.017 117.572H650.017Z" stroke="white" stroke-linejoin="round"/>
<path d="M650.872 157.016C647.994 157.016 645.115 157.016 645.115 157.016H695.115C695.115 157.016 697.994 157.016 700.872 157.016H650.872Z" stroke="white" stroke-linejoin="round"/>
<path d="M654.919 117.572C654.919 117.572 652.468 117.572 650.017 117.572H700.017C702.468 117.572 704.919 117.572 704.919 117.572H654.919Z" stroke="white" stroke-linejoin="round"/>
<path d="M650.017 136.268C652.468 136.268 654.919 136.268 654.919 136.268H704.919C704.919 136.268 702.468 136.268 700.017 136.268H650.017Z" stroke="white" stroke-linejoin="round"/>
<path d="M656.629 157.016C656.629 157.016 653.751 157.016 650.872 157.016H700.872C703.751 157.016 706.629 157.016 706.629 157.016H656.629Z" stroke="white" stroke-linejoin="round"/>
<path d="M711.549 134.374C709.913 135.29 707.718 135.768 704.919 135.768H660.949C661.841 135.405 662.63 134.942 663.312 134.374H711.549Z" fill="black" stroke="white" stroke-linejoin="round"/>
<path d="M663.318 119.58C662.608 118.96 661.78 118.459 660.839 118.072H704.919C707.761 118.072 709.98 118.589 711.623 119.58H663.318Z" fill="black" stroke="white" stroke-linejoin="round"/>
<path d="M666.355 127.42H715.354C715.26 129.952 714.44 131.92 712.929 133.374H664.291C665.592 131.797 666.272 129.801 666.355 127.42Z" fill="black" stroke="white" stroke-linejoin="round"/>
<path d="M666.355 126.42C666.273 124.062 665.603 122.103 664.318 120.58H712.936C714.44 121.964 715.26 123.891 715.354 126.42H666.355Z" fill="black" stroke="white" stroke-linejoin="round"/>
<path d="M667.477 97.324H706.629C712.899 97.324 718.459 98.2101 723.316 99.972H676.001C673.371 98.8121 670.529 97.93 667.477 97.324Z" fill="black" stroke="white" stroke-linejoin="round"/>
<path d="M676.001 153.868H723.316C718.459 155.63 712.899 156.516 706.629 156.516H667.477C670.529 155.91 673.371 155.028 676.001 153.868Z" fill="black" stroke="white" stroke-linejoin="round"/>
<path d="M688.819 110.46C686.181 106.488 682.598 103.326 678.084 100.972H725.789C730.821 103.226 734.755 106.39 737.608 110.46H688.819Z" fill="black" stroke="white" stroke-linejoin="round"/>
<path d="M725.789 152.868H678.084C682.598 150.514 686.181 147.352 688.819 143.38H737.608C734.755 147.45 730.821 150.614 725.789 152.868Z" fill="black" stroke="white" stroke-linejoin="round"/>
<path d="M693.492 126.42C693.417 120.798 692.074 115.806 689.452 111.46H738.276C741.005 115.754 742.414 120.735 742.492 126.42H693.492Z" fill="black" stroke="white" stroke-linejoin="round"/>
<path d="M738.276 142.38H689.452C692.074 138.034 693.417 133.042 693.492 127.42H742.492C742.414 133.105 741.005 138.086 738.276 142.38Z" fill="black" stroke="white" stroke-linejoin="round"/>
<mask id="path-188-inside-6" fill="white">
<path d="M34.77 178.448C28.158 178.448 21.698 177.726 15.39 176.282C9.158 174.762 4.028 172.748 0 170.24L8.664 150.632C12.464 152.836 16.72 154.622 21.432 155.99C26.144 157.282 30.666 157.928 34.998 157.928C38.722 157.928 41.382 157.586 42.978 156.902C44.574 156.142 45.372 155.04 45.372 153.596C45.372 151.924 44.308 150.67 42.18 149.834C40.128 148.998 36.708 148.086 31.92 147.098C25.764 145.806 20.634 144.438 16.53 142.994C12.426 141.474 8.854 139.042 5.814 135.698C2.774 132.278 1.254 127.68 1.254 121.904C1.254 116.888 2.66 112.328 5.472 108.224C8.284 104.12 12.464 100.89 18.012 98.534C23.636 96.178 30.438 95 38.418 95C43.89 95 49.248 95.608 54.492 96.824C59.812 97.964 64.486 99.674 68.514 101.954L60.42 121.448C52.592 117.496 45.182 115.52 38.19 115.52C31.274 115.52 27.816 117.192 27.816 120.536C27.816 122.132 28.842 123.348 30.894 124.184C32.946 124.944 36.328 125.78 41.04 126.692C47.12 127.832 52.25 129.162 56.43 130.682C60.61 132.126 64.22 134.52 67.26 137.864C70.376 141.208 71.934 145.768 71.934 151.544C71.934 156.56 70.528 161.12 67.716 165.224C64.904 169.252 60.686 172.482 55.062 174.914C49.514 177.27 42.75 178.448 34.77 178.448Z"/>
<path d="M118.358 96.824C125.73 96.824 132.152 98.04 137.624 100.472C143.096 102.904 147.314 106.4 150.278 110.96C153.242 115.52 154.724 120.84 154.724 126.92C154.724 133 153.242 138.32 150.278 142.88C147.314 147.44 143.096 150.936 137.624 153.368C132.152 155.8 125.73 157.016 118.358 157.016H106.844V176.624H79.9398V96.824H118.358ZM116.648 136.268C120.296 136.268 123.032 135.47 124.856 133.874C126.68 132.202 127.592 129.884 127.592 126.92C127.592 123.956 126.68 121.676 124.856 120.08C123.032 118.408 120.296 117.572 116.648 117.572H106.844V136.268H116.648Z"/>
<path d="M213.917 162.716H183.593L178.235 176.624H150.875L185.759 96.824H212.207L247.091 176.624H219.275L213.917 162.716ZM206.507 143.336L198.755 123.272L191.003 143.336H206.507Z"/>
<path d="M291.54 178.448C283.104 178.448 275.504 176.7 268.74 173.204C261.976 169.632 256.656 164.692 252.78 158.384C248.98 152 247.08 144.78 247.08 136.724C247.08 128.668 248.98 121.486 252.78 115.178C256.656 108.794 261.976 103.854 268.74 100.358C275.504 96.786 283.104 95 291.54 95C299.292 95 306.208 96.368 312.288 99.104C318.368 101.84 323.384 105.792 327.336 110.96L310.35 126.122C305.41 119.89 299.596 116.774 292.908 116.774C287.284 116.774 282.762 118.598 279.342 122.246C275.922 125.818 274.212 130.644 274.212 136.724C274.212 142.804 275.922 147.668 279.342 151.316C282.762 154.888 287.284 156.674 292.908 156.674C299.596 156.674 305.41 153.558 310.35 147.326L327.336 162.488C323.384 167.656 318.368 171.608 312.288 174.344C306.208 177.08 299.292 178.448 291.54 178.448Z"/>
<path d="M401.452 156.332V176.624H335.104V96.824H399.97V117.116H361.552V126.464H395.296V145.844H361.552V156.332H401.452Z"/>
<path d="M441.563 178.448C434.951 178.448 428.491 177.726 422.183 176.282C415.951 174.762 410.821 172.748 406.793 170.24L415.457 150.632C419.257 152.836 423.513 154.622 428.225 155.99C432.937 157.282 437.459 157.928 441.791 157.928C445.515 157.928 448.175 157.586 449.771 156.902C451.367 156.142 452.165 155.04 452.165 153.596C452.165 151.924 451.101 150.67 448.973 149.834C446.921 148.998 443.501 148.086 438.713 147.098C432.557 145.806 427.427 144.438 423.323 142.994C419.219 141.474 415.647 139.042 412.607 135.698C409.567 132.278 408.047 127.68 408.047 121.904C408.047 116.888 409.453 112.328 412.265 108.224C415.077 104.12 419.257 100.89 424.805 98.534C430.429 96.178 437.231 95 445.211 95C450.683 95 456.041 95.608 461.285 96.824C466.605 97.964 471.279 99.674 475.307 101.954L467.213 121.448C459.385 117.496 451.975 115.52 444.983 115.52C438.067 115.52 434.609 117.192 434.609 120.536C434.609 122.132 435.635 123.348 437.687 124.184C439.739 124.944 443.121 125.78 447.833 126.692C453.913 127.832 459.043 129.162 463.223 130.682C467.403 132.126 471.013 134.52 474.053 137.864C477.169 141.208 478.727 145.768 478.727 151.544C478.727 156.56 477.321 161.12 474.509 165.224C471.697 169.252 467.479 172.482 461.855 174.914C456.307 177.27 449.543 178.448 441.563 178.448Z"/>
<path d="M565.393 96.824V176.624H538.489V147.212H513.637V176.624H486.733V96.824H513.637V125.096H538.489V96.824H565.393Z"/>
<path d="M578.356 96.824H605.26V176.624H578.356V96.824Z"/>
<path d="M656.629 96.824C664.001 96.824 670.423 98.04 675.895 100.472C681.367 102.904 685.585 106.4 688.549 110.96C691.513 115.52 692.995 120.84 692.995 126.92C692.995 133 691.513 138.32 688.549 142.88C685.585 147.44 681.367 150.936 675.895 153.368C670.423 155.8 664.001 157.016 656.629 157.016H645.115V176.624H618.211V96.824H656.629ZM654.919 136.268C658.567 136.268 661.303 135.47 663.127 133.874C664.951 132.202 665.863 129.884 665.863 126.92C665.863 123.956 664.951 121.676 663.127 120.08C661.303 118.408 658.567 117.572 654.919 117.572H645.115V136.268H654.919Z"/>
</mask>
<path d="M34.77 178.448C28.158 178.448 21.698 177.726 15.39 176.282C9.158 174.762 4.028 172.748 0 170.24L8.664 150.632C12.464 152.836 16.72 154.622 21.432 155.99C26.144 157.282 30.666 157.928 34.998 157.928C38.722 157.928 41.382 157.586 42.978 156.902C44.574 156.142 45.372 155.04 45.372 153.596C45.372 151.924 44.308 150.67 42.18 149.834C40.128 148.998 36.708 148.086 31.92 147.098C25.764 145.806 20.634 144.438 16.53 142.994C12.426 141.474 8.854 139.042 5.814 135.698C2.774 132.278 1.254 127.68 1.254 121.904C1.254 116.888 2.66 112.328 5.472 108.224C8.284 104.12 12.464 100.89 18.012 98.534C23.636 96.178 30.438 95 38.418 95C43.89 95 49.248 95.608 54.492 96.824C59.812 97.964 64.486 99.674 68.514 101.954L60.42 121.448C52.592 117.496 45.182 115.52 38.19 115.52C31.274 115.52 27.816 117.192 27.816 120.536C27.816 122.132 28.842 123.348 30.894 124.184C32.946 124.944 36.328 125.78 41.04 126.692C47.12 127.832 52.25 129.162 56.43 130.682C60.61 132.126 64.22 134.52 67.26 137.864C70.376 141.208 71.934 145.768 71.934 151.544C71.934 156.56 70.528 161.12 67.716 165.224C64.904 169.252 60.686 172.482 55.062 174.914C49.514 177.27 42.75 178.448 34.77 178.448Z" fill="#0000FF"/>
<path d="M118.358 96.824C125.73 96.824 132.152 98.04 137.624 100.472C143.096 102.904 147.314 106.4 150.278 110.96C153.242 115.52 154.724 120.84 154.724 126.92C154.724 133 153.242 138.32 150.278 142.88C147.314 147.44 143.096 150.936 137.624 153.368C132.152 155.8 125.73 157.016 118.358 157.016H106.844V176.624H79.9398V96.824H118.358ZM116.648 136.268C120.296 136.268 123.032 135.47 124.856 133.874C126.68 132.202 127.592 129.884 127.592 126.92C127.592 123.956 126.68 121.676 124.856 120.08C123.032 118.408 120.296 117.572 116.648 117.572H106.844V136.268H116.648Z" fill="#0000FF"/>
<path d="M213.917 162.716H183.593L178.235 176.624H150.875L185.759 96.824H212.207L247.091 176.624H219.275L213.917 162.716ZM206.507 143.336L198.755 123.272L191.003 143.336H206.507Z" fill="#0000FF"/>
<path d="M291.54 178.448C283.104 178.448 275.504 176.7 268.74 173.204C261.976 169.632 256.656 164.692 252.78 158.384C248.98 152 247.08 144.78 247.08 136.724C247.08 128.668 248.98 121.486 252.78 115.178C256.656 108.794 261.976 103.854 268.74 100.358C275.504 96.786 283.104 95 291.54 95C299.292 95 306.208 96.368 312.288 99.104C318.368 101.84 323.384 105.792 327.336 110.96L310.35 126.122C305.41 119.89 299.596 116.774 292.908 116.774C287.284 116.774 282.762 118.598 279.342 122.246C275.922 125.818 274.212 130.644 274.212 136.724C274.212 142.804 275.922 147.668 279.342 151.316C282.762 154.888 287.284 156.674 292.908 156.674C299.596 156.674 305.41 153.558 310.35 147.326L327.336 162.488C323.384 167.656 318.368 171.608 312.288 174.344C306.208 177.08 299.292 178.448 291.54 178.448Z" fill="#0000FF"/>
<path d="M401.452 156.332V176.624H335.104V96.824H399.97V117.116H361.552V126.464H395.296V145.844H361.552V156.332H401.452Z" fill="#0000FF"/>
<path d="M441.563 178.448C434.951 178.448 428.491 177.726 422.183 176.282C415.951 174.762 410.821 172.748 406.793 170.24L415.457 150.632C419.257 152.836 423.513 154.622 428.225 155.99C432.937 157.282 437.459 157.928 441.791 157.928C445.515 157.928 448.175 157.586 449.771 156.902C451.367 156.142 452.165 155.04 452.165 153.596C452.165 151.924 451.101 150.67 448.973 149.834C446.921 148.998 443.501 148.086 438.713 147.098C432.557 145.806 427.427 144.438 423.323 142.994C419.219 141.474 415.647 139.042 412.607 135.698C409.567 132.278 408.047 127.68 408.047 121.904C408.047 116.888 409.453 112.328 412.265 108.224C415.077 104.12 419.257 100.89 424.805 98.534C430.429 96.178 437.231 95 445.211 95C450.683 95 456.041 95.608 461.285 96.824C466.605 97.964 471.279 99.674 475.307 101.954L467.213 121.448C459.385 117.496 451.975 115.52 444.983 115.52C438.067 115.52 434.609 117.192 434.609 120.536C434.609 122.132 435.635 123.348 437.687 124.184C439.739 124.944 443.121 125.78 447.833 126.692C453.913 127.832 459.043 129.162 463.223 130.682C467.403 132.126 471.013 134.52 474.053 137.864C477.169 141.208 478.727 145.768 478.727 151.544C478.727 156.56 477.321 161.12 474.509 165.224C471.697 169.252 467.479 172.482 461.855 174.914C456.307 177.27 449.543 178.448 441.563 178.448Z" fill="#0000FF"/>
<path d="M565.393 96.824V176.624H538.489V147.212H513.637V176.624H486.733V96.824H513.637V125.096H538.489V96.824H565.393Z" fill="#0000FF"/>
<path d="M578.356 96.824H605.26V176.624H578.356V96.824Z" fill="#0000FF"/>
<path d="M656.629 96.824C664.001 96.824 670.423 98.04 675.895 100.472C681.367 102.904 685.585 106.4 688.549 110.96C691.513 115.52 692.995 120.84 692.995 126.92C692.995 133 691.513 138.32 688.549 142.88C685.585 147.44 681.367 150.936 675.895 153.368C670.423 155.8 664.001 157.016 656.629 157.016H645.115V176.624H618.211V96.824H656.629ZM654.919 136.268C658.567 136.268 661.303 135.47 663.127 133.874C664.951 132.202 665.863 129.884 665.863 126.92C665.863 123.956 664.951 121.676 663.127 120.08C661.303 118.408 658.567 117.572 654.919 117.572H645.115V136.268H654.919Z" fill="#0000FF"/>
<path d="M34.77 178.448C28.158 178.448 21.698 177.726 15.39 176.282C9.158 174.762 4.028 172.748 0 170.24L8.664 150.632C12.464 152.836 16.72 154.622 21.432 155.99C26.144 157.282 30.666 157.928 34.998 157.928C38.722 157.928 41.382 157.586 42.978 156.902C44.574 156.142 45.372 155.04 45.372 153.596C45.372 151.924 44.308 150.67 42.18 149.834C40.128 148.998 36.708 148.086 31.92 147.098C25.764 145.806 20.634 144.438 16.53 142.994C12.426 141.474 8.854 139.042 5.814 135.698C2.774 132.278 1.254 127.68 1.254 121.904C1.254 116.888 2.66 112.328 5.472 108.224C8.284 104.12 12.464 100.89 18.012 98.534C23.636 96.178 30.438 95 38.418 95C43.89 95 49.248 95.608 54.492 96.824C59.812 97.964 64.486 99.674 68.514 101.954L60.42 121.448C52.592 117.496 45.182 115.52 38.19 115.52C31.274 115.52 27.816 117.192 27.816 120.536C27.816 122.132 28.842 123.348 30.894 124.184C32.946 124.944 36.328 125.78 41.04 126.692C47.12 127.832 52.25 129.162 56.43 130.682C60.61 132.126 64.22 134.52 67.26 137.864C70.376 141.208 71.934 145.768 71.934 151.544C71.934 156.56 70.528 161.12 67.716 165.224C64.904 169.252 60.686 172.482 55.062 174.914C49.514 177.27 42.75 178.448 34.77 178.448Z" stroke="white" stroke-width="2" mask="url(#path-188-inside-6)"/>
<path d="M118.358 96.824C125.73 96.824 132.152 98.04 137.624 100.472C143.096 102.904 147.314 106.4 150.278 110.96C153.242 115.52 154.724 120.84 154.724 126.92C154.724 133 153.242 138.32 150.278 142.88C147.314 147.44 143.096 150.936 137.624 153.368C132.152 155.8 125.73 157.016 118.358 157.016H106.844V176.624H79.9398V96.824H118.358ZM116.648 136.268C120.296 136.268 123.032 135.47 124.856 133.874C126.68 132.202 127.592 129.884 127.592 126.92C127.592 123.956 126.68 121.676 124.856 120.08C123.032 118.408 120.296 117.572 116.648 117.572H106.844V136.268H116.648Z" stroke="white" stroke-width="2" mask="url(#path-188-inside-6)"/>
<path d="M213.917 162.716H183.593L178.235 176.624H150.875L185.759 96.824H212.207L247.091 176.624H219.275L213.917 162.716ZM206.507 143.336L198.755 123.272L191.003 143.336H206.507Z" stroke="white" stroke-width="2" mask="url(#path-188-inside-6)"/>
<path d="M291.54 178.448C283.104 178.448 275.504 176.7 268.74 173.204C261.976 169.632 256.656 164.692 252.78 158.384C248.98 152 247.08 144.78 247.08 136.724C247.08 128.668 248.98 121.486 252.78 115.178C256.656 108.794 261.976 103.854 268.74 100.358C275.504 96.786 283.104 95 291.54 95C299.292 95 306.208 96.368 312.288 99.104C318.368 101.84 323.384 105.792 327.336 110.96L310.35 126.122C305.41 119.89 299.596 116.774 292.908 116.774C287.284 116.774 282.762 118.598 279.342 122.246C275.922 125.818 274.212 130.644 274.212 136.724C274.212 142.804 275.922 147.668 279.342 151.316C282.762 154.888 287.284 156.674 292.908 156.674C299.596 156.674 305.41 153.558 310.35 147.326L327.336 162.488C323.384 167.656 318.368 171.608 312.288 174.344C306.208 177.08 299.292 178.448 291.54 178.448Z" stroke="white" stroke-width="2" mask="url(#path-188-inside-6)"/>
<path d="M401.452 156.332V176.624H335.104V96.824H399.97V117.116H361.552V126.464H395.296V145.844H361.552V156.332H401.452Z" stroke="white" stroke-width="2" mask="url(#path-188-inside-6)"/>
<path d="M441.563 178.448C434.951 178.448 428.491 177.726 422.183 176.282C415.951 174.762 410.821 172.748 406.793 170.24L415.457 150.632C419.257 152.836 423.513 154.622 428.225 155.99C432.937 157.282 437.459 157.928 441.791 157.928C445.515 157.928 448.175 157.586 449.771 156.902C451.367 156.142 452.165 155.04 452.165 153.596C452.165 151.924 451.101 150.67 448.973 149.834C446.921 148.998 443.501 148.086 438.713 147.098C432.557 145.806 427.427 144.438 423.323 142.994C419.219 141.474 415.647 139.042 412.607 135.698C409.567 132.278 408.047 127.68 408.047 121.904C408.047 116.888 409.453 112.328 412.265 108.224C415.077 104.12 419.257 100.89 424.805 98.534C430.429 96.178 437.231 95 445.211 95C450.683 95 456.041 95.608 461.285 96.824C466.605 97.964 471.279 99.674 475.307 101.954L467.213 121.448C459.385 117.496 451.975 115.52 444.983 115.52C438.067 115.52 434.609 117.192 434.609 120.536C434.609 122.132 435.635 123.348 437.687 124.184C439.739 124.944 443.121 125.78 447.833 126.692C453.913 127.832 459.043 129.162 463.223 130.682C467.403 132.126 471.013 134.52 474.053 137.864C477.169 141.208 478.727 145.768 478.727 151.544C478.727 156.56 477.321 161.12 474.509 165.224C471.697 169.252 467.479 172.482 461.855 174.914C456.307 177.27 449.543 178.448 441.563 178.448Z" stroke="white" stroke-width="2" mask="url(#path-188-inside-6)"/>
<path d="M565.393 96.824V176.624H538.489V147.212H513.637V176.624H486.733V96.824H513.637V125.096H538.489V96.824H565.393Z" stroke="white" stroke-width="2" mask="url(#path-188-inside-6)"/>
<path d="M578.356 96.824H605.26V176.624H578.356V96.824Z" stroke="white" stroke-width="2" mask="url(#path-188-inside-6)"/>
<path d="M656.629 96.824C664.001 96.824 670.423 98.04 675.895 100.472C681.367 102.904 685.585 106.4 688.549 110.96C691.513 115.52 692.995 120.84 692.995 126.92C692.995 133 691.513 138.32 688.549 142.88C685.585 147.44 681.367 150.936 675.895 153.368C670.423 155.8 664.001 157.016 656.629 157.016H645.115V176.624H618.211V96.824H656.629ZM654.919 136.268C658.567 136.268 661.303 135.47 663.127 133.874C664.951 132.202 665.863 129.884 665.863 126.92C665.863 123.956 664.951 121.676 663.127 120.08C661.303 118.408 658.567 117.572 654.919 117.572H645.115V136.268H654.919Z" stroke="white" stroke-width="2" mask="url(#path-188-inside-6)"/>
<path d="M303.042 66.892C303.042 66.892 295.461 66.892 287.88 66.892C280.299 66.892 272.718 66.892 272.718 66.892L267.36 80.8C267.36 80.8 260.52 80.8 253.68 80.8C246.84 80.8 240 80.8 240 80.8L274.884 1C274.884 1 281.496 1 288.108 1C294.72 1 301.332 1 301.332 1L336.216 80.8C336.216 80.8 329.262 80.8 322.308 80.8C315.354 80.8 308.4 80.8 308.4 80.8L303.042 66.892ZM287.88 47.512C291.756 47.512 295.632 47.512 295.632 47.512L287.88 27.448L280.128 47.512C280.128 47.512 284.004 47.512 287.88 47.512Z" fill="#0000FF"/>
<path d="M374.71 60.736C374.71 60.736 372.886 60.736 371.062 60.736C369.238 60.736 367.414 60.736 367.414 60.736V80.8C367.414 80.8 360.688 80.8 353.962 80.8C347.236 80.8 340.51 80.8 340.51 80.8V1C340.51 1 350.114 1 359.719 1C369.323 1 378.928 1 378.928 1C386.3 1 392.722 2.216 398.194 4.648C403.666 7.08 407.884 10.576 410.848 15.136C413.812 19.696 415.294 25.016 415.294 31.096C415.294 36.796 414.002 41.774 411.418 46.03C408.834 50.286 405.11 53.668 400.246 56.176L417.004 80.8C417.004 80.8 409.822 80.8 402.64 80.8C395.458 80.8 388.276 80.8 388.276 80.8L374.71 60.736ZM388.162 31.096C388.162 28.132 387.25 25.852 385.426 24.256C383.602 22.584 380.866 21.748 377.218 21.748C377.218 21.748 374.767 21.748 372.316 21.748C369.865 21.748 367.414 21.748 367.414 21.748V40.444C367.414 40.444 369.865 40.444 372.316 40.444C374.767 40.444 377.218 40.444 377.218 40.444C380.866 40.444 383.602 39.646 385.426 38.05C387.25 36.378 388.162 34.06 388.162 31.096Z" fill="#0000FF"/>
<path d="M441.668 21.862C441.668 21.862 435.825 21.862 429.983 21.862C424.14 21.862 418.298 21.862 418.298 21.862V1C418.298 1 436.709 1 455.12 1C473.531 1 491.942 1 491.942 1V21.862C491.942 21.862 486.099 21.862 480.257 21.862C474.414 21.862 468.572 21.862 468.572 21.862V80.8C468.572 80.8 461.846 80.8 455.12 80.8C448.394 80.8 441.668 80.8 441.668 80.8V21.862Z" fill="#0000FF"/>
<path d="M303.042 66.892C303.042 66.892 295.461 66.892 287.88 66.892C280.299 66.892 272.718 66.892 272.718 66.892L267.36 80.8C267.36 80.8 260.52 80.8 253.68 80.8C246.84 80.8 240 80.8 240 80.8L274.884 1C274.884 1 281.496 1 288.108 1C294.72 1 301.332 1 301.332 1L336.216 80.8C336.216 80.8 329.262 80.8 322.308 80.8C315.354 80.8 308.4 80.8 308.4 80.8L303.042 66.892ZM287.88 47.512C291.756 47.512 295.632 47.512 295.632 47.512L287.88 27.448L280.128 47.512C280.128 47.512 284.004 47.512 287.88 47.512Z" stroke="black"/>
<path d="M374.71 60.736C374.71 60.736 372.886 60.736 371.062 60.736C369.238 60.736 367.414 60.736 367.414 60.736V80.8C367.414 80.8 360.688 80.8 353.962 80.8C347.236 80.8 340.51 80.8 340.51 80.8V1C340.51 1 350.114 1 359.719 1C369.323 1 378.928 1 378.928 1C386.3 1 392.722 2.216 398.194 4.648C403.666 7.08 407.884 10.576 410.848 15.136C413.812 19.696 415.294 25.016 415.294 31.096C415.294 36.796 414.002 41.774 411.418 46.03C408.834 50.286 405.11 53.668 400.246 56.176L417.004 80.8C417.004 80.8 409.822 80.8 402.64 80.8C395.458 80.8 388.276 80.8 388.276 80.8L374.71 60.736ZM388.162 31.096C388.162 28.132 387.25 25.852 385.426 24.256C383.602 22.584 380.866 21.748 377.218 21.748C377.218 21.748 374.767 21.748 372.316 21.748C369.865 21.748 367.414 21.748 367.414 21.748V40.444C367.414 40.444 369.865 40.444 372.316 40.444C374.767 40.444 377.218 40.444 377.218 40.444C380.866 40.444 383.602 39.646 385.426 38.05C387.25 36.378 388.162 34.06 388.162 31.096Z" stroke="black"/>
<path d="M441.668 21.862C441.668 21.862 435.825 21.862 429.983 21.862C424.14 21.862 418.298 21.862 418.298 21.862V1C418.298 1 436.709 1 455.12 1C473.531 1 491.942 1 491.942 1V21.862C491.942 21.862 486.099 21.862 480.257 21.862C474.414 21.862 468.572 21.862 468.572 21.862V80.8C468.572 80.8 461.846 80.8 455.12 80.8C448.394 80.8 441.668 80.8 441.668 80.8V21.862Z" stroke="black"/>
<path d="M203.68 80.8C196.84 80.8 190 80.8 190 80.8H240C240 80.8 246.84 80.8 253.68 80.8H203.68Z" stroke="black" stroke-linejoin="round"/>
<path d="M217.36 80.8C217.36 80.8 210.52 80.8 203.68 80.8H253.68C260.52 80.8 267.36 80.8 267.36 80.8H217.36Z" stroke="black" stroke-linejoin="round"/>
<path d="M224.884 1L190 80.8H240L274.884 1H224.884Z" fill="#0000FF" stroke="black" stroke-linejoin="round"/>
<path d="M224.884 1C224.884 1 231.496 1 238.108 1H288.108C281.496 1 274.884 1 274.884 1H224.884Z" stroke="black" stroke-linejoin="round"/>
<path d="M217.36 80.8001L222.718 66.8921H272.718L267.36 80.8001H217.36Z" fill="#0000FF" stroke="black" stroke-linejoin="round"/>
<path d="M237.88 66.8921C230.299 66.8921 222.718 66.8921 222.718 66.8921H272.718C272.718 66.8921 280.299 66.8921 287.88 66.8921H237.88Z" stroke="black" stroke-linejoin="round"/>
<path d="M253.042 66.8921L258.4 80.8001H308.4L303.042 66.8921H253.042Z" fill="#0000FF" stroke="black" stroke-linejoin="round"/>
<path d="M230.128 47.512C230.128 47.512 234.004 47.512 237.88 47.512H287.88C284.004 47.512 280.128 47.512 280.128 47.512H230.128Z" stroke="black" stroke-linejoin="round"/>
<path d="M230.128 47.512L237.88 27.448H287.88L280.128 47.512H230.128Z" fill="#0000FF" stroke="black" stroke-linejoin="round"/>
<path d="M237.88 47.512C241.756 47.512 245.632 47.512 245.632 47.512H295.632C295.632 47.512 291.756 47.512 287.88 47.512H237.88Z" stroke="black" stroke-linejoin="round"/>
<path d="M237.88 27.448L245.632 47.512H295.632L287.88 27.448H237.88Z" fill="#0000FF" stroke="black" stroke-linejoin="round"/>
<path d="M238.108 1C244.72 1 251.332 1 251.332 1H301.332C301.332 1 294.72 1 288.108 1H238.108Z" stroke="black" stroke-linejoin="round"/>
<path d="M253.042 66.8921C253.042 66.8921 245.461 66.8921 237.88 66.8921H287.88C295.461 66.8921 303.042 66.8921 303.042 66.8921H253.042Z" stroke="black" stroke-linejoin="round"/>
<path d="M324.71 60.7361C324.71 60.7361 322.886 60.7361 321.062 60.7361H371.062C372.886 60.7361 374.71 60.7361 374.71 60.7361H324.71Z" stroke="black" stroke-linejoin="round"/>
<path d="M272.308 80.8C265.354 80.8 258.4 80.8 258.4 80.8H308.4C308.4 80.8 315.354 80.8 322.308 80.8H272.308Z" stroke="black" stroke-linejoin="round"/>
<path d="M286.216 80.8L251.332 1H301.332L336.216 80.8H286.216Z" fill="#0000FF" stroke="black" stroke-linejoin="round"/>
<path d="M286.216 80.8C286.216 80.8 279.262 80.8 272.308 80.8H322.308C329.262 80.8 336.216 80.8 336.216 80.8H286.216Z" stroke="black" stroke-linejoin="round"/>
<path d="M290.51 1V80.8H340.51V1H290.51Z" fill="#0000FF" stroke="black" stroke-linejoin="round"/>
<path d="M303.962 80.8C297.236 80.8 290.51 80.8 290.51 80.8H340.51C340.51 80.8 347.236 80.8 353.962 80.8H303.962Z" stroke="black" stroke-linejoin="round"/>
<path d="M290.51 1C290.51 1 300.114 1 309.719 1H359.719C350.114 1 340.51 1 340.51 1H290.51Z" stroke="black" stroke-linejoin="round"/>
<path d="M317.414 80.8C317.414 80.8 310.688 80.8 303.962 80.8H353.962C360.688 80.8 367.414 80.8 367.414 80.8H317.414Z" stroke="black" stroke-linejoin="round"/>
<path d="M317.414 80.8001V60.7361H367.414V80.8001H317.414Z" fill="#0000FF" stroke="black" stroke-linejoin="round"/>
<path d="M317.414 40.444V21.748H367.414V40.444H317.414Z" fill="#0000FF" stroke="black" stroke-linejoin="round"/>
<path d="M321.062 60.7361C319.238 60.7361 317.414 60.7361 317.414 60.7361H367.414C367.414 60.7361 369.238 60.7361 371.062 60.7361H321.062Z" stroke="black" stroke-linejoin="round"/>
<path d="M309.719 1C319.323 1 328.928 1 328.928 1H378.928C378.928 1 369.323 1 359.719 1H309.719Z" stroke="black" stroke-linejoin="round"/>
<path d="M317.414 40.4441C317.414 40.4441 319.865 40.4441 322.316 40.4441H372.316C369.865 40.4441 367.414 40.4441 367.414 40.4441H317.414Z" stroke="black" stroke-linejoin="round"/>
<path d="M322.316 21.748C319.865 21.748 317.414 21.748 317.414 21.748H367.414C367.414 21.748 369.865 21.748 372.316 21.748H322.316Z" stroke="black" stroke-linejoin="round"/>
<path d="M441.942 21.862V1H491.942V21.862H441.942Z" fill="#0000FF" stroke="black" stroke-linejoin="round"/>
<path d="M327.218 21.748C327.218 21.748 324.767 21.748 322.316 21.748H372.316C374.767 21.748 377.218 21.748 377.218 21.748H327.218Z" stroke="black" stroke-linejoin="round"/>
<path d="M322.316 40.4441C324.767 40.4441 327.218 40.4441 327.218 40.4441H377.218C377.218 40.4441 374.767 40.4441 372.316 40.4441H322.316Z" stroke="black" stroke-linejoin="round"/>
<path d="M327.218 21.748C330.866 21.748 333.602 22.584 335.426 24.256H385.426C383.602 22.584 380.866 21.748 377.218 21.748H327.218Z" fill="#0000FF" stroke="black" stroke-linejoin="round"/>
<path d="M335.426 38.05C333.602 39.6461 330.866 40.444 327.218 40.444H377.218C380.866 40.444 383.602 39.6461 385.426 38.05H335.426Z" fill="#0000FF" stroke="black" stroke-linejoin="round"/>
<path d="M324.71 60.7361L338.276 80.8001H388.276L374.71 60.7361H324.71Z" fill="#0000FF" stroke="black" stroke-linejoin="round"/>
<path d="M335.426 24.2561C337.25 25.8521 338.162 28.1321 338.162 31.0961H388.162C388.162 28.1321 387.25 25.8521 385.426 24.2561H335.426Z" fill="#0000FF" stroke="black" stroke-linejoin="round"/>
<path d="M338.162 31.0959C338.162 34.0599 337.25 36.3779 335.426 38.0499H385.426C387.25 36.3779 388.162 34.0599 388.162 31.0959H338.162Z" fill="#0000FF" stroke="black" stroke-linejoin="round"/>
<path d="M348.194 4.648C342.722 2.216 336.3 1 328.928 1H378.928C386.3 1 392.722 2.216 398.194 4.648H348.194Z" fill="#0000FF" stroke="black" stroke-linejoin="round"/>
<path d="M352.64 80.8C345.458 80.8 338.276 80.8 338.276 80.8H388.276C388.276 80.8 395.458 80.8 402.64 80.8H352.64Z" stroke="black" stroke-linejoin="round"/>
<path d="M360.848 15.1359C357.884 10.5759 353.666 7.07995 348.194 4.64795H398.194C403.666 7.07995 407.884 10.5759 410.848 15.1359H360.848Z" fill="#0000FF" stroke="black" stroke-linejoin="round"/>
<path d="M350.246 56.176C355.11 53.668 358.834 50.286 361.418 46.03H411.418C408.834 50.286 405.11 53.668 400.246 56.176H350.246Z" fill="#0000FF" stroke="black" stroke-linejoin="round"/>
<path d="M367.004 80.8L350.246 56.176H400.246L417.004 80.8H367.004Z" fill="#0000FF" stroke="black" stroke-linejoin="round"/>
<path d="M367.004 80.8C367.004 80.8 359.822 80.8 352.64 80.8H402.64C409.822 80.8 417.004 80.8 417.004 80.8H367.004Z" stroke="black" stroke-linejoin="round"/>
<path d="M365.294 31.096C365.294 25.016 363.812 19.696 360.848 15.136H410.848C413.812 19.696 415.294 25.016 415.294 31.096H365.294Z" fill="#0000FF" stroke="black" stroke-linejoin="round"/>
<path d="M361.418 46.0299C364.002 41.7739 365.294 36.7959 365.294 31.0959H415.294C415.294 36.7959 414.002 41.7739 411.418 46.0299H361.418Z" fill="#0000FF" stroke="black" stroke-linejoin="round"/>
<path d="M368.298 1V21.862H418.298V1H368.298Z" fill="#0000FF" stroke="black" stroke-linejoin="round"/>
<path d="M379.983 21.8621C374.14 21.8621 368.298 21.8621 368.298 21.8621H418.298C418.298 21.8621 424.14 21.8621 429.983 21.8621H379.983Z" stroke="black" stroke-linejoin="round"/>
<path d="M391.668 21.8621C391.668 21.8621 385.825 21.8621 379.983 21.8621H429.983C435.825 21.8621 441.668 21.8621 441.668 21.8621H391.668Z" stroke="black" stroke-linejoin="round"/>
<path d="M368.298 1C368.298 1 386.709 1 405.12 1H455.12C436.709 1 418.298 1 418.298 1H368.298Z" stroke="black" stroke-linejoin="round"/>
<path d="M391.668 21.8621V80.8001H441.668V21.8621H391.668Z" fill="#0000FF" stroke="black" stroke-linejoin="round"/>
<path d="M405.12 80.8C398.394 80.8 391.668 80.8 391.668 80.8H441.668C441.668 80.8 448.394 80.8 455.12 80.8H405.12Z" stroke="black" stroke-linejoin="round"/>
<path d="M418.572 80.8C418.572 80.8 411.846 80.8 405.12 80.8H455.12C461.846 80.8 468.572 80.8 468.572 80.8H418.572Z" stroke="black" stroke-linejoin="round"/>
<path d="M418.572 80.8001V21.8621H468.572V80.8001H418.572Z" fill="#0000FF" stroke="black" stroke-linejoin="round"/>
<path d="M405.12 1C423.531 1 441.942 1 441.942 1H491.942C491.942 1 473.531 1 455.12 1H405.12Z" stroke="black" stroke-linejoin="round"/>
<path d="M430.257 21.8621C424.414 21.8621 418.572 21.8621 418.572 21.8621H468.572C468.572 21.8621 474.414 21.8621 480.257 21.8621H430.257Z" stroke="black" stroke-linejoin="round"/>
<path d="M441.942 21.8621C441.942 21.8621 436.099 21.8621 430.257 21.8621H480.257C486.099 21.8621 491.942 21.8621 491.942 21.8621H441.942Z" stroke="black" stroke-linejoin="round"/>
<path d="M253.042 66.892H222.718L217.36 80.8H190L224.884 1H251.332L286.216 80.8H258.4L253.042 66.892ZM245.632 47.512L237.88 27.448L230.128 47.512H245.632Z" fill="white"/>
<path d="M324.71 60.736H317.414V80.8H290.51V1H328.928C336.3 1 342.722 2.216 348.194 4.648C353.666 7.08 357.884 10.576 360.848 15.136C363.812 19.696 365.294 25.016 365.294 31.096C365.294 36.796 364.002 41.774 361.418 46.03C358.834 50.286 355.11 53.668 350.246 56.176L367.004 80.8H338.276L324.71 60.736ZM338.162 31.096C338.162 28.132 337.25 25.852 335.426 24.256C333.602 22.584 330.866 21.748 327.218 21.748H317.414V40.444H327.218C330.866 40.444 333.602 39.646 335.426 38.05C337.25 36.378 338.162 34.06 338.162 31.096Z" fill="white"/>
<path d="M391.668 21.862H368.298V1H441.942V21.862H418.572V80.8H391.668V21.862Z" fill="white"/>
<path d="M253.042 66.892H222.718L217.36 80.8H190L224.884 1H251.332L286.216 80.8H258.4L253.042 66.892ZM245.632 47.512L237.88 27.448L230.128 47.512H245.632Z" stroke="#0000FF"/>
<path d="M324.71 60.736H317.414V80.8H290.51V1H328.928C336.3 1 342.722 2.216 348.194 4.648C353.666 7.08 357.884 10.576 360.848 15.136C363.812 19.696 365.294 25.016 365.294 31.096C365.294 36.796 364.002 41.774 361.418 46.03C358.834 50.286 355.11 53.668 350.246 56.176L367.004 80.8H338.276L324.71 60.736ZM338.162 31.096C338.162 28.132 337.25 25.852 335.426 24.256C333.602 22.584 330.866 21.748 327.218 21.748H317.414V40.444H327.218C330.866 40.444 333.602 39.646 335.426 38.05C337.25 36.378 338.162 34.06 338.162 31.096Z" stroke="#0000FF"/>
<path d="M391.668 21.862H368.298V1H441.942V21.862H418.572V80.8H391.668V21.862Z" stroke="#0000FF"/>
</svg>
