<svg width="96" height="96" viewBox="0 0 96 96" fill="none" xmlns="http://www.w3.org/2000/svg">
<path d="M58.3632 49.5661L53.1839 47.3718C52.2983 49.4618 50.2633 50.8126 48 50.8126C45.7367 50.8126 43.702 49.4618 42.8162 47.3716L37.6369 49.5661C39.4056 53.7404 43.4732 56.4376 48 56.4376C52.5268 56.4376 56.5947 53.7404 58.3632 49.5661Z" fill="#0000FF"/>
<path d="M36.75 33.9375H42.375V39.5625H36.75V33.9375Z" fill="#0000FF"/>
<path d="M53.625 33.9375H59.25V39.5625H53.625V33.9375Z" fill="#0000FF"/>
<path d="M62.0625 67.6875H59.25V64.6671C65.97 60.771 70.5 53.4984 70.5 45.1875C70.5 35.8973 70.5 29.3338 70.5 19.875C70.5 12.1016 64.2124 5.625 56.4375 5.625H33.9375C32.3867 5.625 31.125 4.36331 31.125 2.8125V0H28.3125C19.0219 0 11.4375 7.70006 11.4375 17.0625C11.4375 25.4093 17.5292 32.3589 25.5 33.7018V45.1875C25.5 53.4984 30.03 60.771 36.75 64.6671V67.6875H33.9375C19.9802 67.6875 8.625 79.1267 8.625 93.1875V96H87.375V93.1875C87.375 79.1267 76.0198 67.6875 62.0625 67.6875ZM17.0625 17.0625C17.0625 11.5372 20.9357 6.91463 26.0668 5.85394C27.2897 9.00788 30.3566 11.25 33.9375 11.25H56.4375C61.0112 11.25 64.875 15.1997 64.875 19.875V19.8827C62.523 18.1131 59.6008 17.0625 56.4375 17.0625C52.6813 17.0625 49.1499 18.5252 46.4938 21.1813C37.4998 30.1749 29.6138 27.9744 28.3125 28.3125C22.1093 28.3125 17.0625 23.2658 17.0625 17.0625ZM31.125 45.1875V33.9375H31.1781C38.0567 33.9375 44.7281 30.9019 50.4712 25.1587C52.065 23.565 54.1838 22.6875 56.4375 22.6875C61.0899 22.6875 64.875 26.4726 64.875 31.125V45.1875C64.875 54.4924 57.3049 62.0625 48 62.0625C38.6951 62.0625 31.125 54.4924 31.125 45.1875ZM53.625 66.9756V69.3351L48 74.9601L42.375 69.3351V66.9756C44.1735 67.4402 46.0584 67.6875 48 67.6875C49.9416 67.6875 51.8265 67.4402 53.625 66.9756ZM14.4465 90.375C15.7485 81.1356 23.3685 73.9232 32.7347 73.3504L27.6311 78.4539L39.5501 90.375H14.4465ZM35.5858 78.4543L39.5625 74.4774L44.0226 78.9375L40.0453 82.9146L35.5858 78.4543ZM40.5399 90.375L48 82.9149L55.4601 90.375H40.5399ZM51.9774 78.9375L56.4375 74.4774L60.4144 78.4543L55.9547 82.9147L51.9774 78.9375ZM56.4499 90.375L68.3689 78.4539L63.2653 73.3504C72.6313 73.9232 80.2515 81.1356 81.5535 90.375H56.4499Z" fill="#0000FF"/>
</svg>
