<svg width="261" height="131" viewBox="0 0 261 131" fill="none" xmlns="http://www.w3.org/2000/svg">
<path d="M255.973 1.52218C255.196 0.74546 255.189 -0.5222 255.973 -1.30625C256.75 -2.08296 258.017 -2.09029 258.801 -1.30625C259.585 -0.522197 259.585 0.738136 258.801 1.52218C258.025 2.2989 256.75 2.2989 255.973 1.52218Z" fill="#0000FF"/>
<path d="M205.061 1.52196C204.285 0.745251 204.277 -0.522444 205.061 -1.30649C205.838 -2.08321 207.106 -2.0905 207.89 -1.30647C208.666 -0.529758 208.674 0.737892 207.89 1.52194C207.113 2.29866 205.845 2.306 205.061 1.52196Z" fill="#0000FF"/>
<path d="M230.517 26.978C229.74 26.2013 229.733 24.9336 230.517 24.1496C231.294 23.3728 232.562 23.3655 233.346 24.1496C234.13 24.9336 234.13 26.1939 233.346 26.978C232.569 27.7547 231.294 27.7547 230.517 26.978Z" fill="#0000FF"/>
<path d="M154.149 1.52196C153.373 0.745251 153.365 -0.522449 154.149 -1.3065C154.926 -2.08321 156.194 -2.0905 156.978 -1.30647C157.755 -0.529758 157.762 0.737886 156.978 1.52193C156.194 2.30598 154.926 2.29867 154.149 1.52196Z" fill="#0000FF"/>
<path d="M179.605 26.9778C178.829 26.2011 178.821 24.9334 179.605 24.1493C180.382 23.3726 181.65 23.3653 182.434 24.1493C183.21 24.9261 183.218 26.1937 182.434 26.9777C181.65 27.7618 180.389 27.7618 179.605 26.9778Z" fill="#0000FF"/>
<path d="M205.061 52.4338C204.285 51.6571 204.277 50.3894 205.061 49.6054C205.838 48.8287 207.106 48.8213 207.89 49.6054C208.674 50.3894 208.674 51.6498 207.89 52.4338C207.106 53.2178 205.838 53.2105 205.061 52.4338Z" fill="#0000FF"/>
<path d="M103.238 1.52194C102.461 0.745216 102.454 -0.522438 103.238 -1.30648C104.014 -2.0832 105.282 -2.09054 106.066 -1.30649C106.843 -0.529768 106.85 0.737897 106.066 1.52194C105.289 2.29866 104.022 2.30599 103.238 1.52194Z" fill="#0000FF"/>
<path d="M128.694 26.978C127.917 26.2013 127.91 24.9336 128.694 24.1496C129.47 23.3729 130.738 23.3656 131.522 24.1496C132.299 24.9263 132.306 26.194 131.522 26.978C130.745 27.7547 129.47 27.7547 128.694 26.978Z" fill="#0000FF"/>
<path d="M154.149 52.4338C153.373 51.6571 153.365 50.3894 154.149 49.6054C154.926 48.8287 156.194 48.8214 156.978 49.6054C157.755 50.3821 157.762 51.6498 156.978 52.4338C156.201 53.2105 154.934 53.2179 154.149 52.4338Z" fill="#0000FF"/>
<path d="M179.606 77.8896C178.829 77.1129 178.821 75.8452 179.605 75.0612C180.382 74.2845 181.65 74.2771 182.434 75.0612C183.218 75.8452 183.218 77.1056 182.434 77.8896C181.657 78.6663 180.382 78.6663 179.606 77.8896Z" fill="#0000FF"/>
<path d="M52.3259 1.52194C51.5492 0.745216 51.5419 -0.522449 52.3259 -1.3065C53.1026 -2.08321 54.3703 -2.09054 55.1543 -1.30649C55.931 -0.529768 55.9384 0.737886 55.1543 1.52193C54.3703 2.29132 53.1026 2.29866 52.3259 1.52194Z" fill="#0000FF"/>
<path d="M77.7818 26.9777C77.005 26.201 76.9977 24.9334 77.7818 24.1493C78.5585 23.3726 79.8261 23.3653 80.6102 24.1493C81.3869 24.926 81.3942 26.1937 80.6102 26.9777C79.8335 27.7545 78.5658 27.7618 77.7818 26.9777Z" fill="#0000FF"/>
<path d="M103.238 52.4338C102.461 51.6571 102.454 50.3894 103.238 49.6054C104.014 48.8287 105.282 48.8214 106.066 49.6054C106.843 50.3821 106.85 51.6498 106.066 52.4338C105.289 53.2105 104.014 53.2105 103.238 52.4338Z" fill="#0000FF"/>
<path d="M128.694 77.8896C127.917 77.1129 127.91 75.8452 128.694 75.0612C129.47 74.2845 130.738 74.2772 131.522 75.0612C132.299 75.8379 132.306 77.1056 131.522 77.8896C130.745 78.6663 129.478 78.6737 128.694 77.8896Z" fill="#0000FF"/>
<path d="M154.15 103.346C153.373 102.569 153.366 101.301 154.15 100.517C154.926 99.7405 156.194 99.7332 156.978 100.517C157.762 101.301 157.762 102.562 156.978 103.346C156.201 104.122 154.926 104.122 154.15 103.346Z" fill="#0000FF"/>
<path d="M1.41422 1.52194C0.637495 0.745216 0.630176 -0.522449 1.41422 -1.3065C2.19094 -2.08321 3.45859 -2.09054 4.24264 -1.30649C5.02669 -0.522441 5.0267 0.737886 4.24265 1.52193C3.4586 2.30598 2.19094 2.29866 1.41422 1.52194Z" fill="#0000FF"/>
<path d="M26.8701 26.9777C26.0934 26.201 26.086 24.9334 26.8701 24.1493C27.6468 23.3726 28.9145 23.3653 29.6985 24.1493C30.4752 24.926 30.4826 26.1937 29.6985 26.9777C28.9071 27.7545 27.6468 27.7545 26.8701 26.9777Z" fill="#0000FF"/>
<path d="M52.3259 52.4336C51.5492 51.6568 51.5419 50.3892 52.3259 49.6051C53.1026 48.8284 54.3703 48.8211 55.1543 49.6051C55.931 50.3819 55.9384 51.6495 55.1543 52.4336C54.3703 53.2176 53.1099 53.2176 52.3259 52.4336Z" fill="#0000FF"/>
<path d="M77.782 77.8896C77.0053 77.1129 76.9979 75.8452 77.782 75.0612C78.5587 74.2845 79.8264 74.2772 80.6104 75.0612C81.3871 75.8379 81.3944 77.1056 80.6104 77.8896C79.8263 78.6737 78.5587 78.6663 77.782 77.8896Z" fill="#0000FF"/>
<path d="M103.238 103.345C102.461 102.569 102.454 101.301 103.238 100.517C104.014 99.7403 105.282 99.733 106.066 100.517C106.843 101.294 106.85 102.561 106.066 103.345C105.282 104.129 104.022 104.129 103.238 103.345Z" fill="#0000FF"/>
<path d="M128.694 128.801C127.917 128.025 127.91 126.757 128.694 125.973C129.471 125.196 130.738 125.189 131.522 125.973C132.306 126.757 132.306 128.017 131.522 128.801C130.738 129.586 129.471 129.578 128.694 128.801Z" fill="#0000FF"/>
</svg>
