<svg width="96" height="96" viewBox="0 0 96 96" fill="none" xmlns="http://www.w3.org/2000/svg">
<g clip-path="url(#clip0)">
<path d="M76.0932 50.8246H79.543C80.7085 54.1108 83.8468 56.4714 87.5275 56.4714C92.198 56.4714 95.9977 52.6718 95.9977 48.0012C95.9977 43.3306 92.198 39.531 87.5275 39.531C83.8468 39.531 80.7085 41.8916 79.543 45.1778H76.0932C75.5276 39.5075 73.2771 34.3266 69.8514 30.1425L80.3998 19.5943C84.349 21.8233 89.5035 21.2998 92.9321 17.8711C97.0224 13.7811 97.023 7.15991 92.9321 3.06919C88.8421 -1.02115 82.2209 -1.02172 78.1302 3.06919C74.7047 6.49434 74.1756 11.6482 76.407 15.6015L65.8588 26.1497C61.6747 22.7241 56.4936 20.4737 50.8235 19.9081V16.4583C54.1097 15.2928 56.4703 12.1545 56.4703 8.47372C56.4703 3.80327 52.6707 0.00355006 48.0001 0.00355006C43.3294 0.00355006 39.5299 3.80327 39.5299 8.47372C39.5299 12.1545 41.8905 15.2926 45.1767 16.4583V19.9081C39.5064 20.4737 34.3255 22.7241 30.1414 26.1497L19.5932 15.6015C20.4677 14.0524 20.9356 12.2977 20.9356 10.47C20.9356 4.68586 16.2546 0.00355006 10.4691 0.00355006C7.67322 0.00355006 5.04502 1.09225 3.06827 3.06919C-1.02207 7.15934 -1.02263 13.7804 3.06827 17.8711C5.04502 19.848 7.67341 20.9367 10.4691 20.9367C12.2968 20.9367 14.0513 20.4688 15.6005 19.5943L26.1487 30.1425C22.7232 34.3266 20.4728 39.5075 19.9072 45.1778H16.457C15.2915 41.8916 12.1532 39.531 8.47243 39.531C3.80198 39.531 0.00225792 43.3306 0.00225792 48.0012C0.00225792 52.6718 3.80198 56.4714 8.47243 56.4714C12.1532 56.4714 15.2915 54.1108 16.457 50.8246H19.9068C20.4724 56.4949 22.7228 61.6758 26.1484 65.8599L15.6002 76.4081C14.0511 75.5338 12.2964 75.0657 10.4688 75.0657C4.68457 75.0657 0.00225792 79.7467 0.00225792 85.5322C0.00225792 88.3281 1.09096 90.9563 3.0679 92.933C5.04464 94.91 7.67303 95.9987 10.4688 95.9987C13.2647 95.9987 15.8929 94.91 17.8696 92.933C21.2951 89.5079 21.8242 84.3541 19.5928 80.4007L30.141 69.8526C34.3251 73.2781 39.506 75.5285 45.1763 76.0941V79.5439C41.8901 80.7094 39.5295 83.8477 39.5295 87.5285C39.5295 92.1991 43.3291 95.9987 47.9997 95.9987C52.6703 95.9987 56.4699 92.1991 56.4699 87.5285C56.4699 83.8477 54.1093 80.7094 50.8231 79.5439V76.0941C56.4932 75.5285 61.6743 73.2781 65.8584 69.8526L76.4066 80.4007C74.1776 84.3499 74.7011 89.5045 78.1298 92.933C80.1066 94.91 82.7349 95.9987 85.5307 95.9987C88.3266 95.9987 90.9548 94.91 92.9315 92.933C97.0219 88.8431 97.0224 82.2218 92.9315 78.1311C90.9548 76.1542 88.3264 75.0655 85.5307 75.0655C83.703 75.0655 81.9485 75.5334 80.3992 76.4079L69.8509 65.8597C73.2771 61.6758 75.5276 56.4949 76.0932 50.8246ZM48.0001 70.5302C47.4768 70.1449 46.1882 68.487 45.0342 64.17C44.5653 62.4161 44.1815 60.4527 43.8872 58.3504C46.6366 58.4801 49.3595 58.4801 52.1128 58.3504C51.8186 60.4527 51.4346 62.4161 50.9658 64.17C49.812 68.487 48.5233 70.1449 48.0001 70.5302ZM43.3345 52.6666C43.1555 49.5663 43.1553 46.4391 43.3345 43.3358C46.4348 43.1568 49.562 43.1566 52.6653 43.3358C52.8443 46.4361 52.8445 49.5633 52.6653 52.6666C51.1406 52.7547 46.438 52.8458 43.3345 52.6666ZM25.4709 48.0012C25.8562 47.4779 27.5141 46.1893 31.8311 45.0353C33.585 44.5665 35.5484 44.1827 37.6507 43.8883C37.521 46.6379 37.521 49.3606 37.6507 52.1139C35.5484 51.8197 33.585 51.4358 31.8311 50.9669C27.5143 49.8131 25.8562 48.5245 25.4709 48.0012ZM48.0001 25.472C48.5233 25.8573 49.8119 27.5152 50.966 31.8322C51.4348 33.5861 51.8186 35.5495 52.113 37.6518C49.3634 37.5221 46.6407 37.5221 43.8873 37.6518C44.1815 35.5495 44.5655 33.5861 45.0344 31.8322C46.1882 27.5154 47.4766 25.8573 48.0001 25.472ZM58.3493 43.8883C60.4516 44.1825 62.415 44.5665 64.1689 45.0353C68.4859 46.1893 70.1438 47.4779 70.529 48.0012C70.1438 48.5245 68.4859 49.8131 64.1689 50.9671C62.415 51.436 60.4516 51.8197 58.3493 52.1141C58.4129 50.764 58.4466 49.3905 58.4466 48.0012C58.4466 46.6119 58.4129 45.2384 58.3493 43.8883ZM87.5275 45.1778C89.0844 45.1778 90.3509 46.4444 90.3509 48.0012C90.3509 49.558 89.0844 50.8246 87.5275 50.8246C85.9705 50.8246 84.7042 49.558 84.7042 48.0012C84.7042 46.4442 85.9705 45.1778 87.5275 45.1778ZM85.531 5.65033C86.8185 5.65033 88.0288 6.15158 88.9391 7.06222C90.8224 8.94523 90.823 11.9945 88.9391 13.8781L88.9389 13.8783C87.0559 15.7617 84.0068 15.7624 82.1228 13.8781C81.2124 12.9678 80.7111 11.7575 80.7111 10.47C80.7113 7.80665 82.8669 5.65033 85.531 5.65033ZM69.4164 40.82C65.8936 39.4096 61.6222 38.5858 57.8707 38.1304C57.4152 34.378 56.5911 30.1071 55.1811 26.5847C61.869 28.8332 67.1681 34.1321 69.4164 40.82ZM48.0001 5.65033C49.5569 5.65033 50.8235 6.91691 50.8235 8.47372C50.8235 10.0305 49.5569 11.2971 48.0001 11.2971C46.4433 11.2971 45.1767 10.0305 45.1767 8.47372C45.1767 6.91691 46.4431 5.65033 48.0001 5.65033ZM40.8189 26.5848C40.4951 27.3931 40.1904 28.2715 39.9052 29.2221C39.1256 31.8202 38.528 34.8466 38.1291 38.1306C34.3767 38.5861 30.1058 39.4102 26.5833 40.8202C28.8321 34.1321 34.131 28.8332 40.8189 26.5848ZM7.06111 13.8783L7.06092 13.8781C5.17753 11.9951 5.17678 8.94598 7.06111 7.06203C8.94412 5.17864 11.9932 5.17789 13.8772 7.06222C15.7605 8.94523 15.7613 11.9943 13.877 13.8783C12.9667 14.7887 8.9445 15.7624 7.06111 13.8783ZM8.47262 50.8246C6.9158 50.8246 5.64923 49.558 5.64923 48.0012C5.64923 46.4444 6.91561 45.1778 8.47262 45.1778C10.0296 45.1778 11.296 46.4444 11.296 48.0012C11.296 49.558 10.0294 50.8246 8.47262 50.8246ZM13.877 88.9402L13.8768 88.9404C11.9938 90.8238 8.94469 90.8245 7.06073 88.9402C5.17734 87.0572 5.17659 84.0081 7.06092 82.1241C8.94394 80.2408 11.993 80.24 13.877 82.1243C14.7874 83.0346 15.2887 84.2449 15.2887 85.5322C15.2887 86.8196 14.7874 88.0299 13.877 88.9402ZM26.5835 55.1822C30.1064 56.5926 34.3778 57.4165 38.1293 57.8718C38.5848 61.6243 39.4087 65.8953 40.8189 69.4176C34.131 67.1692 28.8321 61.8701 26.5835 55.1822ZM48.0001 90.3521C46.4433 90.3521 45.1767 89.0855 45.1767 87.5287C45.1767 85.9717 46.4433 84.7053 48.0001 84.7053C49.5569 84.7053 50.8235 85.9717 50.8235 87.5287C50.8235 89.0855 49.5569 90.3521 48.0001 90.3521ZM55.1811 69.4176C56.5915 65.8947 57.4153 61.6233 57.8707 57.8718C61.1546 57.4731 64.1811 56.8753 66.7792 56.0957C67.7298 55.8105 68.6082 55.5058 69.4164 55.1822C67.1681 61.8701 61.869 67.1692 55.1811 69.4176ZM88.9392 82.1243C90.8226 84.0073 90.8234 87.0564 88.9391 88.9404C87.0559 90.8238 84.0068 90.8245 82.1232 88.9404C82.0807 88.8764 80.7113 87.6746 80.7113 85.5324C80.7113 84.2449 81.2126 83.0346 82.1232 82.1243C84.006 80.2408 87.0551 80.24 88.9392 82.1243Z" fill="#0000FF"/>
</g>
<defs>
<clipPath id="clip0">
<rect width="96" height="96" fill="white"/>
</clipPath>
</defs>
</svg>
