<svg width="462" height="54" viewBox="0 0 462 54" fill="none" xmlns="http://www.w3.org/2000/svg">
<path d="M19 1H1V19H19V1Z" stroke="#0000FF" stroke-width="2" stroke-miterlimit="10"/>
<path d="M53 1H35V19H53V1Z" stroke="#0000FF" stroke-width="2" stroke-miterlimit="10"/>
<path d="M87 1H69V19H87V1Z" stroke="#0000FF" stroke-width="2" stroke-miterlimit="10"/>
<path d="M121 1H103V19H121V1Z" stroke="black" stroke-width="2" stroke-miterlimit="10"/>
<path d="M155 1H137V19H155V1Z" stroke="#0000FF" stroke-width="2" stroke-miterlimit="10"/>
<path d="M189 1H171V19H189V1Z" stroke="#0000FF" stroke-width="2" stroke-miterlimit="10"/>
<path d="M223 1H205V19H223V1Z" stroke="#0000FF" stroke-width="2" stroke-miterlimit="10"/>
<path d="M257 1H239V19H257V1Z" fill="black" stroke="#0000FF" stroke-width="2" stroke-miterlimit="10"/>
<path d="M291 1H273V19H291V1Z" stroke="#0000FF" stroke-width="2" stroke-miterlimit="10"/>
<path d="M325 1H307V19H325V1Z" stroke="#0000FF" stroke-width="2" stroke-miterlimit="10"/>
<path d="M359 1H341V19H359V1Z" stroke="black" stroke-width="2" stroke-miterlimit="10"/>
<path d="M393 1H375V19H393V1Z" stroke="black" stroke-width="2" stroke-miterlimit="10"/>
<path d="M427 1H409V19H427V1Z" stroke="#0000FF" stroke-width="2" stroke-miterlimit="10"/>
<path d="M461 1H443V19H461V1Z" stroke="#0000FF" stroke-width="2" stroke-miterlimit="10"/>
<path d="M19 35H1V53H19V35Z" stroke="#0000FF" stroke-width="2" stroke-miterlimit="10"/>
<path d="M53 35H35V53H53V35Z" stroke="#0000FF" stroke-width="2" stroke-miterlimit="10"/>
<path d="M87 35H69V53H87V35Z" stroke="#0000FF" stroke-width="2" stroke-miterlimit="10"/>
<path d="M121 35H103V53H121V35Z" stroke="#0000FF" stroke-width="2" stroke-miterlimit="10"/>
<path d="M155 35H137V53H155V35Z" stroke="#0000FF" stroke-width="2" stroke-miterlimit="10"/>
<path d="M189 35H171V53H189V35Z" stroke="#0000FF" stroke-width="2" stroke-miterlimit="10"/>
<path d="M223 35H205V53H223V35Z" fill="black" stroke="#0000FF" stroke-width="2" stroke-miterlimit="10"/>
<path d="M257 35H239V53H257V35Z" stroke="#0000FF" stroke-width="2" stroke-miterlimit="10"/>
<path d="M291 35H273V53H291V35Z" stroke="black" stroke-width="2" stroke-miterlimit="10"/>
<path d="M325 35H307V53H325V35Z" stroke="#0000FF" stroke-width="2" stroke-miterlimit="10"/>
<path d="M359 35H341V53H359V35Z" stroke="black" stroke-width="2" stroke-miterlimit="10"/>
<path d="M393 35H375V53H393V35Z" stroke="#0000FF" stroke-width="2" stroke-miterlimit="10"/>
<path d="M427 35H409V53H427V35Z" stroke="#0000FF" stroke-width="2" stroke-miterlimit="10"/>
<path d="M461 35H443V53H461V35Z" stroke="#0000FF" stroke-width="2" stroke-miterlimit="10"/>
</svg>
