<svg width="15" height="11" viewBox="0 0 15 11" fill="none" xmlns="http://www.w3.org/2000/svg">
<rect x="5" y="11" width="1" height="1" transform="rotate(-90 5 11)" fill="#0000FF"/>
<rect x="4" y="10" width="2" height="2" transform="rotate(-90 4 10)" fill="#0000FF"/>
<rect x="3" y="9" width="2" height="2" transform="rotate(-90 3 9)" fill="#0000FF"/>
<rect x="2" y="8" width="2" height="2" transform="rotate(-90 2 8)" fill="#0000FF"/>
<rect x="1" y="7" width="2" height="2" transform="rotate(-90 1 7)" fill="#0000FF"/>
<rect y="6" width="2" height="2" transform="rotate(-90 0 6)" fill="#0000FF"/>
<rect x="5" y="8" width="2" height="2" fill="#0000FF"/>
<rect x="6" y="7" width="2" height="2" fill="#0000FF"/>
<rect x="7" y="6" width="2" height="2" fill="#0000FF"/>
<rect x="8" y="5" width="2" height="2" fill="#0000FF"/>
<rect x="9" y="4" width="2" height="2" fill="#0000FF"/>
<rect x="10" y="3" width="2" height="2" fill="#0000FF"/>
<rect x="11" y="2" width="2" height="2" fill="#0000FF"/>
<rect x="12" y="1" width="2" height="2" fill="#0000FF"/>
<rect x="13" width="2" height="2" fill="#0000FF"/>
</svg>
