<svg width="10" height="10" viewBox="0 0 10 10" fill="none" xmlns="http://www.w3.org/2000/svg">
<path d="M4.00808 9.08774C4.26216 9.08774 4.45872 8.98227 4.59774 8.77612L9.10414 1.75766C9.20481 1.59945 9.24796 1.46522 9.24796 1.33578C9.24796 0.995406 9.00826 0.760498 8.66309 0.760498C8.42818 0.760498 8.28436 0.846791 8.14054 1.07211L3.98411 7.66391L1.85076 4.92651C1.70694 4.73955 1.55833 4.66284 1.34739 4.66284C1.00222 4.66284 0.75293 4.90734 0.75293 5.24292C0.75293 5.39154 0.805664 5.53536 0.930309 5.68397L3.41362 8.78092C3.58141 8.99186 3.75879 9.08774 4.00808 9.08774Z" fill="white"/>
</svg>
