<svg width="60" height="96" viewBox="0 0 60 96" fill="none" xmlns="http://www.w3.org/2000/svg">
<rect x="27.8574" y="56.5334" width="4.28572" height="4.26667" fill="#0000FF"/>
<rect x="8.57031" y="57.6001" width="4.28571" height="4.26667" fill="#0000FF"/>
<rect x="12.8574" y="53.3335" width="4.28572" height="4.26667" fill="#0000FF"/>
<rect x="12.8574" y="34.1333" width="4.26667" height="4.28571" transform="rotate(90 12.8574 34.1333)" fill="#0000FF"/>
<rect x="17.1426" y="38.4001" width="4.26667" height="4.28572" transform="rotate(90 17.1426 38.4001)" fill="#0000FF"/>
<rect x="4.28516" y="61.8667" width="4.28571" height="21.3333" fill="#0000FF"/>
<rect x="4.28516" y="61.8667" width="4.28571" height="21.3333" fill="#0000FF"/>
<rect x="4.28516" y="12.8" width="4.28571" height="21.3333" fill="#0000FF"/>
<rect x="17.1426" y="42.6667" width="4.28571" height="10.6667" fill="#0000FF"/>
<rect width="60" height="12.8" fill="#0000FF"/>
<rect y="83.2" width="60" height="12.8" fill="#0000FF"/>
<rect x="51.4297" y="38.3999" width="4.28572" height="4.26667" transform="rotate(-180 51.4297 38.3999)" fill="#0000FF"/>
<rect x="47.1426" y="42.6665" width="4.28571" height="4.26667" transform="rotate(-180 47.1426 42.6665)" fill="#0000FF"/>
<rect x="47.1426" y="61.8667" width="4.26667" height="4.28572" transform="rotate(-90 47.1426 61.8667)" fill="#0000FF"/>
<rect x="42.8574" y="57.5999" width="4.26667" height="4.28571" transform="rotate(-90 42.8574 57.5999)" fill="#0000FF"/>
<rect x="55.7148" y="34.1333" width="4.28572" height="21.3333" transform="rotate(-180 55.7148 34.1333)" fill="#0000FF"/>
<rect x="55.7148" y="34.1333" width="4.28572" height="21.3333" transform="rotate(-180 55.7148 34.1333)" fill="#0000FF"/>
<rect x="55.7148" y="83.2" width="4.28572" height="21.3333" transform="rotate(-180 55.7148 83.2)" fill="#0000FF"/>
<rect x="42.8574" y="53.3333" width="4.28572" height="10.6667" transform="rotate(-180 42.8574 53.3333)" fill="#0000FF"/>
<rect x="19.2852" y="19.2" width="4.28572" height="4.26667" fill="#0000FF"/>
<rect x="36.4277" y="19.2" width="4.28571" height="4.26667" fill="#0000FF"/>
<rect x="27.8574" y="19.2" width="4.28572" height="4.26667" fill="#0000FF"/>
<rect x="27.8574" y="27.7334" width="4.28572" height="4.26667" fill="#0000FF"/>
<rect x="23.5703" y="23.4666" width="4.28571" height="4.26666" fill="#0000FF"/>
<rect x="32.1426" y="23.4666" width="4.28572" height="4.26666" fill="#0000FF"/>
<rect x="40.7148" y="78.9333" width="4.28571" height="4.26666" transform="rotate(-180 40.7148 78.9333)" fill="#0000FF"/>
<rect x="23.5723" y="78.9333" width="4.28571" height="4.26666" transform="rotate(-180 23.5723 78.9333)" fill="#0000FF"/>
<rect x="32.1426" y="78.9333" width="4.28571" height="4.26666" transform="rotate(-180 32.1426 78.9333)" fill="#0000FF"/>
<rect x="36.4277" y="83.2" width="4.28572" height="4.26666" transform="rotate(-180 36.4277 83.2)" fill="#0000FF"/>
<rect x="45" y="83.2" width="4.28572" height="4.26666" transform="rotate(-180 45 83.2)" fill="#0000FF"/>
<rect x="19.2852" y="83.2" width="4.28571" height="4.26666" transform="rotate(-180 19.2852 83.2)" fill="#0000FF"/>
<rect x="27.8574" y="83.2" width="4.28571" height="4.26666" transform="rotate(-180 27.8574 83.2)" fill="#0000FF"/>
<rect x="32.1426" y="70.3999" width="4.28571" height="4.26667" transform="rotate(-180 32.1426 70.3999)" fill="#0000FF"/>
<rect x="36.4277" y="74.6667" width="4.28572" height="4.26667" transform="rotate(-180 36.4277 74.6667)" fill="#0000FF"/>
<rect x="27.8574" y="74.6667" width="4.28571" height="4.26667" transform="rotate(-180 27.8574 74.6667)" fill="#0000FF"/>
</svg>
