<svg width="32" height="33" viewBox="0 0 32 33" fill="none" xmlns="http://www.w3.org/2000/svg">
<path d="M30.9511 12.7156L26.8622 8.62669L32 3.52446L29.4756 1.00002L24.3733 6.1378L20.2844 2.04891L20.2844 12.7156L30.9511 12.7156Z" fill="white"/>
<path d="M1.04889 21L5.13778 25.0889L0 30.1911L2.52444 32.7156L7.62667 27.5778L11.7156 31.6667L11.7156 21H1.04889Z" fill="white"/>
<path d="M20.1416 31.809L24.2305 27.7201L29.3327 32.8579L31.8572 30.3335L26.7194 25.2312L30.8083 21.1424L20.1416 21.1424L20.1416 31.809Z" fill="white"/>
<path d="M11.8574 1.9068L7.76853 5.99569L2.66631 0.85791L0.141866 3.38235L5.27964 8.48458L1.19075 12.5735L11.8574 12.5735L11.8574 1.9068Z" fill="white"/>
</svg>
