<svg width="530" height="86" viewBox="0 0 530 86" fill="none" xmlns="http://www.w3.org/2000/svg">
<path d="M70.46 84.448C62.024 84.448 54.424 82.7 47.66 79.204C40.896 75.632 35.576 70.692 31.7 64.384C27.9 58 26 50.78 26 42.724C26 34.668 27.9 27.486 31.7 21.178C35.576 14.794 40.896 9.854 47.66 6.358C54.424 2.786 62.024 1 70.46 1C78.212 1 85.128 2.368 91.208 5.104C97.288 7.84 102.304 11.792 106.256 16.96L89.27 32.122C84.33 25.89 78.516 22.774 71.828 22.774C66.204 22.774 61.682 24.598 58.262 28.246C54.842 31.818 53.132 36.644 53.132 42.724C53.132 48.804 54.842 53.668 58.262 57.316C61.682 60.888 66.204 62.674 71.828 62.674C78.516 62.674 84.33 59.558 89.27 53.326L106.256 68.488C102.304 73.656 97.288 77.608 91.208 80.344C85.128 83.08 78.212 84.448 70.46 84.448Z" fill="black"/>
<path d="M154.192 84.448C145.604 84.448 137.89 82.662 131.05 79.09C124.21 75.518 118.852 70.578 114.976 64.27C111.1 57.886 109.162 50.704 109.162 42.724C109.162 34.744 111.1 27.6 114.976 21.292C118.852 14.908 124.21 9.93 131.05 6.358C137.89 2.786 145.604 1 154.192 1C162.78 1 170.494 2.786 177.334 6.358C184.174 9.93 189.532 14.908 193.408 21.292C197.284 27.6 199.222 34.744 199.222 42.724C199.222 50.704 197.284 57.886 193.408 64.27C189.532 70.578 184.174 75.518 177.334 79.09C170.494 82.662 162.78 84.448 154.192 84.448ZM154.192 62.674C157.536 62.674 160.538 61.876 163.198 60.28C165.934 58.608 168.1 56.29 169.696 53.326C171.292 50.286 172.09 46.752 172.09 42.724C172.09 38.696 171.292 35.2 169.696 32.236C168.1 29.196 165.934 26.878 163.198 25.282C160.538 23.61 157.536 22.774 154.192 22.774C150.848 22.774 147.808 23.61 145.072 25.282C142.412 26.878 140.284 29.196 138.688 32.236C137.092 35.2 136.294 38.696 136.294 42.724C136.294 46.752 137.092 50.286 138.688 53.326C140.284 56.29 142.412 58.608 145.072 60.28C147.808 61.876 150.848 62.674 154.192 62.674Z" fill="black"/>
<path d="M292.492 82.624C286.364 82.624 280.237 82.624 280.237 82.624L280.009 46.258L262.681 75.442C262.681 75.442 259.717 75.442 256.753 75.442C253.789 75.442 250.825 75.442 250.825 75.442L233.497 47.512V82.624C233.497 82.624 227.369 82.624 221.242 82.624C215.114 82.624 208.987 82.624 208.987 82.624V2.824C208.987 2.824 214.516 2.824 220.045 2.824C225.574 2.824 231.103 2.824 231.103 2.824L257.095 45.346L282.403 2.824C282.403 2.824 287.932 2.824 293.461 2.824C298.99 2.824 304.519 2.824 304.519 2.824L304.747 82.624C304.747 82.624 298.619 82.624 292.492 82.624Z" fill="black"/>
<path d="M317.754 2.824C317.754 2.824 324.48 2.824 331.206 2.824C337.932 2.824 344.659 2.824 344.659 2.824V82.624C344.659 82.624 337.932 82.624 331.206 82.624C324.48 82.624 317.754 82.624 317.754 82.624V2.824Z" fill="black"/>
<path d="M423.16 2.824C429.715 2.824 436.27 2.824 436.27 2.824V82.624C436.27 82.624 430.741 82.624 425.212 82.624C419.683 82.624 414.154 82.624 414.154 82.624L383.83 46.372V82.624C383.83 82.624 377.275 82.624 370.72 82.624C364.165 82.624 357.61 82.624 357.61 82.624V2.824C357.61 2.824 363.139 2.824 368.668 2.824C374.197 2.824 379.726 2.824 379.726 2.824L410.05 39.076V2.824C410.05 2.824 416.605 2.824 423.16 2.824Z" fill="black"/>
<path d="M502.015 40.558C502.015 40.558 507.858 40.558 513.7 40.558C519.543 40.558 525.385 40.558 525.385 40.558V74.302C520.673 77.57 515.201 80.078 508.969 81.826C502.737 83.574 496.619 84.448 490.615 84.448C482.103 84.448 474.465 82.7 467.701 79.204C460.937 75.632 455.617 70.692 451.741 64.384C447.941 58 446.041 50.78 446.041 42.724C446.041 34.668 447.941 27.486 451.741 21.178C455.617 14.794 460.975 9.854 467.815 6.358C474.731 2.786 482.521 1 491.185 1C499.013 1 506.005 2.33 512.161 4.99C518.393 7.574 523.561 11.374 527.665 16.39L510.451 31.552C505.435 25.7 499.469 22.774 492.553 22.774C486.625 22.774 481.913 24.56 478.417 28.132C474.921 31.704 473.173 36.568 473.173 42.724C473.173 48.728 474.883 53.554 478.303 57.202C481.799 60.85 486.435 62.674 492.211 62.674C495.631 62.674 498.899 62.028 502.015 60.736V40.558Z" fill="black"/>
<path d="M70.46 84.448C62.024 84.448 54.424 82.7 47.66 79.204C40.896 75.632 35.576 70.692 31.7 64.384C27.9 58 26 50.78 26 42.724C26 34.668 27.9 27.486 31.7 21.178C35.576 14.794 40.896 9.854 47.66 6.358C54.424 2.786 62.024 1 70.46 1C78.212 1 85.128 2.368 91.208 5.104C97.288 7.84 102.304 11.792 106.256 16.96L89.27 32.122C84.33 25.89 78.516 22.774 71.828 22.774C66.204 22.774 61.682 24.598 58.262 28.246C54.842 31.818 53.132 36.644 53.132 42.724C53.132 48.804 54.842 53.668 58.262 57.316C61.682 60.888 66.204 62.674 71.828 62.674C78.516 62.674 84.33 59.558 89.27 53.326L106.256 68.488C102.304 73.656 97.288 77.608 91.208 80.344C85.128 83.08 78.212 84.448 70.46 84.448Z" stroke="white" stroke-width="2"/>
<path d="M154.192 84.448C145.604 84.448 137.89 82.662 131.05 79.09C124.21 75.518 118.852 70.578 114.976 64.27C111.1 57.886 109.162 50.704 109.162 42.724C109.162 34.744 111.1 27.6 114.976 21.292C118.852 14.908 124.21 9.93 131.05 6.358C137.89 2.786 145.604 1 154.192 1C162.78 1 170.494 2.786 177.334 6.358C184.174 9.93 189.532 14.908 193.408 21.292C197.284 27.6 199.222 34.744 199.222 42.724C199.222 50.704 197.284 57.886 193.408 64.27C189.532 70.578 184.174 75.518 177.334 79.09C170.494 82.662 162.78 84.448 154.192 84.448ZM154.192 62.674C157.536 62.674 160.538 61.876 163.198 60.28C165.934 58.608 168.1 56.29 169.696 53.326C171.292 50.286 172.09 46.752 172.09 42.724C172.09 38.696 171.292 35.2 169.696 32.236C168.1 29.196 165.934 26.878 163.198 25.282C160.538 23.61 157.536 22.774 154.192 22.774C150.848 22.774 147.808 23.61 145.072 25.282C142.412 26.878 140.284 29.196 138.688 32.236C137.092 35.2 136.294 38.696 136.294 42.724C136.294 46.752 137.092 50.286 138.688 53.326C140.284 56.29 142.412 58.608 145.072 60.28C147.808 61.876 150.848 62.674 154.192 62.674Z" stroke="white" stroke-width="2"/>
<path d="M292.492 82.624C286.364 82.624 280.237 82.624 280.237 82.624L280.009 46.258L262.681 75.442C262.681 75.442 259.717 75.442 256.753 75.442C253.789 75.442 250.825 75.442 250.825 75.442L233.497 47.512V82.624C233.497 82.624 227.369 82.624 221.242 82.624C215.114 82.624 208.987 82.624 208.987 82.624V2.824C208.987 2.824 214.516 2.824 220.045 2.824C225.574 2.824 231.103 2.824 231.103 2.824L257.095 45.346L282.403 2.824C282.403 2.824 287.932 2.824 293.461 2.824C298.99 2.824 304.519 2.824 304.519 2.824L304.747 82.624C304.747 82.624 298.619 82.624 292.492 82.624Z" stroke="white" stroke-width="2"/>
<path d="M317.754 2.824C317.754 2.824 324.48 2.824 331.206 2.824C337.932 2.824 344.659 2.824 344.659 2.824V82.624C344.659 82.624 337.932 82.624 331.206 82.624C324.48 82.624 317.754 82.624 317.754 82.624V2.824Z" stroke="white" stroke-width="2"/>
<path d="M423.16 2.824C429.715 2.824 436.27 2.824 436.27 2.824V82.624C436.27 82.624 430.741 82.624 425.212 82.624C419.683 82.624 414.154 82.624 414.154 82.624L383.83 46.372V82.624C383.83 82.624 377.275 82.624 370.72 82.624C364.165 82.624 357.61 82.624 357.61 82.624V2.824C357.61 2.824 363.139 2.824 368.668 2.824C374.197 2.824 379.726 2.824 379.726 2.824L410.05 39.076V2.824C410.05 2.824 416.605 2.824 423.16 2.824Z" stroke="white" stroke-width="2"/>
<path d="M502.015 40.558C502.015 40.558 507.858 40.558 513.7 40.558C519.543 40.558 525.385 40.558 525.385 40.558V74.302C520.673 77.57 515.201 80.078 508.969 81.826C502.737 83.574 496.619 84.448 490.615 84.448C482.103 84.448 474.465 82.7 467.701 79.204C460.937 75.632 455.617 70.692 451.741 64.384C447.941 58 446.041 50.78 446.041 42.724C446.041 34.668 447.941 27.486 451.741 21.178C455.617 14.794 460.975 9.854 467.815 6.358C474.731 2.786 482.521 1 491.185 1C499.013 1 506.005 2.33 512.161 4.99C518.393 7.574 523.561 11.374 527.665 16.39L510.451 31.552C505.435 25.7 499.469 22.774 492.553 22.774C486.625 22.774 481.913 24.56 478.417 28.132C474.921 31.704 473.173 36.568 473.173 42.724C473.173 48.728 474.883 53.554 478.303 57.202C481.799 60.85 486.435 62.674 492.211 62.674C495.631 62.674 498.899 62.028 502.015 60.736V40.558Z" stroke="white" stroke-width="2"/>
<path d="M1 42.724C1 50.78 2.9 58 6.7 64.384H31.7C27.9 58 26 50.78 26 42.724H1Z" fill="black" stroke="white" stroke-width="2" stroke-linejoin="round"/>
<path d="M6.7 21.178C2.9 27.486 1 34.668 1 42.724H26C26 34.668 27.9 27.486 31.7 21.178H6.7Z" fill="black" stroke="white" stroke-width="2" stroke-linejoin="round"/>
<path d="M6.70001 64.384C10.576 70.692 15.896 75.632 22.66 79.204H47.66C40.896 75.632 35.576 70.692 31.7 64.384H6.70001Z" fill="black" stroke="white" stroke-width="2" stroke-linejoin="round"/>
<path d="M22.66 6.35797C15.896 9.85397 10.576 14.794 6.70001 21.178H31.7C35.576 14.794 40.896 9.85397 47.66 6.35797H22.66Z" fill="black" stroke="white" stroke-width="2" stroke-linejoin="round"/>
<path d="M28.132 42.724C28.132 36.644 29.842 31.818 33.262 28.246H58.262C54.842 31.818 53.132 36.644 53.132 42.724H28.132Z" fill="black" stroke="white" stroke-width="2" stroke-linejoin="round"/>
<path d="M33.262 57.316C29.842 53.668 28.132 48.804 28.132 42.724H53.132C53.132 48.804 54.842 53.668 58.262 57.316H33.262Z" fill="black" stroke="white" stroke-width="2" stroke-linejoin="round"/>
<path d="M22.66 79.204C29.424 82.7 37.024 84.448 45.46 84.448H70.46C62.024 84.448 54.424 82.7 47.66 79.204H22.66Z" fill="black" stroke="white" stroke-width="2" stroke-linejoin="round"/>
<path d="M45.46 1C37.024 1 29.424 2.786 22.66 6.358H47.66C54.424 2.786 62.024 1 70.46 1H45.46Z" fill="black" stroke="white" stroke-width="2" stroke-linejoin="round"/>
<path d="M33.262 28.246C36.682 24.598 41.204 22.774 46.828 22.774H71.828C66.204 22.774 61.682 24.598 58.262 28.246H33.262Z" fill="black" stroke="white" stroke-width="2" stroke-linejoin="round"/>
<path d="M46.828 62.674C41.204 62.674 36.682 60.888 33.262 57.316H58.262C61.682 60.888 66.204 62.674 71.828 62.674H46.828Z" fill="black" stroke="white" stroke-width="2" stroke-linejoin="round"/>
<path d="M46.828 22.774C53.516 22.774 59.33 25.89 64.27 32.122H89.27C84.33 25.89 78.516 22.774 71.828 22.774H46.828Z" fill="black" stroke="white" stroke-width="2" stroke-linejoin="round"/>
<path d="M64.27 53.326C59.33 59.558 53.516 62.674 46.828 62.674H71.828C78.516 62.674 84.33 59.558 89.27 53.326H64.27Z" fill="black" stroke="white" stroke-width="2" stroke-linejoin="round"/>
<path d="M66.208 5.104C60.128 2.368 53.212 1 45.46 1H70.46C78.212 1 85.128 2.368 91.208 5.104H66.208Z" fill="black" stroke="white" stroke-width="2" stroke-linejoin="round"/>
<path d="M45.46 84.448C53.212 84.448 60.128 83.08 66.208 80.344H91.208C85.128 83.08 78.212 84.448 70.46 84.448H45.46Z" fill="black" stroke="white" stroke-width="2" stroke-linejoin="round"/>
<path d="M64.27 32.122L81.256 16.96H106.256L89.27 32.122H64.27Z" fill="black" stroke="white" stroke-width="2" stroke-linejoin="round"/>
<path d="M81.256 68.488L64.27 53.326H89.27L106.256 68.488H81.256Z" fill="black" stroke="white" stroke-width="2" stroke-linejoin="round"/>
<path d="M81.256 16.96C77.304 11.792 72.288 7.84 66.208 5.104H91.208C97.288 7.84 102.304 11.792 106.256 16.96H81.256Z" fill="black" stroke="white" stroke-width="2" stroke-linejoin="round"/>
<path d="M66.208 80.344C72.288 77.608 77.304 73.656 81.256 68.488H106.256C102.304 73.656 97.288 77.608 91.208 80.344H66.208Z" fill="black" stroke="white" stroke-width="2" stroke-linejoin="round"/>
<path d="M84.1621 42.724C84.1621 50.704 86.1001 57.886 89.9761 64.27H114.976C111.1 57.886 109.162 50.704 109.162 42.724H84.1621Z" fill="black" stroke="white" stroke-width="2" stroke-linejoin="round"/>
<path d="M89.9761 21.292C86.1001 27.6 84.1621 34.744 84.1621 42.724H109.162C109.162 34.744 111.1 27.6 114.976 21.292H89.9761Z" fill="black" stroke="white" stroke-width="2" stroke-linejoin="round"/>
<path d="M89.9761 64.27C93.8521 70.578 99.2101 75.518 106.05 79.09H131.05C124.21 75.518 118.852 70.578 114.976 64.27H89.9761Z" fill="black" stroke="white" stroke-width="2" stroke-linejoin="round"/>
<path d="M106.05 6.35797C99.2101 9.92997 93.8521 14.908 89.9761 21.292H114.976C118.852 14.908 124.21 9.92997 131.05 6.35797H106.05Z" fill="black" stroke="white" stroke-width="2" stroke-linejoin="round"/>
<path d="M111.294 42.724C111.294 38.696 112.092 35.2 113.688 32.236H138.688C137.092 35.2 136.294 38.696 136.294 42.724H111.294Z" fill="black" stroke="white" stroke-width="2" stroke-linejoin="round"/>
<path d="M113.688 53.326C112.092 50.286 111.294 46.752 111.294 42.724H136.294C136.294 46.752 137.092 50.286 138.688 53.326H113.688Z" fill="black" stroke="white" stroke-width="2" stroke-linejoin="round"/>
<path d="M113.688 32.236C115.284 29.196 117.412 26.878 120.072 25.282H145.072C142.412 26.878 140.284 29.196 138.688 32.236H113.688Z" fill="black" stroke="white" stroke-width="2" stroke-linejoin="round"/>
<path d="M120.072 60.28C117.412 58.608 115.284 56.29 113.688 53.326H138.688C140.284 56.29 142.412 58.608 145.072 60.28H120.072Z" fill="black" stroke="white" stroke-width="2" stroke-linejoin="round"/>
<path d="M106.05 79.09C112.89 82.662 120.604 84.448 129.192 84.448H154.192C145.604 84.448 137.89 82.662 131.05 79.09H106.05Z" fill="black" stroke="white" stroke-width="2" stroke-linejoin="round"/>
<path d="M129.192 1C120.604 1 112.89 2.786 106.05 6.358H131.05C137.89 2.786 145.604 1 154.192 1H129.192Z" fill="black" stroke="white" stroke-width="2" stroke-linejoin="round"/>
<path d="M120.072 25.282C122.808 23.61 125.848 22.774 129.192 22.774H154.192C150.848 22.774 147.808 23.61 145.072 25.282H120.072Z" fill="black" stroke="white" stroke-width="2" stroke-linejoin="round"/>
<path d="M129.192 62.674C125.848 62.674 122.808 61.876 120.072 60.28H145.072C147.808 61.876 150.848 62.674 154.192 62.674H129.192Z" fill="black" stroke="white" stroke-width="2" stroke-linejoin="round"/>
<path d="M138.198 60.28C135.538 61.876 132.536 62.674 129.192 62.674H154.192C157.536 62.674 160.538 61.876 163.198 60.28H138.198Z" fill="black" stroke="white" stroke-width="2" stroke-linejoin="round"/>
<path d="M129.192 22.774C132.536 22.774 135.538 23.61 138.198 25.282H163.198C160.538 23.61 157.536 22.774 154.192 22.774H129.192Z" fill="black" stroke="white" stroke-width="2" stroke-linejoin="round"/>
<path d="M152.334 6.358C145.494 2.786 137.78 1 129.192 1H154.192C162.78 1 170.494 2.786 177.334 6.358H152.334Z" fill="black" stroke="white" stroke-width="2" stroke-linejoin="round"/>
<path d="M129.192 84.448C137.78 84.448 145.494 82.662 152.334 79.09H177.334C170.494 82.662 162.78 84.448 154.192 84.448H129.192Z" fill="black" stroke="white" stroke-width="2" stroke-linejoin="round"/>
<path d="M144.696 53.326C143.1 56.29 140.934 58.608 138.198 60.28H163.198C165.934 58.608 168.1 56.29 169.696 53.326H144.696Z" fill="black" stroke="white" stroke-width="2" stroke-linejoin="round"/>
<path d="M138.198 25.282C140.934 26.878 143.1 29.196 144.696 32.236H169.696C168.1 29.196 165.934 26.878 163.198 25.282H138.198Z" fill="black" stroke="white" stroke-width="2" stroke-linejoin="round"/>
<path d="M147.09 42.724C147.09 46.752 146.292 50.286 144.696 53.326H169.696C171.292 50.286 172.09 46.752 172.09 42.724H147.09Z" fill="black" stroke="white" stroke-width="2" stroke-linejoin="round"/>
<path d="M144.696 32.236C146.292 35.2 147.09 38.696 147.09 42.724H172.09C172.09 38.696 171.292 35.2 169.696 32.236H144.696Z" fill="black" stroke="white" stroke-width="2" stroke-linejoin="round"/>
<path d="M168.408 21.292C164.532 14.908 159.174 9.92997 152.334 6.35797H177.334C184.174 9.92997 189.532 14.908 193.408 21.292H168.408Z" fill="black" stroke="white" stroke-width="2" stroke-linejoin="round"/>
<path d="M152.334 79.09C159.174 75.518 164.532 70.578 168.408 64.27H193.408C189.532 70.578 184.174 75.518 177.334 79.09H152.334Z" fill="black" stroke="white" stroke-width="2" stroke-linejoin="round"/>
<path d="M174.222 42.724C174.222 34.744 172.284 27.6 168.408 21.292H193.408C197.284 27.6 199.222 34.744 199.222 42.724H174.222Z" fill="black" stroke="white" stroke-width="2" stroke-linejoin="round"/>
<path d="M168.408 64.27C172.284 57.886 174.222 50.704 174.222 42.724H199.222C199.222 50.704 197.284 57.886 193.408 64.27H168.408Z" fill="black" stroke="white" stroke-width="2" stroke-linejoin="round"/>
<path d="M183.987 2.82397V82.624H208.987V2.82397H183.987Z" fill="black" stroke="white" stroke-width="2" stroke-linejoin="round"/>
<path d="M183.987 2.82397C183.987 2.82397 189.516 2.82397 195.045 2.82397H220.045C214.516 2.82397 208.987 2.82397 208.987 2.82397H183.987Z" stroke="white" stroke-width="2" stroke-linejoin="round"/>
<path d="M196.242 82.624C190.114 82.624 183.987 82.624 183.987 82.624H208.987C208.987 82.624 215.114 82.624 221.242 82.624H196.242Z" stroke="white" stroke-width="2" stroke-linejoin="round"/>
<path d="M195.045 2.82397C200.574 2.82397 206.103 2.82397 206.103 2.82397H231.103C231.103 2.82397 225.574 2.82397 220.045 2.82397H195.045Z" stroke="white" stroke-width="2" stroke-linejoin="round"/>
<path d="M208.497 82.624C208.497 82.624 202.369 82.624 196.242 82.624H221.242C227.369 82.624 233.497 82.624 233.497 82.624H208.497Z" stroke="white" stroke-width="2" stroke-linejoin="round"/>
<path d="M208.497 82.624V47.512H233.497V82.624H208.497Z" fill="black" stroke="white" stroke-width="2" stroke-linejoin="round"/>
<path d="M208.497 47.512L225.825 75.442H250.825L233.497 47.512H208.497Z" fill="black" stroke="white" stroke-width="2" stroke-linejoin="round"/>
<path d="M232.095 45.346L206.103 2.82397H231.103L257.095 45.346H232.095Z" fill="black" stroke="white" stroke-width="2" stroke-linejoin="round"/>
<path d="M231.753 75.442C228.789 75.442 225.825 75.442 225.825 75.442H250.825C250.825 75.442 253.789 75.442 256.753 75.442H231.753Z" stroke="white" stroke-width="2" stroke-linejoin="round"/>
<path d="M237.681 75.442C237.681 75.442 234.717 75.442 231.753 75.442H256.753C259.717 75.442 262.681 75.442 262.681 75.442H237.681Z" stroke="white" stroke-width="2" stroke-linejoin="round"/>
<path d="M257.403 2.82397L232.095 45.346H257.095L282.403 2.82397H257.403Z" fill="black" stroke="white" stroke-width="2" stroke-linejoin="round"/>
<path d="M237.681 75.4421L255.009 46.2581H280.009L262.681 75.4421H237.681Z" fill="black" stroke="white" stroke-width="2" stroke-linejoin="round"/>
<path d="M255.009 46.2581L255.237 82.6241H280.237L280.009 46.2581H255.009Z" fill="black" stroke="white" stroke-width="2" stroke-linejoin="round"/>
<path d="M267.492 82.624C261.364 82.624 255.237 82.624 255.237 82.624H280.237C280.237 82.624 286.364 82.624 292.492 82.624H267.492Z" stroke="white" stroke-width="2" stroke-linejoin="round"/>
<path d="M257.403 2.82397C257.403 2.82397 262.932 2.82397 268.461 2.82397H293.461C287.932 2.82397 282.403 2.82397 282.403 2.82397H257.403Z" stroke="white" stroke-width="2" stroke-linejoin="round"/>
<path d="M279.747 82.624C279.747 82.624 273.619 82.624 267.492 82.624H292.492C298.619 82.624 304.747 82.624 304.747 82.624H279.747Z" stroke="white" stroke-width="2" stroke-linejoin="round"/>
<path d="M268.461 2.82397C273.99 2.82397 279.519 2.82397 279.519 2.82397H304.519C304.519 2.82397 298.99 2.82397 293.461 2.82397H268.461Z" stroke="white" stroke-width="2" stroke-linejoin="round"/>
<path d="M279.747 82.624L279.519 2.82397H304.519L304.747 82.624H279.747Z" fill="black" stroke="white" stroke-width="2" stroke-linejoin="round"/>
<path d="M292.755 2.82397V82.624H317.755V2.82397H292.755Z" fill="black" stroke="white" stroke-width="2" stroke-linejoin="round"/>
<path d="M292.755 2.82397C292.755 2.82397 299.481 2.82397 306.207 2.82397H331.207C324.481 2.82397 317.755 2.82397 317.755 2.82397H292.755Z" stroke="white" stroke-width="2" stroke-linejoin="round"/>
<path d="M306.207 82.624C299.481 82.624 292.755 82.624 292.755 82.624H317.755C317.755 82.624 324.481 82.624 331.207 82.624H306.207Z" stroke="white" stroke-width="2" stroke-linejoin="round"/>
<path d="M319.659 82.624C319.659 82.624 312.932 82.624 306.206 82.624H331.206C337.932 82.624 344.659 82.624 344.659 82.624H319.659Z" stroke="white" stroke-width="2" stroke-linejoin="round"/>
<path d="M306.206 2.82397C312.932 2.82397 319.659 2.82397 319.659 2.82397H344.659C344.659 2.82397 337.932 2.82397 331.206 2.82397H306.206Z" stroke="white" stroke-width="2" stroke-linejoin="round"/>
<path d="M319.659 82.624V2.82397H344.659V82.624H319.659Z" fill="black" stroke="white" stroke-width="2" stroke-linejoin="round"/>
<path d="M332.61 2.82397V82.624H357.61V2.82397H332.61Z" fill="black" stroke="white" stroke-width="2" stroke-linejoin="round"/>
<path d="M332.61 2.82397C332.61 2.82397 338.139 2.82397 343.668 2.82397H368.668C363.139 2.82397 357.61 2.82397 357.61 2.82397H332.61Z" stroke="white" stroke-width="2" stroke-linejoin="round"/>
<path d="M345.72 82.624C339.165 82.624 332.61 82.624 332.61 82.624H357.61C357.61 82.624 364.165 82.624 370.72 82.624H345.72Z" stroke="white" stroke-width="2" stroke-linejoin="round"/>
<path d="M343.668 2.82397C349.197 2.82397 354.726 2.82397 354.726 2.82397H379.726C379.726 2.82397 374.197 2.82397 368.668 2.82397H343.668Z" stroke="white" stroke-width="2" stroke-linejoin="round"/>
<path d="M358.83 82.624C358.83 82.624 352.275 82.624 345.72 82.624H370.72C377.275 82.624 383.83 82.624 383.83 82.624H358.83Z" stroke="white" stroke-width="2" stroke-linejoin="round"/>
<path d="M358.83 82.6239V46.3719H383.83V82.6239H358.83Z" fill="black" stroke="white" stroke-width="2" stroke-linejoin="round"/>
<path d="M385.05 39.076L354.726 2.82397H379.726L410.05 39.076H385.05Z" fill="black" stroke="white" stroke-width="2" stroke-linejoin="round"/>
<path d="M358.83 46.3719L389.154 82.6239H414.154L383.83 46.3719H358.83Z" fill="black" stroke="white" stroke-width="2" stroke-linejoin="round"/>
<path d="M385.05 2.82397V39.076H410.05V2.82397H385.05Z" fill="black" stroke="white" stroke-width="2" stroke-linejoin="round"/>
<path d="M385.05 2.82397C385.05 2.82397 391.605 2.82397 398.16 2.82397H423.16C416.605 2.82397 410.05 2.82397 410.05 2.82397H385.05Z" stroke="white" stroke-width="2" stroke-linejoin="round"/>
<path d="M400.212 82.624C394.683 82.624 389.154 82.624 389.154 82.624H414.154C414.154 82.624 419.683 82.624 425.212 82.624H400.212Z" stroke="white" stroke-width="2" stroke-linejoin="round"/>
<path d="M398.16 2.82397C404.715 2.82397 411.27 2.82397 411.27 2.82397H436.27C436.27 2.82397 429.715 2.82397 423.16 2.82397H398.16Z" stroke="white" stroke-width="2" stroke-linejoin="round"/>
<path d="M411.27 82.624C411.27 82.624 405.741 82.624 400.212 82.624H425.212C430.741 82.624 436.27 82.624 436.27 82.624H411.27Z" stroke="white" stroke-width="2" stroke-linejoin="round"/>
<path d="M411.27 82.624V2.82397H436.27V82.624H411.27Z" fill="black" stroke="white" stroke-width="2" stroke-linejoin="round"/>
<path d="M421.041 42.724C421.041 50.78 422.941 58 426.741 64.384H451.741C447.941 58 446.041 50.78 446.041 42.724H421.041Z" fill="black" stroke="white" stroke-width="2" stroke-linejoin="round"/>
<path d="M426.741 21.178C422.941 27.486 421.041 34.668 421.041 42.724H446.041C446.041 34.668 447.941 27.486 451.741 21.178H426.741Z" fill="black" stroke="white" stroke-width="2" stroke-linejoin="round"/>
<path d="M426.741 64.384C430.617 70.692 435.937 75.632 442.701 79.204H467.701C460.937 75.632 455.617 70.692 451.741 64.384H426.741Z" fill="black" stroke="white" stroke-width="2" stroke-linejoin="round"/>
<path d="M442.815 6.35797C435.975 9.85397 430.617 14.794 426.741 21.178H451.741C455.617 14.794 460.975 9.85397 467.815 6.35797H442.815Z" fill="black" stroke="white" stroke-width="2" stroke-linejoin="round"/>
<path d="M453.303 57.202C449.883 53.554 448.173 48.728 448.173 42.724H473.173C473.173 48.728 474.883 53.554 478.303 57.202H453.303Z" fill="black" stroke="white" stroke-width="2" stroke-linejoin="round"/>
<path d="M448.173 42.724C448.173 36.568 449.921 31.704 453.417 28.132H478.417C474.921 31.704 473.173 36.568 473.173 42.724H448.173Z" fill="black" stroke="white" stroke-width="2" stroke-linejoin="round"/>
<path d="M442.701 79.204C449.465 82.7 457.103 84.448 465.615 84.448H490.615C482.103 84.448 474.465 82.7 467.701 79.204H442.701Z" fill="black" stroke="white" stroke-width="2" stroke-linejoin="round"/>
<path d="M466.185 1C457.521 1 449.731 2.786 442.815 6.358H467.815C474.731 2.786 482.521 1 491.185 1H466.185Z" fill="black" stroke="white" stroke-width="2" stroke-linejoin="round"/>
<path d="M467.211 62.674C461.435 62.674 456.799 60.85 453.303 57.202H478.303C481.799 60.85 486.435 62.674 492.211 62.674H467.211Z" fill="black" stroke="white" stroke-width="2" stroke-linejoin="round"/>
<path d="M453.417 28.132C456.913 24.56 461.625 22.774 467.553 22.774H492.553C486.625 22.774 481.913 24.56 478.417 28.132H453.417Z" fill="black" stroke="white" stroke-width="2" stroke-linejoin="round"/>
<path d="M477.015 60.736C473.899 62.028 470.631 62.674 467.211 62.674H492.211C495.631 62.674 498.899 62.028 502.015 60.736H477.015Z" fill="black" stroke="white" stroke-width="2" stroke-linejoin="round"/>
<path d="M465.615 84.448C471.619 84.448 477.737 83.574 483.969 81.826H508.969C502.737 83.574 496.619 84.448 490.615 84.448H465.615Z" fill="black" stroke="white" stroke-width="2" stroke-linejoin="round"/>
<path d="M467.553 22.774C474.469 22.774 480.435 25.7 485.451 31.552H510.451C505.435 25.7 499.469 22.774 492.553 22.774H467.553Z" fill="black" stroke="white" stroke-width="2" stroke-linejoin="round"/>
<path d="M487.161 4.99C481.005 2.33 474.013 1 466.185 1H491.185C499.013 1 506.005 2.33 512.161 4.99H487.161Z" fill="black" stroke="white" stroke-width="2" stroke-linejoin="round"/>
<path d="M477.015 40.558V60.736H502.015V40.558H477.015Z" fill="black" stroke="white" stroke-width="2" stroke-linejoin="round"/>
<path d="M477.015 40.558C477.015 40.558 482.858 40.558 488.7 40.558H513.7C507.858 40.558 502.015 40.558 502.015 40.558H477.015Z" stroke="white" stroke-width="2" stroke-linejoin="round"/>
<path d="M483.969 81.826C490.201 80.078 495.673 77.57 500.385 74.302H525.385C520.673 77.57 515.201 80.078 508.969 81.826H483.969Z" fill="black" stroke="white" stroke-width="2" stroke-linejoin="round"/>
<path d="M485.451 31.552L502.665 16.39H527.665L510.451 31.552H485.451Z" fill="black" stroke="white" stroke-width="2" stroke-linejoin="round"/>
<path d="M488.7 40.558C494.543 40.558 500.385 40.558 500.385 40.558H525.385C525.385 40.558 519.543 40.558 513.7 40.558H488.7Z" stroke="white" stroke-width="2" stroke-linejoin="round"/>
<path d="M502.665 16.39C498.561 11.374 493.393 7.57399 487.161 4.98999H512.161C518.393 7.57399 523.561 11.374 527.665 16.39H502.665Z" fill="black" stroke="white" stroke-width="2" stroke-linejoin="round"/>
<path d="M500.385 74.302V40.558H525.385V74.302H500.385Z" fill="black" stroke="white" stroke-width="2" stroke-linejoin="round"/>
<path d="M45.46 84.448C37.024 84.448 29.424 82.7 22.66 79.204C15.896 75.632 10.576 70.692 6.7 64.384C2.9 58 1 50.78 1 42.724C1 34.668 2.9 27.486 6.7 21.178C10.576 14.794 15.896 9.854 22.66 6.358C29.424 2.786 37.024 1 45.46 1C53.212 1 60.128 2.368 66.208 5.104C72.288 7.84 77.304 11.792 81.256 16.96L64.27 32.122C59.33 25.89 53.516 22.774 46.828 22.774C41.204 22.774 36.682 24.598 33.262 28.246C29.842 31.818 28.132 36.644 28.132 42.724C28.132 48.804 29.842 53.668 33.262 57.316C36.682 60.888 41.204 62.674 46.828 62.674C53.516 62.674 59.33 59.558 64.27 53.326L81.256 68.488C77.304 73.656 72.288 77.608 66.208 80.344C60.128 83.08 53.212 84.448 45.46 84.448Z" fill="#0000FF"/>
<path d="M129.192 84.448C120.604 84.448 112.89 82.662 106.05 79.09C99.2101 75.518 93.8521 70.578 89.9761 64.27C86.1001 57.886 84.1621 50.704 84.1621 42.724C84.1621 34.744 86.1001 27.6 89.9761 21.292C93.8521 14.908 99.2101 9.93 106.05 6.358C112.89 2.786 120.604 1 129.192 1C137.78 1 145.494 2.786 152.334 6.358C159.174 9.93 164.532 14.908 168.408 21.292C172.284 27.6 174.222 34.744 174.222 42.724C174.222 50.704 172.284 57.886 168.408 64.27C164.532 70.578 159.174 75.518 152.334 79.09C145.494 82.662 137.78 84.448 129.192 84.448ZM129.192 62.674C132.536 62.674 135.538 61.876 138.198 60.28C140.934 58.608 143.1 56.29 144.696 53.326C146.292 50.286 147.09 46.752 147.09 42.724C147.09 38.696 146.292 35.2 144.696 32.236C143.1 29.196 140.934 26.878 138.198 25.282C135.538 23.61 132.536 22.774 129.192 22.774C125.848 22.774 122.808 23.61 120.072 25.282C117.412 26.878 115.284 29.196 113.688 32.236C112.092 35.2 111.294 38.696 111.294 42.724C111.294 46.752 112.092 50.286 113.688 53.326C115.284 56.29 117.412 58.608 120.072 60.28C122.808 61.876 125.848 62.674 129.192 62.674Z" fill="#0000FF"/>
<path d="M255.237 82.624L255.009 46.258L237.681 75.442H225.825L208.497 47.512V82.624H183.987V2.824H206.103L232.095 45.346L257.403 2.824H279.519L279.747 82.624H255.237Z" fill="#0000FF"/>
<path d="M292.754 2.824H319.659V82.624H292.754V2.824Z" fill="#0000FF"/>
<path d="M411.27 2.824V82.624H389.154L358.83 46.372V82.624H332.61V2.824H354.726L385.05 39.076V2.824H411.27Z" fill="#0000FF"/>
<path d="M477.015 40.558H500.385V74.302C495.673 77.57 490.201 80.078 483.969 81.826C477.737 83.574 471.619 84.448 465.615 84.448C457.103 84.448 449.465 82.7 442.701 79.204C435.937 75.632 430.617 70.692 426.741 64.384C422.941 58 421.041 50.78 421.041 42.724C421.041 34.668 422.941 27.486 426.741 21.178C430.617 14.794 435.975 9.854 442.815 6.358C449.731 2.786 457.521 1 466.185 1C474.013 1 481.005 2.33 487.161 4.99C493.393 7.574 498.561 11.374 502.665 16.39L485.451 31.552C480.435 25.7 474.469 22.774 467.553 22.774C461.625 22.774 456.913 24.56 453.417 28.132C449.921 31.704 448.173 36.568 448.173 42.724C448.173 48.728 449.883 53.554 453.303 57.202C456.799 60.85 461.435 62.674 467.211 62.674C470.631 62.674 473.899 62.028 477.015 60.736V40.558Z" fill="#0000FF"/>
</svg>
