<svg width="96" height="96" viewBox="0 0 96 96" fill="none" xmlns="http://www.w3.org/2000/svg">
<path d="M39.5294 11.2942H56.4706V16.9413H39.5294V11.2942Z" fill="#0000FF"/>
<path d="M45.1765 79.0588H50.8236V84.7059H45.1765V79.0588Z" fill="#0000FF"/>
<path d="M79.0588 22.5882V0H16.9412V39.5294H0V77.9804L14.7842 70.5882H16.9412V96H79.0588V53.6471H81.2158L96 61.0392V22.5882H79.0588ZM13.4511 64.9412L5.64706 68.8431V45.1765H36.7059V64.9412H13.4511ZM73.4118 90.3529H22.5882V70.5882H42.3529V39.5294H22.5882V5.64706H73.4118V22.5882H53.6471V53.6471H73.4118V90.3529ZM90.3529 51.9019L82.5489 48H59.2941V28.2353H90.3529V51.9019Z" fill="#0000FF"/>
<path d="M64.9412 36.7061H84.7059V42.3531H64.9412V36.7061Z" fill="#0000FF"/>
<path d="M11.2942 53.647H16.9413V59.294H11.2942V53.647Z" fill="#0000FF"/>
<path d="M22.5883 53.647H31.0588V59.294H22.5883V53.647Z" fill="#0000FF"/>
</svg>
