<svg width="560" height="20" viewBox="0 0 560 20" fill="none" xmlns="http://www.w3.org/2000/svg">
<path d="M19 1H1V19H19V1Z" stroke="#0000FF" stroke-width="2" stroke-miterlimit="10"/>
<path d="M55 1H37V19H55V1Z" stroke="#0000FF" stroke-width="2" stroke-miterlimit="10"/>
<path d="M91 1H73V19H91V1Z" stroke="#0000FF" stroke-width="2" stroke-miterlimit="10"/>
<path d="M127 1H109V19H127V1Z" stroke="black" stroke-width="2" stroke-miterlimit="10"/>
<path d="M163 1H145V19H163V1Z" stroke="#0000FF" stroke-width="2" stroke-miterlimit="10"/>
<path d="M199 1H181V19H199V1Z" stroke="#0000FF" stroke-width="2" stroke-miterlimit="10"/>
<path d="M235 1H217V19H235V1Z" stroke="#0000FF" stroke-width="2" stroke-miterlimit="10"/>
<path d="M271 1H253V19H271V1Z" stroke="#0000FF" stroke-width="2" stroke-miterlimit="10"/>
<path d="M307 1H289V19H307V1Z" stroke="#0000FF" stroke-width="2" stroke-miterlimit="10"/>
<path d="M343 1H325V19H343V1Z" stroke="#0000FF" stroke-width="2" stroke-miterlimit="10"/>
<path d="M379 1H361V19H379V1Z" stroke="black" stroke-width="2" stroke-miterlimit="10"/>
<path d="M415 1H397V19H415V1Z" stroke="black" stroke-width="2" stroke-miterlimit="10"/>
<path d="M451 1H433V19H451V1Z" stroke="#0000FF" stroke-width="2" stroke-miterlimit="10"/>
<path d="M487 1H469V19H487V1Z" stroke="#0000FF" stroke-width="2" stroke-miterlimit="10"/>
<path d="M523 1H505V19H523V1Z" stroke="#0000FF" stroke-width="2" stroke-miterlimit="10"/>
<path d="M559 1H541V19H559V1Z" stroke="black" stroke-width="2" stroke-miterlimit="10"/>
</svg>
