<svg width="184" height="222" viewBox="0 0 184 222" fill="none" xmlns="http://www.w3.org/2000/svg">
<mask id="mask0" mask-type="alpha" maskUnits="userSpaceOnUse" x="-184" y="-146" width="368" height="368">
<path fill-rule="evenodd" clip-rule="evenodd" d="M0 222C101.62 222 184 139.62 184 38C184 -63.6204 101.62 -146 0 -146C-101.62 -146 -184 -63.6204 -184 38C-184 139.62 -101.62 222 0 222ZM-4.57764e-05 137.797C55.1161 137.797 99.7966 93.1161 99.7966 38C99.7966 -17.1161 55.1161 -61.7966 -4.57764e-05 -61.7966C-55.1162 -61.7966 -99.7967 -17.1161 -99.7967 38C-99.7967 93.1161 -55.1162 137.797 -4.57764e-05 137.797Z" fill="black"/>
</mask>
<g mask="url(#mask0)">
<path d="M-372.73 37.6884L397.167 -406.812L402.667 -397.285L-367.23 47.2147L-372.73 37.6884Z" stroke="black"/>
<path d="M-360.73 58.4731L409.167 -386.027L414.667 -376.501L-355.23 67.9993L-360.73 58.4731Z" stroke="black"/>
<path d="M-348.73 79.2576L421.167 -365.242L426.667 -355.716L-343.23 88.7839L-348.73 79.2576Z" stroke="black"/>
<path d="M-336.73 100.042L433.167 -344.458L438.667 -334.931L-331.23 109.569L-336.73 100.042Z" stroke="black"/>
<path d="M-324.73 120.827L445.167 -323.673L450.667 -314.147L-319.23 130.353L-324.73 120.827Z" stroke="black"/>
<path d="M-312.73 141.611L457.167 -302.889L462.667 -293.362L-307.23 151.138L-312.73 141.611Z" stroke="black"/>
<path d="M-300.73 162.396L469.167 -282.104L474.667 -272.578L-295.23 171.922L-300.73 162.396Z" stroke="black"/>
<path d="M-288.73 183.181L481.167 -261.319L486.667 -251.793L-283.23 192.707L-288.73 183.181Z" stroke="black"/>
<path d="M-276.73 203.965L493.167 -240.535L498.667 -231.008L-271.23 213.492L-276.73 203.965Z" stroke="black"/>
<path d="M-264.73 224.75L505.167 -219.75L510.667 -210.224L-259.23 234.276L-264.73 224.75Z" stroke="black"/>
<path d="M-252.73 245.534L517.167 -198.966L522.667 -189.439L-247.23 255.061L-252.73 245.534Z" stroke="black"/>
<path d="M-240.73 266.319L529.167 -178.181L534.667 -168.655L-235.23 275.845L-240.73 266.319Z" stroke="black"/>
<path d="M-228.73 287.104L541.167 -157.396L546.667 -147.87L-223.23 296.63L-228.73 287.104Z" stroke="black"/>
<path d="M-216.73 307.888L553.167 -136.612L558.667 -127.085L-211.23 317.415L-216.73 307.888Z" stroke="black"/>
<path d="M-204.73 328.673L565.167 -115.827L570.667 -106.301L-199.23 338.199L-204.73 328.673Z" stroke="black"/>
<path d="M-192.73 349.458L577.167 -95.0425L582.667 -85.5162L-187.23 358.984L-192.73 349.458Z" stroke="black"/>
</g>
</svg>
