<svg width="168" height="93" viewBox="0 0 168 93" fill="none" xmlns="http://www.w3.org/2000/svg">
<path d="M159.579 5.74161e-07L159.579 16M151.579 7.99999L167.579 8L151.579 7.99999Z" stroke="#0000FF" stroke-width="2" stroke-miterlimit="10"/>
<path d="M159.579 38.3848L159.579 54.3848M151.579 46.3848L167.579 46.3848L151.579 46.3848Z" stroke="#0000FF" stroke-width="2" stroke-miterlimit="10"/>
<path d="M159.579 76.5386L159.579 92.5386M151.579 84.5386L167.579 84.5386L151.579 84.5386Z" stroke="#0000FF" stroke-width="2" stroke-miterlimit="10"/>
<path d="M121.684 5.74152e-07L121.684 16M113.684 7.99999L129.684 8L113.684 7.99999Z" stroke="#0000FF" stroke-width="2" stroke-miterlimit="10"/>
<path d="M121.684 38.3848L121.684 54.3848M113.684 46.3848L129.684 46.3848L113.684 46.3848Z" stroke="#0000FF" stroke-width="2" stroke-miterlimit="10"/>
<path d="M121.684 76.5386L121.684 92.5386M113.684 84.5386L129.684 84.5386L113.684 84.5386Z" stroke="#0000FF" stroke-width="2" stroke-miterlimit="10"/>
<path d="M83.7894 38.3843L83.7894 54.3843M75.7894 46.3843L91.7894 46.3843L75.7894 46.3843Z" stroke="#0000FF" stroke-width="2" stroke-miterlimit="10"/>
<path d="M83.7894 76.5386L83.7894 92.5386M75.7894 84.5386L91.7894 84.5386L75.7894 84.5386Z" stroke="#0000FF" stroke-width="2" stroke-miterlimit="10"/>
<path d="M45.8948 38.3843L45.8948 54.3843M37.8948 46.3843L53.8948 46.3843L37.8948 46.3843Z" stroke="#0000FF" stroke-width="2" stroke-miterlimit="10"/>
<path d="M45.8947 76.5381L45.8947 92.5381M37.8947 84.5381L53.8947 84.5381L37.8947 84.5381Z" stroke="#0000FF" stroke-width="2" stroke-miterlimit="10"/>
<path d="M8 38.3848L8 54.3848M-9.68494e-07 46.3848L16 46.3848L-9.68494e-07 46.3848Z" stroke="#0000FF" stroke-width="2" stroke-miterlimit="10"/>
<path d="M7.99999 76.5386L7.99999 92.5386M-4.76944e-06 84.5386L16 84.5386L-4.76944e-06 84.5386Z" stroke="#0000FF" stroke-width="2" stroke-miterlimit="10"/>
</svg>
