<svg width="272" height="269" viewBox="0 0 272 269" fill="none" xmlns="http://www.w3.org/2000/svg">
<mask id="mask0" mask-type="alpha" maskUnits="userSpaceOnUse" x="-272" y="-275" width="544" height="544">
<path fill-rule="evenodd" clip-rule="evenodd" d="M0 269C150.221 269 272 147.221 272 -3C272 -153.221 150.221 -275 0 -275C-150.221 -275 -272 -153.221 -272 -3C-272 147.221 -150.221 269 0 269ZM-6.10352e-05 144.525C81.476 144.525 147.525 78.476 147.525 -3C147.525 -84.476 81.476 -150.525 -6.10352e-05 -150.525C-81.4761 -150.525 -147.525 -84.476 -147.525 -3C-147.525 78.476 -81.4761 144.525 -6.10352e-05 144.525Z" fill="black"/>
</mask>
<g mask="url(#mask0)">
<path d="M-551.319 -3.54794L218.578 -448.048L224.078 -438.522L-545.819 5.97833L-551.319 -3.54794Z" stroke="black"/>
<path d="M-539.319 17.2367L230.578 -427.263L236.078 -417.737L-533.819 26.763L-539.319 17.2367Z" stroke="black"/>
<path d="M-527.319 38.0214L242.578 -406.479L248.078 -396.952L-521.819 47.5477L-527.319 38.0214Z" stroke="black"/>
<path d="M-515.319 58.8061L254.578 -385.694L260.078 -376.168L-509.819 68.3323L-515.319 58.8061Z" stroke="black"/>
<path d="M-503.319 79.5907L266.578 -364.909L272.078 -355.383L-497.819 89.117L-503.319 79.5907Z" stroke="black"/>
<path d="M-491.319 100.375L278.578 -344.125L284.078 -334.599L-485.819 109.901L-491.319 100.375Z" stroke="black"/>
<path d="M-479.319 121.16L290.578 -323.34L296.078 -313.814L-473.819 130.686L-479.319 121.16Z" stroke="black"/>
<path d="M-467.319 141.944L302.578 -302.556L308.078 -293.029L-461.819 151.471L-467.319 141.944Z" stroke="black"/>
<path d="M-455.319 162.729L314.578 -281.771L320.078 -272.245L-449.819 172.255L-455.319 162.729Z" stroke="black"/>
<path d="M-443.319 183.514L326.578 -260.986L332.078 -251.46L-437.819 193.04L-443.319 183.514Z" stroke="black"/>
<path d="M-431.319 204.298L338.578 -240.202L344.078 -230.675L-425.819 213.825L-431.319 204.298Z" stroke="black"/>
<path d="M-419.319 225.083L350.578 -219.417L356.078 -209.891L-413.819 234.609L-419.319 225.083Z" stroke="black"/>
<path d="M-407.319 245.868L362.578 -198.632L368.078 -189.106L-401.819 255.394L-407.319 245.868Z" stroke="black"/>
<path d="M-395.319 266.652L374.578 -177.848L380.078 -168.322L-389.819 276.178L-395.319 266.652Z" stroke="black"/>
<path d="M-383.319 287.436L386.578 -157.064L392.078 -147.537L-377.819 296.963L-383.319 287.436Z" stroke="black"/>
<path d="M-371.319 308.221L398.578 -136.279L404.078 -126.753L-365.819 317.747L-371.319 308.221Z" stroke="black"/>
<path d="M-359.319 329.006L410.578 -115.494L416.078 -105.968L-353.819 338.532L-359.319 329.006Z" stroke="black"/>
<path d="M-347.319 349.79L422.578 -94.7096L428.078 -85.1833L-341.819 359.317L-347.319 349.79Z" stroke="black"/>
<path d="M-335.319 370.575L434.578 -73.9249L440.078 -64.3986L-329.819 380.101L-335.319 370.575Z" stroke="black"/>
<path d="M-323.319 391.36L446.578 -53.1402L452.078 -43.614L-317.819 400.886L-323.319 391.36Z" stroke="black"/>
<path d="M-311.319 412.144L458.578 -32.3556L464.078 -22.8293L-305.819 421.671L-311.319 412.144Z" stroke="black"/>
<path d="M-299.319 432.929L470.578 -11.5714L476.078 -2.0451L-293.819 442.455L-299.319 432.929Z" stroke="black"/>
<path d="M-287.319 453.713L482.578 9.21329L488.078 18.7396L-281.819 463.24L-287.319 453.713Z" stroke="black"/>
<path d="M-275.319 474.498L494.578 29.998L500.078 39.5242L-269.819 484.024L-275.319 474.498Z" stroke="black"/>
</g>
</svg>
