<svg width="168" height="93" viewBox="0 0 168 93" fill="none" xmlns="http://www.w3.org/2000/svg">
<path d="M159.579 5.14534e-06L159.579 16M151.579 8L167.579 8L151.579 8Z" stroke="#0000FF" stroke-width="2" stroke-miterlimit="10"/>
<path d="M159.579 38.3845L159.579 54.3845M151.579 46.3845L167.579 46.3845L151.579 46.3845Z" stroke="#0000FF" stroke-width="2" stroke-miterlimit="10"/>
<path d="M159.579 76.5385L159.579 92.5385M151.579 84.5385L167.579 84.5385L151.579 84.5385Z" stroke="#0000FF" stroke-width="2" stroke-miterlimit="10"/>
<path d="M121.684 5.14534e-06L121.684 16M113.684 8L129.684 8L113.684 8Z" stroke="#0000FF" stroke-width="2" stroke-miterlimit="10"/>
<path d="M121.684 38.3845L121.684 54.3845M113.684 46.3845L129.684 46.3845L113.684 46.3845Z" stroke="#0000FF" stroke-width="2" stroke-miterlimit="10"/>
<path d="M121.684 76.5385L121.684 92.5385M113.684 84.5385L129.684 84.5385L113.684 84.5385Z" stroke="#0000FF" stroke-width="2" stroke-miterlimit="10"/>
<path d="M83.7894 38.3845L83.7894 54.3845M75.7894 46.3845L91.7894 46.3845L75.7894 46.3845Z" stroke="#0000FF" stroke-width="2" stroke-miterlimit="10"/>
<path d="M83.7894 76.5385L83.7894 92.5385M75.7894 84.5384L91.7894 84.5385L75.7894 84.5384Z" stroke="#0000FF" stroke-width="2" stroke-miterlimit="10"/>
<path d="M45.8948 38.3845L45.8948 54.3845M37.8948 46.3845L53.8948 46.3845L37.8948 46.3845Z" stroke="#0000FF" stroke-width="2" stroke-miterlimit="10"/>
<path d="M45.8947 76.5385L45.8947 92.5385M37.8947 84.5384L53.8947 84.5385L37.8947 84.5384Z" stroke="#0000FF" stroke-width="2" stroke-miterlimit="10"/>
<path d="M8 38.3845L8 54.3845M3.6269e-06 46.3845L16 46.3845L3.6269e-06 46.3845Z" stroke="#0000FF" stroke-width="2" stroke-miterlimit="10"/>
<path d="M8 76.5385L8 92.5385M3.67196e-06 84.5384L16 84.5385L3.67196e-06 84.5384Z" stroke="#0000FF" stroke-width="2" stroke-miterlimit="10"/>
</svg>
