<svg width="242" height="240" viewBox="0 0 242 240" fill="none" xmlns="http://www.w3.org/2000/svg">
<path d="M15.8388 60.5348L60.9061 15.7225C52.905 20.2687 45.4754 25.7079 38.7534 31.8777L32.0859 38.5075C25.881 45.1914 20.4108 52.579 15.8388 60.5348Z" fill="black"/>
<path d="M2.39493 96.1462L96.7205 2.35445C94.1079 2.8686 91.5497 3.49099 88.9915 4.1675L4.21826 88.461C3.53789 91.0047 2.912 93.5484 2.39493 96.1462Z" fill="black"/>
<path d="M0 119.986C0 120.23 0 120.5 0 120.744L121.458 0C121.214 0 120.941 0 120.696 0C118.928 0 117.186 0.0541209 115.471 0.108242L0.136039 114.791C0.0543958 116.523 0 118.254 0 119.986Z" fill="black"/>
<path d="M1.8779 141.147L141.951 1.86705C140.264 1.56938 138.549 1.29877 136.862 1.08229L1.08865 136.087C1.30637 137.765 1.57854 139.47 1.8779 141.147Z" fill="black"/>
<path d="M6.44967 158.818L159.722 6.41296C158.252 5.89881 156.756 5.43878 155.259 5.00581L5.03455 154.38C5.49719 155.868 5.95981 157.356 6.44967 158.818Z" fill="black"/>
<path d="M13.1174 174.432L175.452 13.0164C174.146 12.3669 172.812 11.7175 171.479 11.0951L11.1851 170.481C11.8111 171.807 12.437 173.133 13.1174 174.432Z" fill="black"/>
<path d="M21.4995 188.341L189.44 21.3507C188.27 20.5389 187.1 19.7542 185.903 18.9965L19.1319 184.823C19.8939 186.014 20.6831 187.178 21.4995 188.341Z" fill="black"/>
<path d="M31.4057 200.735L201.878 31.228C200.843 30.3079 199.809 29.3879 198.748 28.4949L28.657 197.623C29.5551 198.651 30.4804 199.707 31.4057 200.735Z" fill="black"/>
<path d="M42.8084 211.64L212.872 42.5388C211.974 41.4834 211.049 40.4281 210.123 39.3998L39.6516 208.907C40.6858 209.827 41.7198 210.747 42.8084 211.64Z" fill="black"/>
<path d="M55.6538 221.084L222.37 55.3116C221.608 54.121 220.819 52.9574 220.002 51.7938L52.1159 218.757C53.2862 219.542 54.4564 220.327 55.6538 221.084Z" fill="black"/>
<path d="M70.1047 228.959L230.262 69.7076C229.636 68.3817 229.01 67.0557 228.33 65.7568L66.1043 227.065C67.4378 227.714 68.7712 228.336 70.1047 228.959Z" fill="black"/>
<path d="M86.3515 235.048L236.412 85.8359C235.977 84.3475 235.487 82.8592 234.997 81.3979L81.8884 233.64C83.358 234.155 84.8547 234.615 86.3515 235.048Z" fill="black"/>
<path d="M104.803 238.944L240.332 104.183C240.114 102.478 239.842 100.774 239.542 99.0958L99.6868 238.16C101.374 238.457 103.089 238.728 104.803 238.944Z" fill="black"/>
<path d="M120.696 240C122.574 240 124.425 239.946 126.248 239.865L241.23 125.534C241.311 123.694 241.366 121.854 241.366 120.014C241.366 119.851 241.366 119.716 241.366 119.554L120.234 240C120.37 239.973 120.533 240 120.696 240Z" fill="black"/>
<path d="M152.81 235.67L237.039 151.918C237.746 149.374 238.372 146.803 238.916 144.205L145.053 237.537C147.666 236.996 150.251 236.373 152.81 235.67Z" fill="black"/>
<path d="M225.091 180.169L181.194 223.818C199.373 213.318 214.532 198.245 225.091 180.169Z" fill="black"/>
</svg>
