<svg width="98" height="18" viewBox="0 0 98 18" fill="none" xmlns="http://www.w3.org/2000/svg">
<circle cx="1" cy="1" r="1" fill="black"/>
<circle cx="9" cy="1" r="1" fill="black"/>
<circle cx="17" cy="1" r="1" fill="black"/>
<circle cx="25" cy="1" r="1" fill="black"/>
<circle cx="33" cy="1" r="1" fill="black"/>
<circle cx="41" cy="1" r="1" fill="black"/>
<circle cx="49" cy="1" r="1" fill="black"/>
<circle cx="57" cy="1" r="1" fill="black"/>
<circle cx="65" cy="1" r="1" fill="black"/>
<circle cx="73" cy="1" r="1" fill="black"/>
<circle cx="81" cy="1" r="1" fill="black"/>
<circle cx="89" cy="1" r="1" fill="black"/>
<circle cx="97" cy="1" r="1" fill="black"/>
<circle cx="1" cy="9" r="1" fill="black"/>
<circle cx="9" cy="9" r="1" fill="black"/>
<circle cx="17" cy="9" r="1" fill="black"/>
<circle cx="25" cy="9" r="1" fill="black"/>
<circle cx="33" cy="9" r="1" fill="black"/>
<circle cx="41" cy="9" r="1" fill="black"/>
<circle cx="49" cy="9" r="1" fill="black"/>
<circle cx="57" cy="9" r="1" fill="black"/>
<circle cx="65" cy="9" r="1" fill="black"/>
<circle cx="73" cy="9" r="1" fill="black"/>
<circle cx="81" cy="9" r="1" fill="black"/>
<circle cx="89" cy="9" r="1" fill="black"/>
<circle cx="97" cy="9" r="1" fill="black"/>
<circle cx="1" cy="17" r="1" fill="black"/>
<circle cx="9" cy="17" r="1" fill="black"/>
<circle cx="17" cy="17" r="1" fill="black"/>
<circle cx="25" cy="17" r="1" fill="black"/>
<circle cx="33" cy="17" r="1" fill="black"/>
<circle cx="41" cy="17" r="1" fill="black"/>
<circle cx="49" cy="17" r="1" fill="black"/>
<circle cx="57" cy="17" r="1" fill="black"/>
<circle cx="65" cy="17" r="1" fill="black"/>
<circle cx="73" cy="17" r="1" fill="black"/>
<circle cx="81" cy="17" r="1" fill="black"/>
<circle cx="89" cy="17" r="1" fill="black"/>
<circle cx="97" cy="17" r="1" fill="black"/>
</svg>
