<svg width="18" height="874" viewBox="0 0 18 874" fill="none" xmlns="http://www.w3.org/2000/svg">
<circle cx="1" cy="1" r="1" fill="black"/>
<circle cx="9" cy="1" r="1" fill="black"/>
<circle cx="17" cy="1" r="1" fill="black"/>
<circle cx="1" cy="9" r="1" fill="black"/>
<circle cx="9" cy="9" r="1" fill="black"/>
<circle cx="17" cy="9" r="1" fill="black"/>
<circle cx="1" cy="17" r="1" fill="black"/>
<circle cx="9" cy="17" r="1" fill="black"/>
<circle cx="17" cy="17" r="1" fill="black"/>
<circle cx="1" cy="25" r="1" fill="black"/>
<circle cx="9" cy="25" r="1" fill="black"/>
<circle cx="17" cy="25" r="1" fill="black"/>
<circle cx="1" cy="33" r="1" fill="black"/>
<circle cx="9" cy="33" r="1" fill="black"/>
<circle cx="17" cy="33" r="1" fill="black"/>
<circle cx="1" cy="41" r="1" fill="black"/>
<circle cx="9" cy="41" r="1" fill="black"/>
<circle cx="17" cy="41" r="1" fill="black"/>
<circle cx="1" cy="49" r="1" fill="black"/>
<circle cx="9" cy="49" r="1" fill="black"/>
<circle cx="17" cy="49" r="1" fill="black"/>
<circle cx="1" cy="57" r="1" fill="black"/>
<circle cx="9" cy="57" r="1" fill="black"/>
<circle cx="17" cy="57" r="1" fill="black"/>
<circle cx="1" cy="65" r="1" fill="black"/>
<circle cx="9" cy="65" r="1" fill="black"/>
<circle cx="17" cy="65" r="1" fill="black"/>
<circle cx="1" cy="73" r="1" fill="black"/>
<circle cx="9" cy="73" r="1" fill="black"/>
<circle cx="17" cy="73" r="1" fill="black"/>
<circle cx="1" cy="81" r="1" fill="black"/>
<circle cx="9" cy="81" r="1" fill="black"/>
<circle cx="17" cy="81" r="1" fill="black"/>
<circle cx="1" cy="89" r="1" fill="black"/>
<circle cx="9" cy="89" r="1" fill="black"/>
<circle cx="17" cy="89" r="1" fill="black"/>
<circle cx="1" cy="97" r="1" fill="black"/>
<circle cx="9" cy="97" r="1" fill="black"/>
<circle cx="17" cy="97" r="1" fill="black"/>
<circle cx="1" cy="105" r="1" fill="black"/>
<circle cx="9" cy="105" r="1" fill="black"/>
<circle cx="17" cy="105" r="1" fill="black"/>
<circle cx="1" cy="113" r="1" fill="black"/>
<circle cx="9" cy="113" r="1" fill="black"/>
<circle cx="17" cy="113" r="1" fill="black"/>
<circle cx="1" cy="121" r="1" fill="black"/>
<circle cx="9" cy="121" r="1" fill="black"/>
<circle cx="17" cy="121" r="1" fill="black"/>
<circle cx="1" cy="129" r="1" fill="black"/>
<circle cx="9" cy="129" r="1" fill="black"/>
<circle cx="17" cy="129" r="1" fill="black"/>
<circle cx="1" cy="137" r="1" fill="black"/>
<circle cx="9" cy="137" r="1" fill="black"/>
<circle cx="17" cy="137" r="1" fill="black"/>
<circle cx="1" cy="145" r="1" fill="black"/>
<circle cx="9" cy="145" r="1" fill="black"/>
<circle cx="17" cy="145" r="1" fill="black"/>
<circle cx="1" cy="153" r="1" fill="black"/>
<circle cx="9" cy="153" r="1" fill="black"/>
<circle cx="17" cy="153" r="1" fill="black"/>
<circle cx="1" cy="161" r="1" fill="black"/>
<circle cx="9" cy="161" r="1" fill="black"/>
<circle cx="17" cy="161" r="1" fill="black"/>
<circle cx="1" cy="169" r="1" fill="black"/>
<circle cx="9" cy="169" r="1" fill="black"/>
<circle cx="17" cy="169" r="1" fill="black"/>
<circle cx="1" cy="177" r="1" fill="black"/>
<circle cx="9" cy="177" r="1" fill="black"/>
<circle cx="17" cy="177" r="1" fill="black"/>
<circle cx="1" cy="185" r="1" fill="black"/>
<circle cx="9" cy="185" r="1" fill="black"/>
<circle cx="17" cy="185" r="1" fill="black"/>
<circle cx="1" cy="193" r="1" fill="black"/>
<circle cx="9" cy="193" r="1" fill="black"/>
<circle cx="17" cy="193" r="1" fill="black"/>
<circle cx="1" cy="201" r="1" fill="black"/>
<circle cx="9" cy="201" r="1" fill="black"/>
<circle cx="17" cy="201" r="1" fill="black"/>
<circle cx="1" cy="209" r="1" fill="black"/>
<circle cx="9" cy="209" r="1" fill="black"/>
<circle cx="17" cy="209" r="1" fill="black"/>
<circle cx="1" cy="217" r="1" fill="black"/>
<circle cx="9" cy="217" r="1" fill="black"/>
<circle cx="17" cy="217" r="1" fill="black"/>
<circle cx="1" cy="225" r="1" fill="black"/>
<circle cx="9" cy="225" r="1" fill="black"/>
<circle cx="17" cy="225" r="1" fill="black"/>
<circle cx="1" cy="233" r="1" fill="black"/>
<circle cx="9" cy="233" r="1" fill="black"/>
<circle cx="17" cy="233" r="1" fill="black"/>
<circle cx="1" cy="241" r="1" fill="black"/>
<circle cx="9" cy="241" r="1" fill="black"/>
<circle cx="17" cy="241" r="1" fill="black"/>
<circle cx="1" cy="249" r="1" fill="black"/>
<circle cx="9" cy="249" r="1" fill="black"/>
<circle cx="17" cy="249" r="1" fill="black"/>
<circle cx="1" cy="257" r="1" fill="black"/>
<circle cx="9" cy="257" r="1" fill="black"/>
<circle cx="17" cy="257" r="1" fill="black"/>
<circle cx="1" cy="265" r="1" fill="black"/>
<circle cx="9" cy="265" r="1" fill="black"/>
<circle cx="17" cy="265" r="1" fill="black"/>
<circle cx="1" cy="273" r="1" fill="black"/>
<circle cx="9" cy="273" r="1" fill="black"/>
<circle cx="17" cy="273" r="1" fill="black"/>
<circle cx="1" cy="281" r="1" fill="black"/>
<circle cx="9" cy="281" r="1" fill="black"/>
<circle cx="17" cy="281" r="1" fill="black"/>
<circle cx="1" cy="289" r="1" fill="black"/>
<circle cx="9" cy="289" r="1" fill="black"/>
<circle cx="17" cy="289" r="1" fill="black"/>
<circle cx="1" cy="297" r="1" fill="black"/>
<circle cx="9" cy="297" r="1" fill="black"/>
<circle cx="17" cy="297" r="1" fill="black"/>
<circle cx="1" cy="305" r="1" fill="black"/>
<circle cx="9" cy="305" r="1" fill="black"/>
<circle cx="17" cy="305" r="1" fill="black"/>
<circle cx="1" cy="313" r="1" fill="black"/>
<circle cx="9" cy="313" r="1" fill="black"/>
<circle cx="17" cy="313" r="1" fill="black"/>
<circle cx="1" cy="321" r="1" fill="black"/>
<circle cx="9" cy="321" r="1" fill="black"/>
<circle cx="17" cy="321" r="1" fill="black"/>
<circle cx="1" cy="329" r="1" fill="black"/>
<circle cx="9" cy="329" r="1" fill="black"/>
<circle cx="17" cy="329" r="1" fill="black"/>
<circle cx="1" cy="337" r="1" fill="black"/>
<circle cx="9" cy="337" r="1" fill="black"/>
<circle cx="17" cy="337" r="1" fill="black"/>
<circle cx="1" cy="345" r="1" fill="black"/>
<circle cx="9" cy="345" r="1" fill="black"/>
<circle cx="17" cy="345" r="1" fill="black"/>
<circle cx="1" cy="353" r="1" fill="black"/>
<circle cx="9" cy="353" r="1" fill="black"/>
<circle cx="17" cy="353" r="1" fill="black"/>
<circle cx="1" cy="361" r="1" fill="black"/>
<circle cx="9" cy="361" r="1" fill="black"/>
<circle cx="17" cy="361" r="1" fill="black"/>
<circle cx="1" cy="369" r="1" fill="black"/>
<circle cx="9" cy="369" r="1" fill="black"/>
<circle cx="17" cy="369" r="1" fill="black"/>
<circle cx="1" cy="377" r="1" fill="black"/>
<circle cx="9" cy="377" r="1" fill="black"/>
<circle cx="17" cy="377" r="1" fill="black"/>
<circle cx="1" cy="385" r="1" fill="black"/>
<circle cx="9" cy="385" r="1" fill="black"/>
<circle cx="17" cy="385" r="1" fill="black"/>
<circle cx="1" cy="393" r="1" fill="black"/>
<circle cx="9" cy="393" r="1" fill="black"/>
<circle cx="17" cy="393" r="1" fill="black"/>
<circle cx="1" cy="401" r="1" fill="black"/>
<circle cx="9" cy="401" r="1" fill="black"/>
<circle cx="17" cy="401" r="1" fill="black"/>
<circle cx="1" cy="409" r="1" fill="black"/>
<circle cx="9" cy="409" r="1" fill="black"/>
<circle cx="17" cy="409" r="1" fill="black"/>
<circle cx="1" cy="417" r="1" fill="black"/>
<circle cx="9" cy="417" r="1" fill="black"/>
<circle cx="17" cy="417" r="1" fill="black"/>
<circle cx="1" cy="425" r="1" fill="black"/>
<circle cx="9" cy="425" r="1" fill="black"/>
<circle cx="17" cy="425" r="1" fill="black"/>
<circle cx="1" cy="433" r="1" fill="black"/>
<circle cx="9" cy="433" r="1" fill="black"/>
<circle cx="17" cy="433" r="1" fill="black"/>
<circle cx="1" cy="441" r="1" fill="black"/>
<circle cx="9" cy="441" r="1" fill="black"/>
<circle cx="17" cy="441" r="1" fill="black"/>
<circle cx="1" cy="449" r="1" fill="black"/>
<circle cx="9" cy="449" r="1" fill="black"/>
<circle cx="17" cy="449" r="1" fill="black"/>
<circle cx="1" cy="457" r="1" fill="black"/>
<circle cx="9" cy="457" r="1" fill="black"/>
<circle cx="17" cy="457" r="1" fill="black"/>
<circle cx="1" cy="465" r="1" fill="black"/>
<circle cx="9" cy="465" r="1" fill="black"/>
<circle cx="17" cy="465" r="1" fill="black"/>
<circle cx="1" cy="473" r="1" fill="black"/>
<circle cx="9" cy="473" r="1" fill="black"/>
<circle cx="17" cy="473" r="1" fill="black"/>
<circle cx="1" cy="481" r="1" fill="black"/>
<circle cx="9" cy="481" r="1" fill="black"/>
<circle cx="17" cy="481" r="1" fill="black"/>
<circle cx="1" cy="489" r="1" fill="black"/>
<circle cx="9" cy="489" r="1" fill="black"/>
<circle cx="17" cy="489" r="1" fill="black"/>
<circle cx="1" cy="497" r="1" fill="black"/>
<circle cx="9" cy="497" r="1" fill="black"/>
<circle cx="17" cy="497" r="1" fill="black"/>
<circle cx="1" cy="505" r="1" fill="black"/>
<circle cx="9" cy="505" r="1" fill="black"/>
<circle cx="17" cy="505" r="1" fill="black"/>
<circle cx="1" cy="513" r="1" fill="black"/>
<circle cx="9" cy="513" r="1" fill="black"/>
<circle cx="17" cy="513" r="1" fill="black"/>
<circle cx="1" cy="521" r="1" fill="black"/>
<circle cx="9" cy="521" r="1" fill="black"/>
<circle cx="17" cy="521" r="1" fill="black"/>
<circle cx="1" cy="529" r="1" fill="black"/>
<circle cx="9" cy="529" r="1" fill="black"/>
<circle cx="17" cy="529" r="1" fill="black"/>
<circle cx="1" cy="537" r="1" fill="black"/>
<circle cx="9" cy="537" r="1" fill="black"/>
<circle cx="17" cy="537" r="1" fill="black"/>
<circle cx="1" cy="545" r="1" fill="black"/>
<circle cx="9" cy="545" r="1" fill="black"/>
<circle cx="17" cy="545" r="1" fill="black"/>
<circle cx="1" cy="553" r="1" fill="black"/>
<circle cx="9" cy="553" r="1" fill="black"/>
<circle cx="17" cy="553" r="1" fill="black"/>
<circle cx="1" cy="561" r="1" fill="black"/>
<circle cx="9" cy="561" r="1" fill="black"/>
<circle cx="17" cy="561" r="1" fill="black"/>
<circle cx="1" cy="569" r="1" fill="black"/>
<circle cx="9" cy="569" r="1" fill="black"/>
<circle cx="17" cy="569" r="1" fill="black"/>
<circle cx="1" cy="577" r="1" fill="black"/>
<circle cx="9" cy="577" r="1" fill="black"/>
<circle cx="17" cy="577" r="1" fill="black"/>
<circle cx="1" cy="585" r="1" fill="black"/>
<circle cx="9" cy="585" r="1" fill="black"/>
<circle cx="17" cy="585" r="1" fill="black"/>
<circle cx="1" cy="593" r="1" fill="black"/>
<circle cx="9" cy="593" r="1" fill="black"/>
<circle cx="17" cy="593" r="1" fill="black"/>
<circle cx="1" cy="601" r="1" fill="black"/>
<circle cx="9" cy="601" r="1" fill="black"/>
<circle cx="17" cy="601" r="1" fill="black"/>
<circle cx="1" cy="609" r="1" fill="black"/>
<circle cx="9" cy="609" r="1" fill="black"/>
<circle cx="17" cy="609" r="1" fill="black"/>
<circle cx="1" cy="617" r="1" fill="black"/>
<circle cx="9" cy="617" r="1" fill="black"/>
<circle cx="17" cy="617" r="1" fill="black"/>
<circle cx="1" cy="625" r="1" fill="black"/>
<circle cx="9" cy="625" r="1" fill="black"/>
<circle cx="17" cy="625" r="1" fill="black"/>
<circle cx="1" cy="633" r="1" fill="black"/>
<circle cx="9" cy="633" r="1" fill="black"/>
<circle cx="17" cy="633" r="1" fill="black"/>
<circle cx="1" cy="641" r="1" fill="black"/>
<circle cx="9" cy="641" r="1" fill="black"/>
<circle cx="17" cy="641" r="1" fill="black"/>
<circle cx="1" cy="649" r="1" fill="black"/>
<circle cx="9" cy="649" r="1" fill="black"/>
<circle cx="17" cy="649" r="1" fill="black"/>
<circle cx="1" cy="657" r="1" fill="black"/>
<circle cx="9" cy="657" r="1" fill="black"/>
<circle cx="17" cy="657" r="1" fill="black"/>
<circle cx="1" cy="665" r="1" fill="black"/>
<circle cx="9" cy="665" r="1" fill="black"/>
<circle cx="17" cy="665" r="1" fill="black"/>
<circle cx="1" cy="673" r="1" fill="black"/>
<circle cx="9" cy="673" r="1" fill="black"/>
<circle cx="17" cy="673" r="1" fill="black"/>
<circle cx="1" cy="681" r="1" fill="black"/>
<circle cx="9" cy="681" r="1" fill="black"/>
<circle cx="17" cy="681" r="1" fill="black"/>
<circle cx="1" cy="689" r="1" fill="black"/>
<circle cx="9" cy="689" r="1" fill="black"/>
<circle cx="17" cy="689" r="1" fill="black"/>
<circle cx="1" cy="697" r="1" fill="black"/>
<circle cx="9" cy="697" r="1" fill="black"/>
<circle cx="17" cy="697" r="1" fill="black"/>
<circle cx="1" cy="705" r="1" fill="black"/>
<circle cx="9" cy="705" r="1" fill="black"/>
<circle cx="17" cy="705" r="1" fill="black"/>
<circle cx="1" cy="713" r="1" fill="black"/>
<circle cx="9" cy="713" r="1" fill="black"/>
<circle cx="17" cy="713" r="1" fill="black"/>
<circle cx="1" cy="721" r="1" fill="black"/>
<circle cx="9" cy="721" r="1" fill="black"/>
<circle cx="17" cy="721" r="1" fill="black"/>
<circle cx="1" cy="729" r="1" fill="black"/>
<circle cx="9" cy="729" r="1" fill="black"/>
<circle cx="17" cy="729" r="1" fill="black"/>
<circle cx="1" cy="737" r="1" fill="black"/>
<circle cx="9" cy="737" r="1" fill="black"/>
<circle cx="17" cy="737" r="1" fill="black"/>
<circle cx="1" cy="745" r="1" fill="black"/>
<circle cx="9" cy="745" r="1" fill="black"/>
<circle cx="17" cy="745" r="1" fill="black"/>
<circle cx="1" cy="753" r="1" fill="black"/>
<circle cx="9" cy="753" r="1" fill="black"/>
<circle cx="17" cy="753" r="1" fill="black"/>
<circle cx="1" cy="761" r="1" fill="black"/>
<circle cx="9" cy="761" r="1" fill="black"/>
<circle cx="17" cy="761" r="1" fill="black"/>
<circle cx="1" cy="769" r="1" fill="black"/>
<circle cx="9" cy="769" r="1" fill="black"/>
<circle cx="17" cy="769" r="1" fill="black"/>
<circle cx="1" cy="777" r="1" fill="black"/>
<circle cx="9" cy="777" r="1" fill="black"/>
<circle cx="17" cy="777" r="1" fill="black"/>
<circle cx="1" cy="785" r="1" fill="black"/>
<circle cx="9" cy="785" r="1" fill="black"/>
<circle cx="17" cy="785" r="1" fill="black"/>
<circle cx="1" cy="793" r="1" fill="black"/>
<circle cx="9" cy="793" r="1" fill="black"/>
<circle cx="17" cy="793" r="1" fill="black"/>
<circle cx="1" cy="801" r="1" fill="black"/>
<circle cx="9" cy="801" r="1" fill="black"/>
<circle cx="17" cy="801" r="1" fill="black"/>
<circle cx="1" cy="809" r="1" fill="black"/>
<circle cx="9" cy="809" r="1" fill="black"/>
<circle cx="17" cy="809" r="1" fill="black"/>
<circle cx="1" cy="817" r="1" fill="black"/>
<circle cx="9" cy="817" r="1" fill="black"/>
<circle cx="17" cy="817" r="1" fill="black"/>
<circle cx="1" cy="825" r="1" fill="black"/>
<circle cx="9" cy="825" r="1" fill="black"/>
<circle cx="17" cy="825" r="1" fill="black"/>
<circle cx="1" cy="833" r="1" fill="black"/>
<circle cx="9" cy="833" r="1" fill="black"/>
<circle cx="17" cy="833" r="1" fill="black"/>
<circle cx="1" cy="841" r="1" fill="black"/>
<circle cx="9" cy="841" r="1" fill="black"/>
<circle cx="17" cy="841" r="1" fill="black"/>
<circle cx="1" cy="849" r="1" fill="black"/>
<circle cx="9" cy="849" r="1" fill="black"/>
<circle cx="17" cy="849" r="1" fill="black"/>
<circle cx="1" cy="857" r="1" fill="black"/>
<circle cx="9" cy="857" r="1" fill="black"/>
<circle cx="17" cy="857" r="1" fill="black"/>
<circle cx="1" cy="865" r="1" fill="black"/>
<circle cx="9" cy="865" r="1" fill="black"/>
<circle cx="17" cy="865" r="1" fill="black"/>
<circle cx="1" cy="873" r="1" fill="black"/>
<circle cx="9" cy="873" r="1" fill="black"/>
<circle cx="17" cy="873" r="1" fill="black"/>
</svg>
