<svg width="1442" height="18" viewBox="0 0 1442 18" fill="none" xmlns="http://www.w3.org/2000/svg">
<circle cx="1" cy="1" r="1" fill="black"/>
<circle cx="9" cy="1" r="1" fill="black"/>
<circle cx="17" cy="1" r="1" fill="black"/>
<circle cx="25" cy="1" r="1" fill="black"/>
<circle cx="33" cy="1" r="1" fill="black"/>
<circle cx="41" cy="1" r="1" fill="black"/>
<circle cx="49" cy="1" r="1" fill="black"/>
<circle cx="57" cy="1" r="1" fill="black"/>
<circle cx="65" cy="1" r="1" fill="black"/>
<circle cx="73" cy="1" r="1" fill="black"/>
<circle cx="81" cy="1" r="1" fill="black"/>
<circle cx="89" cy="1" r="1" fill="black"/>
<circle cx="97" cy="1" r="1" fill="black"/>
<circle cx="105" cy="1" r="1" fill="black"/>
<circle cx="113" cy="1" r="1" fill="black"/>
<circle cx="121" cy="1" r="1" fill="black"/>
<circle cx="129" cy="1" r="1" fill="black"/>
<circle cx="137" cy="1" r="1" fill="black"/>
<circle cx="145" cy="1" r="1" fill="black"/>
<circle cx="153" cy="1" r="1" fill="black"/>
<circle cx="161" cy="1" r="1" fill="black"/>
<circle cx="169" cy="1" r="1" fill="black"/>
<circle cx="177" cy="1" r="1" fill="black"/>
<circle cx="185" cy="1" r="1" fill="black"/>
<circle cx="193" cy="1" r="1" fill="black"/>
<circle cx="201" cy="1" r="1" fill="black"/>
<circle cx="209" cy="1" r="1" fill="black"/>
<circle cx="217" cy="1" r="1" fill="black"/>
<circle cx="225" cy="1" r="1" fill="black"/>
<circle cx="233" cy="1" r="1" fill="black"/>
<circle cx="241" cy="1" r="1" fill="black"/>
<circle cx="249" cy="1" r="1" fill="black"/>
<circle cx="257" cy="1" r="1" fill="black"/>
<circle cx="265" cy="1" r="1" fill="black"/>
<circle cx="273" cy="1" r="1" fill="black"/>
<circle cx="281" cy="1" r="1" fill="black"/>
<circle cx="289" cy="1" r="1" fill="black"/>
<circle cx="297" cy="1" r="1" fill="black"/>
<circle cx="305" cy="1" r="1" fill="black"/>
<circle cx="313" cy="1" r="1" fill="black"/>
<circle cx="321" cy="1" r="1" fill="black"/>
<circle cx="329" cy="1" r="1" fill="black"/>
<circle cx="337" cy="1" r="1" fill="black"/>
<circle cx="345" cy="1" r="1" fill="black"/>
<circle cx="353" cy="1" r="1" fill="black"/>
<circle cx="361" cy="1" r="1" fill="black"/>
<circle cx="369" cy="1" r="1" fill="black"/>
<circle cx="377" cy="1" r="1" fill="black"/>
<circle cx="385" cy="1" r="1" fill="black"/>
<circle cx="393" cy="1" r="1" fill="black"/>
<circle cx="401" cy="1" r="1" fill="black"/>
<circle cx="409" cy="1" r="1" fill="black"/>
<circle cx="417" cy="1" r="1" fill="black"/>
<circle cx="425" cy="1" r="1" fill="black"/>
<circle cx="433" cy="1" r="1" fill="black"/>
<circle cx="441" cy="1" r="1" fill="black"/>
<circle cx="449" cy="1" r="1" fill="black"/>
<circle cx="457" cy="1" r="1" fill="black"/>
<circle cx="465" cy="1" r="1" fill="black"/>
<circle cx="473" cy="1" r="1" fill="black"/>
<circle cx="481" cy="1" r="1" fill="black"/>
<circle cx="489" cy="1" r="1" fill="black"/>
<circle cx="497" cy="1" r="1" fill="black"/>
<circle cx="505" cy="1" r="1" fill="black"/>
<circle cx="513" cy="1" r="1" fill="black"/>
<circle cx="521" cy="1" r="1" fill="black"/>
<circle cx="529" cy="1" r="1" fill="black"/>
<circle cx="537" cy="1" r="1" fill="black"/>
<circle cx="545" cy="1" r="1" fill="black"/>
<circle cx="553" cy="1" r="1" fill="black"/>
<circle cx="561" cy="1" r="1" fill="black"/>
<circle cx="569" cy="1" r="1" fill="black"/>
<circle cx="577" cy="1" r="1" fill="black"/>
<circle cx="585" cy="1" r="1" fill="black"/>
<circle cx="593" cy="1" r="1" fill="black"/>
<circle cx="601" cy="1" r="1" fill="black"/>
<circle cx="609" cy="1" r="1" fill="black"/>
<circle cx="617" cy="1" r="1" fill="black"/>
<circle cx="625" cy="1" r="1" fill="black"/>
<circle cx="633" cy="1" r="1" fill="black"/>
<circle cx="641" cy="1" r="1" fill="black"/>
<circle cx="649" cy="1" r="1" fill="black"/>
<circle cx="657" cy="1" r="1" fill="black"/>
<circle cx="665" cy="1" r="1" fill="black"/>
<circle cx="673" cy="1" r="1" fill="black"/>
<circle cx="681" cy="1" r="1" fill="black"/>
<circle cx="689" cy="1" r="1" fill="black"/>
<circle cx="697" cy="1" r="1" fill="black"/>
<circle cx="705" cy="1" r="1" fill="black"/>
<circle cx="713" cy="1" r="1" fill="black"/>
<circle cx="721" cy="1" r="1" fill="black"/>
<circle cx="729" cy="1" r="1" fill="black"/>
<circle cx="737" cy="1" r="1" fill="black"/>
<circle cx="745" cy="1" r="1" fill="black"/>
<circle cx="753" cy="1" r="1" fill="black"/>
<circle cx="761" cy="1" r="1" fill="black"/>
<circle cx="769" cy="1" r="1" fill="black"/>
<circle cx="777" cy="1" r="1" fill="black"/>
<circle cx="785" cy="1" r="1" fill="black"/>
<circle cx="793" cy="1" r="1" fill="black"/>
<circle cx="801" cy="1" r="1" fill="black"/>
<circle cx="809" cy="1" r="1" fill="black"/>
<circle cx="817" cy="1" r="1" fill="black"/>
<circle cx="825" cy="1" r="1" fill="black"/>
<circle cx="833" cy="1" r="1" fill="black"/>
<circle cx="841" cy="1" r="1" fill="black"/>
<circle cx="849" cy="1" r="1" fill="black"/>
<circle cx="857" cy="1" r="1" fill="black"/>
<circle cx="865" cy="1" r="1" fill="black"/>
<circle cx="873" cy="1" r="1" fill="black"/>
<circle cx="881" cy="1" r="1" fill="black"/>
<circle cx="889" cy="1" r="1" fill="black"/>
<circle cx="897" cy="1" r="1" fill="black"/>
<circle cx="905" cy="1" r="1" fill="black"/>
<circle cx="913" cy="1" r="1" fill="black"/>
<circle cx="921" cy="1" r="1" fill="black"/>
<circle cx="929" cy="1" r="1" fill="black"/>
<circle cx="937" cy="1" r="1" fill="black"/>
<circle cx="945" cy="1" r="1" fill="black"/>
<circle cx="953" cy="1" r="1" fill="black"/>
<circle cx="961" cy="1" r="1" fill="black"/>
<circle cx="969" cy="1" r="1" fill="black"/>
<circle cx="977" cy="1" r="1" fill="black"/>
<circle cx="985" cy="1" r="1" fill="black"/>
<circle cx="993" cy="1" r="1" fill="black"/>
<circle cx="1001" cy="1" r="1" fill="black"/>
<circle cx="1009" cy="1" r="1" fill="black"/>
<circle cx="1017" cy="1" r="1" fill="black"/>
<circle cx="1025" cy="1" r="1" fill="black"/>
<circle cx="1033" cy="1" r="1" fill="black"/>
<circle cx="1041" cy="1" r="1" fill="black"/>
<circle cx="1049" cy="1" r="1" fill="black"/>
<circle cx="1057" cy="1" r="1" fill="black"/>
<circle cx="1065" cy="1" r="1" fill="black"/>
<circle cx="1073" cy="1" r="1" fill="black"/>
<circle cx="1081" cy="1" r="1" fill="black"/>
<circle cx="1089" cy="1" r="1" fill="black"/>
<circle cx="1097" cy="1" r="1" fill="black"/>
<circle cx="1105" cy="1" r="1" fill="black"/>
<circle cx="1113" cy="1" r="1" fill="black"/>
<circle cx="1121" cy="1" r="1" fill="black"/>
<circle cx="1129" cy="1" r="1" fill="black"/>
<circle cx="1137" cy="1" r="1" fill="black"/>
<circle cx="1145" cy="1" r="1" fill="black"/>
<circle cx="1153" cy="1" r="1" fill="black"/>
<circle cx="1161" cy="1" r="1" fill="black"/>
<circle cx="1169" cy="1" r="1" fill="black"/>
<circle cx="1177" cy="1" r="1" fill="black"/>
<circle cx="1185" cy="1" r="1" fill="black"/>
<circle cx="1193" cy="1" r="1" fill="black"/>
<circle cx="1201" cy="1" r="1" fill="black"/>
<circle cx="1209" cy="1" r="1" fill="black"/>
<circle cx="1217" cy="1" r="1" fill="black"/>
<circle cx="1225" cy="1" r="1" fill="black"/>
<circle cx="1233" cy="1" r="1" fill="black"/>
<circle cx="1241" cy="1" r="1" fill="black"/>
<circle cx="1249" cy="1" r="1" fill="black"/>
<circle cx="1257" cy="1" r="1" fill="black"/>
<circle cx="1265" cy="1" r="1" fill="black"/>
<circle cx="1273" cy="1" r="1" fill="black"/>
<circle cx="1281" cy="1" r="1" fill="black"/>
<circle cx="1289" cy="1" r="1" fill="black"/>
<circle cx="1297" cy="1" r="1" fill="black"/>
<circle cx="1305" cy="1" r="1" fill="black"/>
<circle cx="1313" cy="1" r="1" fill="black"/>
<circle cx="1321" cy="1" r="1" fill="black"/>
<circle cx="1329" cy="1" r="1" fill="black"/>
<circle cx="1337" cy="1" r="1" fill="black"/>
<circle cx="1345" cy="1" r="1" fill="black"/>
<circle cx="1353" cy="1" r="1" fill="black"/>
<circle cx="1361" cy="1" r="1" fill="black"/>
<circle cx="1369" cy="1" r="1" fill="black"/>
<circle cx="1377" cy="1" r="1" fill="black"/>
<circle cx="1385" cy="1" r="1" fill="black"/>
<circle cx="1393" cy="1" r="1" fill="black"/>
<circle cx="1401" cy="1" r="1" fill="black"/>
<circle cx="1409" cy="1" r="1" fill="black"/>
<circle cx="1417" cy="1" r="1" fill="black"/>
<circle cx="1425" cy="1" r="1" fill="black"/>
<circle cx="1433" cy="1" r="1" fill="black"/>
<circle cx="1441" cy="1" r="1" fill="black"/>
<circle cx="1" cy="9" r="1" fill="black"/>
<circle cx="9" cy="9" r="1" fill="black"/>
<circle cx="17" cy="9" r="1" fill="black"/>
<circle cx="25" cy="9" r="1" fill="black"/>
<circle cx="33" cy="9" r="1" fill="black"/>
<circle cx="41" cy="9" r="1" fill="black"/>
<circle cx="49" cy="9" r="1" fill="black"/>
<circle cx="57" cy="9" r="1" fill="black"/>
<circle cx="65" cy="9" r="1" fill="black"/>
<circle cx="73" cy="9" r="1" fill="black"/>
<circle cx="81" cy="9" r="1" fill="black"/>
<circle cx="89" cy="9" r="1" fill="black"/>
<circle cx="97" cy="9" r="1" fill="black"/>
<circle cx="105" cy="9" r="1" fill="black"/>
<circle cx="113" cy="9" r="1" fill="black"/>
<circle cx="121" cy="9" r="1" fill="black"/>
<circle cx="129" cy="9" r="1" fill="black"/>
<circle cx="137" cy="9" r="1" fill="black"/>
<circle cx="145" cy="9" r="1" fill="black"/>
<circle cx="153" cy="9" r="1" fill="black"/>
<circle cx="161" cy="9" r="1" fill="black"/>
<circle cx="169" cy="9" r="1" fill="black"/>
<circle cx="177" cy="9" r="1" fill="black"/>
<circle cx="185" cy="9" r="1" fill="black"/>
<circle cx="193" cy="9" r="1" fill="black"/>
<circle cx="201" cy="9" r="1" fill="black"/>
<circle cx="209" cy="9" r="1" fill="black"/>
<circle cx="217" cy="9" r="1" fill="black"/>
<circle cx="225" cy="9" r="1" fill="black"/>
<circle cx="233" cy="9" r="1" fill="black"/>
<circle cx="241" cy="9" r="1" fill="black"/>
<circle cx="249" cy="9" r="1" fill="black"/>
<circle cx="257" cy="9" r="1" fill="black"/>
<circle cx="265" cy="9" r="1" fill="black"/>
<circle cx="273" cy="9" r="1" fill="black"/>
<circle cx="281" cy="9" r="1" fill="black"/>
<circle cx="289" cy="9" r="1" fill="black"/>
<circle cx="297" cy="9" r="1" fill="black"/>
<circle cx="305" cy="9" r="1" fill="black"/>
<circle cx="313" cy="9" r="1" fill="black"/>
<circle cx="321" cy="9" r="1" fill="black"/>
<circle cx="329" cy="9" r="1" fill="black"/>
<circle cx="337" cy="9" r="1" fill="black"/>
<circle cx="345" cy="9" r="1" fill="black"/>
<circle cx="353" cy="9" r="1" fill="black"/>
<circle cx="361" cy="9" r="1" fill="black"/>
<circle cx="369" cy="9" r="1" fill="black"/>
<circle cx="377" cy="9" r="1" fill="black"/>
<circle cx="385" cy="9" r="1" fill="black"/>
<circle cx="393" cy="9" r="1" fill="black"/>
<circle cx="401" cy="9" r="1" fill="black"/>
<circle cx="409" cy="9" r="1" fill="black"/>
<circle cx="417" cy="9" r="1" fill="black"/>
<circle cx="425" cy="9" r="1" fill="black"/>
<circle cx="433" cy="9" r="1" fill="black"/>
<circle cx="441" cy="9" r="1" fill="black"/>
<circle cx="449" cy="9" r="1" fill="black"/>
<circle cx="457" cy="9" r="1" fill="black"/>
<circle cx="465" cy="9" r="1" fill="black"/>
<circle cx="473" cy="9" r="1" fill="black"/>
<circle cx="481" cy="9" r="1" fill="black"/>
<circle cx="489" cy="9" r="1" fill="black"/>
<circle cx="497" cy="9" r="1" fill="black"/>
<circle cx="505" cy="9" r="1" fill="black"/>
<circle cx="513" cy="9" r="1" fill="black"/>
<circle cx="521" cy="9" r="1" fill="black"/>
<circle cx="529" cy="9" r="1" fill="black"/>
<circle cx="537" cy="9" r="1" fill="black"/>
<circle cx="545" cy="9" r="1" fill="black"/>
<circle cx="553" cy="9" r="1" fill="black"/>
<circle cx="561" cy="9" r="1" fill="black"/>
<circle cx="569" cy="9" r="1" fill="black"/>
<circle cx="577" cy="9" r="1" fill="black"/>
<circle cx="585" cy="9" r="1" fill="black"/>
<circle cx="593" cy="9" r="1" fill="black"/>
<circle cx="601" cy="9" r="1" fill="black"/>
<circle cx="609" cy="9" r="1" fill="black"/>
<circle cx="617" cy="9" r="1" fill="black"/>
<circle cx="625" cy="9" r="1" fill="black"/>
<circle cx="633" cy="9" r="1" fill="black"/>
<circle cx="641" cy="9" r="1" fill="black"/>
<circle cx="649" cy="9" r="1" fill="black"/>
<circle cx="657" cy="9" r="1" fill="black"/>
<circle cx="665" cy="9" r="1" fill="black"/>
<circle cx="673" cy="9" r="1" fill="black"/>
<circle cx="681" cy="9" r="1" fill="black"/>
<circle cx="689" cy="9" r="1" fill="black"/>
<circle cx="697" cy="9" r="1" fill="black"/>
<circle cx="705" cy="9" r="1" fill="black"/>
<circle cx="713" cy="9" r="1" fill="black"/>
<circle cx="721" cy="9" r="1" fill="black"/>
<circle cx="729" cy="9" r="1" fill="black"/>
<circle cx="737" cy="9" r="1" fill="black"/>
<circle cx="745" cy="9" r="1" fill="black"/>
<circle cx="753" cy="9" r="1" fill="black"/>
<circle cx="761" cy="9" r="1" fill="black"/>
<circle cx="769" cy="9" r="1" fill="black"/>
<circle cx="777" cy="9" r="1" fill="black"/>
<circle cx="785" cy="9" r="1" fill="black"/>
<circle cx="793" cy="9" r="1" fill="black"/>
<circle cx="801" cy="9" r="1" fill="black"/>
<circle cx="809" cy="9" r="1" fill="black"/>
<circle cx="817" cy="9" r="1" fill="black"/>
<circle cx="825" cy="9" r="1" fill="black"/>
<circle cx="833" cy="9" r="1" fill="black"/>
<circle cx="841" cy="9" r="1" fill="black"/>
<circle cx="849" cy="9" r="1" fill="black"/>
<circle cx="857" cy="9" r="1" fill="black"/>
<circle cx="865" cy="9" r="1" fill="black"/>
<circle cx="873" cy="9" r="1" fill="black"/>
<circle cx="881" cy="9" r="1" fill="black"/>
<circle cx="889" cy="9" r="1" fill="black"/>
<circle cx="897" cy="9" r="1" fill="black"/>
<circle cx="905" cy="9" r="1" fill="black"/>
<circle cx="913" cy="9" r="1" fill="black"/>
<circle cx="921" cy="9" r="1" fill="black"/>
<circle cx="929" cy="9" r="1" fill="black"/>
<circle cx="937" cy="9" r="1" fill="black"/>
<circle cx="945" cy="9" r="1" fill="black"/>
<circle cx="953" cy="9" r="1" fill="black"/>
<circle cx="961" cy="9" r="1" fill="black"/>
<circle cx="969" cy="9" r="1" fill="black"/>
<circle cx="977" cy="9" r="1" fill="black"/>
<circle cx="985" cy="9" r="1" fill="black"/>
<circle cx="993" cy="9" r="1" fill="black"/>
<circle cx="1001" cy="9" r="1" fill="black"/>
<circle cx="1009" cy="9" r="1" fill="black"/>
<circle cx="1017" cy="9" r="1" fill="black"/>
<circle cx="1025" cy="9" r="1" fill="black"/>
<circle cx="1033" cy="9" r="1" fill="black"/>
<circle cx="1041" cy="9" r="1" fill="black"/>
<circle cx="1049" cy="9" r="1" fill="black"/>
<circle cx="1057" cy="9" r="1" fill="black"/>
<circle cx="1065" cy="9" r="1" fill="black"/>
<circle cx="1073" cy="9" r="1" fill="black"/>
<circle cx="1081" cy="9" r="1" fill="black"/>
<circle cx="1089" cy="9" r="1" fill="black"/>
<circle cx="1097" cy="9" r="1" fill="black"/>
<circle cx="1105" cy="9" r="1" fill="black"/>
<circle cx="1113" cy="9" r="1" fill="black"/>
<circle cx="1121" cy="9" r="1" fill="black"/>
<circle cx="1129" cy="9" r="1" fill="black"/>
<circle cx="1137" cy="9" r="1" fill="black"/>
<circle cx="1145" cy="9" r="1" fill="black"/>
<circle cx="1153" cy="9" r="1" fill="black"/>
<circle cx="1161" cy="9" r="1" fill="black"/>
<circle cx="1169" cy="9" r="1" fill="black"/>
<circle cx="1177" cy="9" r="1" fill="black"/>
<circle cx="1185" cy="9" r="1" fill="black"/>
<circle cx="1193" cy="9" r="1" fill="black"/>
<circle cx="1201" cy="9" r="1" fill="black"/>
<circle cx="1209" cy="9" r="1" fill="black"/>
<circle cx="1217" cy="9" r="1" fill="black"/>
<circle cx="1225" cy="9" r="1" fill="black"/>
<circle cx="1233" cy="9" r="1" fill="black"/>
<circle cx="1241" cy="9" r="1" fill="black"/>
<circle cx="1249" cy="9" r="1" fill="black"/>
<circle cx="1257" cy="9" r="1" fill="black"/>
<circle cx="1265" cy="9" r="1" fill="black"/>
<circle cx="1273" cy="9" r="1" fill="black"/>
<circle cx="1281" cy="9" r="1" fill="black"/>
<circle cx="1289" cy="9" r="1" fill="black"/>
<circle cx="1297" cy="9" r="1" fill="black"/>
<circle cx="1305" cy="9" r="1" fill="black"/>
<circle cx="1313" cy="9" r="1" fill="black"/>
<circle cx="1321" cy="9" r="1" fill="black"/>
<circle cx="1329" cy="9" r="1" fill="black"/>
<circle cx="1337" cy="9" r="1" fill="black"/>
<circle cx="1345" cy="9" r="1" fill="black"/>
<circle cx="1353" cy="9" r="1" fill="black"/>
<circle cx="1361" cy="9" r="1" fill="black"/>
<circle cx="1369" cy="9" r="1" fill="black"/>
<circle cx="1377" cy="9" r="1" fill="black"/>
<circle cx="1385" cy="9" r="1" fill="black"/>
<circle cx="1393" cy="9" r="1" fill="black"/>
<circle cx="1401" cy="9" r="1" fill="black"/>
<circle cx="1409" cy="9" r="1" fill="black"/>
<circle cx="1417" cy="9" r="1" fill="black"/>
<circle cx="1425" cy="9" r="1" fill="black"/>
<circle cx="1433" cy="9" r="1" fill="black"/>
<circle cx="1441" cy="9" r="1" fill="black"/>
<circle cx="1" cy="17" r="1" fill="black"/>
<circle cx="9" cy="17" r="1" fill="black"/>
<circle cx="17" cy="17" r="1" fill="black"/>
<circle cx="25" cy="17" r="1" fill="black"/>
<circle cx="33" cy="17" r="1" fill="black"/>
<circle cx="41" cy="17" r="1" fill="black"/>
<circle cx="49" cy="17" r="1" fill="black"/>
<circle cx="57" cy="17" r="1" fill="black"/>
<circle cx="65" cy="17" r="1" fill="black"/>
<circle cx="73" cy="17" r="1" fill="black"/>
<circle cx="81" cy="17" r="1" fill="black"/>
<circle cx="89" cy="17" r="1" fill="black"/>
<circle cx="97" cy="17" r="1" fill="black"/>
<circle cx="105" cy="17" r="1" fill="black"/>
<circle cx="113" cy="17" r="1" fill="black"/>
<circle cx="121" cy="17" r="1" fill="black"/>
<circle cx="129" cy="17" r="1" fill="black"/>
<circle cx="137" cy="17" r="1" fill="black"/>
<circle cx="145" cy="17" r="1" fill="black"/>
<circle cx="153" cy="17" r="1" fill="black"/>
<circle cx="161" cy="17" r="1" fill="black"/>
<circle cx="169" cy="17" r="1" fill="black"/>
<circle cx="177" cy="17" r="1" fill="black"/>
<circle cx="185" cy="17" r="1" fill="black"/>
<circle cx="193" cy="17" r="1" fill="black"/>
<circle cx="201" cy="17" r="1" fill="black"/>
<circle cx="209" cy="17" r="1" fill="black"/>
<circle cx="217" cy="17" r="1" fill="black"/>
<circle cx="225" cy="17" r="1" fill="black"/>
<circle cx="233" cy="17" r="1" fill="black"/>
<circle cx="241" cy="17" r="1" fill="black"/>
<circle cx="249" cy="17" r="1" fill="black"/>
<circle cx="257" cy="17" r="1" fill="black"/>
<circle cx="265" cy="17" r="1" fill="black"/>
<circle cx="273" cy="17" r="1" fill="black"/>
<circle cx="281" cy="17" r="1" fill="black"/>
<circle cx="289" cy="17" r="1" fill="black"/>
<circle cx="297" cy="17" r="1" fill="black"/>
<circle cx="305" cy="17" r="1" fill="black"/>
<circle cx="313" cy="17" r="1" fill="black"/>
<circle cx="321" cy="17" r="1" fill="black"/>
<circle cx="329" cy="17" r="1" fill="black"/>
<circle cx="337" cy="17" r="1" fill="black"/>
<circle cx="345" cy="17" r="1" fill="black"/>
<circle cx="353" cy="17" r="1" fill="black"/>
<circle cx="361" cy="17" r="1" fill="black"/>
<circle cx="369" cy="17" r="1" fill="black"/>
<circle cx="377" cy="17" r="1" fill="black"/>
<circle cx="385" cy="17" r="1" fill="black"/>
<circle cx="393" cy="17" r="1" fill="black"/>
<circle cx="401" cy="17" r="1" fill="black"/>
<circle cx="409" cy="17" r="1" fill="black"/>
<circle cx="417" cy="17" r="1" fill="black"/>
<circle cx="425" cy="17" r="1" fill="black"/>
<circle cx="433" cy="17" r="1" fill="black"/>
<circle cx="441" cy="17" r="1" fill="black"/>
<circle cx="449" cy="17" r="1" fill="black"/>
<circle cx="457" cy="17" r="1" fill="black"/>
<circle cx="465" cy="17" r="1" fill="black"/>
<circle cx="473" cy="17" r="1" fill="black"/>
<circle cx="481" cy="17" r="1" fill="black"/>
<circle cx="489" cy="17" r="1" fill="black"/>
<circle cx="497" cy="17" r="1" fill="black"/>
<circle cx="505" cy="17" r="1" fill="black"/>
<circle cx="513" cy="17" r="1" fill="black"/>
<circle cx="521" cy="17" r="1" fill="black"/>
<circle cx="529" cy="17" r="1" fill="black"/>
<circle cx="537" cy="17" r="1" fill="black"/>
<circle cx="545" cy="17" r="1" fill="black"/>
<circle cx="553" cy="17" r="1" fill="black"/>
<circle cx="561" cy="17" r="1" fill="black"/>
<circle cx="569" cy="17" r="1" fill="black"/>
<circle cx="577" cy="17" r="1" fill="black"/>
<circle cx="585" cy="17" r="1" fill="black"/>
<circle cx="593" cy="17" r="1" fill="black"/>
<circle cx="601" cy="17" r="1" fill="black"/>
<circle cx="609" cy="17" r="1" fill="black"/>
<circle cx="617" cy="17" r="1" fill="black"/>
<circle cx="625" cy="17" r="1" fill="black"/>
<circle cx="633" cy="17" r="1" fill="black"/>
<circle cx="641" cy="17" r="1" fill="black"/>
<circle cx="649" cy="17" r="1" fill="black"/>
<circle cx="657" cy="17" r="1" fill="black"/>
<circle cx="665" cy="17" r="1" fill="black"/>
<circle cx="673" cy="17" r="1" fill="black"/>
<circle cx="681" cy="17" r="1" fill="black"/>
<circle cx="689" cy="17" r="1" fill="black"/>
<circle cx="697" cy="17" r="1" fill="black"/>
<circle cx="705" cy="17" r="1" fill="black"/>
<circle cx="713" cy="17" r="1" fill="black"/>
<circle cx="721" cy="17" r="1" fill="black"/>
<circle cx="729" cy="17" r="1" fill="black"/>
<circle cx="737" cy="17" r="1" fill="black"/>
<circle cx="745" cy="17" r="1" fill="black"/>
<circle cx="753" cy="17" r="1" fill="black"/>
<circle cx="761" cy="17" r="1" fill="black"/>
<circle cx="769" cy="17" r="1" fill="black"/>
<circle cx="777" cy="17" r="1" fill="black"/>
<circle cx="785" cy="17" r="1" fill="black"/>
<circle cx="793" cy="17" r="1" fill="black"/>
<circle cx="801" cy="17" r="1" fill="black"/>
<circle cx="809" cy="17" r="1" fill="black"/>
<circle cx="817" cy="17" r="1" fill="black"/>
<circle cx="825" cy="17" r="1" fill="black"/>
<circle cx="833" cy="17" r="1" fill="black"/>
<circle cx="841" cy="17" r="1" fill="black"/>
<circle cx="849" cy="17" r="1" fill="black"/>
<circle cx="857" cy="17" r="1" fill="black"/>
<circle cx="865" cy="17" r="1" fill="black"/>
<circle cx="873" cy="17" r="1" fill="black"/>
<circle cx="881" cy="17" r="1" fill="black"/>
<circle cx="889" cy="17" r="1" fill="black"/>
<circle cx="897" cy="17" r="1" fill="black"/>
<circle cx="905" cy="17" r="1" fill="black"/>
<circle cx="913" cy="17" r="1" fill="black"/>
<circle cx="921" cy="17" r="1" fill="black"/>
<circle cx="929" cy="17" r="1" fill="black"/>
<circle cx="937" cy="17" r="1" fill="black"/>
<circle cx="945" cy="17" r="1" fill="black"/>
<circle cx="953" cy="17" r="1" fill="black"/>
<circle cx="961" cy="17" r="1" fill="black"/>
<circle cx="969" cy="17" r="1" fill="black"/>
<circle cx="977" cy="17" r="1" fill="black"/>
<circle cx="985" cy="17" r="1" fill="black"/>
<circle cx="993" cy="17" r="1" fill="black"/>
<circle cx="1001" cy="17" r="1" fill="black"/>
<circle cx="1009" cy="17" r="1" fill="black"/>
<circle cx="1017" cy="17" r="1" fill="black"/>
<circle cx="1025" cy="17" r="1" fill="black"/>
<circle cx="1033" cy="17" r="1" fill="black"/>
<circle cx="1041" cy="17" r="1" fill="black"/>
<circle cx="1049" cy="17" r="1" fill="black"/>
<circle cx="1057" cy="17" r="1" fill="black"/>
<circle cx="1065" cy="17" r="1" fill="black"/>
<circle cx="1073" cy="17" r="1" fill="black"/>
<circle cx="1081" cy="17" r="1" fill="black"/>
<circle cx="1089" cy="17" r="1" fill="black"/>
<circle cx="1097" cy="17" r="1" fill="black"/>
<circle cx="1105" cy="17" r="1" fill="black"/>
<circle cx="1113" cy="17" r="1" fill="black"/>
<circle cx="1121" cy="17" r="1" fill="black"/>
<circle cx="1129" cy="17" r="1" fill="black"/>
<circle cx="1137" cy="17" r="1" fill="black"/>
<circle cx="1145" cy="17" r="1" fill="black"/>
<circle cx="1153" cy="17" r="1" fill="black"/>
<circle cx="1161" cy="17" r="1" fill="black"/>
<circle cx="1169" cy="17" r="1" fill="black"/>
<circle cx="1177" cy="17" r="1" fill="black"/>
<circle cx="1185" cy="17" r="1" fill="black"/>
<circle cx="1193" cy="17" r="1" fill="black"/>
<circle cx="1201" cy="17" r="1" fill="black"/>
<circle cx="1209" cy="17" r="1" fill="black"/>
<circle cx="1217" cy="17" r="1" fill="black"/>
<circle cx="1225" cy="17" r="1" fill="black"/>
<circle cx="1233" cy="17" r="1" fill="black"/>
<circle cx="1241" cy="17" r="1" fill="black"/>
<circle cx="1249" cy="17" r="1" fill="black"/>
<circle cx="1257" cy="17" r="1" fill="black"/>
<circle cx="1265" cy="17" r="1" fill="black"/>
<circle cx="1273" cy="17" r="1" fill="black"/>
<circle cx="1281" cy="17" r="1" fill="black"/>
<circle cx="1289" cy="17" r="1" fill="black"/>
<circle cx="1297" cy="17" r="1" fill="black"/>
<circle cx="1305" cy="17" r="1" fill="black"/>
<circle cx="1313" cy="17" r="1" fill="black"/>
<circle cx="1321" cy="17" r="1" fill="black"/>
<circle cx="1329" cy="17" r="1" fill="black"/>
<circle cx="1337" cy="17" r="1" fill="black"/>
<circle cx="1345" cy="17" r="1" fill="black"/>
<circle cx="1353" cy="17" r="1" fill="black"/>
<circle cx="1361" cy="17" r="1" fill="black"/>
<circle cx="1369" cy="17" r="1" fill="black"/>
<circle cx="1377" cy="17" r="1" fill="black"/>
<circle cx="1385" cy="17" r="1" fill="black"/>
<circle cx="1393" cy="17" r="1" fill="black"/>
<circle cx="1401" cy="17" r="1" fill="black"/>
<circle cx="1409" cy="17" r="1" fill="black"/>
<circle cx="1417" cy="17" r="1" fill="black"/>
<circle cx="1425" cy="17" r="1" fill="black"/>
<circle cx="1433" cy="17" r="1" fill="black"/>
<circle cx="1441" cy="17" r="1" fill="black"/>
</svg>
