<svg width="96" height="96" viewBox="0 0 96 96" fill="none" xmlns="http://www.w3.org/2000/svg">
<path d="M89.9946 24.5684H95.9942V0.569824H83.9949V6.56946H89.9946V24.5684Z" fill="#0000FF"/>
<path d="M5.99964 6.56946H65.996V0.569824H0V69.5657H44.9973V63.566H5.99964V6.56946Z" fill="#0000FF"/>
<path d="M93.4112 41.9881C93.2578 41.8237 93.0988 41.6647 92.9344 41.5113C92.1756 40.794 91.7607 39.7861 91.7944 38.7425C91.8824 36.0747 90.8628 33.4894 88.9776 31.5999C87.078 29.7299 84.4998 28.712 81.8351 28.7801C80.7851 28.8086 79.7727 28.3886 79.0512 27.6252C75.4162 23.7318 69.3134 23.5223 65.42 27.1572C65.2588 27.3077 65.1026 27.4637 64.9521 27.6252C64.2479 28.4113 63.2253 28.836 62.1712 28.7801C56.8496 28.5999 52.3892 32.7678 52.209 38.0897C52.2017 38.3062 52.2017 38.5229 52.2088 38.7395C52.2435 39.79 51.8237 40.8045 51.0569 41.5233C47.1635 45.1535 46.9502 51.2523 50.5801 55.1457C50.7335 55.3101 50.8925 55.4691 51.0569 55.6225C51.8232 56.3404 52.243 57.3537 52.2088 58.4033C52.1209 61.0711 53.1405 63.6564 55.0257 65.5459C55.6146 66.1177 56.2773 66.608 56.9966 67.0038V95.4301L71.9956 87.9305L86.9947 95.4301V67.0008C87.7134 66.6007 88.376 66.1074 88.9656 65.5339C90.8503 63.6453 91.8698 61.0611 91.7825 58.3943C91.7478 57.3438 92.1675 56.3293 92.9344 55.6105C96.8278 51.9805 97.0411 45.8815 93.4112 41.9881ZM80.9951 85.7106L71.9956 81.2109L62.9962 85.7106V68.4287C63.7452 68.5749 64.4294 68.9525 64.9521 69.5086C68.5871 73.402 74.6899 73.6114 78.5832 69.9766C78.7445 69.826 78.9007 69.6701 79.0512 69.5086C79.5743 68.9735 80.256 68.6211 80.9951 68.5037V85.7106ZM89.02 51.0534C88.9639 51.1134 88.9056 51.1717 88.8456 51.2277H88.8396C86.8076 53.1294 85.6973 55.8169 85.7948 58.5983C85.8344 59.6077 85.448 60.5875 84.7299 61.2981C84.0304 62.0329 83.0429 62.4223 82.03 62.3631C79.2475 62.2644 76.5593 63.3787 74.6625 65.4169C73.2222 66.8864 70.8632 66.91 69.3937 65.4697C69.3759 65.4523 69.3582 65.4347 69.3408 65.4169C67.5182 63.4653 64.9676 62.3572 62.2972 62.3571H61.9703C59.9604 62.4311 58.2709 60.8618 58.1969 58.8518C58.1937 58.7663 58.1935 58.6808 58.1965 58.5953C58.2915 55.8141 57.1792 53.1276 55.1457 51.2277C53.6761 49.8546 53.5981 47.55 54.9713 46.0804C55.0274 46.0204 55.0857 45.9621 55.1457 45.9061C57.1799 44.0055 58.2925 41.3178 58.1965 38.5355C58.1569 37.5261 58.5433 36.5462 59.2614 35.8357C59.9696 35.1136 60.9511 34.7267 61.9613 34.7707C64.7367 34.8309 67.4099 33.7229 69.3288 31.7169C70.7691 30.2474 73.1281 30.2238 74.5976 31.664C74.6154 31.6815 74.6331 31.6991 74.6505 31.7169C76.5685 33.7294 79.2479 34.8375 82.027 34.7677C84.0371 34.6969 85.7239 36.2688 85.795 38.2788C85.798 38.3653 85.798 38.4519 85.7948 38.5385C85.6998 41.3197 86.8121 44.0062 88.8456 45.9061C90.3152 47.2794 90.3932 49.5838 89.02 51.0534Z" fill="#0000FF"/>
<path d="M71.9956 36.5676C65.3686 36.5676 59.9963 41.9399 59.9963 48.5669C59.9963 55.1939 65.3686 60.5662 71.9956 60.5662C78.6226 60.5662 83.9949 55.1939 83.9949 48.5669C83.9949 41.9399 78.6226 36.5676 71.9956 36.5676ZM71.9956 54.5665C68.6821 54.5665 65.996 51.8804 65.996 48.5669C65.996 45.2534 68.6821 42.5673 71.9956 42.5673C75.3091 42.5673 77.9952 45.2534 77.9952 48.5669C77.9952 51.8804 75.3091 54.5665 71.9956 54.5665Z" fill="#0000FF"/>
<path d="M65.996 12.5691H29.9982V18.5687H65.996V12.5691Z" fill="#0000FF"/>
<path d="M47.9971 27.5682H11.9993V33.5679H47.9971V27.5682Z" fill="#0000FF"/>
<path d="M41.9975 39.5675H11.9993V45.5671H41.9975V39.5675Z" fill="#0000FF"/>
<path d="M41.9974 51.5668H35.9978V57.5664H41.9974V51.5668Z" fill="#0000FF"/>
<path d="M29.9982 51.5668H11.9993V57.5664H29.9982V51.5668Z" fill="#0000FF"/>
<path d="M77.9952 0.569824H71.9956V6.56946H77.9952V0.569824Z" fill="#0000FF"/>
</svg>
