<svg width="44" height="33" viewBox="0 0 44 33" fill="none" xmlns="http://www.w3.org/2000/svg">
<rect y="1.86816" width="1.82069" height="29.2639" fill="white"/>
<rect x="1.82069" y="3.11328" width="1.82069" height="1.86791" fill="white"/>
<rect x="5.46208" y="6.84912" width="1.82069" height="1.86791" fill="white"/>
<rect x="7.28276" y="8.71729" width="1.82069" height="1.86791" fill="white"/>
<rect x="9.10345" y="10.5854" width="1.82069" height="1.86791" fill="white"/>
<rect x="10.9241" y="12.4526" width="1.82069" height="1.86791" fill="white"/>
<rect x="12.7448" y="14.3203" width="1.82069" height="1.86791" fill="white"/>
<rect x="12.7448" y="18.0562" width="1.82069" height="1.86791" fill="white"/>
<rect x="10.9241" y="19.9243" width="1.82069" height="1.86791" fill="white"/>
<rect x="9.10345" y="21.792" width="1.82069" height="1.86791" fill="white"/>
<rect x="7.28276" y="23.6602" width="1.82069" height="1.86791" fill="white"/>
<rect x="5.46208" y="25.5283" width="1.82069" height="1.86791" fill="white"/>
<rect x="3.64139" y="27.3955" width="1.82069" height="1.86791" fill="white"/>
<rect x="1.82069" y="29.2642" width="1.82069" height="1.86791" fill="white"/>
<rect width="1.82069" height="1.86791" transform="matrix(-1 0 0 1 31.2552 18.0562)" fill="white"/>
<rect width="1.82069" height="1.86791" transform="matrix(-1 0 0 1 33.0759 19.9243)" fill="white"/>
<rect width="1.82069" height="1.86791" transform="matrix(-1 0 0 1 34.8965 21.792)" fill="white"/>
<rect width="1.82069" height="1.86791" transform="matrix(-1 0 0 1 36.7172 23.6602)" fill="white"/>
<rect width="1.82069" height="1.86791" transform="matrix(-1 0 0 1 38.5379 25.5283)" fill="white"/>
<rect width="1.82069" height="1.86791" transform="matrix(-1 0 0 1 40.3586 27.3955)" fill="white"/>
<rect width="1.82069" height="1.86791" transform="matrix(-1 0 0 1 42.1793 29.2642)" fill="white"/>
<rect x="14.5655" y="16.1885" width="1.82069" height="1.86791" fill="white"/>
<rect x="16.3862" y="18.0562" width="1.82069" height="1.86791" fill="white"/>
<rect x="18.2069" y="19.9243" width="1.82069" height="1.86791" fill="white"/>
<rect x="3.64139" y="4.98096" width="1.82069" height="1.86791" fill="white"/>
<rect width="1.82069" height="1.86791" transform="matrix(-1 0 0 1 42.1793 3.11328)" fill="white"/>
<rect width="1.82069" height="1.86791" transform="matrix(-1 0 0 1 38.5379 6.84912)" fill="white"/>
<rect width="1.82069" height="1.86791" transform="matrix(-1 0 0 1 36.7172 8.71729)" fill="white"/>
<rect width="1.82069" height="1.86791" transform="matrix(-1 0 0 1 34.8965 10.5854)" fill="white"/>
<rect width="1.82069" height="1.86791" transform="matrix(-1 0 0 1 33.0759 12.4526)" fill="white"/>
<rect width="1.82069" height="1.86791" transform="matrix(-1 0 0 1 31.2552 14.3203)" fill="white"/>
<rect width="1.82069" height="1.86791" transform="matrix(-1 0 0 1 29.4345 16.1885)" fill="white"/>
<rect width="1.82069" height="1.86791" transform="matrix(-1 0 0 1 27.6138 18.0562)" fill="white"/>
<rect width="1.82069" height="1.86791" transform="matrix(-1 0 0 1 25.7931 19.9243)" fill="white"/>
<rect width="3.94483" height="1.86791" transform="matrix(-1 0 0 1 23.9724 21.792)" fill="white"/>
<rect width="1.82069" height="1.86791" transform="matrix(-1 0 0 1 40.3586 4.98096)" fill="white"/>
<rect x="42.1793" y="1.55664" width="1.82069" height="29.5752" fill="white"/>
<rect x="1.82069" y="31.1323" width="40.3586" height="1.86791" fill="white"/>
<rect x="1.82069" width="40.3586" height="1.86791" fill="white"/>
</svg>
