<svg width="25" height="24" viewBox="0 0 25 24" fill="none" xmlns="http://www.w3.org/2000/svg">
<rect x="1" y="1" width="23" height="22" stroke="white" stroke-width="2"/>
<rect x="9" y="6" width="2" height="3" fill="white"/>
<rect x="14" y="6" width="2" height="3" fill="white"/>
<rect x="11" y="6" width="2" height="2" fill="white"/>
<rect x="10" y="7" width="2" height="3" fill="white"/>
<rect x="10" y="5" width="2" height="2" fill="white"/>
<rect x="11" y="4" width="3" height="2" fill="white"/>
<rect x="11" y="11" width="3" height="2" fill="white"/>
<rect x="7" y="18" width="11" height="2" fill="white"/>
<rect x="14" y="11" width="2" height="2" fill="white"/>
<rect x="15" y="12" width="2" height="2" fill="white"/>
<rect x="7" y="13" width="2" height="5" fill="white"/>
<rect x="16" y="13" width="2" height="5" fill="white"/>
<rect x="9" y="11" width="2" height="2" fill="white"/>
<rect x="8" y="12" width="2" height="2" fill="white"/>
<rect x="13" y="5" width="2" height="2" fill="white"/>
<rect x="13" y="6" width="2" height="2" fill="white"/>
<rect x="13" y="7" width="2" height="3" fill="white"/>
<rect x="11" y="8" width="3" height="3" fill="white"/>
</svg>
