<svg width="7" height="12" viewBox="0 0 7 12" fill="none" xmlns="http://www.w3.org/2000/svg">
<rect x="7" y="7" width="2" height="2" transform="rotate(-180 7 7)" fill="#000000"/>
<rect x="6" y="8" width="2" height="2" transform="rotate(-180 6 8)" fill="#000000"/>
<rect x="5" y="9" width="2" height="2" transform="rotate(-180 5 9)" fill="#000000"/>
<rect x="4" y="10" width="2" height="2" transform="rotate(-180 4 10)" fill="#000000"/>
<rect x="3" y="11" width="2" height="2" transform="rotate(-180 3 11)" fill="#000000"/>
<rect x="2" y="12" width="2" height="2" transform="rotate(-180 2 12)" fill="#000000"/>
<rect x="2" y="2" width="2" height="2" transform="rotate(-180 2 2)" fill="#000000"/>
<rect x="4" y="6" width="2" height="2" transform="rotate(-90 4 6)" fill="#000000"/>
<rect x="3" y="5" width="2" height="2" transform="rotate(-90 3 5)" fill="#000000"/>
<rect x="2" y="4" width="2" height="2" transform="rotate(-90 2 4)" fill="#000000"/>
<rect x="1" y="3" width="2" height="2" transform="rotate(-90 1 3)" fill="#000000"/>
</svg>
