<svg width="10" height="17" viewBox="0 0 10 17" fill="none" xmlns="http://www.w3.org/2000/svg">
<path d="M0.30957 5.37695V7.81543H3.61816V14.5723H0.30957V17H9.78418V14.5723H6.63672V5.37695H0.30957ZM3.40332 2.40137C3.40332 2.63053 3.44271 2.84538 3.52148 3.0459C3.60742 3.23926 3.72559 3.40397 3.87598 3.54004C4.02637 3.68327 4.2054 3.79427 4.41309 3.87305C4.62793 3.95182 4.86426 3.99121 5.12207 3.99121C5.65202 3.99121 6.07096 3.8444 6.37891 3.55078C6.69401 3.25 6.85156 2.86686 6.85156 2.40137C6.85156 1.93587 6.69401 1.55632 6.37891 1.2627C6.07096 0.961914 5.65202 0.811523 5.12207 0.811523C4.86426 0.811523 4.62793 0.850911 4.41309 0.929688C4.2054 1.00846 4.02637 1.11589 3.87598 1.25195C3.72559 1.39518 3.60742 1.56706 3.52148 1.76758C3.44271 1.96094 3.40332 2.1722 3.40332 2.40137Z" fill="black"/>
</svg>
