<svg width="466" height="34" viewBox="0 0 466 34" fill="none" xmlns="http://www.w3.org/2000/svg">
<path d="M26 8H8V26H26V8Z" stroke="#0000FF" stroke-width="2" stroke-miterlimit="10"/>
<path d="M62 8H44V26H62V8Z" stroke="#0000FF" stroke-width="2" stroke-miterlimit="10"/>
<path d="M98 8H80V26H98V8Z" stroke="#0000FF" stroke-width="2" stroke-miterlimit="10"/>
<path d="M134 8H116V26H134V8Z" stroke="white" stroke-width="2" stroke-miterlimit="10"/>
<path d="M170 8H152V26H170V8Z" stroke="#0000FF" stroke-width="2" stroke-miterlimit="10"/>
<path d="M206 8H188V26H206V8Z" stroke="#0000FF" stroke-width="2" stroke-miterlimit="10"/>
<path d="M242 8H224V26H242V8Z" stroke="#0000FF" stroke-width="2" stroke-miterlimit="10"/>
<path d="M278 8H260V26H278V8Z" stroke="#0000FF" stroke-width="2" stroke-miterlimit="10"/>
<path d="M314 8H296V26H314V8Z" stroke="#0000FF" stroke-width="2" stroke-miterlimit="10"/>
<path d="M350 8H332V26H350V8Z" stroke="#0000FF" stroke-width="2" stroke-miterlimit="10"/>
<path d="M386 8H368V26H386V8Z" stroke="black" stroke-width="2" stroke-miterlimit="10"/>
<path d="M422 8H404V26H422V8Z" stroke="black" stroke-width="2" stroke-miterlimit="10"/>
<path d="M458 8H440V26H458V8Z" stroke="#0000FF" stroke-width="2" stroke-miterlimit="10"/>
</svg>
