<svg width="361" height="43" viewBox="0 0 361 43" fill="none" xmlns="http://www.w3.org/2000/svg">
<path d="M36 1.896C36 1.896 39.304 1.896 42.608 1.896C45.912 1.896 49.216 1.896 49.216 1.896V41.096C49.216 41.096 45.912 41.096 42.608 41.096C39.304 41.096 36 41.096 36 41.096V1.896Z" fill="black"/>
<path d="M90.5781 1.896C93.7981 1.896 97.0181 1.896 97.0181 1.896V41.096C97.0181 41.096 94.3021 41.096 91.5861 41.096C88.8701 41.096 86.1541 41.096 86.1541 41.096L71.2581 23.288V41.096C71.2581 41.096 68.0381 41.096 64.8181 41.096C61.5981 41.096 58.3781 41.096 58.3781 41.096V1.896C58.3781 1.896 61.0941 1.896 63.8101 1.896C66.5261 1.896 69.2421 1.896 69.2421 1.896L84.1381 19.704V1.896C84.1381 1.896 87.3581 1.896 90.5781 1.896Z" fill="black"/>
<path d="M141.578 1.896C144.826 1.896 148.074 1.896 148.074 1.896L131.498 41.096C131.498 41.096 128.25 41.096 125.002 41.096C121.754 41.096 118.506 41.096 118.506 41.096L101.93 1.896C101.93 1.896 105.486 1.896 109.042 1.896C112.598 1.896 116.154 1.896 116.154 1.896L125.506 24.8L135.082 1.896C135.082 1.896 138.33 1.896 141.578 1.896Z" fill="black"/>
<path d="M174.981 31.128C179.881 31.128 184.781 31.128 184.781 31.128V41.096C184.781 41.096 176.633 41.096 168.485 41.096C160.337 41.096 152.189 41.096 152.189 41.096V1.896C152.189 1.896 160.155 1.896 168.121 1.896C176.087 1.896 184.053 1.896 184.053 1.896V11.864C184.053 11.864 179.335 11.864 174.617 11.864C169.899 11.864 165.181 11.864 165.181 11.864V16.456C165.181 16.456 169.325 16.456 173.469 16.456C177.613 16.456 181.757 16.456 181.757 16.456V25.976C181.757 25.976 177.613 25.976 173.469 25.976C169.325 25.976 165.181 25.976 165.181 25.976V31.128C165.181 31.128 170.081 31.128 174.981 31.128Z" fill="black"/>
<path d="M207.285 41.992C206.911 41.992 206.538 41.9873 206.166 41.9779C203.307 41.9056 200.507 41.5556 197.765 40.928C194.703 40.1813 192.183 39.192 190.205 37.96L194.461 28.328C196.327 29.4107 198.418 30.288 200.733 30.96C203.047 31.5947 205.269 31.912 207.397 31.912C209.226 31.912 210.533 31.744 211.317 31.408C212.101 31.0347 212.493 30.4933 212.493 29.784C212.493 28.9627 211.97 28.3467 210.925 27.936C209.917 27.5253 208.237 27.0773 205.885 26.592C202.861 25.9573 200.341 25.2853 198.325 24.576C196.309 23.8293 194.554 22.6347 193.061 20.992C191.567 19.312 190.821 17.0533 190.821 14.216C190.821 11.752 191.511 9.512 192.893 7.496C194.274 5.48 196.327 3.89333 199.053 2.736C201.815 1.57867 205.157 1 209.077 1C209.376 1 209.675 1.0037 209.973 1.01111C212.35 1.07021 214.684 1.36517 216.973 1.896C219.586 2.456 221.882 3.296 223.861 4.416L219.885 13.992C216.039 12.0507 212.399 11.08 208.965 11.08C205.567 11.08 203.869 11.9013 203.869 13.544C203.869 14.328 204.373 14.9253 205.381 15.336C206.389 15.7093 208.05 16.12 210.365 16.568C213.351 17.128 215.871 17.7813 217.925 18.528C219.978 19.2373 221.751 20.4133 223.245 22.056C224.775 23.6987 225.541 25.9387 225.541 28.776C225.541 31.24 224.85 33.48 223.469 35.496C222.087 37.4747 220.015 39.0613 217.253 40.256C214.527 41.4133 211.205 41.992 207.285 41.992Z" fill="black"/>
<path d="M240.239 12.144C240.239 12.144 237.369 12.144 234.499 12.144C231.629 12.144 228.759 12.144 228.759 12.144V1.896C228.759 1.896 237.803 1.896 246.847 1.896C255.891 1.896 264.935 1.896 264.935 1.896V12.144C264.935 12.144 262.065 12.144 259.195 12.144C256.325 12.144 253.455 12.144 253.455 12.144V41.096C253.455 41.096 250.151 41.096 246.847 41.096C243.543 41.096 240.239 41.096 240.239 41.096V12.144Z" fill="black"/>
<path d="M291.172 41.992C286.954 41.992 283.164 41.1147 279.804 39.36C276.444 37.6053 273.812 35.1787 271.908 32.08C270.004 28.944 269.052 25.416 269.052 21.496C269.052 17.576 270.004 14.0667 271.908 10.968C273.812 7.832 276.444 5.38667 279.804 3.632C283.164 1.87733 286.954 1 291.172 1C295.391 1 299.18 1.87733 302.54 3.632C305.9 5.38667 308.532 7.832 310.436 10.968C312.34 14.0667 313.292 17.576 313.292 21.496C313.292 25.416 312.34 28.944 310.436 32.08C308.532 35.1787 305.9 37.6053 302.54 39.36C299.18 41.1147 295.391 41.992 291.172 41.992ZM291.172 31.296C292.815 31.296 294.29 30.904 295.596 30.12C296.94 29.2987 298.004 28.16 298.788 26.704C299.572 25.2107 299.964 23.4747 299.964 21.496C299.964 19.5173 299.572 17.8 298.788 16.344C298.004 14.8507 296.94 13.712 295.596 12.928C294.29 12.1067 292.815 11.696 291.172 11.696C289.53 11.696 288.036 12.1067 286.692 12.928C285.386 13.712 284.34 14.8507 283.556 16.344C282.772 17.8 282.38 19.5173 282.38 21.496C282.38 23.4747 282.772 25.2107 283.556 26.704C284.34 28.16 285.386 29.2987 286.692 30.12C288.036 30.904 289.53 31.296 291.172 31.296Z" fill="black"/>
<path d="M337.689 31.24C337.689 31.24 336.793 31.24 335.897 31.24C335.001 31.24 334.105 31.24 334.105 31.24V41.096C334.105 41.096 330.801 41.096 327.497 41.096C324.193 41.096 320.889 41.096 320.889 41.096V1.896C320.889 1.896 325.607 1.896 330.325 1.896C335.043 1.896 339.761 1.896 339.761 1.896C343.382 1.896 346.537 2.49333 349.225 3.688C351.913 4.88267 353.985 6.6 355.441 8.84C356.897 11.08 357.625 13.6933 357.625 16.68C357.625 19.48 356.99 21.9253 355.721 24.016C354.452 26.1067 352.622 27.768 350.233 29L358.465 41.096C358.465 41.096 354.937 41.096 351.409 41.096C347.881 41.096 344.353 41.096 344.353 41.096L337.689 31.24ZM344.297 16.68C344.297 15.224 343.849 14.104 342.953 13.32C342.057 12.4987 340.713 12.088 338.921 12.088C338.921 12.088 337.717 12.088 336.513 12.088C335.309 12.088 334.105 12.088 334.105 12.088V21.272C334.105 21.272 335.309 21.272 336.513 21.272C337.717 21.272 338.921 21.272 338.921 21.272C340.713 21.272 342.057 20.88 342.953 20.096C343.849 19.2747 344.297 18.136 344.297 16.68Z" fill="black"/>
<path d="M36 1.896C36 1.896 39.304 1.896 42.608 1.896C45.912 1.896 49.216 1.896 49.216 1.896V41.096C49.216 41.096 45.912 41.096 42.608 41.096C39.304 41.096 36 41.096 36 41.096V1.896Z" stroke="white" stroke-width="2"/>
<path d="M90.5781 1.896C93.7981 1.896 97.0181 1.896 97.0181 1.896V41.096C97.0181 41.096 94.3021 41.096 91.5861 41.096C88.8701 41.096 86.1541 41.096 86.1541 41.096L71.2581 23.288V41.096C71.2581 41.096 68.0381 41.096 64.8181 41.096C61.5981 41.096 58.3781 41.096 58.3781 41.096V1.896C58.3781 1.896 61.0941 1.896 63.8101 1.896C66.5261 1.896 69.2421 1.896 69.2421 1.896L84.1381 19.704V1.896C84.1381 1.896 87.3581 1.896 90.5781 1.896Z" stroke="white" stroke-width="2"/>
<path d="M141.578 1.896C144.826 1.896 148.074 1.896 148.074 1.896L131.498 41.096C131.498 41.096 128.25 41.096 125.002 41.096C121.754 41.096 118.506 41.096 118.506 41.096L101.93 1.896C101.93 1.896 105.486 1.896 109.042 1.896C112.598 1.896 116.154 1.896 116.154 1.896L125.506 24.8L135.082 1.896C135.082 1.896 138.33 1.896 141.578 1.896Z" stroke="white" stroke-width="2"/>
<path d="M174.981 31.128C179.881 31.128 184.781 31.128 184.781 31.128V41.096C184.781 41.096 176.633 41.096 168.485 41.096C160.337 41.096 152.189 41.096 152.189 41.096V1.896C152.189 1.896 160.155 1.896 168.121 1.896C176.087 1.896 184.053 1.896 184.053 1.896V11.864C184.053 11.864 179.335 11.864 174.617 11.864C169.899 11.864 165.181 11.864 165.181 11.864V16.456C165.181 16.456 169.325 16.456 173.469 16.456C177.613 16.456 181.757 16.456 181.757 16.456V25.976C181.757 25.976 177.613 25.976 173.469 25.976C169.325 25.976 165.181 25.976 165.181 25.976V31.128C165.181 31.128 170.081 31.128 174.981 31.128Z" stroke="white" stroke-width="2"/>
<path d="M207.285 41.992C206.911 41.992 206.538 41.9873 206.166 41.9779C203.307 41.9056 200.507 41.5556 197.765 40.928C194.703 40.1813 192.183 39.192 190.205 37.96L194.461 28.328C196.327 29.4107 198.418 30.288 200.733 30.96C203.047 31.5947 205.269 31.912 207.397 31.912C209.226 31.912 210.533 31.744 211.317 31.408C212.101 31.0347 212.493 30.4933 212.493 29.784C212.493 28.9627 211.97 28.3467 210.925 27.936C209.917 27.5253 208.237 27.0773 205.885 26.592C202.861 25.9573 200.341 25.2853 198.325 24.576C196.309 23.8293 194.554 22.6347 193.061 20.992C191.567 19.312 190.821 17.0533 190.821 14.216C190.821 11.752 191.511 9.512 192.893 7.496C194.274 5.48 196.327 3.89333 199.053 2.736C201.815 1.57867 205.157 1 209.077 1C209.376 1 209.675 1.0037 209.973 1.01111C212.35 1.07021 214.684 1.36517 216.973 1.896C219.586 2.456 221.882 3.296 223.861 4.416L219.885 13.992C216.039 12.0507 212.399 11.08 208.965 11.08C205.567 11.08 203.869 11.9013 203.869 13.544C203.869 14.328 204.373 14.9253 205.381 15.336C206.389 15.7093 208.05 16.12 210.365 16.568C213.351 17.128 215.871 17.7813 217.925 18.528C219.978 19.2373 221.751 20.4133 223.245 22.056C224.775 23.6987 225.541 25.9387 225.541 28.776C225.541 31.24 224.85 33.48 223.469 35.496C222.087 37.4747 220.015 39.0613 217.253 40.256C214.527 41.4133 211.205 41.992 207.285 41.992Z" stroke="white" stroke-width="2"/>
<path d="M240.239 12.144C240.239 12.144 237.369 12.144 234.499 12.144C231.629 12.144 228.759 12.144 228.759 12.144V1.896C228.759 1.896 237.803 1.896 246.847 1.896C255.891 1.896 264.935 1.896 264.935 1.896V12.144C264.935 12.144 262.065 12.144 259.195 12.144C256.325 12.144 253.455 12.144 253.455 12.144V41.096C253.455 41.096 250.151 41.096 246.847 41.096C243.543 41.096 240.239 41.096 240.239 41.096V12.144Z" stroke="white" stroke-width="2"/>
<path d="M291.172 41.992C286.954 41.992 283.164 41.1147 279.804 39.36C276.444 37.6053 273.812 35.1787 271.908 32.08C270.004 28.944 269.052 25.416 269.052 21.496C269.052 17.576 270.004 14.0667 271.908 10.968C273.812 7.832 276.444 5.38667 279.804 3.632C283.164 1.87733 286.954 1 291.172 1C295.391 1 299.18 1.87733 302.54 3.632C305.9 5.38667 308.532 7.832 310.436 10.968C312.34 14.0667 313.292 17.576 313.292 21.496C313.292 25.416 312.34 28.944 310.436 32.08C308.532 35.1787 305.9 37.6053 302.54 39.36C299.18 41.1147 295.391 41.992 291.172 41.992ZM291.172 31.296C292.815 31.296 294.29 30.904 295.596 30.12C296.94 29.2987 298.004 28.16 298.788 26.704C299.572 25.2107 299.964 23.4747 299.964 21.496C299.964 19.5173 299.572 17.8 298.788 16.344C298.004 14.8507 296.94 13.712 295.596 12.928C294.29 12.1067 292.815 11.696 291.172 11.696C289.53 11.696 288.036 12.1067 286.692 12.928C285.386 13.712 284.34 14.8507 283.556 16.344C282.772 17.8 282.38 19.5173 282.38 21.496C282.38 23.4747 282.772 25.2107 283.556 26.704C284.34 28.16 285.386 29.2987 286.692 30.12C288.036 30.904 289.53 31.296 291.172 31.296Z" stroke="white" stroke-width="2"/>
<path d="M337.689 31.24C337.689 31.24 336.793 31.24 335.897 31.24C335.001 31.24 334.105 31.24 334.105 31.24V41.096C334.105 41.096 330.801 41.096 327.497 41.096C324.193 41.096 320.889 41.096 320.889 41.096V1.896C320.889 1.896 325.607 1.896 330.325 1.896C335.043 1.896 339.761 1.896 339.761 1.896C343.382 1.896 346.537 2.49333 349.225 3.688C351.913 4.88267 353.985 6.6 355.441 8.84C356.897 11.08 357.625 13.6933 357.625 16.68C357.625 19.48 356.99 21.9253 355.721 24.016C354.452 26.1067 352.622 27.768 350.233 29L358.465 41.096C358.465 41.096 354.937 41.096 351.409 41.096C347.881 41.096 344.353 41.096 344.353 41.096L337.689 31.24ZM344.297 16.68C344.297 15.224 343.849 14.104 342.953 13.32C342.057 12.4987 340.713 12.088 338.921 12.088C338.921 12.088 337.717 12.088 336.513 12.088C335.309 12.088 334.105 12.088 334.105 12.088V21.272C334.105 21.272 335.309 21.272 336.513 21.272C337.717 21.272 338.921 21.272 338.921 21.272C340.713 21.272 342.057 20.88 342.953 20.096C343.849 19.2747 344.297 18.136 344.297 16.68Z" stroke="white" stroke-width="2"/>
<path d="M1 1.896V41.096H36V1.896H1Z" fill="black" stroke="white" stroke-width="2" stroke-linejoin="round"/>
<path d="M1 1.896C1 1.896 4.304 1.896 7.608 1.896H42.608C39.304 1.896 36 1.896 36 1.896H1Z" stroke="white" stroke-width="2" stroke-linejoin="round"/>
<path d="M7.608 41.0962C4.304 41.0962 1 41.0962 1 41.0962H36C36 41.0962 39.304 41.0962 42.608 41.0962H7.608Z" stroke="white" stroke-width="2" stroke-linejoin="round"/>
<path d="M14.216 41.0962C14.216 41.0962 10.912 41.0962 7.608 41.0962H42.608C45.912 41.0962 49.216 41.0962 49.216 41.0962H14.216Z" stroke="white" stroke-width="2" stroke-linejoin="round"/>
<path d="M7.608 1.896C10.912 1.896 14.216 1.896 14.216 1.896H49.216C49.216 1.896 45.912 1.896 42.608 1.896H7.608Z" stroke="white" stroke-width="2" stroke-linejoin="round"/>
<path d="M14.216 41.096V1.896H49.216V41.096H14.216Z" fill="black" stroke="white" stroke-width="2" stroke-linejoin="round"/>
<path d="M23.3781 1.896V41.096H58.3781V1.896H23.3781Z" fill="black" stroke="white" stroke-width="2" stroke-linejoin="round"/>
<path d="M23.3781 1.896C23.3781 1.896 26.0941 1.896 28.8101 1.896H63.8101C61.0941 1.896 58.3781 1.896 58.3781 1.896H23.3781Z" stroke="white" stroke-width="2" stroke-linejoin="round"/>
<path d="M29.8181 41.0962C26.5981 41.0962 23.3781 41.0962 23.3781 41.0962H58.3781C58.3781 41.0962 61.5981 41.0962 64.8181 41.0962H29.8181Z" stroke="white" stroke-width="2" stroke-linejoin="round"/>
<path d="M28.8101 1.896C31.5261 1.896 34.2421 1.896 34.2421 1.896H69.2421C69.2421 1.896 66.5261 1.896 63.8101 1.896H28.8101Z" stroke="white" stroke-width="2" stroke-linejoin="round"/>
<path d="M36.2581 41.0962C36.2581 41.0962 33.0381 41.0962 29.8181 41.0962H64.8181C68.0381 41.0962 71.2581 41.0962 71.2581 41.0962H36.2581Z" stroke="white" stroke-width="2" stroke-linejoin="round"/>
<path d="M36.2581 41.0961V23.2881H71.2581V41.0961H36.2581Z" fill="black" stroke="white" stroke-width="2" stroke-linejoin="round"/>
<path d="M49.1381 19.704L34.2421 1.896H69.2421L84.1381 19.704H49.1381Z" fill="black" stroke="white" stroke-width="2" stroke-linejoin="round"/>
<path d="M36.2581 23.2881L51.1541 41.0961H86.1541L71.2581 23.2881H36.2581Z" fill="black" stroke="white" stroke-width="2" stroke-linejoin="round"/>
<path d="M49.1381 1.896V19.704H84.1381V1.896H49.1381Z" fill="black" stroke="white" stroke-width="2" stroke-linejoin="round"/>
<path d="M49.1381 1.896C49.1381 1.896 52.3581 1.896 55.5781 1.896H90.5781C87.3581 1.896 84.1381 1.896 84.1381 1.896H49.1381Z" stroke="white" stroke-width="2" stroke-linejoin="round"/>
<path d="M56.5861 41.0962C53.8701 41.0962 51.1541 41.0962 51.1541 41.0962H86.1541C86.1541 41.0962 88.8701 41.0962 91.5861 41.0962H56.5861Z" stroke="white" stroke-width="2" stroke-linejoin="round"/>
<path d="M55.5781 1.896C58.7981 1.896 62.0181 1.896 62.0181 1.896H97.0181C97.0181 1.896 93.7981 1.896 90.5781 1.896H55.5781Z" stroke="white" stroke-width="2" stroke-linejoin="round"/>
<path d="M62.0181 41.0962C62.0181 41.0962 59.3021 41.0962 56.5861 41.0962H91.5861C94.3021 41.0962 97.0181 41.0962 97.0181 41.0962H62.0181Z" stroke="white" stroke-width="2" stroke-linejoin="round"/>
<path d="M62.0181 41.096V1.896H97.0181V41.096H62.0181Z" fill="black" stroke="white" stroke-width="2" stroke-linejoin="round"/>
<path d="M66.9299 1.896C66.9299 1.896 70.4859 1.896 74.0419 1.896H109.042C105.486 1.896 101.93 1.896 101.93 1.896H66.9299Z" stroke="white" stroke-width="2" stroke-linejoin="round"/>
<path d="M66.9299 1.896L83.5059 41.096H118.506L101.93 1.896H66.9299Z" fill="black" stroke="white" stroke-width="2" stroke-linejoin="round"/>
<path d="M74.0419 1.896C77.5979 1.896 81.1539 1.896 81.1539 1.896H116.154C116.154 1.896 112.598 1.896 109.042 1.896H74.0419Z" stroke="white" stroke-width="2" stroke-linejoin="round"/>
<path d="M90.5059 24.8L81.1539 1.896H116.154L125.506 24.8H90.5059Z" fill="black" stroke="white" stroke-width="2" stroke-linejoin="round"/>
<path d="M90.002 41.0962C86.754 41.0962 83.506 41.0962 83.506 41.0962H118.506C118.506 41.0962 121.754 41.0962 125.002 41.0962H90.002Z" stroke="white" stroke-width="2" stroke-linejoin="round"/>
<path d="M96.4979 41.0962C96.4979 41.0962 93.2499 41.0962 90.0019 41.0962H125.002C128.25 41.0962 131.498 41.0962 131.498 41.0962H96.4979Z" stroke="white" stroke-width="2" stroke-linejoin="round"/>
<path d="M100.082 1.896L90.506 24.8H125.506L135.082 1.896H100.082Z" fill="black" stroke="white" stroke-width="2" stroke-linejoin="round"/>
<path d="M100.082 1.896C100.082 1.896 103.33 1.896 106.578 1.896H141.578C138.33 1.896 135.082 1.896 135.082 1.896H100.082Z" stroke="white" stroke-width="2" stroke-linejoin="round"/>
<path d="M96.498 41.096L113.074 1.896H148.074L131.498 41.096H96.498Z" fill="black" stroke="white" stroke-width="2" stroke-linejoin="round"/>
<path d="M106.578 1.896C109.826 1.896 113.074 1.896 113.074 1.896H148.074C148.074 1.896 144.826 1.896 141.578 1.896H106.578Z" stroke="white" stroke-width="2" stroke-linejoin="round"/>
<path d="M117.189 1.896V41.096H152.189V1.896H117.189Z" fill="black" stroke="white" stroke-width="2" stroke-linejoin="round"/>
<path d="M117.189 1.896C117.189 1.896 125.155 1.896 133.121 1.896H168.121C160.155 1.896 152.189 1.896 152.189 1.896H117.189Z" stroke="white" stroke-width="2" stroke-linejoin="round"/>
<path d="M133.485 41.0962C125.337 41.0962 117.189 41.0962 117.189 41.0962H152.189C152.189 41.0962 160.337 41.0962 168.485 41.0962H133.485Z" stroke="white" stroke-width="2" stroke-linejoin="round"/>
<path d="M130.181 16.4558V11.8638H165.181V16.4558H130.181Z" fill="black" stroke="white" stroke-width="2" stroke-linejoin="round"/>
<path d="M130.181 31.1281V25.9761H165.181V31.1281H130.181Z" fill="black" stroke="white" stroke-width="2" stroke-linejoin="round"/>
<path d="M130.181 16.4561C130.181 16.4561 134.325 16.4561 138.469 16.4561H173.469C169.325 16.4561 165.181 16.4561 165.181 16.4561H130.181Z" stroke="white" stroke-width="2" stroke-linejoin="round"/>
<path d="M138.469 25.9761C134.325 25.9761 130.181 25.9761 130.181 25.9761H165.181C165.181 25.9761 169.325 25.9761 173.469 25.9761H138.469Z" stroke="white" stroke-width="2" stroke-linejoin="round"/>
<path d="M139.617 11.8638C134.899 11.8638 130.181 11.8638 130.181 11.8638H165.181C165.181 11.8638 169.899 11.8638 174.617 11.8638H139.617Z" stroke="white" stroke-width="2" stroke-linejoin="round"/>
<path d="M130.181 31.1279C130.181 31.1279 135.081 31.1279 139.981 31.1279H174.981C170.081 31.1279 165.181 31.1279 165.181 31.1279H130.181Z" stroke="white" stroke-width="2" stroke-linejoin="round"/>
<path d="M133.121 1.896C141.087 1.896 149.053 1.896 149.053 1.896H184.053C184.053 1.896 176.087 1.896 168.121 1.896H133.121Z" stroke="white" stroke-width="2" stroke-linejoin="round"/>
<path d="M149.781 41.0962C149.781 41.0962 141.633 41.0962 133.485 41.0962H168.485C176.633 41.0962 184.781 41.0962 184.781 41.0962H149.781Z" stroke="white" stroke-width="2" stroke-linejoin="round"/>
<path d="M146.757 25.9761C146.757 25.9761 142.613 25.9761 138.469 25.9761H173.469C177.613 25.9761 181.757 25.9761 181.757 25.9761H146.757Z" stroke="white" stroke-width="2" stroke-linejoin="round"/>
<path d="M138.469 16.4561C142.613 16.4561 146.757 16.4561 146.757 16.4561H181.757C181.757 16.4561 177.613 16.4561 173.469 16.4561H138.469Z" stroke="white" stroke-width="2" stroke-linejoin="round"/>
<path d="M149.053 11.8638C149.053 11.8638 144.335 11.8638 139.617 11.8638H174.617C179.335 11.8638 184.053 11.8638 184.053 11.8638H149.053Z" stroke="white" stroke-width="2" stroke-linejoin="round"/>
<path d="M139.981 31.1279C144.881 31.1279 149.781 31.1279 149.781 31.1279H184.781C184.781 31.1279 179.881 31.1279 174.981 31.1279H139.981Z" stroke="white" stroke-width="2" stroke-linejoin="round"/>
<path d="M146.757 25.9761V16.4561H181.757V25.9761H146.757Z" fill="black" stroke="white" stroke-width="2" stroke-linejoin="round"/>
<path d="M149.053 11.864V1.896H184.053V11.864H149.053Z" fill="black" stroke="white" stroke-width="2" stroke-linejoin="round"/>
<path d="M149.781 41.0959V31.1279H184.781V41.0959H149.781Z" fill="black" stroke="white" stroke-width="2" stroke-linejoin="round"/>
<path d="M157.893 7.49609C156.511 9.51209 155.821 11.7521 155.821 14.2161H190.821C190.821 11.7521 191.511 9.51209 192.893 7.49609H157.893Z" fill="black" stroke="white" stroke-width="2" stroke-linejoin="round"/>
<path d="M155.821 14.2158C155.821 17.0532 156.567 19.3118 158.061 20.9918H193.061C191.567 19.3118 190.821 17.0532 190.821 14.2158H155.821Z" fill="black" stroke="white" stroke-width="2" stroke-linejoin="round"/>
<path d="M159.461 28.3281L155.205 37.9601H190.205L194.461 28.3281H159.461Z" fill="black" stroke="white" stroke-width="2" stroke-linejoin="round"/>
<path d="M155.205 37.96C157.183 39.192 159.703 40.1813 162.765 40.928H197.765C194.703 40.1813 192.183 39.192 190.205 37.96H155.205Z" fill="black" stroke="white" stroke-width="2" stroke-linejoin="round"/>
<path d="M158.061 20.9922C159.554 22.6349 161.309 23.8295 163.325 24.5762H198.325C196.309 23.8295 194.554 22.6349 193.061 20.9922H158.061Z" fill="black" stroke="white" stroke-width="2" stroke-linejoin="round"/>
<path d="M164.053 2.73584C161.327 3.89317 159.274 5.47984 157.893 7.49584H192.893C194.274 5.47984 196.327 3.89317 199.053 2.73584H164.053Z" fill="black" stroke="white" stroke-width="2" stroke-linejoin="round"/>
<path d="M165.733 30.9601C163.418 30.2881 161.327 29.4108 159.461 28.3281H194.461C196.327 29.4108 198.418 30.2881 200.733 30.9601H165.733Z" fill="black" stroke="white" stroke-width="2" stroke-linejoin="round"/>
<path d="M162.765 40.9282C165.507 41.5559 168.307 41.9058 171.166 41.9781H206.166C203.307 41.9058 200.507 41.5559 197.765 40.9282H162.765Z" fill="black" stroke="white" stroke-width="2" stroke-linejoin="round"/>
<path d="M163.325 24.5762C165.341 25.2855 167.861 25.9575 170.885 26.5922H205.885C202.861 25.9575 200.341 25.2855 198.325 24.5762H163.325Z" fill="black" stroke="white" stroke-width="2" stroke-linejoin="round"/>
<path d="M172.397 31.912C170.269 31.912 168.047 31.5946 165.733 30.96H200.733C203.047 31.5946 205.269 31.912 207.397 31.912H172.397Z" fill="black" stroke="white" stroke-width="2" stroke-linejoin="round"/>
<path d="M174.077 1C170.157 1 166.815 1.57867 164.053 2.736H199.053C201.815 1.57867 205.157 1 209.077 1H174.077Z" fill="black" stroke="white" stroke-width="2" stroke-linejoin="round"/>
<path d="M170.381 15.3359C169.373 14.9253 168.869 14.3279 168.869 13.5439H203.869C203.869 14.3279 204.373 14.9253 205.381 15.3359H170.381Z" fill="black" stroke="white" stroke-width="2" stroke-linejoin="round"/>
<path d="M168.869 13.5441C168.869 11.9014 170.567 11.0801 173.965 11.0801H208.965C205.567 11.0801 203.869 11.9014 203.869 13.5441H168.869Z" fill="black" stroke="white" stroke-width="2" stroke-linejoin="round"/>
<path d="M171.166 41.978C171.538 41.9874 171.911 41.9921 172.285 41.9921H207.285C206.911 41.9921 206.538 41.9874 206.166 41.978H171.166Z" fill="black" stroke="white" stroke-width="2" stroke-linejoin="round"/>
<path d="M175.365 16.5679C173.05 16.1199 171.389 15.7093 170.381 15.3359H205.381C206.389 15.7093 208.05 16.1199 210.365 16.5679H175.365Z" fill="black" stroke="white" stroke-width="2" stroke-linejoin="round"/>
<path d="M170.885 26.5918C173.237 27.0771 174.917 27.5251 175.925 27.9358H210.925C209.917 27.5251 208.237 27.0771 205.885 26.5918H170.885Z" fill="black" stroke="white" stroke-width="2" stroke-linejoin="round"/>
<path d="M176.317 31.4082C175.533 31.7442 174.226 31.9122 172.397 31.9122H207.397C209.226 31.9122 210.533 31.7442 211.317 31.4082H176.317Z" fill="black" stroke="white" stroke-width="2" stroke-linejoin="round"/>
<path d="M174.973 1.01111C174.675 1.0037 174.376 1 174.077 1H209.077C209.376 1 209.675 1.0037 209.973 1.01111H174.973Z" fill="black" stroke="white" stroke-width="2" stroke-linejoin="round"/>
<path d="M175.925 27.936C176.97 28.3467 177.493 28.9627 177.493 29.784H212.493C212.493 28.9627 211.97 28.3467 210.925 27.936H175.925Z" fill="black" stroke="white" stroke-width="2" stroke-linejoin="round"/>
<path d="M177.493 29.7842C177.493 30.4935 177.101 31.0348 176.317 31.4082H211.317C212.101 31.0348 212.493 30.4935 212.493 29.7842H177.493Z" fill="black" stroke="white" stroke-width="2" stroke-linejoin="round"/>
<path d="M172.285 41.9919C176.205 41.9919 179.527 41.4132 182.253 40.2559H217.253C214.527 41.4132 211.205 41.9919 207.285 41.9919H172.285Z" fill="black" stroke="white" stroke-width="2" stroke-linejoin="round"/>
<path d="M181.973 1.89612C179.684 1.3653 177.35 1.07033 174.973 1.01123H209.973C212.35 1.07033 214.684 1.3653 216.973 1.89612H181.973Z" fill="black" stroke="white" stroke-width="2" stroke-linejoin="round"/>
<path d="M182.925 18.5279C180.871 17.7812 178.351 17.1279 175.365 16.5679H210.365C213.351 17.1279 215.871 17.7812 217.925 18.5279H182.925Z" fill="black" stroke="white" stroke-width="2" stroke-linejoin="round"/>
<path d="M173.965 11.0801C177.399 11.0801 181.039 12.0507 184.885 13.9921H219.885C216.039 12.0507 212.399 11.0801 208.965 11.0801H173.965Z" fill="black" stroke="white" stroke-width="2" stroke-linejoin="round"/>
<path d="M182.253 40.2561C185.015 39.0614 187.087 37.4748 188.469 35.4961H223.469C222.087 37.4748 220.015 39.0614 217.253 40.2561H182.253Z" fill="black" stroke="white" stroke-width="2" stroke-linejoin="round"/>
<path d="M188.861 4.416C186.882 3.296 184.586 2.456 181.973 1.896H216.973C219.586 2.456 221.882 3.296 223.861 4.416H188.861Z" fill="black" stroke="white" stroke-width="2" stroke-linejoin="round"/>
<path d="M188.245 22.0558C186.751 20.4132 184.978 19.2372 182.925 18.5278H217.925C219.978 19.2372 221.751 20.4132 223.245 22.0558H188.245Z" fill="black" stroke="white" stroke-width="2" stroke-linejoin="round"/>
<path d="M184.885 13.992L188.861 4.41602H223.861L219.885 13.992H184.885Z" fill="black" stroke="white" stroke-width="2" stroke-linejoin="round"/>
<path d="M190.541 28.7762C190.541 25.9388 189.775 23.6988 188.245 22.0562H223.245C224.775 23.6988 225.541 25.9388 225.541 28.7762H190.541Z" fill="black" stroke="white" stroke-width="2" stroke-linejoin="round"/>
<path d="M188.469 35.4959C189.85 33.4799 190.541 31.2399 190.541 28.7759H225.541C225.541 31.2399 224.85 33.4799 223.469 35.4959H188.469Z" fill="black" stroke="white" stroke-width="2" stroke-linejoin="round"/>
<path d="M193.759 1.896V12.144H228.759V1.896H193.759Z" fill="black" stroke="white" stroke-width="2" stroke-linejoin="round"/>
<path d="M199.499 12.144C196.629 12.144 193.759 12.144 193.759 12.144H228.759C228.759 12.144 231.629 12.144 234.499 12.144H199.499Z" stroke="white" stroke-width="2" stroke-linejoin="round"/>
<path d="M205.239 12.144C205.239 12.144 202.369 12.144 199.499 12.144H234.499C237.369 12.144 240.239 12.144 240.239 12.144H205.239Z" stroke="white" stroke-width="2" stroke-linejoin="round"/>
<path d="M193.759 1.896C193.759 1.896 202.803 1.896 211.847 1.896H246.847C237.803 1.896 228.759 1.896 228.759 1.896H193.759Z" stroke="white" stroke-width="2" stroke-linejoin="round"/>
<path d="M205.239 12.144V41.096H240.239V12.144H205.239Z" fill="black" stroke="white" stroke-width="2" stroke-linejoin="round"/>
<path d="M211.847 41.0962C208.543 41.0962 205.239 41.0962 205.239 41.0962H240.239C240.239 41.0962 243.543 41.0962 246.847 41.0962H211.847Z" stroke="white" stroke-width="2" stroke-linejoin="round"/>
<path d="M218.455 41.0962C218.455 41.0962 215.151 41.0962 211.847 41.0962H246.847C250.151 41.0962 253.455 41.0962 253.455 41.0962H218.455Z" stroke="white" stroke-width="2" stroke-linejoin="round"/>
<path d="M218.455 41.096V12.144H253.455V41.096H218.455Z" fill="black" stroke="white" stroke-width="2" stroke-linejoin="round"/>
<path d="M211.847 1.896C220.891 1.896 229.935 1.896 229.935 1.896H264.935C264.935 1.896 255.891 1.896 246.847 1.896H211.847Z" stroke="white" stroke-width="2" stroke-linejoin="round"/>
<path d="M224.195 12.144C221.325 12.144 218.455 12.144 218.455 12.144H253.455C253.455 12.144 256.325 12.144 259.195 12.144H224.195Z" stroke="white" stroke-width="2" stroke-linejoin="round"/>
<path d="M229.935 12.144C229.935 12.144 227.065 12.144 224.195 12.144H259.195C262.065 12.144 264.935 12.144 264.935 12.144H229.935Z" stroke="white" stroke-width="2" stroke-linejoin="round"/>
<path d="M229.935 12.144V1.896H264.935V12.144H229.935Z" fill="black" stroke="white" stroke-width="2" stroke-linejoin="round"/>
<path d="M234.052 21.4961C234.052 25.4161 235.004 28.9441 236.908 32.0801H271.908C270.004 28.9441 269.052 25.4161 269.052 21.4961H234.052Z" fill="black" stroke="white" stroke-width="2" stroke-linejoin="round"/>
<path d="M236.908 10.9678C235.004 14.0664 234.052 17.5758 234.052 21.4958H269.052C269.052 17.5758 270.004 14.0664 271.908 10.9678H236.908Z" fill="black" stroke="white" stroke-width="2" stroke-linejoin="round"/>
<path d="M236.908 32.0801C238.812 35.1787 241.444 37.6054 244.804 39.3601H279.804C276.444 37.6054 273.812 35.1787 271.908 32.0801H236.908Z" fill="black" stroke="white" stroke-width="2" stroke-linejoin="round"/>
<path d="M244.804 3.63184C241.444 5.3865 238.812 7.83184 236.908 10.9678H271.908C273.812 7.83184 276.444 5.3865 279.804 3.63184H244.804Z" fill="black" stroke="white" stroke-width="2" stroke-linejoin="round"/>
<path d="M247.38 21.4962C247.38 19.5176 247.772 17.8002 248.556 16.3442H283.556C282.772 17.8002 282.38 19.5176 282.38 21.4962H247.38Z" fill="black" stroke="white" stroke-width="2" stroke-linejoin="round"/>
<path d="M248.556 26.7041C247.772 25.2108 247.38 23.4748 247.38 21.4961H282.38C282.38 23.4748 282.772 25.2108 283.556 26.7041H248.556Z" fill="black" stroke="white" stroke-width="2" stroke-linejoin="round"/>
<path d="M248.556 16.3442C249.34 14.8509 250.386 13.7122 251.692 12.9282H286.692C285.386 13.7122 284.34 14.8509 283.556 16.3442H248.556Z" fill="black" stroke="white" stroke-width="2" stroke-linejoin="round"/>
<path d="M251.692 30.1201C250.386 29.2988 249.34 28.1601 248.556 26.7041H283.556C284.34 28.1601 285.386 29.2988 286.692 30.1201H251.692Z" fill="black" stroke="white" stroke-width="2" stroke-linejoin="round"/>
<path d="M244.804 39.3599C248.164 41.1145 251.954 41.9919 256.172 41.9919H291.172C286.954 41.9919 283.164 41.1145 279.804 39.3599H244.804Z" fill="black" stroke="white" stroke-width="2" stroke-linejoin="round"/>
<path d="M256.172 1C251.954 1 248.164 1.87733 244.804 3.632H279.804C283.164 1.87733 286.954 1 291.172 1H256.172Z" fill="black" stroke="white" stroke-width="2" stroke-linejoin="round"/>
<path d="M251.692 12.9278C253.036 12.1065 254.53 11.6958 256.172 11.6958H291.172C289.53 11.6958 288.036 12.1065 286.692 12.9278H251.692Z" fill="black" stroke="white" stroke-width="2" stroke-linejoin="round"/>
<path d="M256.172 31.2961C254.53 31.2961 253.036 30.9041 251.692 30.1201H286.692C288.036 30.9041 289.53 31.2961 291.172 31.2961H256.172Z" fill="black" stroke="white" stroke-width="2" stroke-linejoin="round"/>
<path d="M260.596 30.1201C259.29 30.9041 257.815 31.2961 256.172 31.2961H291.172C292.815 31.2961 294.29 30.9041 295.596 30.1201H260.596Z" fill="black" stroke="white" stroke-width="2" stroke-linejoin="round"/>
<path d="M256.172 11.6958C257.815 11.6958 259.29 12.1065 260.596 12.9278H295.596C294.29 12.1065 292.815 11.6958 291.172 11.6958H256.172Z" fill="black" stroke="white" stroke-width="2" stroke-linejoin="round"/>
<path d="M267.54 3.632C264.18 1.87733 260.391 1 256.172 1H291.172C295.391 1 299.18 1.87733 302.54 3.632H267.54Z" fill="black" stroke="white" stroke-width="2" stroke-linejoin="round"/>
<path d="M256.172 41.9919C260.391 41.9919 264.18 41.1145 267.54 39.3599H302.54C299.18 41.1145 295.391 41.9919 291.172 41.9919H256.172Z" fill="black" stroke="white" stroke-width="2" stroke-linejoin="round"/>
<path d="M263.788 26.7041C263.004 28.1601 261.94 29.2988 260.596 30.1201H295.596C296.94 29.2988 298.004 28.1601 298.788 26.7041H263.788Z" fill="black" stroke="white" stroke-width="2" stroke-linejoin="round"/>
<path d="M260.596 12.9282C261.94 13.7122 263.004 14.8509 263.788 16.3442H298.788C298.004 14.8509 296.94 13.7122 295.596 12.9282H260.596Z" fill="black" stroke="white" stroke-width="2" stroke-linejoin="round"/>
<path d="M264.964 21.4961C264.964 23.4748 264.572 25.2108 263.788 26.7041H298.788C299.572 25.2108 299.964 23.4748 299.964 21.4961H264.964Z" fill="black" stroke="white" stroke-width="2" stroke-linejoin="round"/>
<path d="M263.788 16.3442C264.572 17.8002 264.964 19.5176 264.964 21.4962H299.964C299.964 19.5176 299.572 17.8002 298.788 16.3442H263.788Z" fill="black" stroke="white" stroke-width="2" stroke-linejoin="round"/>
<path d="M275.436 10.9678C273.532 7.83184 270.9 5.3865 267.54 3.63184H302.54C305.9 5.3865 308.532 7.83184 310.436 10.9678H275.436Z" fill="black" stroke="white" stroke-width="2" stroke-linejoin="round"/>
<path d="M267.54 39.3601C270.9 37.6054 273.532 35.1787 275.436 32.0801H310.436C308.532 35.1787 305.9 37.6054 302.54 39.3601H267.54Z" fill="black" stroke="white" stroke-width="2" stroke-linejoin="round"/>
<path d="M278.292 21.4958C278.292 17.5758 277.34 14.0664 275.436 10.9678H310.436C312.34 14.0664 313.292 17.5758 313.292 21.4958H278.292Z" fill="black" stroke="white" stroke-width="2" stroke-linejoin="round"/>
<path d="M275.436 32.0801C277.34 28.9441 278.292 25.4161 278.292 21.4961H313.292C313.292 25.4161 312.34 28.9441 310.436 32.0801H275.436Z" fill="black" stroke="white" stroke-width="2" stroke-linejoin="round"/>
<path d="M285.889 1.896V41.096H320.889V1.896H285.889Z" fill="black" stroke="white" stroke-width="2" stroke-linejoin="round"/>
<path d="M292.497 41.0962C289.193 41.0962 285.889 41.0962 285.889 41.0962H320.889C320.889 41.0962 324.193 41.0962 327.497 41.0962H292.497Z" stroke="white" stroke-width="2" stroke-linejoin="round"/>
<path d="M285.889 1.896C285.889 1.896 290.607 1.896 295.325 1.896H330.325C325.607 1.896 320.889 1.896 320.889 1.896H285.889Z" stroke="white" stroke-width="2" stroke-linejoin="round"/>
<path d="M299.105 41.0962C299.105 41.0962 295.801 41.0962 292.497 41.0962H327.497C330.801 41.0962 334.105 41.0962 334.105 41.0962H299.105Z" stroke="white" stroke-width="2" stroke-linejoin="round"/>
<path d="M299.105 41.0962V31.2402H334.105V41.0962H299.105Z" fill="black" stroke="white" stroke-width="2" stroke-linejoin="round"/>
<path d="M299.105 21.2719V12.0879H334.105V21.2719H299.105Z" fill="black" stroke="white" stroke-width="2" stroke-linejoin="round"/>
<path d="M300.897 31.2402C300.001 31.2402 299.105 31.2402 299.105 31.2402H334.105C334.105 31.2402 335.001 31.2402 335.897 31.2402H300.897Z" stroke="white" stroke-width="2" stroke-linejoin="round"/>
<path d="M295.325 1.896C300.043 1.896 304.761 1.896 304.761 1.896H339.761C339.761 1.896 335.043 1.896 330.325 1.896H295.325Z" stroke="white" stroke-width="2" stroke-linejoin="round"/>
<path d="M299.105 21.272C299.105 21.272 300.309 21.272 301.513 21.272H336.513C335.309 21.272 334.105 21.272 334.105 21.272H299.105Z" stroke="white" stroke-width="2" stroke-linejoin="round"/>
<path d="M301.513 12.0879C300.309 12.0879 299.105 12.0879 299.105 12.0879H334.105C334.105 12.0879 335.309 12.0879 336.513 12.0879H301.513Z" stroke="white" stroke-width="2" stroke-linejoin="round"/>
<path d="M302.689 31.2402C302.689 31.2402 301.793 31.2402 300.897 31.2402H335.897C336.793 31.2402 337.689 31.2402 337.689 31.2402H302.689Z" stroke="white" stroke-width="2" stroke-linejoin="round"/>
<path d="M303.921 12.0879C303.921 12.0879 302.717 12.0879 301.513 12.0879H336.513C337.717 12.0879 338.921 12.0879 338.921 12.0879H303.921Z" stroke="white" stroke-width="2" stroke-linejoin="round"/>
<path d="M301.513 21.272C302.717 21.272 303.921 21.272 303.921 21.272H338.921C338.921 21.272 337.717 21.272 336.513 21.272H301.513Z" stroke="white" stroke-width="2" stroke-linejoin="round"/>
<path d="M303.921 12.0879C305.713 12.0879 307.057 12.4986 307.953 13.3199H342.953C342.057 12.4986 340.713 12.0879 338.921 12.0879H303.921Z" fill="black" stroke="white" stroke-width="2" stroke-linejoin="round"/>
<path d="M307.953 20.0962C307.057 20.8802 305.713 21.2722 303.921 21.2722H338.921C340.713 21.2722 342.057 20.8802 342.953 20.0962H307.953Z" fill="black" stroke="white" stroke-width="2" stroke-linejoin="round"/>
<path d="M302.689 31.2402L309.353 41.0962H344.353L337.689 31.2402H302.689Z" fill="black" stroke="white" stroke-width="2" stroke-linejoin="round"/>
<path d="M307.953 13.3198C308.849 14.1038 309.297 15.2238 309.297 16.6798H344.297C344.297 15.2238 343.849 14.1038 342.953 13.3198H307.953Z" fill="black" stroke="white" stroke-width="2" stroke-linejoin="round"/>
<path d="M309.297 16.6802C309.297 18.1362 308.849 19.2748 307.953 20.0962H342.953C343.849 19.2748 344.297 18.1362 344.297 16.6802H309.297Z" fill="black" stroke="white" stroke-width="2" stroke-linejoin="round"/>
<path d="M314.225 3.688C311.537 2.49333 308.382 1.896 304.761 1.896H339.761C343.382 1.896 346.537 2.49333 349.225 3.688H314.225Z" fill="black" stroke="white" stroke-width="2" stroke-linejoin="round"/>
<path d="M316.409 41.0962C312.881 41.0962 309.353 41.0962 309.353 41.0962H344.353C344.353 41.0962 347.881 41.0962 351.409 41.0962H316.409Z" stroke="white" stroke-width="2" stroke-linejoin="round"/>
<path d="M320.441 8.83999C318.985 6.59999 316.913 4.88266 314.225 3.68799H349.225C351.913 4.88266 353.985 6.59999 355.441 8.83999H320.441Z" fill="black" stroke="white" stroke-width="2" stroke-linejoin="round"/>
<path d="M315.233 29.0001C317.622 27.7681 319.452 26.1068 320.721 24.0161H355.721C354.452 26.1068 352.622 27.7681 350.233 29.0001H315.233Z" fill="black" stroke="white" stroke-width="2" stroke-linejoin="round"/>
<path d="M323.465 41.096L315.233 29H350.233L358.465 41.096H323.465Z" fill="black" stroke="white" stroke-width="2" stroke-linejoin="round"/>
<path d="M323.465 41.0962C323.465 41.0962 319.937 41.0962 316.409 41.0962H351.409C354.937 41.0962 358.465 41.0962 358.465 41.0962H323.465Z" stroke="white" stroke-width="2" stroke-linejoin="round"/>
<path d="M322.625 16.6798C322.625 13.6932 321.897 11.0798 320.441 8.83984H355.441C356.897 11.0798 357.625 13.6932 357.625 16.6798H322.625Z" fill="black" stroke="white" stroke-width="2" stroke-linejoin="round"/>
<path d="M320.721 24.0162C321.99 21.9255 322.625 19.4802 322.625 16.6802H357.625C357.625 19.4802 356.99 21.9255 355.721 24.0162H320.721Z" fill="black" stroke="white" stroke-width="2" stroke-linejoin="round"/>
<path d="M1 1.896H14.216V41.096H1V1.896Z" fill="white"/>
<path d="M62.0181 1.896V41.096H51.1541L36.2581 23.288V41.096H23.3781V1.896H34.2421L49.1381 19.704V1.896H62.0181Z" fill="white"/>
<path d="M113.074 1.896L96.4979 41.096H83.5059L66.9299 1.896H81.1539L90.5059 24.8L100.082 1.896H113.074Z" fill="white"/>
<path d="M149.781 31.128V41.096H117.189V1.896H149.053V11.864H130.181V16.456H146.757V25.976H130.181V31.128H149.781Z" fill="white"/>
<path d="M172.285 41.992C169.037 41.992 165.863 41.6373 162.765 40.928C159.703 40.1813 157.183 39.192 155.205 37.96L159.461 28.328C161.327 29.4107 163.418 30.288 165.733 30.96C168.047 31.5947 170.269 31.912 172.397 31.912C174.226 31.912 175.533 31.744 176.317 31.408C177.101 31.0347 177.493 30.4933 177.493 29.784C177.493 28.9627 176.97 28.3467 175.925 27.936C174.917 27.5253 173.237 27.0773 170.885 26.592C167.861 25.9573 165.341 25.2853 163.325 24.576C161.309 23.8293 159.554 22.6347 158.061 20.992C156.567 19.312 155.821 17.0533 155.821 14.216C155.821 11.752 156.511 9.512 157.893 7.496C159.274 5.48 161.327 3.89333 164.053 2.736C166.815 1.57867 170.157 1 174.077 1C176.765 1 179.397 1.29867 181.973 1.896C184.586 2.456 186.882 3.296 188.861 4.416L184.885 13.992C181.039 12.0507 177.399 11.08 173.965 11.08C170.567 11.08 168.869 11.9013 168.869 13.544C168.869 14.328 169.373 14.9253 170.381 15.336C171.389 15.7093 173.05 16.12 175.365 16.568C178.351 17.128 180.871 17.7813 182.925 18.528C184.978 19.2373 186.751 20.4133 188.245 22.056C189.775 23.6987 190.541 25.9387 190.541 28.776C190.541 31.24 189.85 33.48 188.469 35.496C187.087 37.4747 185.015 39.0613 182.253 40.256C179.527 41.4133 176.205 41.992 172.285 41.992Z" fill="white"/>
<path d="M205.239 12.144H193.759V1.896H229.935V12.144H218.455V41.096H205.239V12.144Z" fill="white"/>
<path d="M256.172 41.992C251.954 41.992 248.164 41.1147 244.804 39.36C241.444 37.6053 238.812 35.1787 236.908 32.08C235.004 28.944 234.052 25.416 234.052 21.496C234.052 17.576 235.004 14.0667 236.908 10.968C238.812 7.832 241.444 5.38667 244.804 3.632C248.164 1.87733 251.954 1 256.172 1C260.391 1 264.18 1.87733 267.54 3.632C270.9 5.38667 273.532 7.832 275.436 10.968C277.34 14.0667 278.292 17.576 278.292 21.496C278.292 25.416 277.34 28.944 275.436 32.08C273.532 35.1787 270.9 37.6053 267.54 39.36C264.18 41.1147 260.391 41.992 256.172 41.992ZM256.172 31.296C257.815 31.296 259.29 30.904 260.596 30.12C261.94 29.2987 263.004 28.16 263.788 26.704C264.572 25.2107 264.964 23.4747 264.964 21.496C264.964 19.5173 264.572 17.8 263.788 16.344C263.004 14.8507 261.94 13.712 260.596 12.928C259.29 12.1067 257.815 11.696 256.172 11.696C254.53 11.696 253.036 12.1067 251.692 12.928C250.386 13.712 249.34 14.8507 248.556 16.344C247.772 17.8 247.38 19.5173 247.38 21.496C247.38 23.4747 247.772 25.2107 248.556 26.704C249.34 28.16 250.386 29.2987 251.692 30.12C253.036 30.904 254.53 31.296 256.172 31.296Z" fill="white"/>
<path d="M302.689 31.24H299.105V41.096H285.889V1.896H304.761C308.382 1.896 311.537 2.49333 314.225 3.688C316.913 4.88267 318.985 6.6 320.441 8.84C321.897 11.08 322.625 13.6933 322.625 16.68C322.625 19.48 321.99 21.9253 320.721 24.016C319.452 26.1067 317.622 27.768 315.233 29L323.465 41.096H309.353L302.689 31.24ZM309.297 16.68C309.297 15.224 308.849 14.104 307.953 13.32C307.057 12.4987 305.713 12.088 303.921 12.088H299.105V21.272H303.921C305.713 21.272 307.057 20.88 307.953 20.096C308.849 19.2747 309.297 18.136 309.297 16.68Z" fill="white"/>
<path d="M1 1.896H14.216V41.096H1V1.896Z" stroke="black" stroke-width="2"/>
<path d="M62.0181 1.896V41.096H51.1541L36.2581 23.288V41.096H23.3781V1.896H34.2421L49.1381 19.704V1.896H62.0181Z" stroke="black" stroke-width="2"/>
<path d="M113.074 1.896L96.4979 41.096H83.5059L66.9299 1.896H81.1539L90.5059 24.8L100.082 1.896H113.074Z" stroke="black" stroke-width="2"/>
<path d="M149.781 31.128V41.096H117.189V1.896H149.053V11.864H130.181V16.456H146.757V25.976H130.181V31.128H149.781Z" stroke="black" stroke-width="2"/>
<path d="M172.285 41.992C169.037 41.992 165.863 41.6373 162.765 40.928C159.703 40.1813 157.183 39.192 155.205 37.96L159.461 28.328C161.327 29.4107 163.418 30.288 165.733 30.96C168.047 31.5947 170.269 31.912 172.397 31.912C174.226 31.912 175.533 31.744 176.317 31.408C177.101 31.0347 177.493 30.4933 177.493 29.784C177.493 28.9627 176.97 28.3467 175.925 27.936C174.917 27.5253 173.237 27.0773 170.885 26.592C167.861 25.9573 165.341 25.2853 163.325 24.576C161.309 23.8293 159.554 22.6347 158.061 20.992C156.567 19.312 155.821 17.0533 155.821 14.216C155.821 11.752 156.511 9.512 157.893 7.496C159.274 5.48 161.327 3.89333 164.053 2.736C166.815 1.57867 170.157 1 174.077 1C176.765 1 179.397 1.29867 181.973 1.896C184.586 2.456 186.882 3.296 188.861 4.416L184.885 13.992C181.039 12.0507 177.399 11.08 173.965 11.08C170.567 11.08 168.869 11.9013 168.869 13.544C168.869 14.328 169.373 14.9253 170.381 15.336C171.389 15.7093 173.05 16.12 175.365 16.568C178.351 17.128 180.871 17.7813 182.925 18.528C184.978 19.2373 186.751 20.4133 188.245 22.056C189.775 23.6987 190.541 25.9387 190.541 28.776C190.541 31.24 189.85 33.48 188.469 35.496C187.087 37.4747 185.015 39.0613 182.253 40.256C179.527 41.4133 176.205 41.992 172.285 41.992Z" stroke="black" stroke-width="2"/>
<path d="M205.239 12.144H193.759V1.896H229.935V12.144H218.455V41.096H205.239V12.144Z" stroke="black" stroke-width="2"/>
<path d="M256.172 41.992C251.954 41.992 248.164 41.1147 244.804 39.36C241.444 37.6053 238.812 35.1787 236.908 32.08C235.004 28.944 234.052 25.416 234.052 21.496C234.052 17.576 235.004 14.0667 236.908 10.968C238.812 7.832 241.444 5.38667 244.804 3.632C248.164 1.87733 251.954 1 256.172 1C260.391 1 264.18 1.87733 267.54 3.632C270.9 5.38667 273.532 7.832 275.436 10.968C277.34 14.0667 278.292 17.576 278.292 21.496C278.292 25.416 277.34 28.944 275.436 32.08C273.532 35.1787 270.9 37.6053 267.54 39.36C264.18 41.1147 260.391 41.992 256.172 41.992ZM256.172 31.296C257.815 31.296 259.29 30.904 260.596 30.12C261.94 29.2987 263.004 28.16 263.788 26.704C264.572 25.2107 264.964 23.4747 264.964 21.496C264.964 19.5173 264.572 17.8 263.788 16.344C263.004 14.8507 261.94 13.712 260.596 12.928C259.29 12.1067 257.815 11.696 256.172 11.696C254.53 11.696 253.036 12.1067 251.692 12.928C250.386 13.712 249.34 14.8507 248.556 16.344C247.772 17.8 247.38 19.5173 247.38 21.496C247.38 23.4747 247.772 25.2107 248.556 26.704C249.34 28.16 250.386 29.2987 251.692 30.12C253.036 30.904 254.53 31.296 256.172 31.296Z" stroke="black" stroke-width="2"/>
<path d="M302.689 31.24H299.105V41.096H285.889V1.896H304.761C308.382 1.896 311.537 2.49333 314.225 3.688C316.913 4.88267 318.985 6.6 320.441 8.84C321.897 11.08 322.625 13.6933 322.625 16.68C322.625 19.48 321.99 21.9253 320.721 24.016C319.452 26.1067 317.622 27.768 315.233 29L323.465 41.096H309.353L302.689 31.24ZM309.297 16.68C309.297 15.224 308.849 14.104 307.953 13.32C307.057 12.4987 305.713 12.088 303.921 12.088H299.105V21.272H303.921C305.713 21.272 307.057 20.88 307.953 20.096C308.849 19.2747 309.297 18.136 309.297 16.68Z" stroke="black" stroke-width="2"/>
</svg>
