<svg width="131" height="260" viewBox="0 0 131 260" fill="none" xmlns="http://www.w3.org/2000/svg">
<path d="M-1.30655 4.24264C-2.08327 3.46592 -2.09059 2.19826 -1.30655 1.41421C-0.529829 0.637495 0.737831 0.630165 1.52188 1.41421C2.30593 2.19826 2.30593 3.4586 1.52188 4.24264C0.745161 5.01936 -0.529826 5.01936 -1.30655 4.24264Z" fill="black"/>
<path d="M24.1493 29.6985C23.3726 28.9217 23.3653 27.6541 24.1493 26.87C24.926 26.0933 26.1937 26.086 26.9778 26.87C27.7545 27.6467 27.7618 28.9144 26.9778 29.6985C26.1937 30.4678 24.926 30.4752 24.1493 29.6985Z" fill="black"/>
<path d="M49.6053 55.1545C48.8286 54.3778 48.8213 53.1101 49.6053 52.3261C50.382 51.5494 51.6497 51.542 52.4337 52.3261C53.2105 53.1028 53.2178 54.3705 52.4337 55.1545C51.657 55.9312 50.3894 55.9386 49.6053 55.1545Z" fill="black"/>
<path d="M75.0612 80.6103C74.2844 79.8336 74.2771 78.5659 75.0611 77.7819C75.8378 77.0052 77.1055 76.9979 77.8896 77.7819C78.6663 78.5586 78.6736 79.8263 77.8896 80.6103C77.1128 81.387 75.8379 81.387 75.0612 80.6103Z" fill="black"/>
<path d="M100.517 106.066C99.7405 105.29 99.7331 104.022 100.517 103.238C101.294 102.461 102.562 102.454 103.346 103.238C104.122 104.015 104.13 105.282 103.346 106.066C102.569 106.843 101.301 106.85 100.517 106.066Z" fill="black"/>
<path d="M125.973 131.522C125.196 130.745 125.189 129.478 125.973 128.694C126.75 127.917 128.017 127.91 128.801 128.694C129.585 129.478 129.585 130.738 128.801 131.522C128.025 132.299 126.75 132.299 125.973 131.522Z" fill="black"/>
<path d="M-1.30655 55.1543C-2.08327 54.3775 -2.09059 53.1099 -1.30655 52.3258C-0.529829 51.5491 0.737831 51.5418 1.52188 52.3258C2.2986 53.1026 2.30593 54.3702 1.52188 55.1543C0.737834 55.9237 -0.529826 55.931 -1.30655 55.1543Z" fill="black"/>
<path d="M24.1493 80.6101C23.3726 79.8334 23.3653 78.5657 24.1493 77.7816C24.926 77.0049 26.1937 76.9976 26.9778 77.7816C27.7545 78.5584 27.7618 79.826 26.9778 80.6101C26.201 81.3868 24.9334 81.3941 24.1493 80.6101Z" fill="black"/>
<path d="M49.6053 106.066C48.8286 105.289 48.8213 104.022 49.6053 103.238C50.382 102.461 51.6497 102.454 52.4338 103.238C53.2105 104.014 53.2178 105.282 52.4337 106.066C51.657 106.843 50.382 106.843 49.6053 106.066Z" fill="black"/>
<path d="M75.0612 131.522C74.2844 130.745 74.2771 129.478 75.0611 128.694C75.8378 127.917 77.1055 127.909 77.8896 128.694C78.6663 129.47 78.6736 130.738 77.8896 131.522C77.1128 132.299 75.8452 132.306 75.0612 131.522Z" fill="black"/>
<path d="M100.517 156.978C99.7405 156.201 99.7331 154.934 100.517 154.15C101.294 153.373 102.562 153.366 103.346 154.15C104.13 154.934 104.13 156.194 103.346 156.978C102.569 157.755 101.294 157.755 100.517 156.978Z" fill="black"/>
<path d="M-1.30655 106.066C-2.08327 105.289 -2.09059 104.022 -1.30654 103.238C-0.529824 102.461 0.737831 102.454 1.52188 103.238C2.2986 104.014 2.30593 105.282 1.52188 106.066C0.737839 106.85 -0.522499 106.85 -1.30655 106.066Z" fill="black"/>
<path d="M24.1495 131.522C23.3728 130.745 23.3654 129.478 24.1495 128.694C24.9262 127.917 26.1939 127.909 26.9779 128.694C27.7546 129.47 27.7619 130.738 26.9779 131.522C26.1938 132.306 24.9262 132.299 24.1495 131.522Z" fill="black"/>
<path d="M49.6053 156.978C48.8286 156.201 48.8213 154.934 49.6053 154.15C50.382 153.373 51.6497 153.366 52.4338 154.15C53.2105 154.926 53.2178 156.194 52.4338 156.978C51.6497 157.762 50.3894 157.762 49.6053 156.978Z" fill="black"/>
<path d="M75.0613 182.434C74.2846 181.657 74.2773 180.389 75.0613 179.605C75.838 178.829 77.1057 178.821 77.8897 179.605C78.6738 180.389 78.6738 181.65 77.8897 182.434C77.1057 183.218 75.838 183.211 75.0613 182.434Z" fill="black"/>
<path d="M-1.30634 156.978C-2.08305 156.201 -2.09042 154.934 -1.30637 154.15C-0.529652 153.373 0.738049 153.366 1.52208 154.15C2.29879 154.926 2.3061 156.194 1.52206 156.978C0.745339 157.755 -0.529633 157.755 -1.30634 156.978Z" fill="black"/>
<path d="M24.1495 182.434C23.3728 181.657 23.3654 180.389 24.1494 179.605C24.9262 178.829 26.1939 178.821 26.9779 179.605C27.7546 180.382 27.7619 181.65 26.9779 182.434C26.2011 183.211 24.9335 183.218 24.1495 182.434Z" fill="black"/>
<path d="M49.6055 207.89C48.8288 207.113 48.8214 205.845 49.6055 205.061C50.3822 204.285 51.6499 204.277 52.4339 205.061C53.218 205.845 53.218 207.106 52.4339 207.89C51.6572 208.667 50.3822 208.667 49.6055 207.89Z" fill="black"/>
<path d="M-1.30634 207.89C-2.08305 207.113 -2.0904 205.845 -1.30636 205.061C-0.529641 204.284 0.738049 204.277 1.52208 205.061C2.29879 205.838 2.30611 207.106 1.52207 207.89C0.74535 208.666 -0.522305 208.674 -1.30634 207.89Z" fill="black"/>
<path d="M24.1496 233.346C23.3729 232.569 23.3656 231.301 24.1496 230.517C24.9264 229.741 26.194 229.733 26.9781 230.517C27.7621 231.301 27.7621 232.562 26.9781 233.346C26.2013 234.122 24.9264 234.122 24.1496 233.346Z" fill="black"/>
<path d="M-1.30618 258.801C-2.0829 258.025 -2.09022 256.757 -1.30618 255.973C-0.529458 255.196 0.738197 255.189 1.52225 255.973C2.30629 256.757 2.3063 258.017 1.52225 258.801C0.738205 259.586 -0.52946 259.578 -1.30618 258.801Z" fill="black"/>
</svg>
