<svg width="240" height="112" viewBox="0 0 240 112" fill="none" xmlns="http://www.w3.org/2000/svg">
<mask id="mask0" mask-type="alpha" maskUnits="userSpaceOnUse" x="0" y="-256" width="368" height="368">
<path fill-rule="evenodd" clip-rule="evenodd" d="M184 112C285.62 112 368 29.6204 368 -72C368 -173.62 285.62 -256 184 -256C82.3796 -256 0 -173.62 0 -72C0 29.6204 82.3796 112 184 112ZM184 27.7966C239.116 27.7966 283.797 -16.8839 283.797 -72C283.797 -127.116 239.116 -171.797 184 -171.797C128.884 -171.797 84.2033 -127.116 84.2033 -72C84.2033 -16.8839 128.884 27.7966 184 27.7966Z" fill="black"/>
</mask>
<g mask="url(#mask0)">
<path d="M-152.73 -9.95773L617.167 -454.458L622.667 -444.931L-147.23 -0.431455L-152.73 -9.95773Z" stroke="black"/>
<path d="M-140.73 10.8268L629.167 -433.673L634.667 -424.147L-135.23 20.3531L-140.73 10.8268Z" stroke="black"/>
<path d="M-128.73 31.6115L641.167 -412.889L646.667 -403.362L-123.23 41.1378L-128.73 31.6115Z" stroke="black"/>
<path d="M-116.73 52.396L653.167 -392.104L658.667 -382.578L-111.23 61.9223L-116.73 52.396Z" stroke="black"/>
<path d="M-104.73 73.1807L665.167 -371.319L670.667 -361.793L-99.23 82.707L-104.73 73.1807Z" stroke="black"/>
<path d="M-92.73 93.9652L677.167 -350.535L682.667 -341.008L-87.23 103.492L-92.73 93.9652Z" stroke="black"/>
<path d="M-80.73 114.75L689.167 -329.75L694.667 -320.224L-75.23 124.276L-80.73 114.75Z" stroke="black"/>
<path d="M-68.73 135.534L701.167 -308.966L706.667 -299.439L-63.23 145.061L-68.73 135.534Z" stroke="black"/>
<path d="M-56.73 156.319L713.167 -288.181L718.667 -278.655L-51.23 165.845L-56.73 156.319Z" stroke="black"/>
<path d="M-44.73 177.104L725.167 -267.396L730.667 -257.87L-39.23 186.63L-44.73 177.104Z" stroke="black"/>
<path d="M-32.73 197.888L737.167 -246.612L742.667 -237.085L-27.23 207.415L-32.73 197.888Z" stroke="black"/>
<path d="M-20.73 218.673L749.167 -225.827L754.667 -216.301L-15.23 228.199L-20.73 218.673Z" stroke="black"/>
<path d="M-8.72995 239.458L761.167 -205.042L766.667 -195.516L-3.22995 248.984L-8.72995 239.458Z" stroke="black"/>
</g>
</svg>
