<svg width="78" height="14" viewBox="0 0 78 14" fill="none" xmlns="http://www.w3.org/2000/svg">
<path d="M75.8606 0.254822H62.6501C61.9784 0.254822 61.4187 0.814591 61.4187 1.48631C61.4187 2.15803 61.9784 2.71779 62.6501 2.71779H68.1918V11.3382C57.5563 11.2262 53.0781 9.54694 51.2309 8.31546H55.877C58.0601 8.31546 59.8513 6.52421 59.8513 4.34112C59.8513 2.15803 58.0601 0.366778 55.877 0.366778H43.1703L33.2064 10.4985C33.1504 10.5545 33.0385 10.6105 32.9825 10.6105C32.9265 10.6105 32.8146 10.6105 32.7586 10.4985L23.5784 1.54229C22.4589 0.47873 20.7236 0.478729 19.6601 1.59826L10.8717 10.4985C10.7598 10.6105 10.7038 10.6105 10.5918 10.6105C10.5359 10.6105 10.4239 10.6105 10.3679 10.4985L3.14694 0.814588C2.75511 0.254822 1.97143 0.142872 1.41167 0.590685C0.851899 0.982522 0.739946 1.76619 1.18776 2.32596L8.40875 12.0099C8.91254 12.6816 9.64024 13.0735 10.4239 13.1294C11.2076 13.1854 12.0472 12.9055 12.607 12.2898L21.3953 3.44549C21.5073 3.33354 21.7312 3.33354 21.8432 3.44549L31.0233 12.4018C31.5831 12.9055 32.2548 13.2414 33.0385 13.1854C33.7662 13.1854 34.4939 12.8496 34.9977 12.3458L44.1778 2.77377H55.821C56.6606 2.77377 57.3883 3.44549 57.3883 4.34112C57.3883 5.18077 56.7166 5.90847 55.821 5.90847H47.4805V7.13995C47.4805 8.25948 48.6 13.8571 69.4233 13.8571H70.6548V2.66182H75.9166C76.5883 2.66182 77.1481 2.10205 77.1481 1.43033C77.1481 0.758615 76.5324 0.254822 75.8606 0.254822Z" fill="white"/>
<path d="M21.6752 11.2822C22.5408 11.2822 23.2425 10.5805 23.2425 9.71486C23.2425 8.84924 22.5408 8.14752 21.6752 8.14752C20.8096 8.14752 20.1078 8.84924 20.1078 9.71486C20.1078 10.5805 20.8096 11.2822 21.6752 11.2822Z" fill="white"/>
</svg>
