<svg width="32" height="31" viewBox="0 0 32 31" fill="none" xmlns="http://www.w3.org/2000/svg">
<path d="M21 27L21 31L32 31L32 27L21 27Z" fill="black"/>
<path d="M1.74846e-07 -9.53674e-07L0 4L17 4L17 -2.10581e-07L1.74846e-07 -9.53674e-07Z" fill="black"/>
<path d="M1.74846e-07 18L0 22L5 22L5 18L1.74846e-07 18Z" fill="black"/>
<path d="M1.74846e-07 27L0 31L17 31L17 27L1.74846e-07 27Z" fill="black"/>
<path d="M9 18L9 22L32 22L32 18L9 18Z" fill="black"/>
<path d="M1.74846e-07 9L0 13L32 13L32 9L1.74846e-07 9Z" fill="black"/>
<path d="M21 -4.76837e-07L21 4L32 4L32 3.98811e-09L21 -4.76837e-07Z" fill="black"/>
</svg>
