<svg width="83" height="64" viewBox="0 0 83 64" fill="none" xmlns="http://www.w3.org/2000/svg">
<rect x="23" y="23" width="3" height="32" fill="#0000FF"/>
<rect x="57" y="23" width="3" height="32" fill="#0000FF"/>
<rect x="26" y="20" width="3" height="3" fill="#0000FF"/>
<rect x="54" y="20" width="3" height="3" fill="#0000FF"/>
<rect x="43" y="3" width="3" height="3" fill="#0000FF"/>
<rect x="46" y="3" width="3" height="3" fill="#0000FF"/>
<rect x="49" width="3" height="3" fill="#0000FF"/>
<rect x="40" y="17" width="3" height="6" fill="#0000FF"/>
<rect x="43" y="23" width="3" height="8" fill="#0000FF"/>
<rect x="37" y="23" width="3" height="8" fill="#0000FF"/>
<rect x="40" y="6" width="3" height="8" fill="#0000FF"/>
<rect x="40" y="31" width="3" height="9" fill="#0000FF"/>
<rect x="26" y="55" width="3" height="3" fill="#0000FF"/>
<rect x="54" y="55" width="3" height="3" fill="#0000FF"/>
<rect x="49" y="17" width="5" height="3" fill="#0000FF"/>
<rect x="34" y="14" width="15" height="3" fill="#0000FF"/>
<rect x="34" y="61" width="15" height="3" fill="#0000FF"/>
<rect x="32" y="40" width="19" height="3" fill="#0000FF"/>
<rect x="26" y="37" width="6" height="3" fill="#0000FF"/>
<rect x="51" y="37" width="6" height="3" fill="#0000FF"/>
<rect x="29" y="17" width="5" height="3" fill="#0000FF"/>
<rect x="49" y="58" width="5" height="3" fill="#0000FF"/>
<rect x="29" y="58" width="5" height="3" fill="#0000FF"/>
<rect x="1" y="37" width="14" height="3" fill="#0000FF"/>
<rect x="2" y="36" width="2" height="2" fill="#0000FF"/>
<rect x="3" y="35" width="2" height="2" fill="#0000FF"/>
<rect x="4" y="34" width="2" height="2" fill="#0000FF"/>
<rect x="5" y="33" width="2" height="2" fill="#0000FF"/>
<rect x="4" y="39" width="2" height="2" transform="rotate(90 4 39)" fill="#0000FF"/>
<rect x="5" y="40" width="2" height="2" transform="rotate(90 5 40)" fill="#0000FF"/>
<rect x="6" y="41" width="2" height="2" transform="rotate(90 6 41)" fill="#0000FF"/>
<rect x="7" y="42" width="2" height="2" transform="rotate(90 7 42)" fill="#0000FF"/>
<rect x="1" y="38" width="1" height="1" transform="rotate(90 1 38)" fill="#0000FF"/>
<rect x="82" y="40" width="14" height="3" transform="rotate(-180 82 40)" fill="#0000FF"/>
<rect x="81" y="41" width="2" height="2" transform="rotate(-180 81 41)" fill="#0000FF"/>
<rect x="80" y="42" width="2" height="2" transform="rotate(-180 80 42)" fill="#0000FF"/>
<rect x="79" y="43" width="2" height="2" transform="rotate(-180 79 43)" fill="#0000FF"/>
<rect x="78" y="44" width="2" height="2" transform="rotate(-180 78 44)" fill="#0000FF"/>
<rect x="79" y="38" width="2" height="2" transform="rotate(-90 79 38)" fill="#0000FF"/>
<rect x="78" y="37" width="2" height="2" transform="rotate(-90 78 37)" fill="#0000FF"/>
<rect x="77" y="36" width="2" height="2" transform="rotate(-90 77 36)" fill="#0000FF"/>
<rect x="76" y="35" width="2" height="2" transform="rotate(-90 76 35)" fill="#0000FF"/>
<rect x="82" y="39" width="1" height="1" transform="rotate(-90 82 39)" fill="#0000FF"/>
</svg>
