<svg width="182" height="311" viewBox="0 0 182 311" fill="none" xmlns="http://www.w3.org/2000/svg">
<mask id="mask0" mask-type="alpha" maskUnits="userSpaceOnUse" x="0" y="-57" width="368" height="368">
<path fill-rule="evenodd" clip-rule="evenodd" d="M184 311C285.62 311 368 228.62 368 127C368 25.3796 285.62 -57 184 -57C82.3796 -57 0 25.3796 0 127C0 228.62 82.3796 311 184 311ZM184 226.797C239.116 226.797 283.797 182.116 283.797 127C283.797 71.8839 239.116 27.2034 184 27.2034C128.884 27.2034 84.2033 71.8839 84.2033 127C84.2033 182.116 128.884 226.797 184 226.797Z" fill="black"/>
</mask>
<g mask="url(#mask0)">
<path d="M-188.73 126.688L581.167 -317.812L586.667 -308.285L-183.23 136.215L-188.73 126.688Z" stroke="black"/>
<path d="M-176.73 147.473L593.167 -297.027L598.667 -287.501L-171.23 156.999L-176.73 147.473Z" stroke="black"/>
<path d="M-164.73 168.258L605.167 -276.242L610.667 -266.716L-159.23 177.784L-164.73 168.258Z" stroke="black"/>
<path d="M-152.73 189.042L617.167 -255.458L622.667 -245.931L-147.23 198.569L-152.73 189.042Z" stroke="black"/>
<path d="M-140.73 209.827L629.167 -234.673L634.667 -225.147L-135.23 219.353L-140.73 209.827Z" stroke="black"/>
<path d="M-128.73 230.611L641.167 -213.889L646.667 -204.362L-123.23 240.138L-128.73 230.611Z" stroke="black"/>
<path d="M-116.73 251.396L653.167 -193.104L658.667 -183.578L-111.23 260.922L-116.73 251.396Z" stroke="black"/>
<path d="M-104.73 272.181L665.167 -172.319L670.667 -162.793L-99.23 281.707L-104.73 272.181Z" stroke="black"/>
<path d="M-92.73 292.965L677.167 -151.535L682.667 -142.008L-87.23 302.492L-92.73 292.965Z" stroke="black"/>
<path d="M-80.73 313.75L689.167 -130.75L694.667 -121.224L-75.23 323.276L-80.73 313.75Z" stroke="black"/>
<path d="M-68.73 334.535L701.167 -109.965L706.667 -100.439L-63.23 344.061L-68.73 334.535Z" stroke="black"/>
<path d="M-56.73 355.319L713.167 -89.1809L718.667 -79.6546L-51.23 364.845L-56.73 355.319Z" stroke="black"/>
<path d="M-44.73 376.104L725.167 -68.3963L730.667 -58.87L-39.23 385.63L-44.73 376.104Z" stroke="black"/>
<path d="M-32.73 396.888L737.167 -47.6117L742.667 -38.0854L-27.23 406.415L-32.73 396.888Z" stroke="black"/>
<path d="M-20.73 417.673L749.167 -26.8271L754.667 -17.3008L-15.23 427.199L-20.73 417.673Z" stroke="black"/>
</g>
</svg>
