<svg width="260" height="130" viewBox="0 0 260 130" fill="none" xmlns="http://www.w3.org/2000/svg">
<path d="M127.693 4.24264C126.917 3.46592 126.909 2.19826 127.693 1.41421C128.47 0.637495 129.738 0.630165 130.522 1.41421C131.306 2.19826 131.306 3.45859 130.522 4.24264C129.745 5.01936 128.47 5.01936 127.693 4.24264Z" fill="black"/>
<path d="M153.149 29.6985C152.373 28.9218 152.365 27.6541 153.149 26.8701C153.926 26.0934 155.194 26.086 155.978 26.8701C156.754 27.6468 156.762 28.9145 155.978 29.6985C155.194 30.4679 153.926 30.4752 153.149 29.6985Z" fill="black"/>
<path d="M178.605 55.1545C177.829 54.3778 177.821 53.1101 178.605 52.3261C179.382 51.5494 180.65 51.542 181.434 52.3261C182.21 53.1028 182.218 54.3705 181.434 55.1545C180.657 55.9312 179.389 55.9386 178.605 55.1545Z" fill="black"/>
<path d="M204.061 80.6103C203.285 79.8336 203.277 78.5659 204.061 77.7819C204.838 77.0052 206.106 76.9979 206.89 77.7819C207.666 78.5586 207.674 79.8263 206.89 80.6103C206.113 81.387 204.838 81.387 204.061 80.6103Z" fill="black"/>
<path d="M229.517 106.066C228.74 105.29 228.733 104.022 229.517 103.238C230.294 102.461 231.562 102.454 232.346 103.238C233.122 104.015 233.13 105.282 232.346 106.066C231.569 106.843 230.301 106.85 229.517 106.066Z" fill="black"/>
<path d="M254.973 131.522C254.196 130.745 254.189 129.478 254.973 128.694C255.75 127.917 257.017 127.91 257.801 128.694C258.585 129.478 258.585 130.738 257.801 131.522C257.025 132.299 255.75 132.299 254.973 131.522Z" fill="black"/>
<path d="M102.238 29.6985C101.461 28.9218 101.454 27.6541 102.238 26.8701C103.014 26.0934 104.282 26.086 105.066 26.8701C105.85 27.6541 105.85 28.9145 105.066 29.6985C104.289 30.4752 103.014 30.4752 102.238 29.6985Z" fill="black"/>
<path d="M127.693 55.1543C126.917 54.3776 126.909 53.1099 127.693 52.3259C128.47 51.5492 129.738 51.5418 130.522 52.3259C131.299 53.1026 131.306 54.3703 130.522 55.1543C129.738 55.9237 128.47 55.931 127.693 55.1543Z" fill="black"/>
<path d="M153.149 80.6102C152.373 79.8335 152.365 78.5658 153.149 77.7818C153.926 77.005 155.194 76.9977 155.978 77.7818C156.754 78.5585 156.762 79.8261 155.978 80.6102C155.201 81.3869 153.933 81.3942 153.149 80.6102Z" fill="black"/>
<path d="M178.605 106.066C177.829 105.29 177.821 104.022 178.605 103.238C179.382 102.461 180.65 102.454 181.434 103.238C182.21 104.014 182.218 105.282 181.434 106.066C180.657 106.843 179.382 106.843 178.605 106.066Z" fill="black"/>
<path d="M204.061 131.522C203.285 130.745 203.277 129.478 204.061 128.694C204.838 127.917 206.106 127.91 206.89 128.694C207.666 129.47 207.674 130.738 206.89 131.522C206.113 132.299 204.845 132.306 204.061 131.522Z" fill="black"/>
<path d="M76.7818 55.1543C76.005 54.3776 75.9977 53.1099 76.7818 52.3259C77.5585 51.5492 78.8261 51.5418 79.6102 52.3259C80.3942 53.1099 80.3942 54.3703 79.6102 55.1543C78.8262 55.9384 77.5585 55.931 76.7818 55.1543Z" fill="black"/>
<path d="M102.238 80.6102C101.461 79.8335 101.454 78.5658 102.238 77.7818C103.014 77.005 104.282 76.9977 105.066 77.7818C105.843 78.5585 105.85 79.8261 105.066 80.6102C104.275 81.3869 103.014 81.3869 102.238 80.6102Z" fill="black"/>
<path d="M127.693 106.066C126.917 105.289 126.909 104.022 127.693 103.238C128.47 102.461 129.738 102.454 130.522 103.238C131.299 104.014 131.306 105.282 130.522 106.066C129.738 106.85 128.478 106.85 127.693 106.066Z" fill="black"/>
<path d="M153.149 131.522C152.373 130.745 152.365 129.478 153.149 128.694C153.926 127.917 155.194 127.91 155.978 128.694C156.755 129.47 156.762 130.738 155.978 131.522C155.194 132.306 153.926 132.299 153.149 131.522Z" fill="black"/>
<path d="M51.3259 80.6102C50.5492 79.8335 50.5418 78.5658 51.3259 77.7818C52.1026 77.0051 53.3703 76.9977 54.1543 77.7818C54.9384 78.5658 54.9384 79.8262 54.1543 80.6102C53.3776 81.3869 52.1026 81.3869 51.3259 80.6102Z" fill="black"/>
<path d="M76.7818 106.066C76.005 105.289 75.9977 104.022 76.7818 103.238C77.5585 102.461 78.8261 102.454 79.6102 103.238C80.3869 104.014 80.3942 105.282 79.6102 106.066C78.8261 106.835 77.5585 106.843 76.7818 106.066Z" fill="black"/>
<path d="M102.238 131.522C101.461 130.745 101.454 129.478 102.238 128.693C103.014 127.917 104.282 127.909 105.066 128.693C105.843 129.47 105.85 130.738 105.066 131.522C104.289 132.299 103.022 132.306 102.238 131.522Z" fill="black"/>
<path d="M25.8701 106.066C25.0934 105.289 25.086 104.022 25.8701 103.238C26.6468 102.461 27.9145 102.454 28.6985 103.238C29.4826 104.022 29.4826 105.282 28.6985 106.066C27.9218 106.843 26.6468 106.843 25.8701 106.066Z" fill="black"/>
<path d="M51.3259 131.522C50.5492 130.745 50.5419 129.477 51.3259 128.693C52.1026 127.917 53.3703 127.909 54.1543 128.693C54.931 129.47 54.9384 130.738 54.1543 131.522C53.3703 132.291 52.1026 132.299 51.3259 131.522Z" fill="black"/>
<path d="M0.414217 131.522C-0.362505 130.745 -0.369824 129.477 0.414222 128.693C1.19094 127.917 2.45859 127.909 3.24264 128.693C4.02669 129.477 4.0267 130.738 3.24265 131.522C2.4586 132.306 1.19094 132.299 0.414217 131.522Z" fill="black"/>
</svg>
