<svg width="260" height="131" viewBox="0 0 260 131" fill="none" xmlns="http://www.w3.org/2000/svg">
<path d="M254.973 1.52218C254.196 0.745461 254.189 -0.5222 254.973 -1.30625C255.75 -2.08296 257.017 -2.09029 257.801 -1.30625C258.585 -0.522197 258.585 0.738136 257.801 1.52218C257.025 2.2989 255.75 2.2989 254.973 1.52218Z" fill="black"/>
<path d="M204.061 1.52202C203.285 0.745312 203.277 -0.522383 204.061 -1.30643C204.838 -2.08315 206.106 -2.09044 206.89 -1.30641C207.666 -0.529697 207.674 0.737953 206.89 1.522C206.113 2.29872 204.845 2.30606 204.061 1.52202Z" fill="black"/>
<path d="M229.517 26.978C228.74 26.2013 228.733 24.9336 229.517 24.1496C230.294 23.3728 231.562 23.3655 232.346 24.1496C233.13 24.9336 233.13 26.1939 232.346 26.978C231.569 27.7547 230.294 27.7547 229.517 26.978Z" fill="black"/>
<path d="M153.149 1.52202C152.373 0.745312 152.365 -0.522388 153.149 -1.30643C153.926 -2.08315 155.194 -2.09044 155.978 -1.30641C156.755 -0.529697 156.762 0.737947 155.978 1.52199C155.194 2.30604 153.926 2.29873 153.149 1.52202Z" fill="black"/>
<path d="M178.605 26.9779C177.829 26.2012 177.821 24.9335 178.605 24.1494C179.382 23.3727 180.65 23.3654 181.434 24.1495C182.21 24.9262 182.218 26.1938 181.434 26.9779C180.65 27.7619 179.389 27.7619 178.605 26.9779Z" fill="black"/>
<path d="M204.061 52.4339C203.285 51.6572 203.277 50.3895 204.061 49.6055C204.838 48.8288 206.106 48.8214 206.89 49.6055C207.674 50.3895 207.674 51.6499 206.89 52.4339C206.106 53.218 204.838 53.2106 204.061 52.4339Z" fill="black"/>
<path d="M102.238 1.52188C101.461 0.745155 101.454 -0.522499 102.238 -1.30654C103.014 -2.08326 104.282 -2.0906 105.066 -1.30655C105.843 -0.529829 105.85 0.737836 105.066 1.52188C104.289 2.2986 103.022 2.30593 102.238 1.52188Z" fill="black"/>
<path d="M127.694 26.9779C126.917 26.2012 126.91 24.9335 127.694 24.1494C128.47 23.3727 129.738 23.3654 130.522 24.1495C131.299 24.9262 131.306 26.1938 130.522 26.9779C129.745 27.7546 128.47 27.7546 127.694 26.9779Z" fill="black"/>
<path d="M153.149 52.4337C152.373 51.657 152.365 50.3893 153.149 49.6053C153.926 48.8285 155.194 48.8212 155.978 49.6053C156.755 50.382 156.762 51.6496 155.978 52.4337C155.201 53.2104 153.934 53.2177 153.149 52.4337Z" fill="black"/>
<path d="M178.606 77.8897C177.829 77.113 177.821 75.8454 178.605 75.0613C179.382 74.2846 180.65 74.2773 181.434 75.0613C182.218 75.8454 182.218 77.1057 181.434 77.8897C180.657 78.6665 179.382 78.6665 178.606 77.8897Z" fill="black"/>
<path d="M51.3259 1.52188C50.5492 0.745155 50.5419 -0.52251 51.3259 -1.30656C52.1026 -2.08327 53.3703 -2.0906 54.1543 -1.30655C54.931 -0.529829 54.9384 0.737825 54.1543 1.52187C53.3703 2.29126 52.1026 2.2986 51.3259 1.52188Z" fill="black"/>
<path d="M76.7818 26.9777C76.005 26.201 75.9977 24.9334 76.7818 24.1493C77.5585 23.3726 78.8261 23.3653 79.6102 24.1493C80.3869 24.926 80.3942 26.1937 79.6102 26.9777C78.8335 27.7545 77.5658 27.7618 76.7818 26.9777Z" fill="black"/>
<path d="M102.238 52.4337C101.461 51.657 101.454 50.3893 102.238 49.6052C103.014 48.8285 104.282 48.8212 105.066 49.6053C105.843 50.382 105.85 51.6496 105.066 52.4337C104.289 53.2104 103.014 53.2104 102.238 52.4337Z" fill="black"/>
<path d="M127.694 77.8896C126.917 77.1129 126.91 75.8452 127.694 75.0612C128.47 74.2845 129.738 74.2772 130.522 75.0612C131.299 75.8379 131.306 77.1056 130.522 77.8896C129.745 78.6663 128.478 78.6737 127.694 77.8896Z" fill="black"/>
<path d="M153.15 103.346C152.373 102.569 152.366 101.301 153.15 100.517C153.926 99.7404 155.194 99.7331 155.978 100.517C156.762 101.301 156.762 102.561 155.978 103.346C155.201 104.122 153.926 104.122 153.15 103.346Z" fill="black"/>
<path d="M0.414217 1.52188C-0.362505 0.745155 -0.369824 -0.52251 0.414222 -1.30656C1.19094 -2.08327 2.45859 -2.0906 3.24264 -1.30655C4.02669 -0.522502 4.0267 0.737825 3.24265 1.52187C2.4586 2.30592 1.19094 2.2986 0.414217 1.52188Z" fill="black"/>
<path d="M25.8701 26.9777C25.0934 26.201 25.086 24.9334 25.8701 24.1493C26.6468 23.3726 27.9145 23.3653 28.6985 24.1493C29.4752 24.926 29.4826 26.1937 28.6985 26.9777C27.9071 27.7545 26.6468 27.7545 25.8701 26.9777Z" fill="black"/>
<path d="M51.3259 52.4336C50.5492 51.6568 50.5419 50.3892 51.3259 49.6051C52.1026 48.8284 53.3703 48.8211 54.1543 49.6051C54.931 50.3819 54.9384 51.6495 54.1543 52.4336C53.3703 53.2176 52.1099 53.2176 51.3259 52.4336Z" fill="black"/>
<path d="M76.782 77.8896C76.0053 77.1129 75.9979 75.8452 76.782 75.0612C77.5587 74.2845 78.8264 74.2772 79.6104 75.0612C80.3871 75.8379 80.3944 77.1056 79.6104 77.8896C78.8263 78.6737 77.5587 78.6663 76.782 77.8896Z" fill="black"/>
<path d="M102.238 103.345C101.461 102.569 101.454 101.301 102.238 100.517C103.014 99.7403 104.282 99.733 105.066 100.517C105.843 101.294 105.85 102.561 105.066 103.345C104.282 104.129 103.022 104.129 102.238 103.345Z" fill="black"/>
<path d="M127.694 128.801C126.917 128.025 126.91 126.757 127.694 125.973C128.471 125.196 129.738 125.189 130.522 125.973C131.306 126.757 131.306 128.017 130.522 128.801C129.738 129.586 128.471 129.578 127.694 128.801Z" fill="black"/>
</svg>
