<svg width="337" height="42" viewBox="0 0 337 42" fill="none" xmlns="http://www.w3.org/2000/svg">
<path d="M45.436 1C50.154 1 54.872 1 54.872 1C58.4933 1 61.648 1.59733 64.336 2.792C67.024 3.98667 69.096 5.704 70.552 7.944C72.008 10.184 72.736 12.7973 72.736 15.784C72.736 18.7707 72.008 21.384 70.552 23.624C69.096 25.864 67.024 27.5813 64.336 28.776C61.648 29.9707 58.4933 30.568 54.872 30.568C54.872 30.568 53.458 30.568 52.044 30.568C50.63 30.568 49.216 30.568 49.216 30.568V40.2C49.216 40.2 45.912 40.2 42.608 40.2C39.304 40.2 36 40.2 36 40.2V1C36 1 40.718 1 45.436 1ZM51.624 20.376C52.828 20.376 54.032 20.376 54.032 20.376C55.824 20.376 57.168 19.984 58.064 19.2C58.96 18.3787 59.408 17.24 59.408 15.784C59.408 14.328 58.96 13.208 58.064 12.424C57.168 11.6027 55.824 11.192 54.032 11.192C54.032 11.192 52.828 11.192 51.624 11.192C50.42 11.192 49.216 11.192 49.216 11.192V20.376C49.216 20.376 50.42 20.376 51.624 20.376Z" fill="black"/>
<path d="M104.614 33.368C104.614 33.368 100.89 33.368 97.1656 33.368C93.4416 33.368 89.7176 33.368 89.7176 33.368L87.0856 40.2C87.0856 40.2 83.7256 40.2 80.3656 40.2C77.0056 40.2 73.6456 40.2 73.6456 40.2L90.7816 1C90.7816 1 94.0296 1 97.2776 1C100.526 1 103.774 1 103.774 1L120.91 40.2C120.91 40.2 117.494 40.2 114.078 40.2C110.662 40.2 107.246 40.2 107.246 40.2L104.614 33.368ZM97.1656 23.848C99.0696 23.848 100.974 23.848 100.974 23.848L97.1656 13.992L93.3576 23.848C93.3576 23.848 95.2616 23.848 97.1656 23.848Z" fill="black"/>
<path d="M142.619 30.344C142.619 30.344 141.723 30.344 140.827 30.344C139.931 30.344 139.035 30.344 139.035 30.344V40.2C139.035 40.2 135.731 40.2 132.427 40.2C129.123 40.2 125.819 40.2 125.819 40.2V1C125.819 1 130.537 1 135.255 1C139.973 1 144.691 1 144.691 1C148.312 1 151.467 1.59733 154.155 2.792C156.843 3.98667 158.915 5.704 160.371 7.944C161.827 10.184 162.555 12.7973 162.555 15.784C162.555 18.584 161.92 21.0293 160.651 23.12C159.381 25.2107 157.552 26.872 155.163 28.104L163.395 40.2C163.395 40.2 159.867 40.2 156.339 40.2C152.811 40.2 149.283 40.2 149.283 40.2L142.619 30.344ZM149.227 15.784C149.227 14.328 148.779 13.208 147.883 12.424C146.987 11.6027 145.643 11.192 143.851 11.192C143.851 11.192 142.647 11.192 141.443 11.192C140.239 11.192 139.035 11.192 139.035 11.192V20.376C139.035 20.376 140.239 20.376 141.443 20.376C142.647 20.376 143.851 20.376 143.851 20.376C145.643 20.376 146.987 19.984 147.883 19.2C148.779 18.3787 149.227 17.24 149.227 15.784Z" fill="black"/>
<path d="M178.31 11.248C178.31 11.248 175.44 11.248 172.57 11.248C169.7 11.248 166.83 11.248 166.83 11.248V1C166.83 1 175.874 1 184.918 1C193.962 1 203.006 1 203.006 1V11.248C203.006 11.248 200.136 11.248 197.266 11.248C194.396 11.248 191.526 11.248 191.526 11.248V40.2C191.526 40.2 188.222 40.2 184.918 40.2C181.614 40.2 178.31 40.2 178.31 40.2V11.248Z" fill="black"/>
<path d="M241.439 1C244.659 1 247.879 1 247.879 1V40.2C247.879 40.2 245.163 40.2 242.447 40.2C239.731 40.2 237.015 40.2 237.015 40.2L222.119 22.392V40.2C222.119 40.2 218.899 40.2 215.679 40.2C212.459 40.2 209.239 40.2 209.239 40.2V1C209.239 1 211.955 1 214.671 1C217.387 1 220.103 1 220.103 1L234.999 18.808V1C234.999 1 238.219 1 241.439 1Z" fill="black"/>
<path d="M279.839 30.232C284.739 30.232 289.639 30.232 289.639 30.232V40.2C289.639 40.2 281.491 40.2 273.343 40.2C265.195 40.2 257.047 40.2 257.047 40.2V1C257.047 1 265.013 1 272.979 1C280.945 1 288.911 1 288.911 1V10.968C288.911 10.968 284.193 10.968 279.475 10.968C274.757 10.968 270.039 10.968 270.039 10.968V15.56C270.039 15.56 274.183 15.56 278.327 15.56C282.471 15.56 286.615 15.56 286.615 15.56V25.08C286.615 25.08 282.471 25.08 278.327 25.08C274.183 25.08 270.039 25.08 270.039 25.08V30.232C270.039 30.232 274.939 30.232 279.839 30.232Z" fill="black"/>
<path d="M314.327 30.344C314.327 30.344 313.431 30.344 312.535 30.344C311.639 30.344 310.743 30.344 310.743 30.344V40.2C310.743 40.2 307.439 40.2 304.135 40.2C300.831 40.2 297.527 40.2 297.527 40.2V1C297.527 1 302.245 1 306.963 1C311.681 1 316.399 1 316.399 1C320.02 1 323.175 1.59733 325.863 2.792C328.551 3.98667 330.623 5.704 332.079 7.944C333.535 10.184 334.263 12.7973 334.263 15.784C334.263 18.584 333.628 21.0293 332.359 23.12C331.089 25.2107 329.26 26.872 326.871 28.104L335.103 40.2C335.103 40.2 331.575 40.2 328.047 40.2C324.519 40.2 320.991 40.2 320.991 40.2L314.327 30.344ZM320.935 15.784C320.935 14.328 320.487 13.208 319.591 12.424C318.695 11.6027 317.351 11.192 315.559 11.192C315.559 11.192 314.355 11.192 313.151 11.192C311.947 11.192 310.743 11.192 310.743 11.192V20.376C310.743 20.376 311.947 20.376 313.151 20.376C314.355 20.376 315.559 20.376 315.559 20.376C317.351 20.376 318.695 19.984 319.591 19.2C320.487 18.3787 320.935 17.24 320.935 15.784Z" fill="black"/>
<path d="M45.436 1C50.154 1 54.872 1 54.872 1C58.4933 1 61.648 1.59733 64.336 2.792C67.024 3.98667 69.096 5.704 70.552 7.944C72.008 10.184 72.736 12.7973 72.736 15.784C72.736 18.7707 72.008 21.384 70.552 23.624C69.096 25.864 67.024 27.5813 64.336 28.776C61.648 29.9707 58.4933 30.568 54.872 30.568C54.872 30.568 53.458 30.568 52.044 30.568C50.63 30.568 49.216 30.568 49.216 30.568V40.2C49.216 40.2 45.912 40.2 42.608 40.2C39.304 40.2 36 40.2 36 40.2V1C36 1 40.718 1 45.436 1ZM51.624 20.376C52.828 20.376 54.032 20.376 54.032 20.376C55.824 20.376 57.168 19.984 58.064 19.2C58.96 18.3787 59.408 17.24 59.408 15.784C59.408 14.328 58.96 13.208 58.064 12.424C57.168 11.6027 55.824 11.192 54.032 11.192C54.032 11.192 52.828 11.192 51.624 11.192C50.42 11.192 49.216 11.192 49.216 11.192V20.376C49.216 20.376 50.42 20.376 51.624 20.376Z" stroke="white" stroke-width="2"/>
<path d="M104.614 33.368C104.614 33.368 100.89 33.368 97.1656 33.368C93.4416 33.368 89.7176 33.368 89.7176 33.368L87.0856 40.2C87.0856 40.2 83.7256 40.2 80.3656 40.2C77.0056 40.2 73.6456 40.2 73.6456 40.2L90.7816 1C90.7816 1 94.0296 1 97.2776 1C100.526 1 103.774 1 103.774 1L120.91 40.2C120.91 40.2 117.494 40.2 114.078 40.2C110.662 40.2 107.246 40.2 107.246 40.2L104.614 33.368ZM97.1656 23.848C99.0696 23.848 100.974 23.848 100.974 23.848L97.1656 13.992L93.3576 23.848C93.3576 23.848 95.2616 23.848 97.1656 23.848Z" stroke="white" stroke-width="2"/>
<path d="M142.619 30.344C142.619 30.344 141.723 30.344 140.827 30.344C139.931 30.344 139.035 30.344 139.035 30.344V40.2C139.035 40.2 135.731 40.2 132.427 40.2C129.123 40.2 125.819 40.2 125.819 40.2V1C125.819 1 130.537 1 135.255 1C139.973 1 144.691 1 144.691 1C148.312 1 151.467 1.59733 154.155 2.792C156.843 3.98667 158.915 5.704 160.371 7.944C161.827 10.184 162.555 12.7973 162.555 15.784C162.555 18.584 161.92 21.0293 160.651 23.12C159.381 25.2107 157.552 26.872 155.163 28.104L163.395 40.2C163.395 40.2 159.867 40.2 156.339 40.2C152.811 40.2 149.283 40.2 149.283 40.2L142.619 30.344ZM149.227 15.784C149.227 14.328 148.779 13.208 147.883 12.424C146.987 11.6027 145.643 11.192 143.851 11.192C143.851 11.192 142.647 11.192 141.443 11.192C140.239 11.192 139.035 11.192 139.035 11.192V20.376C139.035 20.376 140.239 20.376 141.443 20.376C142.647 20.376 143.851 20.376 143.851 20.376C145.643 20.376 146.987 19.984 147.883 19.2C148.779 18.3787 149.227 17.24 149.227 15.784Z" stroke="white" stroke-width="2"/>
<path d="M178.31 11.248C178.31 11.248 175.44 11.248 172.57 11.248C169.7 11.248 166.83 11.248 166.83 11.248V1C166.83 1 175.874 1 184.918 1C193.962 1 203.006 1 203.006 1V11.248C203.006 11.248 200.136 11.248 197.266 11.248C194.396 11.248 191.526 11.248 191.526 11.248V40.2C191.526 40.2 188.222 40.2 184.918 40.2C181.614 40.2 178.31 40.2 178.31 40.2V11.248Z" stroke="white" stroke-width="2"/>
<path d="M241.439 1C244.659 1 247.879 1 247.879 1V40.2C247.879 40.2 245.163 40.2 242.447 40.2C239.731 40.2 237.015 40.2 237.015 40.2L222.119 22.392V40.2C222.119 40.2 218.899 40.2 215.679 40.2C212.459 40.2 209.239 40.2 209.239 40.2V1C209.239 1 211.955 1 214.671 1C217.387 1 220.103 1 220.103 1L234.999 18.808V1C234.999 1 238.219 1 241.439 1Z" stroke="white" stroke-width="2"/>
<path d="M279.839 30.232C284.739 30.232 289.639 30.232 289.639 30.232V40.2C289.639 40.2 281.491 40.2 273.343 40.2C265.195 40.2 257.047 40.2 257.047 40.2V1C257.047 1 265.013 1 272.979 1C280.945 1 288.911 1 288.911 1V10.968C288.911 10.968 284.193 10.968 279.475 10.968C274.757 10.968 270.039 10.968 270.039 10.968V15.56C270.039 15.56 274.183 15.56 278.327 15.56C282.471 15.56 286.615 15.56 286.615 15.56V25.08C286.615 25.08 282.471 25.08 278.327 25.08C274.183 25.08 270.039 25.08 270.039 25.08V30.232C270.039 30.232 274.939 30.232 279.839 30.232Z" stroke="white" stroke-width="2"/>
<path d="M314.327 30.344C314.327 30.344 313.431 30.344 312.535 30.344C311.639 30.344 310.743 30.344 310.743 30.344V40.2C310.743 40.2 307.439 40.2 304.135 40.2C300.831 40.2 297.527 40.2 297.527 40.2V1C297.527 1 302.245 1 306.963 1C311.681 1 316.399 1 316.399 1C320.02 1 323.175 1.59733 325.863 2.792C328.551 3.98667 330.623 5.704 332.079 7.944C333.535 10.184 334.263 12.7973 334.263 15.784C334.263 18.584 333.628 21.0293 332.359 23.12C331.089 25.2107 329.26 26.872 326.871 28.104L335.103 40.2C335.103 40.2 331.575 40.2 328.047 40.2C324.519 40.2 320.991 40.2 320.991 40.2L314.327 30.344ZM320.935 15.784C320.935 14.328 320.487 13.208 319.591 12.424C318.695 11.6027 317.351 11.192 315.559 11.192C315.559 11.192 314.355 11.192 313.151 11.192C311.947 11.192 310.743 11.192 310.743 11.192V20.376C310.743 20.376 311.947 20.376 313.151 20.376C314.355 20.376 315.559 20.376 315.559 20.376C317.351 20.376 318.695 19.984 319.591 19.2C320.487 18.3787 320.935 17.24 320.935 15.784Z" stroke="white" stroke-width="2"/>
<path d="M1 1V40.2H36V1H1Z" fill="black" stroke="white" stroke-width="2" stroke-linejoin="round"/>
<path d="M7.608 40.2002C4.304 40.2002 1 40.2002 1 40.2002H36C36 40.2002 39.304 40.2002 42.608 40.2002H7.608Z" stroke="white" stroke-width="2" stroke-linejoin="round"/>
<path d="M1 1C1 1 5.718 1 10.436 1H45.436C40.718 1 36 1 36 1H1Z" stroke="white" stroke-width="2" stroke-linejoin="round"/>
<path d="M14.216 40.2002C14.216 40.2002 10.912 40.2002 7.608 40.2002H42.608C45.912 40.2002 49.216 40.2002 49.216 40.2002H14.216Z" stroke="white" stroke-width="2" stroke-linejoin="round"/>
<path d="M14.216 40.1999V30.5679H49.216V40.1999H14.216Z" fill="black" stroke="white" stroke-width="2" stroke-linejoin="round"/>
<path d="M14.216 20.3759V11.1919H49.216V20.3759H14.216Z" fill="black" stroke="white" stroke-width="2" stroke-linejoin="round"/>
<path d="M10.436 1C15.154 1 19.872 1 19.872 1H54.872C54.872 1 50.154 1 45.436 1H10.436Z" stroke="white" stroke-width="2" stroke-linejoin="round"/>
<path d="M14.216 20.376C14.216 20.376 15.42 20.376 16.624 20.376H51.624C50.42 20.376 49.216 20.376 49.216 20.376H14.216Z" stroke="white" stroke-width="2" stroke-linejoin="round"/>
<path d="M16.624 11.1919C15.42 11.1919 14.216 11.1919 14.216 11.1919H49.216C49.216 11.1919 50.42 11.1919 51.624 11.1919H16.624Z" stroke="white" stroke-width="2" stroke-linejoin="round"/>
<path d="M17.044 30.5679C15.63 30.5679 14.216 30.5679 14.216 30.5679H49.216C49.216 30.5679 50.63 30.5679 52.044 30.5679H17.044Z" stroke="white" stroke-width="2" stroke-linejoin="round"/>
<path d="M19.032 11.1919C19.032 11.1919 17.828 11.1919 16.624 11.1919H51.624C52.828 11.1919 54.032 11.1919 54.032 11.1919H19.032Z" stroke="white" stroke-width="2" stroke-linejoin="round"/>
<path d="M16.624 20.376C17.828 20.376 19.032 20.376 19.032 20.376H54.032C54.032 20.376 52.828 20.376 51.624 20.376H16.624Z" stroke="white" stroke-width="2" stroke-linejoin="round"/>
<path d="M19.872 30.5679C19.872 30.5679 18.458 30.5679 17.044 30.5679H52.044C53.458 30.5679 54.872 30.5679 54.872 30.5679H19.872Z" stroke="white" stroke-width="2" stroke-linejoin="round"/>
<path d="M23.064 19.2002C22.168 19.9842 20.824 20.3762 19.032 20.3762H54.032C55.824 20.3762 57.168 19.9842 58.064 19.2002H23.064Z" fill="black" stroke="white" stroke-width="2" stroke-linejoin="round"/>
<path d="M19.032 11.1919C20.824 11.1919 22.168 11.6026 23.064 12.4239H58.064C57.168 11.6026 55.824 11.1919 54.032 11.1919H19.032Z" fill="black" stroke="white" stroke-width="2" stroke-linejoin="round"/>
<path d="M24.408 15.7842C24.408 17.2402 23.96 18.3788 23.064 19.2002H58.064C58.96 18.3788 59.408 17.2402 59.408 15.7842H24.408Z" fill="black" stroke="white" stroke-width="2" stroke-linejoin="round"/>
<path d="M23.064 12.4238C23.96 13.2078 24.408 14.3278 24.408 15.7838H59.408C59.408 14.3278 58.96 13.2078 58.064 12.4238H23.064Z" fill="black" stroke="white" stroke-width="2" stroke-linejoin="round"/>
<path d="M29.336 2.792C26.648 1.59733 23.4933 1 19.872 1H54.872C58.4933 1 61.648 1.59733 64.336 2.792H29.336Z" fill="black" stroke="white" stroke-width="2" stroke-linejoin="round"/>
<path d="M19.872 30.5679C23.4933 30.5679 26.648 29.9705 29.336 28.7759H64.336C61.648 29.9705 58.4933 30.5679 54.872 30.5679H19.872Z" fill="black" stroke="white" stroke-width="2" stroke-linejoin="round"/>
<path d="M35.552 7.94399C34.096 5.70399 32.024 3.98666 29.336 2.79199H64.336C67.024 3.98666 69.096 5.70399 70.552 7.94399H35.552Z" fill="black" stroke="white" stroke-width="2" stroke-linejoin="round"/>
<path d="M29.336 28.776C32.024 27.5814 34.096 25.864 35.552 23.624H70.552C69.096 25.864 67.024 27.5814 64.336 28.776H29.336Z" fill="black" stroke="white" stroke-width="2" stroke-linejoin="round"/>
<path d="M37.736 15.7838C37.736 12.7972 37.008 10.1838 35.552 7.94385H70.552C72.008 10.1838 72.736 12.7972 72.736 15.7838H37.736Z" fill="black" stroke="white" stroke-width="2" stroke-linejoin="round"/>
<path d="M35.552 23.6242C37.008 21.3842 37.736 18.7708 37.736 15.7842H72.736C72.736 18.7708 72.008 21.3842 70.552 23.6242H35.552Z" fill="black" stroke="white" stroke-width="2" stroke-linejoin="round"/>
<path d="M45.3656 40.2002C42.0056 40.2002 38.6456 40.2002 38.6456 40.2002H73.6456C73.6456 40.2002 77.0056 40.2002 80.3656 40.2002H45.3656Z" stroke="white" stroke-width="2" stroke-linejoin="round"/>
<path d="M55.7816 1L38.6456 40.2H73.6456L90.7816 1H55.7816Z" fill="black" stroke="white" stroke-width="2" stroke-linejoin="round"/>
<path d="M52.0856 40.2002C52.0856 40.2002 48.7256 40.2002 45.3656 40.2002H80.3656C83.7256 40.2002 87.0856 40.2002 87.0856 40.2002H52.0856Z" stroke="white" stroke-width="2" stroke-linejoin="round"/>
<path d="M52.0856 40.2002L54.7176 33.3682H89.7176L87.0856 40.2002H52.0856Z" fill="black" stroke="white" stroke-width="2" stroke-linejoin="round"/>
<path d="M62.1656 33.3682C58.4416 33.3682 54.7176 33.3682 54.7176 33.3682H89.7176C89.7176 33.3682 93.4416 33.3682 97.1656 33.3682H62.1656Z" stroke="white" stroke-width="2" stroke-linejoin="round"/>
<path d="M55.7816 1C55.7816 1 59.0296 1 62.2776 1H97.2776C94.0296 1 90.7816 1 90.7816 1H55.7816Z" stroke="white" stroke-width="2" stroke-linejoin="round"/>
<path d="M58.3576 23.8482L62.1656 13.9922H97.1656L93.3576 23.8482H58.3576Z" fill="black" stroke="white" stroke-width="2" stroke-linejoin="round"/>
<path d="M58.3576 23.8481C58.3576 23.8481 60.2616 23.8481 62.1656 23.8481H97.1656C95.2616 23.8481 93.3576 23.8481 93.3576 23.8481H58.3576Z" stroke="white" stroke-width="2" stroke-linejoin="round"/>
<path d="M62.1656 13.9922L65.9736 23.8482H100.974L97.1656 13.9922H62.1656Z" fill="black" stroke="white" stroke-width="2" stroke-linejoin="round"/>
<path d="M62.1656 23.8481C64.0696 23.8481 65.9736 23.8481 65.9736 23.8481H100.974C100.974 23.8481 99.0696 23.8481 97.1656 23.8481H62.1656Z" stroke="white" stroke-width="2" stroke-linejoin="round"/>
<path d="M62.2776 1C65.5256 1 68.7736 1 68.7736 1H103.774C103.774 1 100.526 1 97.2776 1H62.2776Z" stroke="white" stroke-width="2" stroke-linejoin="round"/>
<path d="M69.6136 33.3682C69.6136 33.3682 65.8896 33.3682 62.1656 33.3682H97.1656C100.89 33.3682 104.614 33.3682 104.614 33.3682H69.6136Z" stroke="white" stroke-width="2" stroke-linejoin="round"/>
<path d="M69.6136 33.3682L72.2456 40.2002H107.246L104.614 33.3682H69.6136Z" fill="black" stroke="white" stroke-width="2" stroke-linejoin="round"/>
<path d="M79.0776 40.2002C75.6616 40.2002 72.2456 40.2002 72.2456 40.2002H107.246C107.246 40.2002 110.662 40.2002 114.078 40.2002H79.0776Z" stroke="white" stroke-width="2" stroke-linejoin="round"/>
<path d="M85.9096 40.2L68.7736 1H103.774L120.91 40.2H85.9096Z" fill="black" stroke="white" stroke-width="2" stroke-linejoin="round"/>
<path d="M85.9096 40.2002C85.9096 40.2002 82.4936 40.2002 79.0776 40.2002H114.078C117.494 40.2002 120.91 40.2002 120.91 40.2002H85.9096Z" stroke="white" stroke-width="2" stroke-linejoin="round"/>
<path d="M90.8188 1V40.2H125.819V1H90.8188Z" fill="black" stroke="white" stroke-width="2" stroke-linejoin="round"/>
<path d="M97.4268 40.2002C94.1228 40.2002 90.8188 40.2002 90.8188 40.2002H125.819C125.819 40.2002 129.123 40.2002 132.427 40.2002H97.4268Z" stroke="white" stroke-width="2" stroke-linejoin="round"/>
<path d="M90.8188 1C90.8188 1 95.5368 1 100.255 1H135.255C130.537 1 125.819 1 125.819 1H90.8188Z" stroke="white" stroke-width="2" stroke-linejoin="round"/>
<path d="M104.035 40.2002C104.035 40.2002 100.731 40.2002 97.4268 40.2002H132.427C135.731 40.2002 139.035 40.2002 139.035 40.2002H104.035Z" stroke="white" stroke-width="2" stroke-linejoin="round"/>
<path d="M104.035 40.2002V30.3442H139.035V40.2002H104.035Z" fill="black" stroke="white" stroke-width="2" stroke-linejoin="round"/>
<path d="M104.035 20.3759V11.1919H139.035V20.3759H104.035Z" fill="black" stroke="white" stroke-width="2" stroke-linejoin="round"/>
<path d="M105.827 30.3442C104.931 30.3442 104.035 30.3442 104.035 30.3442H139.035C139.035 30.3442 139.931 30.3442 140.827 30.3442H105.827Z" stroke="white" stroke-width="2" stroke-linejoin="round"/>
<path d="M100.255 1C104.973 1 109.691 1 109.691 1H144.691C144.691 1 139.973 1 135.255 1H100.255Z" stroke="white" stroke-width="2" stroke-linejoin="round"/>
<path d="M104.035 20.376C104.035 20.376 105.239 20.376 106.443 20.376H141.443C140.239 20.376 139.035 20.376 139.035 20.376H104.035Z" stroke="white" stroke-width="2" stroke-linejoin="round"/>
<path d="M106.443 11.1919C105.239 11.1919 104.035 11.1919 104.035 11.1919H139.035C139.035 11.1919 140.239 11.1919 141.443 11.1919H106.443Z" stroke="white" stroke-width="2" stroke-linejoin="round"/>
<path d="M107.619 30.3442C107.619 30.3442 106.723 30.3442 105.827 30.3442H140.827C141.723 30.3442 142.619 30.3442 142.619 30.3442H107.619Z" stroke="white" stroke-width="2" stroke-linejoin="round"/>
<path d="M108.851 11.1919C108.851 11.1919 107.647 11.1919 106.443 11.1919H141.443C142.647 11.1919 143.851 11.1919 143.851 11.1919H108.851Z" stroke="white" stroke-width="2" stroke-linejoin="round"/>
<path d="M106.443 20.376C107.647 20.376 108.851 20.376 108.851 20.376H143.851C143.851 20.376 142.647 20.376 141.443 20.376H106.443Z" stroke="white" stroke-width="2" stroke-linejoin="round"/>
<path d="M108.851 11.1919C110.643 11.1919 111.987 11.6026 112.883 12.4239H147.883C146.987 11.6026 145.643 11.1919 143.851 11.1919H108.851Z" fill="black" stroke="white" stroke-width="2" stroke-linejoin="round"/>
<path d="M112.883 19.2002C111.987 19.9842 110.643 20.3762 108.851 20.3762H143.851C145.643 20.3762 146.987 19.9842 147.883 19.2002H112.883Z" fill="black" stroke="white" stroke-width="2" stroke-linejoin="round"/>
<path d="M107.619 30.3442L114.283 40.2002H149.283L142.619 30.3442H107.619Z" fill="black" stroke="white" stroke-width="2" stroke-linejoin="round"/>
<path d="M112.883 12.4238C113.779 13.2078 114.227 14.3278 114.227 15.7838H149.227C149.227 14.3278 148.779 13.2078 147.883 12.4238H112.883Z" fill="black" stroke="white" stroke-width="2" stroke-linejoin="round"/>
<path d="M114.227 15.7842C114.227 17.2402 113.779 18.3788 112.883 19.2002H147.883C148.779 18.3788 149.227 17.2402 149.227 15.7842H114.227Z" fill="black" stroke="white" stroke-width="2" stroke-linejoin="round"/>
<path d="M119.155 2.792C116.467 1.59733 113.312 1 109.691 1H144.691C148.312 1 151.467 1.59733 154.155 2.792H119.155Z" fill="black" stroke="white" stroke-width="2" stroke-linejoin="round"/>
<path d="M121.339 40.2002C117.811 40.2002 114.283 40.2002 114.283 40.2002H149.283C149.283 40.2002 152.811 40.2002 156.339 40.2002H121.339Z" stroke="white" stroke-width="2" stroke-linejoin="round"/>
<path d="M125.371 7.94399C123.915 5.70399 121.843 3.98666 119.155 2.79199H154.155C156.843 3.98666 158.915 5.70399 160.371 7.94399H125.371Z" fill="black" stroke="white" stroke-width="2" stroke-linejoin="round"/>
<path d="M120.163 28.1041C122.552 26.8721 124.381 25.2108 125.651 23.1201H160.651C159.381 25.2108 157.552 26.8721 155.163 28.1041H120.163Z" fill="black" stroke="white" stroke-width="2" stroke-linejoin="round"/>
<path d="M128.395 40.2L120.163 28.104H155.163L163.395 40.2H128.395Z" fill="black" stroke="white" stroke-width="2" stroke-linejoin="round"/>
<path d="M128.395 40.2002C128.395 40.2002 124.867 40.2002 121.339 40.2002H156.339C159.867 40.2002 163.395 40.2002 163.395 40.2002H128.395Z" stroke="white" stroke-width="2" stroke-linejoin="round"/>
<path d="M127.555 15.7838C127.555 12.7972 126.827 10.1838 125.371 7.94385H160.371C161.827 10.1838 162.555 12.7972 162.555 15.7838H127.555Z" fill="black" stroke="white" stroke-width="2" stroke-linejoin="round"/>
<path d="M125.651 23.1202C126.92 21.0295 127.555 18.5842 127.555 15.7842H162.555C162.555 18.5842 161.92 21.0295 160.651 23.1202H125.651Z" fill="black" stroke="white" stroke-width="2" stroke-linejoin="round"/>
<path d="M131.83 1V11.248H166.83V1H131.83Z" fill="black" stroke="white" stroke-width="2" stroke-linejoin="round"/>
<path d="M137.57 11.248C134.7 11.248 131.83 11.248 131.83 11.248H166.83C166.83 11.248 169.7 11.248 172.57 11.248H137.57Z" stroke="white" stroke-width="2" stroke-linejoin="round"/>
<path d="M143.31 11.248C143.31 11.248 140.44 11.248 137.57 11.248H172.57C175.44 11.248 178.31 11.248 178.31 11.248H143.31Z" stroke="white" stroke-width="2" stroke-linejoin="round"/>
<path d="M131.83 1C131.83 1 140.874 1 149.918 1H184.918C175.874 1 166.83 1 166.83 1H131.83Z" stroke="white" stroke-width="2" stroke-linejoin="round"/>
<path d="M143.31 11.248V40.2001H178.31V11.248H143.31Z" fill="black" stroke="white" stroke-width="2" stroke-linejoin="round"/>
<path d="M149.918 40.2002C146.614 40.2002 143.31 40.2002 143.31 40.2002H178.31C178.31 40.2002 181.614 40.2002 184.918 40.2002H149.918Z" stroke="white" stroke-width="2" stroke-linejoin="round"/>
<path d="M156.526 40.2002C156.526 40.2002 153.222 40.2002 149.918 40.2002H184.918C188.222 40.2002 191.526 40.2002 191.526 40.2002H156.526Z" stroke="white" stroke-width="2" stroke-linejoin="round"/>
<path d="M156.526 40.2001V11.248H191.526V40.2001H156.526Z" fill="black" stroke="white" stroke-width="2" stroke-linejoin="round"/>
<path d="M149.918 1C158.962 1 168.006 1 168.006 1H203.006C203.006 1 193.962 1 184.918 1H149.918Z" stroke="white" stroke-width="2" stroke-linejoin="round"/>
<path d="M162.266 11.248C159.396 11.248 156.526 11.248 156.526 11.248H191.526C191.526 11.248 194.396 11.248 197.266 11.248H162.266Z" stroke="white" stroke-width="2" stroke-linejoin="round"/>
<path d="M168.006 11.248C168.006 11.248 165.136 11.248 162.266 11.248H197.266C200.136 11.248 203.006 11.248 203.006 11.248H168.006Z" stroke="white" stroke-width="2" stroke-linejoin="round"/>
<path d="M168.006 11.248V1H203.006V11.248H168.006Z" fill="black" stroke="white" stroke-width="2" stroke-linejoin="round"/>
<path d="M174.239 1V40.2H209.239V1H174.239Z" fill="black" stroke="white" stroke-width="2" stroke-linejoin="round"/>
<path d="M174.239 1C174.239 1 176.955 1 179.671 1H214.671C211.955 1 209.239 1 209.239 1H174.239Z" stroke="white" stroke-width="2" stroke-linejoin="round"/>
<path d="M180.679 40.2002C177.459 40.2002 174.239 40.2002 174.239 40.2002H209.239C209.239 40.2002 212.459 40.2002 215.679 40.2002H180.679Z" stroke="white" stroke-width="2" stroke-linejoin="round"/>
<path d="M179.671 1C182.387 1 185.103 1 185.103 1H220.103C220.103 1 217.387 1 214.671 1H179.671Z" stroke="white" stroke-width="2" stroke-linejoin="round"/>
<path d="M187.119 40.2002C187.119 40.2002 183.899 40.2002 180.679 40.2002H215.679C218.899 40.2002 222.119 40.2002 222.119 40.2002H187.119Z" stroke="white" stroke-width="2" stroke-linejoin="round"/>
<path d="M187.119 40.2001V22.3921H222.119V40.2001H187.119Z" fill="black" stroke="white" stroke-width="2" stroke-linejoin="round"/>
<path d="M199.999 18.808L185.103 1H220.103L234.999 18.808H199.999Z" fill="black" stroke="white" stroke-width="2" stroke-linejoin="round"/>
<path d="M187.119 22.3921L202.015 40.2001H237.015L222.119 22.3921H187.119Z" fill="black" stroke="white" stroke-width="2" stroke-linejoin="round"/>
<path d="M199.999 1V18.808H234.999V1H199.999Z" fill="black" stroke="white" stroke-width="2" stroke-linejoin="round"/>
<path d="M199.999 1C199.999 1 203.219 1 206.439 1H241.439C238.219 1 234.999 1 234.999 1H199.999Z" stroke="white" stroke-width="2" stroke-linejoin="round"/>
<path d="M207.447 40.2002C204.731 40.2002 202.015 40.2002 202.015 40.2002H237.015C237.015 40.2002 239.731 40.2002 242.447 40.2002H207.447Z" stroke="white" stroke-width="2" stroke-linejoin="round"/>
<path d="M206.439 1C209.659 1 212.879 1 212.879 1H247.879C247.879 1 244.659 1 241.439 1H206.439Z" stroke="white" stroke-width="2" stroke-linejoin="round"/>
<path d="M212.879 40.2002C212.879 40.2002 210.163 40.2002 207.447 40.2002H242.447C245.163 40.2002 247.879 40.2002 247.879 40.2002H212.879Z" stroke="white" stroke-width="2" stroke-linejoin="round"/>
<path d="M212.879 40.2V1H247.879V40.2H212.879Z" fill="black" stroke="white" stroke-width="2" stroke-linejoin="round"/>
<path d="M222.047 1V40.2H257.047V1H222.047Z" fill="black" stroke="white" stroke-width="2" stroke-linejoin="round"/>
<path d="M222.047 1C222.047 1 230.013 1 237.979 1H272.979C265.013 1 257.047 1 257.047 1H222.047Z" stroke="white" stroke-width="2" stroke-linejoin="round"/>
<path d="M238.343 40.2002C230.195 40.2002 222.047 40.2002 222.047 40.2002H257.047C257.047 40.2002 265.195 40.2002 273.343 40.2002H238.343Z" stroke="white" stroke-width="2" stroke-linejoin="round"/>
<path d="M235.039 15.5598V10.9678H270.039V15.5598H235.039Z" fill="black" stroke="white" stroke-width="2" stroke-linejoin="round"/>
<path d="M235.039 30.2321V25.0801H270.039V30.2321H235.039Z" fill="black" stroke="white" stroke-width="2" stroke-linejoin="round"/>
<path d="M235.039 15.5601C235.039 15.5601 239.183 15.5601 243.327 15.5601H278.327C274.183 15.5601 270.039 15.5601 270.039 15.5601H235.039Z" stroke="white" stroke-width="2" stroke-linejoin="round"/>
<path d="M243.327 25.0801C239.183 25.0801 235.039 25.0801 235.039 25.0801H270.039C270.039 25.0801 274.183 25.0801 278.327 25.0801H243.327Z" stroke="white" stroke-width="2" stroke-linejoin="round"/>
<path d="M244.475 10.9678C239.757 10.9678 235.039 10.9678 235.039 10.9678H270.039C270.039 10.9678 274.757 10.9678 279.475 10.9678H244.475Z" stroke="white" stroke-width="2" stroke-linejoin="round"/>
<path d="M235.039 30.2319C235.039 30.2319 239.939 30.2319 244.839 30.2319H279.839C274.939 30.2319 270.039 30.2319 270.039 30.2319H235.039Z" stroke="white" stroke-width="2" stroke-linejoin="round"/>
<path d="M237.979 1C245.945 1 253.911 1 253.911 1H288.911C288.911 1 280.945 1 272.979 1H237.979Z" stroke="white" stroke-width="2" stroke-linejoin="round"/>
<path d="M254.639 40.2002C254.639 40.2002 246.491 40.2002 238.343 40.2002H273.343C281.491 40.2002 289.639 40.2002 289.639 40.2002H254.639Z" stroke="white" stroke-width="2" stroke-linejoin="round"/>
<path d="M251.615 25.0801C251.615 25.0801 247.471 25.0801 243.327 25.0801H278.327C282.471 25.0801 286.615 25.0801 286.615 25.0801H251.615Z" stroke="white" stroke-width="2" stroke-linejoin="round"/>
<path d="M243.327 15.5601C247.471 15.5601 251.615 15.5601 251.615 15.5601H286.615C286.615 15.5601 282.471 15.5601 278.327 15.5601H243.327Z" stroke="white" stroke-width="2" stroke-linejoin="round"/>
<path d="M253.911 10.9678C253.911 10.9678 249.193 10.9678 244.475 10.9678H279.475C284.193 10.9678 288.911 10.9678 288.911 10.9678H253.911Z" stroke="white" stroke-width="2" stroke-linejoin="round"/>
<path d="M244.839 30.2319C249.739 30.2319 254.639 30.2319 254.639 30.2319H289.639C289.639 30.2319 284.739 30.2319 279.839 30.2319H244.839Z" stroke="white" stroke-width="2" stroke-linejoin="round"/>
<path d="M251.615 25.0801V15.5601H286.615V25.0801H251.615Z" fill="black" stroke="white" stroke-width="2" stroke-linejoin="round"/>
<path d="M253.911 10.968V1H288.911V10.968H253.911Z" fill="black" stroke="white" stroke-width="2" stroke-linejoin="round"/>
<path d="M254.639 40.1999V30.2319H289.639V40.1999H254.639Z" fill="black" stroke="white" stroke-width="2" stroke-linejoin="round"/>
<path d="M262.527 1V40.2H297.527V1H262.527Z" fill="black" stroke="white" stroke-width="2" stroke-linejoin="round"/>
<path d="M269.135 40.2002C265.831 40.2002 262.527 40.2002 262.527 40.2002H297.527C297.527 40.2002 300.831 40.2002 304.135 40.2002H269.135Z" stroke="white" stroke-width="2" stroke-linejoin="round"/>
<path d="M262.527 1C262.527 1 267.245 1 271.963 1H306.963C302.245 1 297.527 1 297.527 1H262.527Z" stroke="white" stroke-width="2" stroke-linejoin="round"/>
<path d="M275.743 40.2002C275.743 40.2002 272.439 40.2002 269.135 40.2002H304.135C307.439 40.2002 310.743 40.2002 310.743 40.2002H275.743Z" stroke="white" stroke-width="2" stroke-linejoin="round"/>
<path d="M275.743 40.2002V30.3442H310.743V40.2002H275.743Z" fill="black" stroke="white" stroke-width="2" stroke-linejoin="round"/>
<path d="M275.743 20.3759V11.1919H310.743V20.3759H275.743Z" fill="black" stroke="white" stroke-width="2" stroke-linejoin="round"/>
<path d="M277.535 30.3442C276.639 30.3442 275.743 30.3442 275.743 30.3442H310.743C310.743 30.3442 311.639 30.3442 312.535 30.3442H277.535Z" stroke="white" stroke-width="2" stroke-linejoin="round"/>
<path d="M271.963 1C276.681 1 281.399 1 281.399 1H316.399C316.399 1 311.681 1 306.963 1H271.963Z" stroke="white" stroke-width="2" stroke-linejoin="round"/>
<path d="M275.743 20.376C275.743 20.376 276.947 20.376 278.151 20.376H313.151C311.947 20.376 310.743 20.376 310.743 20.376H275.743Z" stroke="white" stroke-width="2" stroke-linejoin="round"/>
<path d="M278.151 11.1919C276.947 11.1919 275.743 11.1919 275.743 11.1919H310.743C310.743 11.1919 311.947 11.1919 313.151 11.1919H278.151Z" stroke="white" stroke-width="2" stroke-linejoin="round"/>
<path d="M279.327 30.3442C279.327 30.3442 278.431 30.3442 277.535 30.3442H312.535C313.431 30.3442 314.327 30.3442 314.327 30.3442H279.327Z" stroke="white" stroke-width="2" stroke-linejoin="round"/>
<path d="M280.559 11.1919C280.559 11.1919 279.355 11.1919 278.151 11.1919H313.151C314.355 11.1919 315.559 11.1919 315.559 11.1919H280.559Z" stroke="white" stroke-width="2" stroke-linejoin="round"/>
<path d="M278.151 20.376C279.355 20.376 280.559 20.376 280.559 20.376H315.559C315.559 20.376 314.355 20.376 313.151 20.376H278.151Z" stroke="white" stroke-width="2" stroke-linejoin="round"/>
<path d="M280.559 11.1919C282.351 11.1919 283.695 11.6026 284.591 12.4239H319.591C318.695 11.6026 317.351 11.1919 315.559 11.1919H280.559Z" fill="black" stroke="white" stroke-width="2" stroke-linejoin="round"/>
<path d="M284.591 19.2002C283.695 19.9842 282.351 20.3762 280.559 20.3762H315.559C317.351 20.3762 318.695 19.9842 319.591 19.2002H284.591Z" fill="black" stroke="white" stroke-width="2" stroke-linejoin="round"/>
<path d="M279.327 30.3442L285.991 40.2002H320.991L314.327 30.3442H279.327Z" fill="black" stroke="white" stroke-width="2" stroke-linejoin="round"/>
<path d="M284.591 12.4238C285.487 13.2078 285.935 14.3278 285.935 15.7838H320.935C320.935 14.3278 320.487 13.2078 319.591 12.4238H284.591Z" fill="black" stroke="white" stroke-width="2" stroke-linejoin="round"/>
<path d="M285.935 15.7842C285.935 17.2402 285.487 18.3788 284.591 19.2002H319.591C320.487 18.3788 320.935 17.2402 320.935 15.7842H285.935Z" fill="black" stroke="white" stroke-width="2" stroke-linejoin="round"/>
<path d="M290.863 2.792C288.175 1.59733 285.02 1 281.399 1H316.399C320.02 1 323.175 1.59733 325.863 2.792H290.863Z" fill="black" stroke="white" stroke-width="2" stroke-linejoin="round"/>
<path d="M293.047 40.2002C289.519 40.2002 285.991 40.2002 285.991 40.2002H320.991C320.991 40.2002 324.519 40.2002 328.047 40.2002H293.047Z" stroke="white" stroke-width="2" stroke-linejoin="round"/>
<path d="M297.079 7.94399C295.623 5.70399 293.551 3.98666 290.863 2.79199H325.863C328.551 3.98666 330.623 5.70399 332.079 7.94399H297.079Z" fill="black" stroke="white" stroke-width="2" stroke-linejoin="round"/>
<path d="M291.871 28.1041C294.26 26.8721 296.089 25.2108 297.359 23.1201H332.359C331.089 25.2108 329.26 26.8721 326.871 28.1041H291.871Z" fill="black" stroke="white" stroke-width="2" stroke-linejoin="round"/>
<path d="M300.103 40.2L291.871 28.104H326.871L335.103 40.2H300.103Z" fill="black" stroke="white" stroke-width="2" stroke-linejoin="round"/>
<path d="M300.103 40.2002C300.103 40.2002 296.575 40.2002 293.047 40.2002H328.047C331.575 40.2002 335.103 40.2002 335.103 40.2002H300.103Z" stroke="white" stroke-width="2" stroke-linejoin="round"/>
<path d="M299.263 15.7838C299.263 12.7972 298.535 10.1838 297.079 7.94385H332.079C333.535 10.1838 334.263 12.7972 334.263 15.7838H299.263Z" fill="black" stroke="white" stroke-width="2" stroke-linejoin="round"/>
<path d="M297.359 23.1202C298.628 21.0295 299.263 18.5842 299.263 15.7842H334.263C334.263 18.5842 333.628 21.0295 332.359 23.1202H297.359Z" fill="black" stroke="white" stroke-width="2" stroke-linejoin="round"/>
<path d="M19.872 1C23.4933 1 26.648 1.59733 29.336 2.792C32.024 3.98667 34.096 5.704 35.552 7.944C37.008 10.184 37.736 12.7973 37.736 15.784C37.736 18.7707 37.008 21.384 35.552 23.624C34.096 25.864 32.024 27.5813 29.336 28.776C26.648 29.9707 23.4933 30.568 19.872 30.568H14.216V40.2H1V1H19.872ZM19.032 20.376C20.824 20.376 22.168 19.984 23.064 19.2C23.96 18.3787 24.408 17.24 24.408 15.784C24.408 14.328 23.96 13.208 23.064 12.424C22.168 11.6027 20.824 11.192 19.032 11.192H14.216V20.376H19.032Z" fill="white"/>
<path d="M69.6136 33.368H54.7176L52.0856 40.2H38.6456L55.7816 1H68.7736L85.9096 40.2H72.2456L69.6136 33.368ZM65.9736 23.848L62.1656 13.992L58.3576 23.848H65.9736Z" fill="white"/>
<path d="M107.619 30.344H104.035V40.2H90.8188V1H109.691C113.312 1 116.467 1.59733 119.155 2.792C121.843 3.98667 123.915 5.704 125.371 7.944C126.827 10.184 127.555 12.7973 127.555 15.784C127.555 18.584 126.92 21.0293 125.651 23.12C124.381 25.2107 122.552 26.872 120.163 28.104L128.395 40.2H114.283L107.619 30.344ZM114.227 15.784C114.227 14.328 113.779 13.208 112.883 12.424C111.987 11.6027 110.643 11.192 108.851 11.192H104.035V20.376H108.851C110.643 20.376 111.987 19.984 112.883 19.2C113.779 18.3787 114.227 17.24 114.227 15.784Z" fill="white"/>
<path d="M143.31 11.248H131.83V1H168.006V11.248H156.526V40.2H143.31V11.248Z" fill="white"/>
<path d="M212.879 1V40.2H202.015L187.119 22.392V40.2H174.239V1H185.103L199.999 18.808V1H212.879Z" fill="white"/>
<path d="M254.639 30.232V40.2H222.047V1H253.911V10.968H235.039V15.56H251.615V25.08H235.039V30.232H254.639Z" fill="white"/>
<path d="M279.327 30.344H275.743V40.2H262.527V1H281.399C285.02 1 288.175 1.59733 290.863 2.792C293.551 3.98667 295.623 5.704 297.079 7.944C298.535 10.184 299.263 12.7973 299.263 15.784C299.263 18.584 298.628 21.0293 297.359 23.12C296.089 25.2107 294.26 26.872 291.871 28.104L300.103 40.2H285.991L279.327 30.344ZM285.935 15.784C285.935 14.328 285.487 13.208 284.591 12.424C283.695 11.6027 282.351 11.192 280.559 11.192H275.743V20.376H280.559C282.351 20.376 283.695 19.984 284.591 19.2C285.487 18.3787 285.935 17.24 285.935 15.784Z" fill="white"/>
<path d="M19.872 1C23.4933 1 26.648 1.59733 29.336 2.792C32.024 3.98667 34.096 5.704 35.552 7.944C37.008 10.184 37.736 12.7973 37.736 15.784C37.736 18.7707 37.008 21.384 35.552 23.624C34.096 25.864 32.024 27.5813 29.336 28.776C26.648 29.9707 23.4933 30.568 19.872 30.568H14.216V40.2H1V1H19.872ZM19.032 20.376C20.824 20.376 22.168 19.984 23.064 19.2C23.96 18.3787 24.408 17.24 24.408 15.784C24.408 14.328 23.96 13.208 23.064 12.424C22.168 11.6027 20.824 11.192 19.032 11.192H14.216V20.376H19.032Z" stroke="black" stroke-width="2"/>
<path d="M69.6136 33.368H54.7176L52.0856 40.2H38.6456L55.7816 1H68.7736L85.9096 40.2H72.2456L69.6136 33.368ZM65.9736 23.848L62.1656 13.992L58.3576 23.848H65.9736Z" stroke="black" stroke-width="2"/>
<path d="M107.619 30.344H104.035V40.2H90.8188V1H109.691C113.312 1 116.467 1.59733 119.155 2.792C121.843 3.98667 123.915 5.704 125.371 7.944C126.827 10.184 127.555 12.7973 127.555 15.784C127.555 18.584 126.92 21.0293 125.651 23.12C124.381 25.2107 122.552 26.872 120.163 28.104L128.395 40.2H114.283L107.619 30.344ZM114.227 15.784C114.227 14.328 113.779 13.208 112.883 12.424C111.987 11.6027 110.643 11.192 108.851 11.192H104.035V20.376H108.851C110.643 20.376 111.987 19.984 112.883 19.2C113.779 18.3787 114.227 17.24 114.227 15.784Z" stroke="black" stroke-width="2"/>
<path d="M143.31 11.248H131.83V1H168.006V11.248H156.526V40.2H143.31V11.248Z" stroke="black" stroke-width="2"/>
<path d="M212.879 1V40.2H202.015L187.119 22.392V40.2H174.239V1H185.103L199.999 18.808V1H212.879Z" stroke="black" stroke-width="2"/>
<path d="M254.639 30.232V40.2H222.047V1H253.911V10.968H235.039V15.56H251.615V25.08H235.039V30.232H254.639Z" stroke="black" stroke-width="2"/>
<path d="M279.327 30.344H275.743V40.2H262.527V1H281.399C285.02 1 288.175 1.59733 290.863 2.792C293.551 3.98667 295.623 5.704 297.079 7.944C298.535 10.184 299.263 12.7973 299.263 15.784C299.263 18.584 298.628 21.0293 297.359 23.12C296.089 25.2107 294.26 26.872 291.871 28.104L300.103 40.2H285.991L279.327 30.344ZM285.935 15.784C285.935 14.328 285.487 13.208 284.591 12.424C283.695 11.6027 282.351 11.192 280.559 11.192H275.743V20.376H280.559C282.351 20.376 283.695 19.984 284.591 19.2C285.487 18.3787 285.935 17.24 285.935 15.784Z" stroke="black" stroke-width="2"/>
</svg>
