<svg width="24" height="24" viewBox="0 0 24 24" fill="none" xmlns="http://www.w3.org/2000/svg">
<rect x="3" y="13" width="3" height="3" fill="black"/>
<rect x="2" y="14" width="3" height="3" fill="black"/>
<rect x="1" y="15" width="3" height="8" fill="black"/>
<rect x="3" y="18" width="3" height="3" fill="black"/>
<rect x="1" y="20" width="8" height="3" fill="black"/>
<rect x="5" y="11" width="3" height="3" fill="black"/>
<rect x="4" y="12" width="3" height="3" fill="black"/>
<rect x="6" y="10" width="3" height="3" fill="black"/>
<rect x="7" y="9" width="3" height="3" fill="black"/>
<rect x="12" y="4" width="3" height="3" fill="black"/>
<rect x="13" y="3" width="3" height="3" fill="black"/>
<rect x="14" y="2" width="3" height="3" fill="black"/>
<rect x="15" y="1" width="3" height="3" fill="black"/>
<rect x="16" y="2" width="3" height="3" fill="black"/>
<rect x="18" y="4" width="3" height="3" fill="black"/>
<rect x="17" y="3" width="3" height="3" fill="black"/>
<rect x="19" y="5" width="3" height="3" fill="black"/>
<rect x="8" y="8" width="3" height="3" fill="black"/>
<rect x="9" y="7" width="3" height="3" fill="black"/>
<rect x="10" y="6" width="3" height="3" fill="black"/>
<rect x="11" y="5" width="3" height="3" fill="black"/>
<rect x="7" y="19" width="3" height="3" fill="black"/>
<rect x="8" y="18" width="3" height="3" fill="black"/>
<rect x="9" y="17" width="3" height="3" fill="black"/>
<rect x="10" y="16" width="3" height="3" fill="black"/>
<rect x="15" y="11" width="3" height="3" fill="black"/>
<rect x="16" y="10" width="3" height="3" fill="black"/>
<rect x="17" y="9" width="3" height="3" fill="black"/>
<rect x="18" y="8" width="3" height="3" fill="black"/>
<rect x="19" y="7" width="3" height="3" fill="black"/>
<rect x="20" y="6" width="3" height="3" fill="black"/>
<rect x="11" y="15" width="3" height="3" fill="black"/>
<rect x="12" y="14" width="3" height="3" fill="black"/>
<rect x="13" y="13" width="3" height="3" fill="black"/>
<rect x="14" y="12" width="3" height="3" fill="black"/>
</svg>
