<svg width="16" height="17" viewBox="0 0 16 17" fill="none" xmlns="http://www.w3.org/2000/svg">
<rect x="2" y="9.16669" width="2" height="2" fill="#0000FF"/>
<rect x="1.3335" y="9.83337" width="2" height="2" fill="#0000FF"/>
<rect x="0.666748" y="10.5" width="2" height="5.33333" fill="#0000FF"/>
<rect x="2" y="12.5" width="2" height="2" fill="#0000FF"/>
<rect x="0.666748" y="13.8334" width="5.33333" height="2" fill="#0000FF"/>
<rect x="3.3335" y="7.83337" width="2" height="2" fill="#0000FF"/>
<rect x="2.66675" y="8.5" width="2" height="2" fill="#0000FF"/>
<rect x="4" y="7.16669" width="2" height="2" fill="#0000FF"/>
<rect x="4.66675" y="6.5" width="2" height="2" fill="#0000FF"/>
<rect x="8" y="3.16669" width="2" height="2" fill="#0000FF"/>
<rect x="8.66675" y="2.5" width="2" height="2" fill="#0000FF"/>
<rect x="9.3335" y="1.83337" width="2" height="2" fill="#0000FF"/>
<rect x="10" y="1.16669" width="2" height="2" fill="#0000FF"/>
<rect x="10.6667" y="1.83337" width="2" height="2" fill="#0000FF"/>
<rect x="12" y="3.16669" width="2" height="2" fill="#0000FF"/>
<rect x="11.3335" y="2.5" width="2" height="2" fill="#0000FF"/>
<rect x="12.6667" y="3.83337" width="2" height="2" fill="#0000FF"/>
<rect x="5.3335" y="5.83337" width="2" height="2" fill="#0000FF"/>
<rect x="6" y="5.16669" width="2" height="2" fill="#0000FF"/>
<rect x="6.66675" y="4.5" width="2" height="2" fill="#0000FF"/>
<rect x="7.3335" y="3.83337" width="2" height="2" fill="#0000FF"/>
<rect x="4.66675" y="13.1667" width="2" height="2" fill="#0000FF"/>
<rect x="5.3335" y="12.5" width="2" height="2" fill="#0000FF"/>
<rect x="6" y="11.8334" width="2" height="2" fill="#0000FF"/>
<rect x="6.66675" y="11.1667" width="2" height="2" fill="#0000FF"/>
<rect x="10" y="7.83337" width="2" height="2" fill="#0000FF"/>
<rect x="10.6667" y="7.16669" width="2" height="2" fill="#0000FF"/>
<rect x="11.3335" y="6.5" width="2" height="2" fill="#0000FF"/>
<rect x="12" y="5.83337" width="2" height="2" fill="#0000FF"/>
<rect x="12.6667" y="5.16669" width="2" height="2" fill="#0000FF"/>
<rect x="13.3335" y="4.5" width="2" height="2" fill="#0000FF"/>
<rect x="7.3335" y="10.5" width="2" height="2" fill="#0000FF"/>
<rect x="8" y="9.83337" width="2" height="2" fill="#0000FF"/>
<rect x="8.66675" y="9.16669" width="2" height="2" fill="#0000FF"/>
<rect x="9.3335" y="8.5" width="2" height="2" fill="#0000FF"/>
</svg>
