<svg width="239" height="43" viewBox="0 0 239 43" fill="none" xmlns="http://www.w3.org/2000/svg">
<path d="M45.436 1.896C50.154 1.896 54.872 1.896 54.872 1.896C58.4933 1.896 61.648 2.49333 64.336 3.688C67.024 4.88267 69.096 6.6 70.552 8.84C72.008 11.08 72.736 13.6933 72.736 16.68C72.736 19.6667 72.008 22.28 70.552 24.52C69.096 26.76 67.024 28.4773 64.336 29.672C61.648 30.8667 58.4933 31.464 54.872 31.464C54.872 31.464 53.458 31.464 52.044 31.464C50.63 31.464 49.216 31.464 49.216 31.464V41.096C49.216 41.096 45.912 41.096 42.608 41.096C39.304 41.096 36 41.096 36 41.096V1.896C36 1.896 40.718 1.896 45.436 1.896ZM51.624 21.272C52.828 21.272 54.032 21.272 54.032 21.272C55.824 21.272 57.168 20.88 58.064 20.096C58.96 19.2747 59.408 18.136 59.408 16.68C59.408 15.224 58.96 14.104 58.064 13.32C57.168 12.4987 55.824 12.088 54.032 12.088C54.032 12.088 52.828 12.088 51.624 12.088C50.42 12.088 49.216 12.088 49.216 12.088V21.272C49.216 21.272 50.42 21.272 51.624 21.272Z" fill="black"/>
<path d="M96.6703 31.24C96.6703 31.24 95.7743 31.24 94.8783 31.24C93.9823 31.24 93.0863 31.24 93.0863 31.24V41.096C93.0863 41.096 89.7823 41.096 86.4783 41.096C83.1743 41.096 79.8703 41.096 79.8703 41.096V1.896C79.8703 1.896 84.5883 1.896 89.3063 1.896C94.0243 1.896 98.7423 1.896 98.7423 1.896C102.364 1.896 105.518 2.49333 108.206 3.688C110.894 4.88267 112.966 6.6 114.422 8.84C115.878 11.08 116.606 13.6933 116.606 16.68C116.606 19.48 115.972 21.9253 114.702 24.016C113.433 26.1067 111.604 27.768 109.214 29L117.446 41.096C117.446 41.096 113.918 41.096 110.39 41.096C106.862 41.096 103.334 41.096 103.334 41.096L96.6703 31.24ZM103.278 16.68C103.278 15.224 102.83 14.104 101.934 13.32C101.038 12.4987 99.6943 12.088 97.9023 12.088C97.9023 12.088 96.6983 12.088 95.4943 12.088C94.2903 12.088 93.0863 12.088 93.0863 12.088V21.272C93.0863 21.272 94.2903 21.272 95.4943 21.272C96.6983 21.272 97.9023 21.272 97.9023 21.272C99.6943 21.272 101.038 20.88 101.934 20.096C102.83 19.2747 103.278 18.136 103.278 16.68Z" fill="black"/>
<path d="M147.189 31.128C152.089 31.128 156.989 31.128 156.989 31.128V41.096C156.989 41.096 148.841 41.096 140.693 41.096C132.545 41.096 124.397 41.096 124.397 41.096V1.896C124.397 1.896 132.363 1.896 140.329 1.896C148.295 1.896 156.261 1.896 156.261 1.896V11.864C156.261 11.864 151.543 11.864 146.825 11.864C142.107 11.864 137.389 11.864 137.389 11.864V16.456C137.389 16.456 141.533 16.456 145.677 16.456C149.821 16.456 153.965 16.456 153.965 16.456V25.976C153.965 25.976 149.821 25.976 145.677 25.976C141.533 25.976 137.389 25.976 137.389 25.976V31.128C137.389 31.128 142.289 31.128 147.189 31.128Z" fill="black"/>
<path d="M179.493 41.992C179.118 41.992 178.745 41.9873 178.373 41.9779C175.515 41.9056 172.714 41.5556 169.973 40.928C166.911 40.1813 164.391 39.192 162.413 37.96L166.669 28.328C168.535 29.4107 170.626 30.288 172.941 30.96C175.255 31.5947 177.477 31.912 179.605 31.912C181.434 31.912 182.741 31.744 183.525 31.408C184.309 31.0347 184.701 30.4933 184.701 29.784C184.701 28.9627 184.178 28.3467 183.133 27.936C182.125 27.5253 180.445 27.0773 178.093 26.592C175.069 25.9573 172.549 25.2853 170.533 24.576C168.517 23.8293 166.762 22.6347 165.269 20.992C163.775 19.312 163.029 17.0533 163.029 14.216C163.029 11.752 163.719 9.512 165.101 7.496C166.482 5.48 168.535 3.89333 171.261 2.736C174.023 1.57867 177.365 1 181.285 1C181.584 1 181.882 1.0037 182.18 1.01111C184.558 1.07021 186.891 1.36517 189.181 1.896C191.794 2.456 194.09 3.296 196.069 4.416L192.093 13.992C188.247 12.0507 184.607 11.08 181.173 11.08C177.775 11.08 176.077 11.9013 176.077 13.544C176.077 14.328 176.581 14.9253 177.589 15.336C178.597 15.7093 180.258 16.12 182.573 16.568C185.559 17.128 188.079 17.7813 190.133 18.528C192.186 19.2373 193.959 20.4133 195.453 22.056C196.983 23.6987 197.749 25.9387 197.749 28.776C197.749 31.24 197.058 33.48 195.677 35.496C194.295 37.4747 192.223 39.0613 189.461 40.256C186.735 41.4133 183.413 41.992 179.493 41.992Z" fill="black"/>
<path d="M219.097 41.992C218.723 41.992 218.35 41.9873 217.978 41.9779C215.119 41.9056 212.319 41.5556 209.577 40.928C206.516 40.1813 203.996 39.192 202.017 37.96L206.273 28.328C208.14 29.4107 210.231 30.288 212.545 30.96C214.86 31.5947 217.081 31.912 219.209 31.912C221.039 31.912 222.345 31.744 223.129 31.408C223.913 31.0347 224.305 30.4933 224.305 29.784C224.305 28.9627 223.783 28.3467 222.737 27.936C221.729 27.5253 220.049 27.0773 217.697 26.592C214.673 25.9573 212.153 25.2853 210.137 24.576C208.121 23.8293 206.367 22.6347 204.873 20.992C203.38 19.312 202.633 17.0533 202.633 14.216C202.633 11.752 203.324 9.512 204.705 7.496C206.087 5.48 208.14 3.89333 210.865 2.736C213.628 1.57867 216.969 1 220.889 1C221.189 1 221.487 1.0037 221.785 1.01111C224.163 1.07021 226.496 1.36517 228.785 1.896C231.399 2.456 233.695 3.296 235.673 4.416L231.697 13.992C227.852 12.0507 224.212 11.08 220.777 11.08C217.38 11.08 215.681 11.9013 215.681 13.544C215.681 14.328 216.185 14.9253 217.193 15.336C218.201 15.7093 219.863 16.12 222.177 16.568C225.164 17.128 227.684 17.7813 229.737 18.528C231.791 19.2373 233.564 20.4133 235.057 22.056C236.588 23.6987 237.353 25.9387 237.353 28.776C237.353 31.24 236.663 33.48 235.281 35.496C233.9 37.4747 231.828 39.0613 229.065 40.256C226.34 41.4133 223.017 41.992 219.097 41.992Z" fill="black"/>
<path d="M45.436 1.896C50.154 1.896 54.872 1.896 54.872 1.896C58.4933 1.896 61.648 2.49333 64.336 3.688C67.024 4.88267 69.096 6.6 70.552 8.84C72.008 11.08 72.736 13.6933 72.736 16.68C72.736 19.6667 72.008 22.28 70.552 24.52C69.096 26.76 67.024 28.4773 64.336 29.672C61.648 30.8667 58.4933 31.464 54.872 31.464C54.872 31.464 53.458 31.464 52.044 31.464C50.63 31.464 49.216 31.464 49.216 31.464V41.096C49.216 41.096 45.912 41.096 42.608 41.096C39.304 41.096 36 41.096 36 41.096V1.896C36 1.896 40.718 1.896 45.436 1.896ZM51.624 21.272C52.828 21.272 54.032 21.272 54.032 21.272C55.824 21.272 57.168 20.88 58.064 20.096C58.96 19.2747 59.408 18.136 59.408 16.68C59.408 15.224 58.96 14.104 58.064 13.32C57.168 12.4987 55.824 12.088 54.032 12.088C54.032 12.088 52.828 12.088 51.624 12.088C50.42 12.088 49.216 12.088 49.216 12.088V21.272C49.216 21.272 50.42 21.272 51.624 21.272Z" stroke="white" stroke-width="2"/>
<path d="M96.6703 31.24C96.6703 31.24 95.7743 31.24 94.8783 31.24C93.9823 31.24 93.0863 31.24 93.0863 31.24V41.096C93.0863 41.096 89.7823 41.096 86.4783 41.096C83.1743 41.096 79.8703 41.096 79.8703 41.096V1.896C79.8703 1.896 84.5883 1.896 89.3063 1.896C94.0243 1.896 98.7423 1.896 98.7423 1.896C102.364 1.896 105.518 2.49333 108.206 3.688C110.894 4.88267 112.966 6.6 114.422 8.84C115.878 11.08 116.606 13.6933 116.606 16.68C116.606 19.48 115.972 21.9253 114.702 24.016C113.433 26.1067 111.604 27.768 109.214 29L117.446 41.096C117.446 41.096 113.918 41.096 110.39 41.096C106.862 41.096 103.334 41.096 103.334 41.096L96.6703 31.24ZM103.278 16.68C103.278 15.224 102.83 14.104 101.934 13.32C101.038 12.4987 99.6943 12.088 97.9023 12.088C97.9023 12.088 96.6983 12.088 95.4943 12.088C94.2903 12.088 93.0863 12.088 93.0863 12.088V21.272C93.0863 21.272 94.2903 21.272 95.4943 21.272C96.6983 21.272 97.9023 21.272 97.9023 21.272C99.6943 21.272 101.038 20.88 101.934 20.096C102.83 19.2747 103.278 18.136 103.278 16.68Z" stroke="white" stroke-width="2"/>
<path d="M147.189 31.128C152.089 31.128 156.989 31.128 156.989 31.128V41.096C156.989 41.096 148.841 41.096 140.693 41.096C132.545 41.096 124.397 41.096 124.397 41.096V1.896C124.397 1.896 132.363 1.896 140.329 1.896C148.295 1.896 156.261 1.896 156.261 1.896V11.864C156.261 11.864 151.543 11.864 146.825 11.864C142.107 11.864 137.389 11.864 137.389 11.864V16.456C137.389 16.456 141.533 16.456 145.677 16.456C149.821 16.456 153.965 16.456 153.965 16.456V25.976C153.965 25.976 149.821 25.976 145.677 25.976C141.533 25.976 137.389 25.976 137.389 25.976V31.128C137.389 31.128 142.289 31.128 147.189 31.128Z" stroke="white" stroke-width="2"/>
<path d="M179.493 41.992C179.118 41.992 178.745 41.9873 178.373 41.9779C175.515 41.9056 172.714 41.5556 169.973 40.928C166.911 40.1813 164.391 39.192 162.413 37.96L166.669 28.328C168.535 29.4107 170.626 30.288 172.941 30.96C175.255 31.5947 177.477 31.912 179.605 31.912C181.434 31.912 182.741 31.744 183.525 31.408C184.309 31.0347 184.701 30.4933 184.701 29.784C184.701 28.9627 184.178 28.3467 183.133 27.936C182.125 27.5253 180.445 27.0773 178.093 26.592C175.069 25.9573 172.549 25.2853 170.533 24.576C168.517 23.8293 166.762 22.6347 165.269 20.992C163.775 19.312 163.029 17.0533 163.029 14.216C163.029 11.752 163.719 9.512 165.101 7.496C166.482 5.48 168.535 3.89333 171.261 2.736C174.023 1.57867 177.365 1 181.285 1C181.584 1 181.882 1.0037 182.18 1.01111C184.558 1.07021 186.891 1.36517 189.181 1.896C191.794 2.456 194.09 3.296 196.069 4.416L192.093 13.992C188.247 12.0507 184.607 11.08 181.173 11.08C177.775 11.08 176.077 11.9013 176.077 13.544C176.077 14.328 176.581 14.9253 177.589 15.336C178.597 15.7093 180.258 16.12 182.573 16.568C185.559 17.128 188.079 17.7813 190.133 18.528C192.186 19.2373 193.959 20.4133 195.453 22.056C196.983 23.6987 197.749 25.9387 197.749 28.776C197.749 31.24 197.058 33.48 195.677 35.496C194.295 37.4747 192.223 39.0613 189.461 40.256C186.735 41.4133 183.413 41.992 179.493 41.992Z" stroke="white" stroke-width="2"/>
<path d="M219.097 41.992C218.723 41.992 218.35 41.9873 217.978 41.9779C215.119 41.9056 212.319 41.5556 209.577 40.928C206.516 40.1813 203.996 39.192 202.017 37.96L206.273 28.328C208.14 29.4107 210.231 30.288 212.545 30.96C214.86 31.5947 217.081 31.912 219.209 31.912C221.039 31.912 222.345 31.744 223.129 31.408C223.913 31.0347 224.305 30.4933 224.305 29.784C224.305 28.9627 223.783 28.3467 222.737 27.936C221.729 27.5253 220.049 27.0773 217.697 26.592C214.673 25.9573 212.153 25.2853 210.137 24.576C208.121 23.8293 206.367 22.6347 204.873 20.992C203.38 19.312 202.633 17.0533 202.633 14.216C202.633 11.752 203.324 9.512 204.705 7.496C206.087 5.48 208.14 3.89333 210.865 2.736C213.628 1.57867 216.969 1 220.889 1C221.189 1 221.487 1.0037 221.785 1.01111C224.163 1.07021 226.496 1.36517 228.785 1.896C231.399 2.456 233.695 3.296 235.673 4.416L231.697 13.992C227.852 12.0507 224.212 11.08 220.777 11.08C217.38 11.08 215.681 11.9013 215.681 13.544C215.681 14.328 216.185 14.9253 217.193 15.336C218.201 15.7093 219.863 16.12 222.177 16.568C225.164 17.128 227.684 17.7813 229.737 18.528C231.791 19.2373 233.564 20.4133 235.057 22.056C236.588 23.6987 237.353 25.9387 237.353 28.776C237.353 31.24 236.663 33.48 235.281 35.496C233.9 37.4747 231.828 39.0613 229.065 40.256C226.34 41.4133 223.017 41.992 219.097 41.992Z" stroke="white" stroke-width="2"/>
<path d="M1 1.896V41.096H36V1.896H1Z" fill="black" stroke="white" stroke-width="2" stroke-linejoin="round"/>
<path d="M7.608 41.0962C4.304 41.0962 1 41.0962 1 41.0962H36C36 41.0962 39.304 41.0962 42.608 41.0962H7.608Z" stroke="white" stroke-width="2" stroke-linejoin="round"/>
<path d="M1 1.896C1 1.896 5.718 1.896 10.436 1.896H45.436C40.718 1.896 36 1.896 36 1.896H1Z" stroke="white" stroke-width="2" stroke-linejoin="round"/>
<path d="M14.216 41.0962C14.216 41.0962 10.912 41.0962 7.60797 41.0962H42.608C45.912 41.0962 49.216 41.0962 49.216 41.0962H14.216Z" stroke="white" stroke-width="2" stroke-linejoin="round"/>
<path d="M14.216 41.0959V31.4639H49.216V41.0959H14.216Z" fill="black" stroke="white" stroke-width="2" stroke-linejoin="round"/>
<path d="M14.216 21.2719V12.0879H49.216V21.2719H14.216Z" fill="black" stroke="white" stroke-width="2" stroke-linejoin="round"/>
<path d="M10.436 1.896C15.154 1.896 19.872 1.896 19.872 1.896H54.872C54.872 1.896 50.154 1.896 45.436 1.896H10.436Z" stroke="white" stroke-width="2" stroke-linejoin="round"/>
<path d="M14.216 21.272C14.216 21.272 15.42 21.272 16.624 21.272H51.624C50.42 21.272 49.216 21.272 49.216 21.272H14.216Z" stroke="white" stroke-width="2" stroke-linejoin="round"/>
<path d="M16.624 12.0879C15.42 12.0879 14.216 12.0879 14.216 12.0879H49.216C49.216 12.0879 50.42 12.0879 51.624 12.0879H16.624Z" stroke="white" stroke-width="2" stroke-linejoin="round"/>
<path d="M17.044 31.4639C15.63 31.4639 14.216 31.4639 14.216 31.4639H49.216C49.216 31.4639 50.63 31.4639 52.044 31.4639H17.044Z" stroke="white" stroke-width="2" stroke-linejoin="round"/>
<path d="M19.032 12.0879C19.032 12.0879 17.828 12.0879 16.624 12.0879H51.624C52.828 12.0879 54.032 12.0879 54.032 12.0879H19.032Z" stroke="white" stroke-width="2" stroke-linejoin="round"/>
<path d="M16.624 21.272C17.828 21.272 19.032 21.272 19.032 21.272H54.032C54.032 21.272 52.828 21.272 51.624 21.272H16.624Z" stroke="white" stroke-width="2" stroke-linejoin="round"/>
<path d="M19.872 31.4639C19.872 31.4639 18.458 31.4639 17.044 31.4639H52.044C53.458 31.4639 54.872 31.4639 54.872 31.4639H19.872Z" stroke="white" stroke-width="2" stroke-linejoin="round"/>
<path d="M23.064 20.0962C22.168 20.8802 20.824 21.2722 19.032 21.2722H54.032C55.824 21.2722 57.168 20.8802 58.064 20.0962H23.064Z" fill="black" stroke="white" stroke-width="2" stroke-linejoin="round"/>
<path d="M19.032 12.0879C20.824 12.0879 22.168 12.4986 23.064 13.3199H58.064C57.168 12.4986 55.824 12.0879 54.032 12.0879H19.032Z" fill="black" stroke="white" stroke-width="2" stroke-linejoin="round"/>
<path d="M24.408 16.6802C24.408 18.1362 23.96 19.2748 23.064 20.0962H58.064C58.96 19.2748 59.408 18.1362 59.408 16.6802H24.408Z" fill="black" stroke="white" stroke-width="2" stroke-linejoin="round"/>
<path d="M23.064 13.3198C23.96 14.1038 24.408 15.2238 24.408 16.6798H59.408C59.408 15.2238 58.96 14.1038 58.064 13.3198H23.064Z" fill="black" stroke="white" stroke-width="2" stroke-linejoin="round"/>
<path d="M29.336 3.688C26.648 2.49333 23.4933 1.896 19.872 1.896H54.872C58.4933 1.896 61.648 2.49333 64.336 3.688H29.336Z" fill="black" stroke="white" stroke-width="2" stroke-linejoin="round"/>
<path d="M19.872 31.4639C23.4933 31.4639 26.648 30.8665 29.336 29.6719H64.336C61.648 30.8665 58.4933 31.4639 54.872 31.4639H19.872Z" fill="black" stroke="white" stroke-width="2" stroke-linejoin="round"/>
<path d="M35.552 8.83999C34.096 6.59999 32.024 4.88266 29.336 3.68799H64.336C67.024 4.88266 69.096 6.59999 70.552 8.83999H35.552Z" fill="black" stroke="white" stroke-width="2" stroke-linejoin="round"/>
<path d="M29.336 29.672C32.024 28.4774 34.096 26.76 35.552 24.52H70.552C69.096 26.76 67.024 28.4774 64.336 29.672H29.336Z" fill="black" stroke="white" stroke-width="2" stroke-linejoin="round"/>
<path d="M37.736 16.6798C37.736 13.6932 37.008 11.0798 35.552 8.83984H70.552C72.008 11.0798 72.736 13.6932 72.736 16.6798H37.736Z" fill="black" stroke="white" stroke-width="2" stroke-linejoin="round"/>
<path d="M35.552 24.5202C37.008 22.2802 37.736 19.6668 37.736 16.6802H72.736C72.736 19.6668 72.008 22.2802 70.552 24.5202H35.552Z" fill="black" stroke="white" stroke-width="2" stroke-linejoin="round"/>
<path d="M44.8703 1.896V41.096H79.8703V1.896H44.8703Z" fill="black" stroke="white" stroke-width="2" stroke-linejoin="round"/>
<path d="M51.4783 41.0962C48.1743 41.0962 44.8703 41.0962 44.8703 41.0962H79.8703C79.8703 41.0962 83.1743 41.0962 86.4783 41.0962H51.4783Z" stroke="white" stroke-width="2" stroke-linejoin="round"/>
<path d="M44.8703 1.896C44.8703 1.896 49.5883 1.896 54.3063 1.896H89.3063C84.5883 1.896 79.8703 1.896 79.8703 1.896H44.8703Z" stroke="white" stroke-width="2" stroke-linejoin="round"/>
<path d="M58.0863 41.0962C58.0863 41.0962 54.7823 41.0962 51.4783 41.0962H86.4783C89.7823 41.0962 93.0863 41.0962 93.0863 41.0962H58.0863Z" stroke="white" stroke-width="2" stroke-linejoin="round"/>
<path d="M58.0863 41.0962V31.2402H93.0863V41.0962H58.0863Z" fill="black" stroke="white" stroke-width="2" stroke-linejoin="round"/>
<path d="M58.0863 21.2719V12.0879H93.0863V21.2719H58.0863Z" fill="black" stroke="white" stroke-width="2" stroke-linejoin="round"/>
<path d="M59.8783 31.2402C58.9823 31.2402 58.0863 31.2402 58.0863 31.2402H93.0863C93.0863 31.2402 93.9823 31.2402 94.8783 31.2402H59.8783Z" stroke="white" stroke-width="2" stroke-linejoin="round"/>
<path d="M54.3063 1.896C59.0243 1.896 63.7423 1.896 63.7423 1.896H98.7423C98.7423 1.896 94.0243 1.896 89.3063 1.896H54.3063Z" stroke="white" stroke-width="2" stroke-linejoin="round"/>
<path d="M58.0863 21.272C58.0863 21.272 59.2903 21.272 60.4943 21.272H95.4943C94.2903 21.272 93.0863 21.272 93.0863 21.272H58.0863Z" stroke="white" stroke-width="2" stroke-linejoin="round"/>
<path d="M60.4943 12.0879C59.2903 12.0879 58.0863 12.0879 58.0863 12.0879H93.0863C93.0863 12.0879 94.2903 12.0879 95.4943 12.0879H60.4943Z" stroke="white" stroke-width="2" stroke-linejoin="round"/>
<path d="M61.6703 31.2402C61.6703 31.2402 60.7743 31.2402 59.8783 31.2402H94.8783C95.7743 31.2402 96.6703 31.2402 96.6703 31.2402H61.6703Z" stroke="white" stroke-width="2" stroke-linejoin="round"/>
<path d="M62.9023 12.0879C62.9023 12.0879 61.6983 12.0879 60.4943 12.0879H95.4943C96.6983 12.0879 97.9023 12.0879 97.9023 12.0879H62.9023Z" stroke="white" stroke-width="2" stroke-linejoin="round"/>
<path d="M60.4943 21.272C61.6983 21.272 62.9023 21.272 62.9023 21.272H97.9023C97.9023 21.272 96.6983 21.272 95.4943 21.272H60.4943Z" stroke="white" stroke-width="2" stroke-linejoin="round"/>
<path d="M62.9023 12.0879C64.6943 12.0879 66.0383 12.4986 66.9343 13.3199H101.934C101.038 12.4986 99.6943 12.0879 97.9023 12.0879H62.9023Z" fill="black" stroke="white" stroke-width="2" stroke-linejoin="round"/>
<path d="M66.9343 20.0962C66.0383 20.8802 64.6943 21.2722 62.9023 21.2722H97.9023C99.6943 21.2722 101.038 20.8802 101.934 20.0962H66.9343Z" fill="black" stroke="white" stroke-width="2" stroke-linejoin="round"/>
<path d="M61.6703 31.2402L68.3343 41.0962H103.334L96.6703 31.2402H61.6703Z" fill="black" stroke="white" stroke-width="2" stroke-linejoin="round"/>
<path d="M66.9343 13.3198C67.8303 14.1038 68.2783 15.2238 68.2783 16.6798H103.278C103.278 15.2238 102.83 14.1038 101.934 13.3198H66.9343Z" fill="black" stroke="white" stroke-width="2" stroke-linejoin="round"/>
<path d="M68.2783 16.6802C68.2783 18.1362 67.8303 19.2748 66.9343 20.0962H101.934C102.83 19.2748 103.278 18.1362 103.278 16.6802H68.2783Z" fill="black" stroke="white" stroke-width="2" stroke-linejoin="round"/>
<path d="M73.2063 3.688C70.5183 2.49333 67.3636 1.896 63.7423 1.896H98.7423C102.364 1.896 105.518 2.49333 108.206 3.688H73.2063Z" fill="black" stroke="white" stroke-width="2" stroke-linejoin="round"/>
<path d="M75.3903 41.0962C71.8623 41.0962 68.3343 41.0962 68.3343 41.0962H103.334C103.334 41.0962 106.862 41.0962 110.39 41.0962H75.3903Z" stroke="white" stroke-width="2" stroke-linejoin="round"/>
<path d="M79.4223 8.83999C77.9663 6.59999 75.8943 4.88266 73.2063 3.68799H108.206C110.894 4.88266 112.966 6.59999 114.422 8.83999H79.4223Z" fill="black" stroke="white" stroke-width="2" stroke-linejoin="round"/>
<path d="M74.2143 29.0001C76.6036 27.7681 78.433 26.1068 79.7023 24.0161H114.702C113.433 26.1068 111.604 27.7681 109.214 29.0001H74.2143Z" fill="black" stroke="white" stroke-width="2" stroke-linejoin="round"/>
<path d="M82.4463 41.096L74.2143 29H109.214L117.446 41.096H82.4463Z" fill="black" stroke="white" stroke-width="2" stroke-linejoin="round"/>
<path d="M82.4463 41.0962C82.4463 41.0962 78.9183 41.0962 75.3903 41.0962H110.39C113.918 41.0962 117.446 41.0962 117.446 41.0962H82.4463Z" stroke="white" stroke-width="2" stroke-linejoin="round"/>
<path d="M81.6063 16.6798C81.6063 13.6932 80.8783 11.0798 79.4223 8.83984H114.422C115.878 11.0798 116.606 13.6932 116.606 16.6798H81.6063Z" fill="black" stroke="white" stroke-width="2" stroke-linejoin="round"/>
<path d="M79.7023 24.0162C80.9716 21.9255 81.6063 19.4802 81.6063 16.6802H116.606C116.606 19.4802 115.972 21.9255 114.702 24.0162H79.7023Z" fill="black" stroke="white" stroke-width="2" stroke-linejoin="round"/>
<path d="M89.3969 1.896V41.096H124.397V1.896H89.3969Z" fill="black" stroke="white" stroke-width="2" stroke-linejoin="round"/>
<path d="M89.3969 1.896C89.3969 1.896 97.3629 1.896 105.329 1.896H140.329C132.363 1.896 124.397 1.896 124.397 1.896H89.3969Z" stroke="white" stroke-width="2" stroke-linejoin="round"/>
<path d="M105.693 41.0962C97.5448 41.0962 89.3969 41.0962 89.3969 41.0962H124.397C124.397 41.0962 132.545 41.0962 140.693 41.0962H105.693Z" stroke="white" stroke-width="2" stroke-linejoin="round"/>
<path d="M102.389 16.4558V11.8638H137.389V16.4558H102.389Z" fill="black" stroke="white" stroke-width="2" stroke-linejoin="round"/>
<path d="M102.389 31.1281V25.9761H137.389V31.1281H102.389Z" fill="black" stroke="white" stroke-width="2" stroke-linejoin="round"/>
<path d="M102.389 16.4561C102.389 16.4561 106.533 16.4561 110.677 16.4561H145.677C141.533 16.4561 137.389 16.4561 137.389 16.4561H102.389Z" stroke="white" stroke-width="2" stroke-linejoin="round"/>
<path d="M110.677 25.9761C106.533 25.9761 102.389 25.9761 102.389 25.9761H137.389C137.389 25.9761 141.533 25.9761 145.677 25.9761H110.677Z" stroke="white" stroke-width="2" stroke-linejoin="round"/>
<path d="M111.825 11.8638C107.107 11.8638 102.389 11.8638 102.389 11.8638H137.389C137.389 11.8638 142.107 11.8638 146.825 11.8638H111.825Z" stroke="white" stroke-width="2" stroke-linejoin="round"/>
<path d="M102.389 31.1279C102.389 31.1279 107.289 31.1279 112.189 31.1279H147.189C142.289 31.1279 137.389 31.1279 137.389 31.1279H102.389Z" stroke="white" stroke-width="2" stroke-linejoin="round"/>
<path d="M105.329 1.896C113.295 1.896 121.261 1.896 121.261 1.896H156.261C156.261 1.896 148.295 1.896 140.329 1.896H105.329Z" stroke="white" stroke-width="2" stroke-linejoin="round"/>
<path d="M121.989 41.0962C121.989 41.0962 113.841 41.0962 105.693 41.0962H140.693C148.841 41.0962 156.989 41.0962 156.989 41.0962H121.989Z" stroke="white" stroke-width="2" stroke-linejoin="round"/>
<path d="M118.965 25.9761C118.965 25.9761 114.821 25.9761 110.677 25.9761H145.677C149.821 25.9761 153.965 25.9761 153.965 25.9761H118.965Z" stroke="white" stroke-width="2" stroke-linejoin="round"/>
<path d="M110.677 16.4561C114.821 16.4561 118.965 16.4561 118.965 16.4561H153.965C153.965 16.4561 149.821 16.4561 145.677 16.4561H110.677Z" stroke="white" stroke-width="2" stroke-linejoin="round"/>
<path d="M121.261 11.8638C121.261 11.8638 116.543 11.8638 111.825 11.8638H146.825C151.543 11.8638 156.261 11.8638 156.261 11.8638H121.261Z" stroke="white" stroke-width="2" stroke-linejoin="round"/>
<path d="M112.189 31.1279C117.089 31.1279 121.989 31.1279 121.989 31.1279H156.989C156.989 31.1279 152.089 31.1279 147.189 31.1279H112.189Z" stroke="white" stroke-width="2" stroke-linejoin="round"/>
<path d="M118.965 25.9761V16.4561H153.965V25.9761H118.965Z" fill="black" stroke="white" stroke-width="2" stroke-linejoin="round"/>
<path d="M121.261 11.864V1.896H156.261V11.864H121.261Z" fill="black" stroke="white" stroke-width="2" stroke-linejoin="round"/>
<path d="M121.989 41.0959V31.1279H156.989V41.0959H121.989Z" fill="black" stroke="white" stroke-width="2" stroke-linejoin="round"/>
<path d="M130.101 7.49609C128.719 9.51209 128.029 11.7521 128.029 14.2161H163.029C163.029 11.7521 163.719 9.51209 165.101 7.49609H130.101Z" fill="black" stroke="white" stroke-width="2" stroke-linejoin="round"/>
<path d="M128.029 14.2158C128.029 17.0532 128.775 19.3118 130.269 20.9918H165.269C163.775 19.3118 163.029 17.0532 163.029 14.2158H128.029Z" fill="black" stroke="white" stroke-width="2" stroke-linejoin="round"/>
<path d="M131.669 28.3281L127.413 37.9601H162.413L166.669 28.3281H131.669Z" fill="black" stroke="white" stroke-width="2" stroke-linejoin="round"/>
<path d="M127.413 37.96C129.391 39.192 131.911 40.1813 134.973 40.928H169.973C166.911 40.1813 164.391 39.192 162.413 37.96H127.413Z" fill="black" stroke="white" stroke-width="2" stroke-linejoin="round"/>
<path d="M130.269 20.9922C131.762 22.6349 133.517 23.8295 135.533 24.5762H170.533C168.517 23.8295 166.762 22.6349 165.269 20.9922H130.269Z" fill="black" stroke="white" stroke-width="2" stroke-linejoin="round"/>
<path d="M136.261 2.73584C133.535 3.89317 131.482 5.47984 130.101 7.49584H165.101C166.482 5.47984 168.535 3.89317 171.261 2.73584H136.261Z" fill="black" stroke="white" stroke-width="2" stroke-linejoin="round"/>
<path d="M137.941 30.9601C135.626 30.2881 133.535 29.4108 131.669 28.3281H166.669C168.535 29.4108 170.626 30.2881 172.941 30.9601H137.941Z" fill="black" stroke="white" stroke-width="2" stroke-linejoin="round"/>
<path d="M134.973 40.9282C137.714 41.5559 140.515 41.9058 143.373 41.9781H178.373C175.515 41.9058 172.714 41.5559 169.973 40.9282H134.973Z" fill="black" stroke="white" stroke-width="2" stroke-linejoin="round"/>
<path d="M135.533 24.5762C137.549 25.2855 140.069 25.9575 143.093 26.5922H178.093C175.069 25.9575 172.549 25.2855 170.533 24.5762H135.533Z" fill="black" stroke="white" stroke-width="2" stroke-linejoin="round"/>
<path d="M144.605 31.912C142.477 31.912 140.255 31.5946 137.941 30.96H172.941C175.255 31.5946 177.477 31.912 179.605 31.912H144.605Z" fill="black" stroke="white" stroke-width="2" stroke-linejoin="round"/>
<path d="M146.285 1C142.365 1 139.023 1.57867 136.261 2.736H171.261C174.023 1.57867 177.365 1 181.285 1H146.285Z" fill="black" stroke="white" stroke-width="2" stroke-linejoin="round"/>
<path d="M142.589 15.3359C141.581 14.9253 141.077 14.3279 141.077 13.5439H176.077C176.077 14.3279 176.581 14.9253 177.589 15.3359H142.589Z" fill="black" stroke="white" stroke-width="2" stroke-linejoin="round"/>
<path d="M141.077 13.5441C141.077 11.9014 142.775 11.0801 146.173 11.0801H181.173C177.775 11.0801 176.077 11.9014 176.077 13.5441H141.077Z" fill="black" stroke="white" stroke-width="2" stroke-linejoin="round"/>
<path d="M143.373 41.978C143.745 41.9874 144.119 41.9921 144.493 41.9921H179.493C179.119 41.9921 178.745 41.9874 178.373 41.978H143.373Z" fill="black" stroke="white" stroke-width="2" stroke-linejoin="round"/>
<path d="M147.573 16.5679C145.258 16.1199 143.597 15.7093 142.589 15.3359H177.589C178.597 15.7093 180.258 16.1199 182.573 16.5679H147.573Z" fill="black" stroke="white" stroke-width="2" stroke-linejoin="round"/>
<path d="M143.093 26.5918C145.445 27.0771 147.125 27.5251 148.133 27.9358H183.133C182.125 27.5251 180.445 27.0771 178.093 26.5918H143.093Z" fill="black" stroke="white" stroke-width="2" stroke-linejoin="round"/>
<path d="M148.525 31.4082C147.741 31.7442 146.434 31.9122 144.605 31.9122H179.605C181.434 31.9122 182.741 31.7442 183.525 31.4082H148.525Z" fill="black" stroke="white" stroke-width="2" stroke-linejoin="round"/>
<path d="M147.18 1.01111C146.882 1.0037 146.584 1 146.285 1H181.285C181.584 1 181.882 1.0037 182.18 1.01111H147.18Z" fill="black" stroke="white" stroke-width="2" stroke-linejoin="round"/>
<path d="M148.133 27.936C149.178 28.3467 149.701 28.9627 149.701 29.784H184.701C184.701 28.9627 184.178 28.3467 183.133 27.936H148.133Z" fill="black" stroke="white" stroke-width="2" stroke-linejoin="round"/>
<path d="M149.701 29.7842C149.701 30.4935 149.309 31.0348 148.525 31.4082H183.525C184.309 31.0348 184.701 30.4935 184.701 29.7842H149.701Z" fill="black" stroke="white" stroke-width="2" stroke-linejoin="round"/>
<path d="M144.493 41.9919C148.413 41.9919 151.735 41.4132 154.461 40.2559H189.461C186.735 41.4132 183.413 41.9919 179.493 41.9919H144.493Z" fill="black" stroke="white" stroke-width="2" stroke-linejoin="round"/>
<path d="M154.181 1.89612C151.891 1.3653 149.558 1.07033 147.18 1.01123H182.18C184.558 1.07033 186.891 1.3653 189.181 1.89612H154.181Z" fill="black" stroke="white" stroke-width="2" stroke-linejoin="round"/>
<path d="M155.133 18.5279C153.079 17.7812 150.559 17.1279 147.573 16.5679H182.573C185.559 17.1279 188.079 17.7812 190.133 18.5279H155.133Z" fill="black" stroke="white" stroke-width="2" stroke-linejoin="round"/>
<path d="M146.173 11.0801C149.607 11.0801 153.247 12.0507 157.093 13.9921H192.093C188.247 12.0507 184.607 11.0801 181.173 11.0801H146.173Z" fill="black" stroke="white" stroke-width="2" stroke-linejoin="round"/>
<path d="M154.461 40.2561C157.223 39.0614 159.295 37.4748 160.677 35.4961H195.677C194.295 37.4748 192.223 39.0614 189.461 40.2561H154.461Z" fill="black" stroke="white" stroke-width="2" stroke-linejoin="round"/>
<path d="M161.069 4.416C159.09 3.296 156.794 2.456 154.181 1.896H189.181C191.794 2.456 194.09 3.296 196.069 4.416H161.069Z" fill="black" stroke="white" stroke-width="2" stroke-linejoin="round"/>
<path d="M160.453 22.0558C158.959 20.4132 157.186 19.2372 155.133 18.5278H190.133C192.186 19.2372 193.959 20.4132 195.453 22.0558H160.453Z" fill="black" stroke="white" stroke-width="2" stroke-linejoin="round"/>
<path d="M157.093 13.992L161.069 4.41602H196.069L192.093 13.992H157.093Z" fill="black" stroke="white" stroke-width="2" stroke-linejoin="round"/>
<path d="M162.749 28.7762C162.749 25.9388 161.983 23.6988 160.453 22.0562H195.453C196.983 23.6988 197.749 25.9388 197.749 28.7762H162.749Z" fill="black" stroke="white" stroke-width="2" stroke-linejoin="round"/>
<path d="M160.677 35.4959C162.058 33.4799 162.749 31.2399 162.749 28.7759H197.749C197.749 31.2399 197.058 33.4799 195.677 35.4959H160.677Z" fill="black" stroke="white" stroke-width="2" stroke-linejoin="round"/>
<path d="M169.705 7.49609C168.324 9.51209 167.633 11.7521 167.633 14.2161H202.633C202.633 11.7521 203.324 9.51209 204.705 7.49609H169.705Z" fill="black" stroke="white" stroke-width="2" stroke-linejoin="round"/>
<path d="M167.633 14.2158C167.633 17.0532 168.38 19.3118 169.873 20.9918H204.873C203.38 19.3118 202.633 17.0532 202.633 14.2158H167.633Z" fill="black" stroke="white" stroke-width="2" stroke-linejoin="round"/>
<path d="M171.273 28.3281L167.017 37.9601H202.017L206.273 28.3281H171.273Z" fill="black" stroke="white" stroke-width="2" stroke-linejoin="round"/>
<path d="M167.017 37.96C168.996 39.192 171.516 40.1813 174.577 40.928H209.577C206.516 40.1813 203.996 39.192 202.017 37.96H167.017Z" fill="black" stroke="white" stroke-width="2" stroke-linejoin="round"/>
<path d="M169.873 20.9922C171.367 22.6349 173.121 23.8295 175.137 24.5762H210.137C208.121 23.8295 206.367 22.6349 204.873 20.9922H169.873Z" fill="black" stroke="white" stroke-width="2" stroke-linejoin="round"/>
<path d="M175.865 2.73584C173.14 3.89317 171.087 5.47984 169.705 7.49584H204.705C206.087 5.47984 208.14 3.89317 210.865 2.73584H175.865Z" fill="black" stroke="white" stroke-width="2" stroke-linejoin="round"/>
<path d="M177.545 30.9601C175.231 30.2881 173.14 29.4108 171.273 28.3281H206.273C208.14 29.4108 210.231 30.2881 212.545 30.9601H177.545Z" fill="black" stroke="white" stroke-width="2" stroke-linejoin="round"/>
<path d="M174.577 40.9282C177.319 41.5559 180.119 41.9058 182.978 41.9781H217.978C215.119 41.9058 212.319 41.5559 209.577 40.9282H174.577Z" fill="black" stroke="white" stroke-width="2" stroke-linejoin="round"/>
<path d="M175.137 24.5762C177.153 25.2855 179.673 25.9575 182.697 26.5922H217.697C214.673 25.9575 212.153 25.2855 210.137 24.5762H175.137Z" fill="black" stroke="white" stroke-width="2" stroke-linejoin="round"/>
<path d="M184.209 31.912C182.081 31.912 179.86 31.5946 177.545 30.96H212.545C214.86 31.5946 217.081 31.912 219.209 31.912H184.209Z" fill="black" stroke="white" stroke-width="2" stroke-linejoin="round"/>
<path d="M185.889 1C181.969 1 178.628 1.57867 175.865 2.736H210.865C213.628 1.57867 216.969 1 220.889 1H185.889Z" fill="black" stroke="white" stroke-width="2" stroke-linejoin="round"/>
<path d="M182.193 15.3359C181.185 14.9253 180.681 14.3279 180.681 13.5439H215.681C215.681 14.3279 216.185 14.9253 217.193 15.3359H182.193Z" fill="black" stroke="white" stroke-width="2" stroke-linejoin="round"/>
<path d="M180.681 13.5441C180.681 11.9014 182.38 11.0801 185.777 11.0801H220.777C217.38 11.0801 215.681 11.9014 215.681 13.5441H180.681Z" fill="black" stroke="white" stroke-width="2" stroke-linejoin="round"/>
<path d="M182.978 41.978C183.35 41.9874 183.723 41.9921 184.097 41.9921H219.097C218.723 41.9921 218.35 41.9874 217.978 41.978H182.978Z" fill="black" stroke="white" stroke-width="2" stroke-linejoin="round"/>
<path d="M187.177 16.5679C184.863 16.1199 183.201 15.7093 182.193 15.3359H217.193C218.201 15.7093 219.863 16.1199 222.177 16.5679H187.177Z" fill="black" stroke="white" stroke-width="2" stroke-linejoin="round"/>
<path d="M182.697 26.5918C185.049 27.0771 186.729 27.5251 187.737 27.9358H222.737C221.729 27.5251 220.049 27.0771 217.697 26.5918H182.697Z" fill="black" stroke="white" stroke-width="2" stroke-linejoin="round"/>
<path d="M188.129 31.4082C187.345 31.7442 186.039 31.9122 184.209 31.9122H219.209C221.039 31.9122 222.345 31.7442 223.129 31.4082H188.129Z" fill="black" stroke="white" stroke-width="2" stroke-linejoin="round"/>
<path d="M186.785 1.01111C186.487 1.0037 186.189 1 185.889 1H220.889C221.189 1 221.487 1.0037 221.785 1.01111H186.785Z" fill="black" stroke="white" stroke-width="2" stroke-linejoin="round"/>
<path d="M187.737 27.936C188.783 28.3467 189.305 28.9627 189.305 29.784H224.305C224.305 28.9627 223.783 28.3467 222.737 27.936H187.737Z" fill="black" stroke="white" stroke-width="2" stroke-linejoin="round"/>
<path d="M189.305 29.7842C189.305 30.4935 188.913 31.0348 188.129 31.4082H223.129C223.913 31.0348 224.305 30.4935 224.305 29.7842H189.305Z" fill="black" stroke="white" stroke-width="2" stroke-linejoin="round"/>
<path d="M184.097 41.9919C188.017 41.9919 191.34 41.4132 194.065 40.2559H229.065C226.34 41.4132 223.017 41.9919 219.097 41.9919H184.097Z" fill="black" stroke="white" stroke-width="2" stroke-linejoin="round"/>
<path d="M193.785 1.89612C191.496 1.3653 189.163 1.07033 186.785 1.01123H221.785C224.163 1.07033 226.496 1.3653 228.785 1.89612H193.785Z" fill="black" stroke="white" stroke-width="2" stroke-linejoin="round"/>
<path d="M194.737 18.5279C192.684 17.7812 190.164 17.1279 187.177 16.5679H222.177C225.164 17.1279 227.684 17.7812 229.737 18.5279H194.737Z" fill="black" stroke="white" stroke-width="2" stroke-linejoin="round"/>
<path d="M185.777 11.0801C189.212 11.0801 192.852 12.0507 196.697 13.9921H231.697C227.852 12.0507 224.212 11.0801 220.777 11.0801H185.777Z" fill="black" stroke="white" stroke-width="2" stroke-linejoin="round"/>
<path d="M194.065 40.2561C196.828 39.0614 198.9 37.4748 200.281 35.4961H235.281C233.9 37.4748 231.828 39.0614 229.065 40.2561H194.065Z" fill="black" stroke="white" stroke-width="2" stroke-linejoin="round"/>
<path d="M200.673 4.416C198.695 3.296 196.399 2.456 193.785 1.896H228.785C231.399 2.456 233.695 3.296 235.673 4.416H200.673Z" fill="black" stroke="white" stroke-width="2" stroke-linejoin="round"/>
<path d="M200.057 22.0558C198.564 20.4132 196.791 19.2372 194.737 18.5278H229.737C231.791 19.2372 233.564 20.4132 235.057 22.0558H200.057Z" fill="black" stroke="white" stroke-width="2" stroke-linejoin="round"/>
<path d="M196.697 13.992L200.673 4.41602H235.673L231.697 13.992H196.697Z" fill="black" stroke="white" stroke-width="2" stroke-linejoin="round"/>
<path d="M202.353 28.7762C202.353 25.9388 201.588 23.6988 200.057 22.0562H235.057C236.588 23.6988 237.353 25.9388 237.353 28.7762H202.353Z" fill="black" stroke="white" stroke-width="2" stroke-linejoin="round"/>
<path d="M200.281 35.4959C201.663 33.4799 202.353 31.2399 202.353 28.7759H237.353C237.353 31.2399 236.663 33.4799 235.281 35.4959H200.281Z" fill="black" stroke="white" stroke-width="2" stroke-linejoin="round"/>
<path d="M19.872 1.896C23.4933 1.896 26.648 2.49333 29.336 3.688C32.024 4.88267 34.096 6.6 35.552 8.84C37.008 11.08 37.736 13.6933 37.736 16.68C37.736 19.6667 37.008 22.28 35.552 24.52C34.096 26.76 32.024 28.4773 29.336 29.672C26.648 30.8667 23.4933 31.464 19.872 31.464H14.216V41.096H1V1.896H19.872ZM19.032 21.272C20.824 21.272 22.168 20.88 23.064 20.096C23.96 19.2747 24.408 18.136 24.408 16.68C24.408 15.224 23.96 14.104 23.064 13.32C22.168 12.4987 20.824 12.088 19.032 12.088H14.216V21.272H19.032Z" fill="white"/>
<path d="M61.6703 31.24H58.0863V41.096H44.8703V1.896H63.7423C67.3636 1.896 70.5183 2.49333 73.2063 3.688C75.8943 4.88267 77.9663 6.6 79.4223 8.84C80.8783 11.08 81.6063 13.6933 81.6063 16.68C81.6063 19.48 80.9716 21.9253 79.7023 24.016C78.433 26.1067 76.6036 27.768 74.2143 29L82.4463 41.096H68.3343L61.6703 31.24ZM68.2783 16.68C68.2783 15.224 67.8303 14.104 66.9343 13.32C66.0383 12.4987 64.6943 12.088 62.9023 12.088H58.0863V21.272H62.9023C64.6943 21.272 66.0383 20.88 66.9343 20.096C67.8303 19.2747 68.2783 18.136 68.2783 16.68Z" fill="white"/>
<path d="M121.989 31.128V41.096H89.3969V1.896H121.261V11.864H102.389V16.456H118.965V25.976H102.389V31.128H121.989Z" fill="white"/>
<path d="M144.493 41.992C141.245 41.992 138.071 41.6373 134.973 40.928C131.911 40.1813 129.391 39.192 127.413 37.96L131.669 28.328C133.535 29.4107 135.626 30.288 137.941 30.96C140.255 31.5947 142.477 31.912 144.605 31.912C146.434 31.912 147.741 31.744 148.525 31.408C149.309 31.0347 149.701 30.4933 149.701 29.784C149.701 28.9627 149.178 28.3467 148.133 27.936C147.125 27.5253 145.445 27.0773 143.093 26.592C140.069 25.9573 137.549 25.2853 135.533 24.576C133.517 23.8293 131.762 22.6347 130.269 20.992C128.775 19.312 128.029 17.0533 128.029 14.216C128.029 11.752 128.719 9.512 130.101 7.496C131.482 5.48 133.535 3.89333 136.261 2.736C139.023 1.57867 142.365 1 146.285 1C148.973 1 151.605 1.29867 154.181 1.896C156.794 2.456 159.09 3.296 161.069 4.416L157.093 13.992C153.247 12.0507 149.607 11.08 146.173 11.08C142.775 11.08 141.077 11.9013 141.077 13.544C141.077 14.328 141.581 14.9253 142.589 15.336C143.597 15.7093 145.258 16.12 147.573 16.568C150.559 17.128 153.079 17.7813 155.133 18.528C157.186 19.2373 158.959 20.4133 160.453 22.056C161.983 23.6987 162.749 25.9387 162.749 28.776C162.749 31.24 162.058 33.48 160.677 35.496C159.295 37.4747 157.223 39.0613 154.461 40.256C151.735 41.4133 148.413 41.992 144.493 41.992Z" fill="white"/>
<path d="M184.097 41.992C180.849 41.992 177.676 41.6373 174.577 40.928C171.516 40.1813 168.996 39.192 167.017 37.96L171.273 28.328C173.14 29.4107 175.231 30.288 177.545 30.96C179.86 31.5947 182.081 31.912 184.209 31.912C186.039 31.912 187.345 31.744 188.129 31.408C188.913 31.0347 189.305 30.4933 189.305 29.784C189.305 28.9627 188.783 28.3467 187.737 27.936C186.729 27.5253 185.049 27.0773 182.697 26.592C179.673 25.9573 177.153 25.2853 175.137 24.576C173.121 23.8293 171.367 22.6347 169.873 20.992C168.38 19.312 167.633 17.0533 167.633 14.216C167.633 11.752 168.324 9.512 169.705 7.496C171.087 5.48 173.14 3.89333 175.865 2.736C178.628 1.57867 181.969 1 185.889 1C188.577 1 191.209 1.29867 193.785 1.896C196.399 2.456 198.695 3.296 200.673 4.416L196.697 13.992C192.852 12.0507 189.212 11.08 185.777 11.08C182.38 11.08 180.681 11.9013 180.681 13.544C180.681 14.328 181.185 14.9253 182.193 15.336C183.201 15.7093 184.863 16.12 187.177 16.568C190.164 17.128 192.684 17.7813 194.737 18.528C196.791 19.2373 198.564 20.4133 200.057 22.056C201.588 23.6987 202.353 25.9387 202.353 28.776C202.353 31.24 201.663 33.48 200.281 35.496C198.9 37.4747 196.828 39.0613 194.065 40.256C191.34 41.4133 188.017 41.992 184.097 41.992Z" fill="white"/>
<path d="M19.872 1.896C23.4933 1.896 26.648 2.49333 29.336 3.688C32.024 4.88267 34.096 6.6 35.552 8.84C37.008 11.08 37.736 13.6933 37.736 16.68C37.736 19.6667 37.008 22.28 35.552 24.52C34.096 26.76 32.024 28.4773 29.336 29.672C26.648 30.8667 23.4933 31.464 19.872 31.464H14.216V41.096H1V1.896H19.872ZM19.032 21.272C20.824 21.272 22.168 20.88 23.064 20.096C23.96 19.2747 24.408 18.136 24.408 16.68C24.408 15.224 23.96 14.104 23.064 13.32C22.168 12.4987 20.824 12.088 19.032 12.088H14.216V21.272H19.032Z" stroke="black" stroke-width="2"/>
<path d="M61.6703 31.24H58.0863V41.096H44.8703V1.896H63.7423C67.3636 1.896 70.5183 2.49333 73.2063 3.688C75.8943 4.88267 77.9663 6.6 79.4223 8.84C80.8783 11.08 81.6063 13.6933 81.6063 16.68C81.6063 19.48 80.9716 21.9253 79.7023 24.016C78.433 26.1067 76.6036 27.768 74.2143 29L82.4463 41.096H68.3343L61.6703 31.24ZM68.2783 16.68C68.2783 15.224 67.8303 14.104 66.9343 13.32C66.0383 12.4987 64.6943 12.088 62.9023 12.088H58.0863V21.272H62.9023C64.6943 21.272 66.0383 20.88 66.9343 20.096C67.8303 19.2747 68.2783 18.136 68.2783 16.68Z" stroke="black" stroke-width="2"/>
<path d="M121.989 31.128V41.096H89.3969V1.896H121.261V11.864H102.389V16.456H118.965V25.976H102.389V31.128H121.989Z" stroke="black" stroke-width="2"/>
<path d="M144.493 41.992C141.245 41.992 138.071 41.6373 134.973 40.928C131.911 40.1813 129.391 39.192 127.413 37.96L131.669 28.328C133.535 29.4107 135.626 30.288 137.941 30.96C140.255 31.5947 142.477 31.912 144.605 31.912C146.434 31.912 147.741 31.744 148.525 31.408C149.309 31.0347 149.701 30.4933 149.701 29.784C149.701 28.9627 149.178 28.3467 148.133 27.936C147.125 27.5253 145.445 27.0773 143.093 26.592C140.069 25.9573 137.549 25.2853 135.533 24.576C133.517 23.8293 131.762 22.6347 130.269 20.992C128.775 19.312 128.029 17.0533 128.029 14.216C128.029 11.752 128.719 9.512 130.101 7.496C131.482 5.48 133.535 3.89333 136.261 2.736C139.023 1.57867 142.365 1 146.285 1C148.973 1 151.605 1.29867 154.181 1.896C156.794 2.456 159.09 3.296 161.069 4.416L157.093 13.992C153.247 12.0507 149.607 11.08 146.173 11.08C142.775 11.08 141.077 11.9013 141.077 13.544C141.077 14.328 141.581 14.9253 142.589 15.336C143.597 15.7093 145.258 16.12 147.573 16.568C150.559 17.128 153.079 17.7813 155.133 18.528C157.186 19.2373 158.959 20.4133 160.453 22.056C161.983 23.6987 162.749 25.9387 162.749 28.776C162.749 31.24 162.058 33.48 160.677 35.496C159.295 37.4747 157.223 39.0613 154.461 40.256C151.735 41.4133 148.413 41.992 144.493 41.992Z" stroke="black" stroke-width="2"/>
<path d="M184.097 41.992C180.849 41.992 177.676 41.6373 174.577 40.928C171.516 40.1813 168.996 39.192 167.017 37.96L171.273 28.328C173.14 29.4107 175.231 30.288 177.545 30.96C179.86 31.5947 182.081 31.912 184.209 31.912C186.039 31.912 187.345 31.744 188.129 31.408C188.913 31.0347 189.305 30.4933 189.305 29.784C189.305 28.9627 188.783 28.3467 187.737 27.936C186.729 27.5253 185.049 27.0773 182.697 26.592C179.673 25.9573 177.153 25.2853 175.137 24.576C173.121 23.8293 171.367 22.6347 169.873 20.992C168.38 19.312 167.633 17.0533 167.633 14.216C167.633 11.752 168.324 9.512 169.705 7.496C171.087 5.48 173.14 3.89333 175.865 2.736C178.628 1.57867 181.969 1 185.889 1C188.577 1 191.209 1.29867 193.785 1.896C196.399 2.456 198.695 3.296 200.673 4.416L196.697 13.992C192.852 12.0507 189.212 11.08 185.777 11.08C182.38 11.08 180.681 11.9013 180.681 13.544C180.681 14.328 181.185 14.9253 182.193 15.336C183.201 15.7093 184.863 16.12 187.177 16.568C190.164 17.128 192.684 17.7813 194.737 18.528C196.791 19.2373 198.564 20.4133 200.057 22.056C201.588 23.6987 202.353 25.9387 202.353 28.776C202.353 31.24 201.663 33.48 200.281 35.496C198.9 37.4747 196.828 39.0613 194.065 40.256C191.34 41.4133 188.017 41.992 184.097 41.992Z" stroke="black" stroke-width="2"/>
</svg>
