<svg width="16" height="17" viewBox="0 0 16 17" fill="none" xmlns="http://www.w3.org/2000/svg">
<rect x="5.33325" y="11.1667" width="2" height="1.33333" fill="#0000FF"/>
<rect x="6" y="11.8335" width="0.666667" height="1.33333" fill="#0000FF"/>
<rect x="6.66675" y="7.8335" width="1.33333" height="2" fill="#0000FF"/>
<rect x="11.3333" y="3.16675" width="1.33333" height="2" fill="#0000FF"/>
<rect x="10.6667" y="3.8335" width="1.33333" height="2" fill="#0000FF"/>
<rect x="9.33325" y="5.16675" width="1.33333" height="2" fill="#0000FF"/>
<rect x="10" y="4.5" width="1.33333" height="2" fill="#0000FF"/>
<rect x="8.66675" y="5.8335" width="1.33333" height="2" fill="#0000FF"/>
<rect x="8" y="6.5" width="1.33333" height="2" fill="#0000FF"/>
<rect x="7.33325" y="7.16675" width="1.33333" height="2" fill="#0000FF"/>
<rect x="8" y="9.16675" width="1.33333" height="1.33333" fill="#0000FF"/>
<rect x="6" y="8.5" width="1.33333" height="1.33333" fill="#0000FF"/>
<rect x="4.66675" y="7.8335" width="1.33333" height="2" fill="#0000FF"/>
<rect x="4" y="7.16675" width="1.33333" height="1.33333" fill="#0000FF"/>
<rect x="3.33325" y="6.5" width="1.33333" height="1.33333" fill="#0000FF"/>
<rect x="3.33325" y="9.16675" width="1.33333" height="1.33333" fill="#0000FF"/>
<rect x="4" y="9.8335" width="1.33333" height="1.33333" fill="#0000FF"/>
<rect x="4.66675" y="10.5" width="1.33333" height="1.33333" fill="#0000FF"/>
<rect x="2.66675" y="8.5" width="2" height="1.33333" fill="#0000FF"/>
<rect x="2" y="7.8335" width="1.33333" height="1.33333" fill="#0000FF"/>
<rect x="2.66675" y="7.16675" width="1.33333" height="1.33333" fill="#0000FF"/>
<rect x="7.33325" y="9.8335" width="1.33333" height="1.33333" fill="#0000FF"/>
<rect x="4.66675" y="9.8335" width="4" height="1.33333" fill="#0000FF"/>
<rect x="6.66675" y="10.5" width="1.33333" height="1.33333" fill="#0000FF"/>
<rect x="12.6667" y="4.5" width="1.33333" height="1.33333" fill="#0000FF"/>
<rect x="12" y="5.16675" width="1.33333" height="1.33333" fill="#0000FF"/>
<rect x="12" y="3.8335" width="1.33333" height="1.33333" fill="#0000FF"/>
<rect x="10.6667" y="6.5" width="1.33333" height="1.33333" fill="#0000FF"/>
<rect x="11.3333" y="5.8335" width="1.33333" height="1.33333" fill="#0000FF"/>
<rect x="10" y="7.16675" width="1.33333" height="1.33333" fill="#0000FF"/>
<rect x="9.33325" y="7.8335" width="1.33333" height="1.33333" fill="#0000FF"/>
<rect x="8.66675" y="8.5" width="1.33333" height="1.33333" fill="#0000FF"/>
</svg>
