<svg width="18" height="15" viewBox="0 0 18 15" fill="none" xmlns="http://www.w3.org/2000/svg">
<rect x="5" y="12" width="3" height="2" fill="#0000FF"/>
<rect x="6" y="13" width="1" height="2" fill="#0000FF"/>
<rect x="7" y="7" width="2" height="3" fill="#0000FF"/>
<rect x="14" width="2" height="3" fill="#0000FF"/>
<rect x="13" y="1" width="2" height="3" fill="#0000FF"/>
<rect x="11" y="3" width="2" height="3" fill="#0000FF"/>
<rect x="12" y="2" width="2" height="3" fill="#0000FF"/>
<rect x="10" y="4" width="2" height="3" fill="#0000FF"/>
<rect x="9" y="5" width="2" height="3" fill="#0000FF"/>
<rect x="8" y="6" width="2" height="3" fill="#0000FF"/>
<rect x="9" y="9" width="2" height="2" fill="#0000FF"/>
<rect x="6" y="8" width="2" height="2" fill="#0000FF"/>
<rect x="4" y="7" width="2" height="3" fill="#0000FF"/>
<rect x="3" y="6" width="2" height="2" fill="#0000FF"/>
<rect x="2" y="5" width="2" height="2" fill="#0000FF"/>
<rect x="2" y="9" width="2" height="2" fill="#0000FF"/>
<rect x="3" y="10" width="2" height="2" fill="#0000FF"/>
<rect x="4" y="11" width="2" height="2" fill="#0000FF"/>
<rect x="1" y="8" width="3" height="2" fill="#0000FF"/>
<rect y="7" width="2" height="2" fill="#0000FF"/>
<rect x="1" y="6" width="2" height="2" fill="#0000FF"/>
<rect x="8" y="10" width="2" height="2" fill="#0000FF"/>
<rect x="4" y="10" width="6" height="2" fill="#0000FF"/>
<rect x="7" y="11" width="2" height="2" fill="#0000FF"/>
<rect x="16" y="2" width="2" height="2" fill="#0000FF"/>
<rect x="15" y="3" width="2" height="2" fill="#0000FF"/>
<rect x="15" y="1" width="2" height="2" fill="#0000FF"/>
<rect x="13" y="5" width="2" height="2" fill="#0000FF"/>
<rect x="14" y="4" width="2" height="2" fill="#0000FF"/>
<rect x="12" y="6" width="2" height="2" fill="#0000FF"/>
<rect x="11" y="7" width="2" height="2" fill="#0000FF"/>
<rect x="10" y="8" width="2" height="2" fill="#0000FF"/>
</svg>
