<svg width="14" height="16" viewBox="0 0 14 16" fill="none" xmlns="http://www.w3.org/2000/svg">
<path fill-rule="evenodd" clip-rule="evenodd" d="M11 5.02353C12.1046 5.02353 13 4.12283 13 3.01176C13 1.9007 12.1046 1 11 1C9.89543 1 9 1.9007 9 3.01176C9 4.12283 9.89543 5.02353 11 5.02353Z" stroke="#1000FA" stroke-width="2" stroke-linecap="round" stroke-linejoin="round"/>
<path fill-rule="evenodd" clip-rule="evenodd" d="M3 9.71762C4.10457 9.71762 5 8.81692 5 7.70586C5 6.59479 4.10457 5.69409 3 5.69409C1.89543 5.69409 1 6.59479 1 7.70586C1 8.81692 1.89543 9.71762 3 9.71762Z" stroke="#1000FA" stroke-width="2" stroke-linecap="round" stroke-linejoin="round"/>
<path fill-rule="evenodd" clip-rule="evenodd" d="M11 14.4117C12.1046 14.4117 13 13.511 13 12.3999C13 11.2889 12.1046 10.3882 11 10.3882C9.89543 10.3882 9 11.2889 9 12.3999C9 13.511 9.89543 14.4117 11 14.4117Z" stroke="#1000FA" stroke-width="2" stroke-linecap="round" stroke-linejoin="round"/>
<path d="M4.72656 8.71851L9.2799 11.3874" stroke="#1000FA" stroke-width="2" stroke-linecap="round" stroke-linejoin="round"/>
<path d="M9.27323 4.02441L4.72656 6.69336" stroke="#1000FA" stroke-width="2" stroke-linecap="round" stroke-linejoin="round"/>
</svg>
