<svg width="379" height="87" viewBox="0 0 379 87" fill="none" xmlns="http://www.w3.org/2000/svg">
<path d="M60.77 85.072C60.0085 85.072 59.2491 85.0624 58.4916 85.0433C52.6721 84.8961 46.9715 84.1837 41.39 82.906C35.158 81.386 30.028 79.372 26 76.864L34.664 57.256C38.464 59.46 42.72 61.246 47.432 62.614C52.144 63.906 56.666 64.552 60.998 64.552C64.722 64.552 67.382 64.21 68.978 63.526C70.574 62.766 71.372 61.664 71.372 60.22C71.372 58.548 70.308 57.294 68.18 56.458C66.128 55.622 62.708 54.71 57.92 53.722C51.764 52.43 46.634 51.062 42.53 49.618C38.426 48.098 34.854 45.666 31.814 42.322C28.774 38.902 27.254 34.304 27.254 28.528C27.254 23.512 28.66 18.952 31.472 14.848C34.284 10.744 38.464 7.51402 44.012 5.15802C49.636 2.80202 56.438 1.62402 64.418 1.62402C65.0273 1.62402 65.6351 1.63156 66.2416 1.64664C71.0817 1.76695 75.8319 2.36741 80.492 3.44802C85.812 4.58802 90.486 6.29802 94.514 8.57802L86.42 28.072C78.592 24.12 71.182 22.144 64.19 22.144C57.274 22.144 53.816 23.816 53.816 27.16C53.816 28.756 54.842 29.972 56.894 30.808C58.946 31.568 62.328 32.404 67.04 33.316C73.12 34.456 78.25 35.786 82.43 37.306C86.61 38.75 90.22 41.144 93.26 44.488C96.376 47.832 97.934 52.392 97.934 58.168C97.934 63.184 96.528 67.744 93.716 71.848C90.904 75.876 86.686 79.106 81.062 81.538C75.514 83.894 68.75 85.072 60.77 85.072Z" fill="#0000FF"/>
<path d="M147.778 85.072C139.19 85.072 131.476 83.286 124.636 79.714C117.796 76.142 112.438 71.202 108.562 64.894C104.686 58.51 102.748 51.328 102.748 43.348C102.748 35.368 104.686 28.224 108.562 21.916C112.438 15.532 117.796 10.554 124.636 6.98202C131.476 3.41002 139.19 1.62402 147.778 1.62402C156.366 1.62402 164.08 3.41002 170.92 6.98202C177.76 10.554 183.118 15.532 186.994 21.916C190.87 28.224 192.808 35.368 192.808 43.348C192.808 51.328 190.87 58.51 186.994 64.894C183.118 71.202 177.76 76.142 170.92 79.714C164.08 83.286 156.366 85.072 147.778 85.072ZM147.778 63.298C151.122 63.298 154.124 62.5 156.784 60.904C159.52 59.232 161.686 56.914 163.282 53.95C164.878 50.91 165.676 47.376 165.676 43.348C165.676 39.32 164.878 35.824 163.282 32.86C161.686 29.82 159.52 27.502 156.784 25.906C154.124 24.234 151.122 23.398 147.778 23.398C144.434 23.398 141.394 24.234 138.658 25.906C135.998 27.502 133.87 29.82 132.274 32.86C130.678 35.824 129.88 39.32 129.88 43.348C129.88 47.376 130.678 50.91 132.274 53.95C133.87 56.914 135.998 59.232 138.658 60.904C141.394 62.5 144.434 63.298 147.778 63.298Z" fill="#0000FF"/>
<path d="M244.411 85.072C235.823 85.072 228.109 83.286 221.269 79.714C214.429 76.142 209.071 71.202 205.195 64.894C201.319 58.51 199.381 51.328 199.381 43.348C199.381 35.368 201.319 28.224 205.195 21.916C209.071 15.532 214.429 10.554 221.269 6.98202C228.109 3.41002 235.823 1.62402 244.411 1.62402C252.999 1.62402 260.713 3.41002 267.553 6.98202C274.393 10.554 279.751 15.532 283.627 21.916C287.503 28.224 289.441 35.368 289.441 43.348C289.441 51.328 287.503 58.51 283.627 64.894C279.751 71.202 274.393 76.142 267.553 79.714C260.713 83.286 252.999 85.072 244.411 85.072ZM244.411 63.298C247.755 63.298 250.757 62.5 253.417 60.904C256.153 59.232 258.319 56.914 259.915 53.95C261.511 50.91 262.309 47.376 262.309 43.348C262.309 39.32 261.511 35.824 259.915 32.86C258.319 29.82 256.153 27.502 253.417 25.906C250.757 24.234 247.755 23.398 244.411 23.398C241.067 23.398 238.027 24.234 235.291 25.906C232.631 27.502 230.503 29.82 228.907 32.86C227.311 35.824 226.513 39.32 226.513 43.348C226.513 47.376 227.311 50.91 228.907 53.95C230.503 56.914 232.631 59.232 235.291 60.904C238.027 62.5 241.067 63.298 244.411 63.298Z" fill="#0000FF"/>
<path d="M364.755 3.44802C371.31 3.44802 377.865 3.44802 377.865 3.44802V83.248C377.865 83.248 372.336 83.248 366.807 83.248C361.278 83.248 355.749 83.248 355.749 83.248L325.425 46.996V83.248C325.425 83.248 318.87 83.248 312.315 83.248C305.76 83.248 299.205 83.248 299.205 83.248V3.44802C299.205 3.44802 304.734 3.44802 310.263 3.44802C315.792 3.44802 321.321 3.44802 321.321 3.44802L351.645 39.7V3.44802C351.645 3.44802 358.2 3.44802 364.755 3.44802Z" fill="#0000FF"/>
<path d="M60.77 85.072C60.0085 85.072 59.2491 85.0624 58.4916 85.0433C52.6721 84.8961 46.9715 84.1837 41.39 82.906C35.158 81.386 30.028 79.372 26 76.864L34.664 57.256C38.464 59.46 42.72 61.246 47.432 62.614C52.144 63.906 56.666 64.552 60.998 64.552C64.722 64.552 67.382 64.21 68.978 63.526C70.574 62.766 71.372 61.664 71.372 60.22C71.372 58.548 70.308 57.294 68.18 56.458C66.128 55.622 62.708 54.71 57.92 53.722C51.764 52.43 46.634 51.062 42.53 49.618C38.426 48.098 34.854 45.666 31.814 42.322C28.774 38.902 27.254 34.304 27.254 28.528C27.254 23.512 28.66 18.952 31.472 14.848C34.284 10.744 38.464 7.51402 44.012 5.15802C49.636 2.80202 56.438 1.62402 64.418 1.62402C65.0273 1.62402 65.6351 1.63156 66.2416 1.64664C71.0817 1.76695 75.8319 2.36741 80.492 3.44802C85.812 4.58802 90.486 6.29802 94.514 8.57802L86.42 28.072C78.592 24.12 71.182 22.144 64.19 22.144C57.274 22.144 53.816 23.816 53.816 27.16C53.816 28.756 54.842 29.972 56.894 30.808C58.946 31.568 62.328 32.404 67.04 33.316C73.12 34.456 78.25 35.786 82.43 37.306C86.61 38.75 90.22 41.144 93.26 44.488C96.376 47.832 97.934 52.392 97.934 58.168C97.934 63.184 96.528 67.744 93.716 71.848C90.904 75.876 86.686 79.106 81.062 81.538C75.514 83.894 68.75 85.072 60.77 85.072Z" stroke="black" stroke-width="2"/>
<path d="M147.778 85.072C139.19 85.072 131.476 83.286 124.636 79.714C117.796 76.142 112.438 71.202 108.562 64.894C104.686 58.51 102.748 51.328 102.748 43.348C102.748 35.368 104.686 28.224 108.562 21.916C112.438 15.532 117.796 10.554 124.636 6.98202C131.476 3.41002 139.19 1.62402 147.778 1.62402C156.366 1.62402 164.08 3.41002 170.92 6.98202C177.76 10.554 183.118 15.532 186.994 21.916C190.87 28.224 192.808 35.368 192.808 43.348C192.808 51.328 190.87 58.51 186.994 64.894C183.118 71.202 177.76 76.142 170.92 79.714C164.08 83.286 156.366 85.072 147.778 85.072ZM147.778 63.298C151.122 63.298 154.124 62.5 156.784 60.904C159.52 59.232 161.686 56.914 163.282 53.95C164.878 50.91 165.676 47.376 165.676 43.348C165.676 39.32 164.878 35.824 163.282 32.86C161.686 29.82 159.52 27.502 156.784 25.906C154.124 24.234 151.122 23.398 147.778 23.398C144.434 23.398 141.394 24.234 138.658 25.906C135.998 27.502 133.87 29.82 132.274 32.86C130.678 35.824 129.88 39.32 129.88 43.348C129.88 47.376 130.678 50.91 132.274 53.95C133.87 56.914 135.998 59.232 138.658 60.904C141.394 62.5 144.434 63.298 147.778 63.298Z" stroke="black" stroke-width="2"/>
<path d="M244.411 85.072C235.823 85.072 228.109 83.286 221.269 79.714C214.429 76.142 209.071 71.202 205.195 64.894C201.319 58.51 199.381 51.328 199.381 43.348C199.381 35.368 201.319 28.224 205.195 21.916C209.071 15.532 214.429 10.554 221.269 6.98202C228.109 3.41002 235.823 1.62402 244.411 1.62402C252.999 1.62402 260.713 3.41002 267.553 6.98202C274.393 10.554 279.751 15.532 283.627 21.916C287.503 28.224 289.441 35.368 289.441 43.348C289.441 51.328 287.503 58.51 283.627 64.894C279.751 71.202 274.393 76.142 267.553 79.714C260.713 83.286 252.999 85.072 244.411 85.072ZM244.411 63.298C247.755 63.298 250.757 62.5 253.417 60.904C256.153 59.232 258.319 56.914 259.915 53.95C261.511 50.91 262.309 47.376 262.309 43.348C262.309 39.32 261.511 35.824 259.915 32.86C258.319 29.82 256.153 27.502 253.417 25.906C250.757 24.234 247.755 23.398 244.411 23.398C241.067 23.398 238.027 24.234 235.291 25.906C232.631 27.502 230.503 29.82 228.907 32.86C227.311 35.824 226.513 39.32 226.513 43.348C226.513 47.376 227.311 50.91 228.907 53.95C230.503 56.914 232.631 59.232 235.291 60.904C238.027 62.5 241.067 63.298 244.411 63.298Z" stroke="black" stroke-width="2"/>
<path d="M364.755 3.44802C371.31 3.44802 377.865 3.44802 377.865 3.44802V83.248C377.865 83.248 372.336 83.248 366.807 83.248C361.278 83.248 355.749 83.248 355.749 83.248L325.425 46.996V83.248C325.425 83.248 318.87 83.248 312.315 83.248C305.76 83.248 299.205 83.248 299.205 83.248V3.44802C299.205 3.44802 304.734 3.44802 310.263 3.44802C315.792 3.44802 321.321 3.44802 321.321 3.44802L351.645 39.7V3.44802C351.645 3.44802 358.2 3.44802 364.755 3.44802Z" stroke="black" stroke-width="2"/>
<path d="M6.47203 14.848C3.66003 18.952 2.25403 23.512 2.25403 28.528H27.254C27.254 23.512 28.66 18.952 31.472 14.848H6.47203Z" fill="#0000FF" stroke="black" stroke-width="2" stroke-linejoin="round"/>
<path d="M2.25403 28.5281C2.25403 34.3041 3.77403 38.9021 6.81403 42.3221H31.814C28.774 38.9021 27.254 34.3041 27.254 28.5281H2.25403Z" fill="#0000FF" stroke="black" stroke-width="2" stroke-linejoin="round"/>
<path d="M9.664 57.256L1 76.864H26L34.664 57.256H9.664Z" fill="#0000FF" stroke="black" stroke-width="2" stroke-linejoin="round"/>
<path d="M1 76.864C5.028 79.372 10.158 81.386 16.39 82.906H41.39C35.158 81.386 30.028 79.372 26 76.864H1Z" fill="#0000FF" stroke="black" stroke-width="2" stroke-linejoin="round"/>
<path d="M6.81403 42.322C9.85403 45.666 13.426 48.098 17.53 49.618H42.53C38.426 48.098 34.854 45.666 31.814 42.322H6.81403Z" fill="#0000FF" stroke="black" stroke-width="2" stroke-linejoin="round"/>
<path d="M19.012 5.15796C13.464 7.51396 9.28398 10.744 6.47198 14.848H31.472C34.284 10.744 38.464 7.51396 44.012 5.15796H19.012Z" fill="#0000FF" stroke="black" stroke-width="2" stroke-linejoin="round"/>
<path d="M22.432 62.614C17.72 61.246 13.464 59.46 9.664 57.256H34.664C38.464 59.46 42.72 61.246 47.432 62.614H22.432Z" fill="#0000FF" stroke="black" stroke-width="2" stroke-linejoin="round"/>
<path d="M16.39 82.906C21.9715 84.1837 27.6721 84.8961 33.4916 85.0433H58.4916C52.6721 84.8961 46.9715 84.1837 41.39 82.906H16.39Z" fill="#0000FF" stroke="black" stroke-width="2" stroke-linejoin="round"/>
<path d="M17.53 49.618C21.634 51.062 26.764 52.43 32.92 53.722H57.92C51.764 52.43 46.634 51.062 42.53 49.618H17.53Z" fill="#0000FF" stroke="black" stroke-width="2" stroke-linejoin="round"/>
<path d="M39.418 1.62402C31.438 1.62402 24.636 2.80202 19.012 5.15802H44.012C49.636 2.80202 56.438 1.62402 64.418 1.62402H39.418Z" fill="#0000FF" stroke="black" stroke-width="2" stroke-linejoin="round"/>
<path d="M35.998 64.552C31.666 64.552 27.144 63.906 22.432 62.614H47.432C52.144 63.906 56.666 64.552 60.998 64.552H35.998Z" fill="#0000FF" stroke="black" stroke-width="2" stroke-linejoin="round"/>
<path d="M31.894 30.808C29.842 29.972 28.816 28.756 28.816 27.16H53.816C53.816 28.756 54.842 29.972 56.894 30.808H31.894Z" fill="#0000FF" stroke="black" stroke-width="2" stroke-linejoin="round"/>
<path d="M28.816 27.16C28.816 23.816 32.274 22.144 39.19 22.144H64.19C57.274 22.144 53.816 23.816 53.816 27.16H28.816Z" fill="#0000FF" stroke="black" stroke-width="2" stroke-linejoin="round"/>
<path d="M33.4916 85.0433C34.2491 85.0625 35.0085 85.0721 35.77 85.0721H60.77C60.0085 85.0721 59.2491 85.0625 58.4916 85.0433H33.4916Z" fill="#0000FF" stroke="black" stroke-width="2" stroke-linejoin="round"/>
<path d="M42.04 33.316C37.328 32.404 33.946 31.568 31.894 30.808H56.894C58.946 31.568 62.328 32.404 67.04 33.316H42.04Z" fill="#0000FF" stroke="black" stroke-width="2" stroke-linejoin="round"/>
<path d="M32.92 53.722C37.708 54.71 41.128 55.622 43.18 56.458H68.18C66.128 55.622 62.708 54.71 57.92 53.722H32.92Z" fill="#0000FF" stroke="black" stroke-width="2" stroke-linejoin="round"/>
<path d="M43.978 63.526C42.382 64.21 39.722 64.552 35.998 64.552H60.998C64.722 64.552 67.382 64.21 68.978 63.526H43.978Z" fill="#0000FF" stroke="black" stroke-width="2" stroke-linejoin="round"/>
<path d="M41.2416 1.64664C40.6351 1.63156 40.0273 1.62402 39.418 1.62402H64.418C65.0273 1.62402 65.6351 1.63156 66.2416 1.64664H41.2416Z" fill="#0000FF" stroke="black" stroke-width="2" stroke-linejoin="round"/>
<path d="M43.18 56.458C45.308 57.294 46.372 58.548 46.372 60.22H71.372C71.372 58.548 70.308 57.294 68.18 56.458H43.18Z" fill="#0000FF" stroke="black" stroke-width="2" stroke-linejoin="round"/>
<path d="M46.372 60.22C46.372 61.664 45.574 62.766 43.978 63.526H68.978C70.574 62.766 71.372 61.664 71.372 60.22H46.372Z" fill="#0000FF" stroke="black" stroke-width="2" stroke-linejoin="round"/>
<path d="M35.77 85.0721C43.75 85.0721 50.514 83.8941 56.062 81.5381H81.062C75.514 83.8941 68.75 85.0721 60.77 85.0721H35.77Z" fill="#0000FF" stroke="black" stroke-width="2" stroke-linejoin="round"/>
<path d="M55.492 3.44799C50.8319 2.36739 46.0818 1.76692 41.2416 1.64661H66.2416C71.0818 1.76692 75.8319 2.36739 80.492 3.44799H55.492Z" fill="#0000FF" stroke="black" stroke-width="2" stroke-linejoin="round"/>
<path d="M57.43 37.306C53.25 35.786 48.12 34.456 42.04 33.316H67.04C73.12 34.456 78.25 35.786 82.43 37.306H57.43Z" fill="#0000FF" stroke="black" stroke-width="2" stroke-linejoin="round"/>
<path d="M39.19 22.144C46.182 22.144 53.592 24.12 61.42 28.072H86.42C78.592 24.12 71.182 22.144 64.19 22.144H39.19Z" fill="#0000FF" stroke="black" stroke-width="2" stroke-linejoin="round"/>
<path d="M56.062 81.538C61.686 79.106 65.904 75.876 68.716 71.848H93.716C90.904 75.876 86.686 79.106 81.062 81.538H56.062Z" fill="#0000FF" stroke="black" stroke-width="2" stroke-linejoin="round"/>
<path d="M69.514 8.578C65.486 6.298 60.812 4.588 55.492 3.448H80.492C85.812 4.588 90.486 6.298 94.514 8.578H69.514Z" fill="#0000FF" stroke="black" stroke-width="2" stroke-linejoin="round"/>
<path d="M68.26 44.488C65.22 41.144 61.61 38.75 57.43 37.306H82.43C86.61 38.75 90.22 41.144 93.26 44.488H68.26Z" fill="#0000FF" stroke="black" stroke-width="2" stroke-linejoin="round"/>
<path d="M61.42 28.072L69.514 8.578H94.514L86.42 28.072H61.42Z" fill="#0000FF" stroke="black" stroke-width="2" stroke-linejoin="round"/>
<path d="M72.934 58.168C72.934 52.392 71.376 47.832 68.26 44.488H93.26C96.376 47.832 97.934 52.392 97.934 58.168H72.934Z" fill="#0000FF" stroke="black" stroke-width="2" stroke-linejoin="round"/>
<path d="M68.716 71.848C71.528 67.744 72.934 63.184 72.934 58.168H97.934C97.934 63.184 96.528 67.744 93.716 71.848H68.716Z" fill="#0000FF" stroke="black" stroke-width="2" stroke-linejoin="round"/>
<path d="M77.7478 43.348C77.7478 51.328 79.6858 58.51 83.5618 64.894H108.562C104.686 58.51 102.748 51.328 102.748 43.348H77.7478Z" fill="#0000FF" stroke="black" stroke-width="2" stroke-linejoin="round"/>
<path d="M83.5618 21.916C79.6858 28.224 77.7478 35.368 77.7478 43.348H102.748C102.748 35.368 104.686 28.224 108.562 21.916H83.5618Z" fill="#0000FF" stroke="black" stroke-width="2" stroke-linejoin="round"/>
<path d="M83.5618 64.894C87.4378 71.202 92.7958 76.142 99.6358 79.7141H124.636C117.796 76.142 112.438 71.202 108.562 64.894H83.5618Z" fill="#0000FF" stroke="black" stroke-width="2" stroke-linejoin="round"/>
<path d="M99.6358 6.98206C92.7958 10.5541 87.4378 15.5321 83.5618 21.9161H108.562C112.438 15.5321 117.796 10.5541 124.636 6.98206H99.6358Z" fill="#0000FF" stroke="black" stroke-width="2" stroke-linejoin="round"/>
<path d="M104.88 43.348C104.88 39.32 105.678 35.824 107.274 32.86H132.274C130.678 35.824 129.88 39.32 129.88 43.348H104.88Z" fill="#0000FF" stroke="black" stroke-width="2" stroke-linejoin="round"/>
<path d="M107.274 53.95C105.678 50.91 104.88 47.376 104.88 43.348H129.88C129.88 47.376 130.678 50.91 132.274 53.95H107.274Z" fill="#0000FF" stroke="black" stroke-width="2" stroke-linejoin="round"/>
<path d="M107.274 32.86C108.87 29.82 110.998 27.502 113.658 25.906H138.658C135.998 27.502 133.87 29.82 132.274 32.86H107.274Z" fill="#0000FF" stroke="black" stroke-width="2" stroke-linejoin="round"/>
<path d="M113.658 60.9041C110.998 59.2321 108.87 56.9141 107.274 53.9501H132.274C133.87 56.9141 135.998 59.2321 138.658 60.9041H113.658Z" fill="#0000FF" stroke="black" stroke-width="2" stroke-linejoin="round"/>
<path d="M99.6358 79.714C106.476 83.286 114.19 85.072 122.778 85.072H147.778C139.19 85.072 131.476 83.286 124.636 79.714H99.6358Z" fill="#0000FF" stroke="black" stroke-width="2" stroke-linejoin="round"/>
<path d="M122.778 1.62402C114.19 1.62402 106.476 3.41002 99.6358 6.98202H124.636C131.476 3.41002 139.19 1.62402 147.778 1.62402H122.778Z" fill="#0000FF" stroke="black" stroke-width="2" stroke-linejoin="round"/>
<path d="M113.658 25.9061C116.394 24.2341 119.434 23.3981 122.778 23.3981H147.778C144.434 23.3981 141.394 24.2341 138.658 25.9061H113.658Z" fill="#0000FF" stroke="black" stroke-width="2" stroke-linejoin="round"/>
<path d="M122.778 63.298C119.434 63.298 116.394 62.5001 113.658 60.9041H138.658C141.394 62.5001 144.434 63.298 147.778 63.298H122.778Z" fill="#0000FF" stroke="black" stroke-width="2" stroke-linejoin="round"/>
<path d="M131.784 60.9041C129.124 62.5001 126.122 63.298 122.778 63.298H147.778C151.122 63.298 154.124 62.5001 156.784 60.9041H131.784Z" fill="#0000FF" stroke="black" stroke-width="2" stroke-linejoin="round"/>
<path d="M122.778 23.3981C126.122 23.3981 129.124 24.2341 131.784 25.9061H156.784C154.124 24.2341 151.122 23.3981 147.778 23.3981H122.778Z" fill="#0000FF" stroke="black" stroke-width="2" stroke-linejoin="round"/>
<path d="M145.92 6.98202C139.08 3.41002 131.366 1.62402 122.778 1.62402H147.778C156.366 1.62402 164.08 3.41002 170.92 6.98202H145.92Z" fill="#0000FF" stroke="black" stroke-width="2" stroke-linejoin="round"/>
<path d="M122.778 85.072C131.366 85.072 139.08 83.286 145.92 79.714H170.92C164.08 83.286 156.366 85.072 147.778 85.072H122.778Z" fill="#0000FF" stroke="black" stroke-width="2" stroke-linejoin="round"/>
<path d="M138.282 53.9501C136.686 56.9141 134.52 59.2321 131.784 60.9041H156.784C159.52 59.2321 161.686 56.9141 163.282 53.9501H138.282Z" fill="#0000FF" stroke="black" stroke-width="2" stroke-linejoin="round"/>
<path d="M131.784 25.906C134.52 27.502 136.686 29.82 138.282 32.86H163.282C161.686 29.82 159.52 27.502 156.784 25.906H131.784Z" fill="#0000FF" stroke="black" stroke-width="2" stroke-linejoin="round"/>
<path d="M140.676 43.348C140.676 47.376 139.878 50.91 138.282 53.95H163.282C164.878 50.91 165.676 47.376 165.676 43.348H140.676Z" fill="#0000FF" stroke="black" stroke-width="2" stroke-linejoin="round"/>
<path d="M138.282 32.86C139.878 35.824 140.676 39.32 140.676 43.348H165.676C165.676 39.32 164.878 35.824 163.282 32.86H138.282Z" fill="#0000FF" stroke="black" stroke-width="2" stroke-linejoin="round"/>
<path d="M161.994 21.9161C158.118 15.5321 152.76 10.5541 145.92 6.98206H170.92C177.76 10.5541 183.118 15.5321 186.994 21.9161H161.994Z" fill="#0000FF" stroke="black" stroke-width="2" stroke-linejoin="round"/>
<path d="M145.92 79.7141C152.76 76.142 158.118 71.202 161.994 64.894H186.994C183.118 71.202 177.76 76.142 170.92 79.7141H145.92Z" fill="#0000FF" stroke="black" stroke-width="2" stroke-linejoin="round"/>
<path d="M167.808 43.348C167.808 35.368 165.87 28.224 161.994 21.916H186.994C190.87 28.224 192.808 35.368 192.808 43.348H167.808Z" fill="#0000FF" stroke="black" stroke-width="2" stroke-linejoin="round"/>
<path d="M161.994 64.894C165.87 58.51 167.808 51.328 167.808 43.348H192.808C192.808 51.328 190.87 58.51 186.994 64.894H161.994Z" fill="#0000FF" stroke="black" stroke-width="2" stroke-linejoin="round"/>
<path d="M174.381 43.348C174.381 51.328 176.319 58.51 180.195 64.894H205.195C201.319 58.51 199.381 51.328 199.381 43.348H174.381Z" fill="#0000FF" stroke="black" stroke-width="2" stroke-linejoin="round"/>
<path d="M180.195 21.916C176.319 28.224 174.381 35.368 174.381 43.348H199.381C199.381 35.368 201.319 28.224 205.195 21.916H180.195Z" fill="#0000FF" stroke="black" stroke-width="2" stroke-linejoin="round"/>
<path d="M180.195 64.894C184.071 71.202 189.429 76.142 196.269 79.7141H221.269C214.429 76.142 209.071 71.202 205.195 64.894H180.195Z" fill="#0000FF" stroke="black" stroke-width="2" stroke-linejoin="round"/>
<path d="M196.269 6.98206C189.429 10.5541 184.071 15.5321 180.195 21.9161H205.195C209.071 15.5321 214.429 10.5541 221.269 6.98206H196.269Z" fill="#0000FF" stroke="black" stroke-width="2" stroke-linejoin="round"/>
<path d="M201.513 43.348C201.513 39.32 202.311 35.824 203.907 32.86H228.907C227.311 35.824 226.513 39.32 226.513 43.348H201.513Z" fill="#0000FF" stroke="black" stroke-width="2" stroke-linejoin="round"/>
<path d="M203.907 53.95C202.311 50.91 201.513 47.376 201.513 43.348H226.513C226.513 47.376 227.311 50.91 228.907 53.95H203.907Z" fill="#0000FF" stroke="black" stroke-width="2" stroke-linejoin="round"/>
<path d="M203.907 32.86C205.503 29.82 207.631 27.502 210.291 25.906H235.291C232.631 27.502 230.503 29.82 228.907 32.86H203.907Z" fill="#0000FF" stroke="black" stroke-width="2" stroke-linejoin="round"/>
<path d="M210.291 60.9041C207.631 59.2321 205.503 56.9141 203.907 53.9501H228.907C230.503 56.9141 232.631 59.2321 235.291 60.9041H210.291Z" fill="#0000FF" stroke="black" stroke-width="2" stroke-linejoin="round"/>
<path d="M196.269 79.714C203.109 83.286 210.823 85.072 219.411 85.072H244.411C235.823 85.072 228.109 83.286 221.269 79.714H196.269Z" fill="#0000FF" stroke="black" stroke-width="2" stroke-linejoin="round"/>
<path d="M219.411 1.62402C210.823 1.62402 203.109 3.41002 196.269 6.98202H221.269C228.109 3.41002 235.823 1.62402 244.411 1.62402H219.411Z" fill="#0000FF" stroke="black" stroke-width="2" stroke-linejoin="round"/>
<path d="M210.291 25.9061C213.027 24.2341 216.067 23.3981 219.411 23.3981H244.411C241.067 23.3981 238.027 24.2341 235.291 25.9061H210.291Z" fill="#0000FF" stroke="black" stroke-width="2" stroke-linejoin="round"/>
<path d="M219.411 63.298C216.067 63.298 213.027 62.5001 210.291 60.9041H235.291C238.027 62.5001 241.067 63.298 244.411 63.298H219.411Z" fill="#0000FF" stroke="black" stroke-width="2" stroke-linejoin="round"/>
<path d="M228.417 60.9041C225.757 62.5001 222.755 63.298 219.411 63.298H244.411C247.755 63.298 250.757 62.5001 253.417 60.9041H228.417Z" fill="#0000FF" stroke="black" stroke-width="2" stroke-linejoin="round"/>
<path d="M219.411 23.3981C222.755 23.3981 225.757 24.2341 228.417 25.9061H253.417C250.757 24.2341 247.755 23.3981 244.411 23.3981H219.411Z" fill="#0000FF" stroke="black" stroke-width="2" stroke-linejoin="round"/>
<path d="M242.553 6.98202C235.713 3.41002 227.999 1.62402 219.411 1.62402H244.411C252.999 1.62402 260.713 3.41002 267.553 6.98202H242.553Z" fill="#0000FF" stroke="black" stroke-width="2" stroke-linejoin="round"/>
<path d="M219.411 85.072C227.999 85.072 235.713 83.286 242.553 79.714H267.553C260.713 83.286 252.999 85.072 244.411 85.072H219.411Z" fill="#0000FF" stroke="black" stroke-width="2" stroke-linejoin="round"/>
<path d="M234.915 53.9501C233.319 56.9141 231.153 59.2321 228.417 60.9041H253.417C256.153 59.2321 258.319 56.9141 259.915 53.9501H234.915Z" fill="#0000FF" stroke="black" stroke-width="2" stroke-linejoin="round"/>
<path d="M228.417 25.906C231.153 27.502 233.319 29.82 234.915 32.86H259.915C258.319 29.82 256.153 27.502 253.417 25.906H228.417Z" fill="#0000FF" stroke="black" stroke-width="2" stroke-linejoin="round"/>
<path d="M237.309 43.348C237.309 47.376 236.511 50.91 234.915 53.95H259.915C261.511 50.91 262.309 47.376 262.309 43.348H237.309Z" fill="#0000FF" stroke="black" stroke-width="2" stroke-linejoin="round"/>
<path d="M234.915 32.86C236.511 35.824 237.309 39.32 237.309 43.348H262.309C262.309 39.32 261.511 35.824 259.915 32.86H234.915Z" fill="#0000FF" stroke="black" stroke-width="2" stroke-linejoin="round"/>
<path d="M258.627 21.9161C254.751 15.5321 249.393 10.5541 242.553 6.98206H267.553C274.393 10.5541 279.751 15.5321 283.627 21.9161H258.627Z" fill="#0000FF" stroke="black" stroke-width="2" stroke-linejoin="round"/>
<path d="M242.553 79.7141C249.393 76.142 254.751 71.202 258.627 64.894H283.627C279.751 71.202 274.393 76.142 267.553 79.7141H242.553Z" fill="#0000FF" stroke="black" stroke-width="2" stroke-linejoin="round"/>
<path d="M264.441 43.348C264.441 35.368 262.503 28.224 258.627 21.916H283.627C287.503 28.224 289.441 35.368 289.441 43.348H264.441Z" fill="#0000FF" stroke="black" stroke-width="2" stroke-linejoin="round"/>
<path d="M258.627 64.894C262.503 58.51 264.441 51.328 264.441 43.348H289.441C289.441 51.328 287.503 58.51 283.627 64.894H258.627Z" fill="#0000FF" stroke="black" stroke-width="2" stroke-linejoin="round"/>
<path d="M274.205 3.448V83.248H299.205V3.448H274.205Z" fill="#0000FF" stroke="black" stroke-width="2" stroke-linejoin="round"/>
<path d="M274.205 3.448C274.205 3.448 279.734 3.448 285.263 3.448H310.263C304.734 3.448 299.205 3.448 299.205 3.448H274.205Z" stroke="black" stroke-width="2" stroke-linejoin="round"/>
<path d="M287.315 83.248C280.76 83.248 274.205 83.248 274.205 83.248H299.205C299.205 83.248 305.76 83.248 312.315 83.248H287.315Z" stroke="black" stroke-width="2" stroke-linejoin="round"/>
<path d="M285.263 3.448C290.792 3.448 296.321 3.448 296.321 3.448H321.321C321.321 3.448 315.792 3.448 310.263 3.448H285.263Z" stroke="black" stroke-width="2" stroke-linejoin="round"/>
<path d="M300.425 83.248C300.425 83.248 293.87 83.248 287.315 83.248H312.315C318.87 83.248 325.425 83.248 325.425 83.248H300.425Z" stroke="black" stroke-width="2" stroke-linejoin="round"/>
<path d="M300.425 83.248V46.996H325.425V83.248H300.425Z" fill="#0000FF" stroke="black" stroke-width="2" stroke-linejoin="round"/>
<path d="M326.645 39.7L296.321 3.448H321.321L351.645 39.7H326.645Z" fill="#0000FF" stroke="black" stroke-width="2" stroke-linejoin="round"/>
<path d="M300.425 46.996L330.749 83.248H355.749L325.425 46.996H300.425Z" fill="#0000FF" stroke="black" stroke-width="2" stroke-linejoin="round"/>
<path d="M326.645 3.448V39.7H351.645V3.448H326.645Z" fill="#0000FF" stroke="black" stroke-width="2" stroke-linejoin="round"/>
<path d="M326.645 3.448C326.645 3.448 333.2 3.448 339.755 3.448H364.755C358.2 3.448 351.645 3.448 351.645 3.448H326.645Z" stroke="black" stroke-width="2" stroke-linejoin="round"/>
<path d="M341.807 83.248C336.278 83.248 330.749 83.248 330.749 83.248H355.749C355.749 83.248 361.278 83.248 366.807 83.248H341.807Z" stroke="black" stroke-width="2" stroke-linejoin="round"/>
<path d="M339.755 3.448C346.31 3.448 352.865 3.448 352.865 3.448H377.865C377.865 3.448 371.31 3.448 364.755 3.448H339.755Z" stroke="black" stroke-width="2" stroke-linejoin="round"/>
<path d="M352.865 83.248C352.865 83.248 347.336 83.248 341.807 83.248H366.807C372.336 83.248 377.865 83.248 377.865 83.248H352.865Z" stroke="black" stroke-width="2" stroke-linejoin="round"/>
<path d="M352.865 83.248V3.448H377.865V83.248H352.865Z" fill="#0000FF" stroke="black" stroke-width="2" stroke-linejoin="round"/>
<path d="M35.77 85.072C29.158 85.072 22.698 84.35 16.39 82.906C10.158 81.386 5.028 79.372 1 76.864L9.664 57.256C13.464 59.46 17.72 61.246 22.432 62.614C27.144 63.906 31.666 64.552 35.998 64.552C39.722 64.552 42.382 64.21 43.978 63.526C45.574 62.766 46.372 61.664 46.372 60.22C46.372 58.548 45.308 57.294 43.18 56.458C41.128 55.622 37.708 54.71 32.92 53.722C26.764 52.43 21.634 51.062 17.53 49.618C13.426 48.098 9.854 45.666 6.814 42.322C3.774 38.902 2.254 34.304 2.254 28.528C2.254 23.512 3.66 18.952 6.472 14.848C9.284 10.744 13.464 7.51402 19.012 5.15802C24.636 2.80202 31.438 1.62402 39.418 1.62402C44.89 1.62402 50.248 2.23202 55.492 3.44802C60.812 4.58802 65.486 6.29802 69.514 8.57802L61.42 28.072C53.592 24.12 46.182 22.144 39.19 22.144C32.274 22.144 28.816 23.816 28.816 27.16C28.816 28.756 29.842 29.972 31.894 30.808C33.946 31.568 37.328 32.404 42.04 33.316C48.12 34.456 53.25 35.786 57.43 37.306C61.61 38.75 65.22 41.144 68.26 44.488C71.376 47.832 72.934 52.392 72.934 58.168C72.934 63.184 71.528 67.744 68.716 71.848C65.904 75.876 61.686 79.106 56.062 81.538C50.514 83.894 43.75 85.072 35.77 85.072Z" fill="white"/>
<path d="M122.778 85.072C114.19 85.072 106.476 83.286 99.6358 79.714C92.7958 76.142 87.4378 71.202 83.5618 64.894C79.6858 58.51 77.7478 51.328 77.7478 43.348C77.7478 35.368 79.6858 28.224 83.5618 21.916C87.4378 15.532 92.7958 10.554 99.6358 6.98202C106.476 3.41002 114.19 1.62402 122.778 1.62402C131.366 1.62402 139.08 3.41002 145.92 6.98202C152.76 10.554 158.118 15.532 161.994 21.916C165.87 28.224 167.808 35.368 167.808 43.348C167.808 51.328 165.87 58.51 161.994 64.894C158.118 71.202 152.76 76.142 145.92 79.714C139.08 83.286 131.366 85.072 122.778 85.072ZM122.778 63.298C126.122 63.298 129.124 62.5 131.784 60.904C134.52 59.232 136.686 56.914 138.282 53.95C139.878 50.91 140.676 47.376 140.676 43.348C140.676 39.32 139.878 35.824 138.282 32.86C136.686 29.82 134.52 27.502 131.784 25.906C129.124 24.234 126.122 23.398 122.778 23.398C119.434 23.398 116.394 24.234 113.658 25.906C110.998 27.502 108.87 29.82 107.274 32.86C105.678 35.824 104.88 39.32 104.88 43.348C104.88 47.376 105.678 50.91 107.274 53.95C108.87 56.914 110.998 59.232 113.658 60.904C116.394 62.5 119.434 63.298 122.778 63.298Z" fill="white"/>
<path d="M219.411 85.072C210.823 85.072 203.109 83.286 196.269 79.714C189.429 76.142 184.071 71.202 180.195 64.894C176.319 58.51 174.381 51.328 174.381 43.348C174.381 35.368 176.319 28.224 180.195 21.916C184.071 15.532 189.429 10.554 196.269 6.98202C203.109 3.41002 210.823 1.62402 219.411 1.62402C227.999 1.62402 235.713 3.41002 242.553 6.98202C249.393 10.554 254.751 15.532 258.627 21.916C262.503 28.224 264.441 35.368 264.441 43.348C264.441 51.328 262.503 58.51 258.627 64.894C254.751 71.202 249.393 76.142 242.553 79.714C235.713 83.286 227.999 85.072 219.411 85.072ZM219.411 63.298C222.755 63.298 225.757 62.5 228.417 60.904C231.153 59.232 233.319 56.914 234.915 53.95C236.511 50.91 237.309 47.376 237.309 43.348C237.309 39.32 236.511 35.824 234.915 32.86C233.319 29.82 231.153 27.502 228.417 25.906C225.757 24.234 222.755 23.398 219.411 23.398C216.067 23.398 213.027 24.234 210.291 25.906C207.631 27.502 205.503 29.82 203.907 32.86C202.311 35.824 201.513 39.32 201.513 43.348C201.513 47.376 202.311 50.91 203.907 53.95C205.503 56.914 207.631 59.232 210.291 60.904C213.027 62.5 216.067 63.298 219.411 63.298Z" fill="white"/>
<path d="M352.865 3.44802V83.248H330.749L300.425 46.996V83.248H274.205V3.44802H296.321L326.645 39.7V3.44802H352.865Z" fill="white"/>
</svg>
