<svg width="261" height="261" viewBox="0 0 261 261" fill="none" xmlns="http://www.w3.org/2000/svg">
<path d="M128.693 4.24264C127.917 3.46592 127.909 2.19826 128.693 1.41421C129.47 0.637495 130.738 0.630165 131.522 1.41421C132.306 2.19826 132.306 3.45859 131.522 4.24264C130.745 5.01936 129.47 5.01936 128.693 4.24264Z" fill="black"/>
<path d="M154.149 29.6985C153.373 28.9217 153.365 27.6541 154.149 26.87C154.926 26.0933 156.194 26.086 156.978 26.87C157.754 27.6467 157.762 28.9144 156.978 29.6985C156.194 30.4678 154.926 30.4752 154.149 29.6985Z" fill="black"/>
<path d="M179.605 55.1545C178.829 54.3778 178.821 53.1101 179.605 52.3261C180.382 51.5494 181.65 51.542 182.434 52.3261C183.21 53.1028 183.218 54.3705 182.434 55.1545C181.657 55.9312 180.389 55.9386 179.605 55.1545Z" fill="black"/>
<path d="M205.061 80.6103C204.285 79.8336 204.277 78.5659 205.061 77.7819C205.838 77.0052 207.106 76.9979 207.89 77.7819C208.666 78.5586 208.674 79.8263 207.89 80.6103C207.113 81.387 205.838 81.387 205.061 80.6103Z" fill="black"/>
<path d="M230.517 106.066C229.74 105.29 229.733 104.022 230.517 103.238C231.294 102.461 232.562 102.454 233.346 103.238C234.122 104.015 234.13 105.282 233.346 106.066C232.569 106.843 231.301 106.85 230.517 106.066Z" fill="black"/>
<path d="M255.973 131.522C255.196 130.745 255.189 129.478 255.973 128.694C256.75 127.917 258.017 127.91 258.801 128.694C259.585 129.478 259.585 130.738 258.801 131.522C258.025 132.299 256.75 132.299 255.973 131.522Z" fill="black"/>
<path d="M103.238 29.6985C102.461 28.9217 102.454 27.6541 103.238 26.87C104.014 26.0933 105.282 26.086 106.066 26.87C106.85 27.6541 106.85 28.9144 106.066 29.6985C105.289 30.4752 104.014 30.4752 103.238 29.6985Z" fill="black"/>
<path d="M128.693 55.1543C127.917 54.3775 127.909 53.1099 128.693 52.3258C129.47 51.5491 130.738 51.5418 131.522 52.3258C132.299 53.1026 132.306 54.3702 131.522 55.1543C130.738 55.9237 129.47 55.931 128.693 55.1543Z" fill="black"/>
<path d="M154.149 80.6101C153.373 79.8334 153.365 78.5657 154.149 77.7816C154.926 77.0049 156.194 76.9976 156.978 77.7816C157.754 78.5584 157.762 79.826 156.978 80.6101C156.201 81.3868 154.933 81.3941 154.149 80.6101Z" fill="black"/>
<path d="M179.605 106.066C178.829 105.289 178.821 104.022 179.605 103.238C180.382 102.461 181.65 102.454 182.434 103.238C183.21 104.014 183.218 105.282 182.434 106.066C181.657 106.843 180.382 106.843 179.605 106.066Z" fill="black"/>
<path d="M205.061 131.522C204.285 130.745 204.277 129.478 205.061 128.694C205.838 127.917 207.106 127.909 207.89 128.694C208.666 129.47 208.674 130.738 207.89 131.522C207.113 132.299 205.845 132.306 205.061 131.522Z" fill="black"/>
<path d="M230.517 156.978C229.74 156.201 229.733 154.934 230.517 154.15C231.294 153.373 232.562 153.366 233.346 154.15C234.13 154.934 234.13 156.194 233.346 156.978C232.569 157.755 231.294 157.755 230.517 156.978Z" fill="black"/>
<path d="M77.7818 55.1543C77.005 54.3775 76.9977 53.1099 77.7818 52.3258C78.5585 51.5491 79.8261 51.5418 80.6102 52.3258C81.3942 53.1099 81.3942 54.3702 80.6102 55.1543C79.8262 55.9383 78.5585 55.931 77.7818 55.1543Z" fill="black"/>
<path d="M103.238 80.6101C102.461 79.8334 102.454 78.5657 103.238 77.7816C104.014 77.0049 105.282 76.9976 106.066 77.7816C106.843 78.5584 106.85 79.826 106.066 80.6101C105.275 81.3868 104.014 81.3868 103.238 80.6101Z" fill="black"/>
<path d="M128.693 106.066C127.917 105.289 127.909 104.022 128.693 103.238C129.47 102.461 130.738 102.454 131.522 103.238C132.299 104.014 132.306 105.282 131.522 106.066C130.738 106.85 129.478 106.85 128.693 106.066Z" fill="black"/>
<path d="M154.149 131.522C153.373 130.745 153.365 129.478 154.149 128.694C154.926 127.917 156.194 127.909 156.978 128.694C157.755 129.47 157.762 130.738 156.978 131.522C156.194 132.306 154.926 132.299 154.149 131.522Z" fill="black"/>
<path d="M179.605 156.978C178.829 156.201 178.821 154.933 179.605 154.149C180.382 153.373 181.65 153.365 182.434 154.149C183.21 154.926 183.218 156.194 182.434 156.978C181.65 157.762 180.389 157.762 179.605 156.978Z" fill="black"/>
<path d="M205.061 182.434C204.285 181.657 204.277 180.389 205.061 179.605C205.838 178.829 207.106 178.821 207.89 179.605C208.674 180.389 208.674 181.65 207.89 182.434C207.106 183.218 205.838 183.211 205.061 182.434Z" fill="black"/>
<path d="M52.3259 80.6101C51.5492 79.8334 51.5418 78.5657 52.3259 77.7817C53.1026 77.0049 54.3703 76.9976 55.1543 77.7816C55.9384 78.5657 55.9384 79.826 55.1543 80.6101C54.3776 81.3868 53.1026 81.3868 52.3259 80.6101Z" fill="black"/>
<path d="M77.7818 106.066C77.005 105.289 76.9977 104.022 77.7818 103.238C78.5585 102.461 79.8261 102.454 80.6102 103.238C81.3869 104.014 81.3942 105.282 80.6102 106.066C79.8261 106.836 78.5585 106.843 77.7818 106.066Z" fill="black"/>
<path d="M103.238 131.522C102.461 130.745 102.454 129.478 103.238 128.694C104.014 127.917 105.282 127.909 106.066 128.694C106.843 129.47 106.85 130.738 106.066 131.522C105.289 132.299 104.022 132.306 103.238 131.522Z" fill="black"/>
<path d="M128.694 156.978C127.917 156.201 127.91 154.934 128.694 154.15C129.47 153.373 130.738 153.366 131.522 154.15C132.299 154.926 132.306 156.194 131.522 156.978C130.745 157.755 129.47 157.755 128.694 156.978Z" fill="black"/>
<path d="M154.149 182.434C153.373 181.657 153.365 180.389 154.149 179.605C154.926 178.829 156.194 178.821 156.978 179.605C157.755 180.382 157.762 181.65 156.978 182.434C156.201 183.211 154.934 183.218 154.149 182.434Z" fill="black"/>
<path d="M179.606 207.89C178.829 207.113 178.821 205.845 179.605 205.061C180.382 204.284 181.65 204.277 182.434 205.061C183.218 205.845 183.218 207.106 182.434 207.89C181.657 208.666 180.382 208.666 179.606 207.89Z" fill="black"/>
<path d="M26.8701 106.066C26.0934 105.289 26.086 104.022 26.8701 103.238C27.6468 102.461 28.9145 102.454 29.6985 103.238C30.4826 104.022 30.4826 105.282 29.6985 106.066C28.9218 106.843 27.6468 106.843 26.8701 106.066Z" fill="black"/>
<path d="M52.3259 131.522C51.5492 130.745 51.5419 129.478 52.3259 128.694C53.1026 127.917 54.3703 127.909 55.1543 128.694C55.931 129.47 55.9384 130.738 55.1543 131.522C54.3703 132.291 53.1026 132.299 52.3259 131.522Z" fill="black"/>
<path d="M77.7818 156.978C77.005 156.201 76.9977 154.933 77.7818 154.149C78.5585 153.373 79.8261 153.365 80.6102 154.149C81.3869 154.926 81.3942 156.194 80.6102 156.978C79.8335 157.754 78.5658 157.762 77.7818 156.978Z" fill="black"/>
<path d="M103.238 182.434C102.461 181.657 102.454 180.389 103.238 179.605C104.014 178.829 105.282 178.821 106.066 179.605C106.843 180.382 106.85 181.65 106.066 182.434C105.289 183.211 104.014 183.211 103.238 182.434Z" fill="black"/>
<path d="M128.694 207.89C127.917 207.113 127.91 205.845 128.694 205.061C129.47 204.284 130.738 204.277 131.522 205.061C132.299 205.838 132.306 207.106 131.522 207.89C130.745 208.666 129.478 208.674 128.694 207.89Z" fill="black"/>
<path d="M154.15 233.346C153.373 232.569 153.366 231.301 154.15 230.517C154.926 229.741 156.194 229.733 156.978 230.517C157.762 231.301 157.762 232.562 156.978 233.346C156.201 234.122 154.926 234.122 154.15 233.346Z" fill="black"/>
<path d="M1.41422 131.522C0.637495 130.745 0.630176 129.478 1.41422 128.694C2.19094 127.917 3.45859 127.909 4.24264 128.694C5.02669 129.478 5.0267 130.738 4.24265 131.522C3.4586 132.306 2.19094 132.299 1.41422 131.522Z" fill="black"/>
<path d="M26.8701 156.978C26.0934 156.201 26.086 154.933 26.8701 154.149C27.6468 153.373 28.9145 153.365 29.6985 154.149C30.4752 154.926 30.4826 156.194 29.6985 156.978C28.9071 157.754 27.6468 157.754 26.8701 156.978Z" fill="black"/>
<path d="M52.3259 182.434C51.5492 181.657 51.5419 180.389 52.3259 179.605C53.1026 178.828 54.3703 178.821 55.1543 179.605C55.931 180.382 55.9384 181.65 55.1543 182.434C54.3703 183.218 53.1099 183.218 52.3259 182.434Z" fill="black"/>
<path d="M77.782 207.89C77.0053 207.113 76.9979 205.845 77.782 205.061C78.5587 204.284 79.8264 204.277 80.6104 205.061C81.3871 205.838 81.3944 207.106 80.6104 207.89C79.8263 208.674 78.5587 208.666 77.782 207.89Z" fill="black"/>
<path d="M103.238 233.345C102.461 232.569 102.454 231.301 103.238 230.517C104.014 229.74 105.282 229.733 106.066 230.517C106.843 231.294 106.85 232.561 106.066 233.345C105.282 234.129 104.022 234.129 103.238 233.345Z" fill="black"/>
<path d="M128.694 258.801C127.917 258.025 127.91 256.757 128.694 255.973C129.471 255.196 130.738 255.189 131.522 255.973C132.306 256.757 132.306 258.017 131.522 258.801C130.738 259.586 129.471 259.578 128.694 258.801Z" fill="black"/>
</svg>
