<svg width="198" height="50" viewBox="0 0 198 50" fill="none" xmlns="http://www.w3.org/2000/svg">
<path d="M180.137 27.6347L179.786 27.2864L179.434 27.6347L163.26 43.6465L147.077 27.6346L146.725 27.2865L146.373 27.6347L130.2 43.6464L114.027 27.6347L113.675 27.2864L113.323 27.6347L99.0999 41.7165L84.8666 27.6346L84.5148 27.2865L84.1632 27.6347L67.9897 43.6465L51.8063 27.6346L51.4546 27.2865L51.1029 27.6347L34.9296 43.6464L18.7563 27.6347L18.4045 27.2864L18.0527 27.6347L1.64823 43.8747L1.29018 44.2291L1.64736 44.5845L3.47678 46.4045L3.82857 46.7544L4.1812 46.4053L18.4045 32.3236L34.5778 48.3353L34.9296 48.6836L35.2813 48.3353L51.4548 32.3235L67.6382 48.3354L67.9899 48.6835L68.3416 48.3353L84.5149 32.3236L98.7482 46.4153L99.1002 46.7637L99.4519 46.4152L113.675 32.3237L129.848 48.3353L130.2 48.6836L130.552 48.3353L146.725 32.3235L162.909 48.3354L163.261 48.6835L163.612 48.3353L179.786 32.3235L194.019 46.4054L194.373 46.7553L194.724 46.4035L196.544 44.5835L196.899 44.2281L196.542 43.8747L180.137 27.6347Z" fill="#0000FF" stroke="#0000FF"/>
<path d="M180.137 1.64467L179.786 1.29642L179.434 1.64468L163.26 17.6565L147.077 1.64457L146.725 1.29652L146.373 1.64468L130.2 17.6564L114.027 1.64468L113.675 1.29641L113.323 1.64468L99.0999 15.7265L84.8666 1.64456L84.5148 1.29653L84.1632 1.64468L67.9897 17.6565L51.8063 1.64457L51.4546 1.29652L51.1029 1.64468L34.9296 17.6564L18.7563 1.64468L18.4045 1.29642L18.0527 1.64467L1.64823 17.8847L1.29018 18.2391L1.64736 18.5945L3.47678 20.4145L3.82857 20.7644L4.1812 20.4153L18.4045 6.33359L34.5778 22.3453L34.9296 22.6936L35.2813 22.3453L51.4548 6.33347L67.6382 22.3454L67.9899 22.6935L68.3416 22.3453L84.5149 6.33359L98.7482 20.4253L99.1002 20.7737L99.4519 20.4252L113.675 6.33371L129.848 22.3453L130.2 22.6936L130.552 22.3453L146.725 6.33348L162.909 22.3454L163.261 22.6935L163.612 22.3453L179.786 6.33347L194.019 20.4154L194.373 20.7653L194.724 20.4135L196.544 18.5935L196.899 18.2381L196.542 17.8847L180.137 1.64467Z" fill="#0000FF" stroke="#0000FF"/>
</svg>
