<svg width="103" height="40" viewBox="0 0 103 40" fill="none" xmlns="http://www.w3.org/2000/svg">
<path d="M84.8686 1.64661L84.5169 1.29451L84.1632 1.64468L67.9897 17.6565L51.8063 1.64457L51.4546 1.29652L51.1029 1.64468L34.9296 17.6564L18.7563 1.64468L18.4045 1.29642L18.0527 1.64467L1.64823 17.8847L1.29018 18.2391L1.64736 18.5945L3.47678 20.4145L3.82857 20.7644L4.1812 20.4153L18.4045 6.33359L34.5778 22.3453L34.9296 22.6936L35.2813 22.3453L51.4548 6.33347L67.6382 22.3454L67.9899 22.6935L68.3416 22.3453L84.5149 6.33359L98.7482 20.4253L99.0698 20.7436L99.4185 20.4554L101.318 18.8854L101.742 18.5354L101.354 18.1466L84.8686 1.64661Z" fill="#0000FF" stroke="#0000FF"/>
<path d="M84.8686 17.6466L84.5169 17.2945L84.1632 17.6447L67.9897 33.6565L51.8063 17.6446L51.4546 17.2965L51.1029 17.6447L34.9296 33.6564L18.7563 17.6447L18.4045 17.2964L18.0527 17.6447L1.64823 33.8847L1.29018 34.2391L1.64736 34.5945L3.47678 36.4145L3.82857 36.7644L4.1812 36.4153L18.4045 22.3336L34.5778 38.3453L34.9296 38.6936L35.2813 38.3453L51.4548 22.3335L67.6382 38.3454L67.9899 38.6935L68.3416 38.3453L84.5149 22.3336L98.7482 36.4253L99.0698 36.7436L99.4185 36.4554L101.318 34.8854L101.742 34.5354L101.354 34.1466L84.8686 17.6466Z" fill="#0000FF" stroke="#0000FF"/>
</svg>
