<svg width="272" height="275" viewBox="0 0 272 275" fill="none" xmlns="http://www.w3.org/2000/svg">
<mask id="mask0" mask-type="alpha" maskUnits="userSpaceOnUse" x="-272" y="0" width="544" height="544">
<path fill-rule="evenodd" clip-rule="evenodd" d="M0 544C150.221 544 272 422.221 272 272C272 121.779 150.221 0 0 0C-150.221 0 -272 121.779 -272 272C-272 422.221 -150.221 544 0 544ZM-6.10352e-05 419.525C81.476 419.525 147.525 353.476 147.525 272C147.525 190.524 81.476 124.475 -6.10352e-05 124.475C-81.4761 124.475 -147.525 190.524 -147.525 272C-147.525 353.476 -81.4761 419.525 -6.10352e-05 419.525Z" fill="black"/>
</mask>
<g mask="url(#mask0)">
<path d="M-551.319 271.452L218.578 -173.048L224.078 -163.522L-545.819 280.978L-551.319 271.452Z" stroke="black"/>
<path d="M-539.319 292.237L230.578 -152.263L236.078 -142.737L-533.819 301.763L-539.319 292.237Z" stroke="black"/>
<path d="M-527.319 313.021L242.578 -131.479L248.078 -121.952L-521.819 322.548L-527.319 313.021Z" stroke="black"/>
<path d="M-515.319 333.806L254.578 -110.694L260.078 -101.168L-509.819 343.332L-515.319 333.806Z" stroke="black"/>
<path d="M-503.319 354.591L266.578 -89.9093L272.078 -80.383L-497.819 364.117L-503.319 354.591Z" stroke="black"/>
<path d="M-491.319 375.375L278.578 -69.1251L284.078 -59.5988L-485.819 384.901L-491.319 375.375Z" stroke="black"/>
<path d="M-479.319 396.16L290.578 -48.3404L296.078 -38.8141L-473.819 405.686L-479.319 396.16Z" stroke="black"/>
<path d="M-467.319 416.944L302.578 -27.5558L308.078 -18.0295L-461.819 426.471L-467.319 416.944Z" stroke="black"/>
<path d="M-455.319 437.729L314.578 -6.77109L320.078 2.75519L-449.819 447.255L-455.319 437.729Z" stroke="black"/>
<path d="M-443.319 458.514L326.578 14.0136L332.078 23.5399L-437.819 468.04L-443.319 458.514Z" stroke="black"/>
<path d="M-431.319 479.298L338.578 34.7982L344.078 44.3245L-425.819 488.825L-431.319 479.298Z" stroke="black"/>
<path d="M-419.319 500.083L350.578 55.5829L356.078 65.1092L-413.819 509.609L-419.319 500.083Z" stroke="black"/>
<path d="M-407.319 520.868L362.578 76.3676L368.078 85.8939L-401.819 530.394L-407.319 520.868Z" stroke="black"/>
<path d="M-395.319 541.652L374.578 97.1518L380.078 106.678L-389.819 551.178L-395.319 541.652Z" stroke="black"/>
<path d="M-383.319 562.436L386.578 117.936L392.078 127.463L-377.819 571.963L-383.319 562.436Z" stroke="black"/>
<path d="M-371.319 583.221L398.578 138.721L404.078 148.247L-365.819 592.747L-371.319 583.221Z" stroke="black"/>
<path d="M-359.319 604.006L410.578 159.506L416.078 169.032L-353.819 613.532L-359.319 604.006Z" stroke="black"/>
<path d="M-347.319 624.79L422.578 180.29L428.078 189.817L-341.819 634.317L-347.319 624.79Z" stroke="black"/>
<path d="M-335.319 645.575L434.578 201.075L440.078 210.601L-329.819 655.101L-335.319 645.575Z" stroke="black"/>
<path d="M-323.319 666.36L446.578 221.86L452.078 231.386L-317.819 675.886L-323.319 666.36Z" stroke="black"/>
<path d="M-311.319 687.144L458.578 242.644L464.078 252.171L-305.819 696.671L-311.319 687.144Z" stroke="black"/>
<path d="M-299.319 707.929L470.578 263.429L476.078 272.955L-293.819 717.455L-299.319 707.929Z" stroke="black"/>
</g>
</svg>
