<svg width="168" height="93" viewBox="0 0 168 93" fill="none" xmlns="http://www.w3.org/2000/svg">
<path d="M8 92.5383L8 76.5383M16 84.5383L-1.40438e-07 84.5383L16 84.5383Z" stroke="black" stroke-width="2" stroke-miterlimit="10"/>
<path d="M8 54.1538L8 38.1538M16 46.1538L-1.40441e-07 46.1538L16 46.1538Z" stroke="black" stroke-width="2" stroke-miterlimit="10"/>
<path d="M8 16L8 3.38584e-06M16 8L-1.5536e-07 8L16 8Z" stroke="black" stroke-width="2" stroke-miterlimit="10"/>
<path d="M45.8946 92.5383L45.8946 76.5383M53.8946 84.5383L37.8947 84.5383L53.8946 84.5383Z" stroke="black" stroke-width="2" stroke-miterlimit="10"/>
<path d="M45.8948 54.1538L45.8948 38.1538M53.8948 46.1538L37.8948 46.1538L53.8948 46.1538Z" stroke="black" stroke-width="2" stroke-miterlimit="10"/>
<path d="M45.8948 16L45.8948 3.38588e-06M53.8948 8L37.8948 8L53.8948 8Z" stroke="black" stroke-width="2" stroke-miterlimit="10"/>
<path d="M83.7894 54.1538L83.7894 38.1538M91.7894 46.1538L75.7894 46.1538L91.7894 46.1538Z" stroke="black" stroke-width="2" stroke-miterlimit="10"/>
<path d="M83.7894 16L83.7894 3.38585e-06M91.7894 8.00001L75.7894 8L91.7894 8.00001Z" stroke="black" stroke-width="2" stroke-miterlimit="10"/>
<path d="M121.684 54.1538L121.684 38.1538M129.684 46.1538L113.684 46.1538L129.684 46.1538Z" stroke="black" stroke-width="2" stroke-miterlimit="10"/>
<path d="M121.684 16L121.684 3.38587e-06M129.684 8.00001L113.684 8L129.684 8.00001Z" stroke="black" stroke-width="2" stroke-miterlimit="10"/>
<path d="M159.579 54.1538L159.579 38.1538M167.579 46.1538L151.579 46.1538L167.579 46.1538Z" stroke="black" stroke-width="2" stroke-miterlimit="10"/>
<path d="M159.579 16L159.579 3.38585e-06M167.579 8.00001L151.579 8L167.579 8.00001Z" stroke="black" stroke-width="2" stroke-miterlimit="10"/>
</svg>
