<svg width="96" height="96" viewBox="0 0 96 96" fill="none" xmlns="http://www.w3.org/2000/svg">
<path d="M87.5294 0.00415039H8.47059C3.79991 0.00415039 0 3.80406 0 8.47474V62.1218C0 69.9063 6.33318 76.2394 14.1176 76.2394H16.9412V67.7689H79.0588V76.2394H81.8824C89.6668 76.2394 96 69.9063 96 62.1218V8.47474C96 3.80406 92.2001 0.00415039 87.5294 0.00415039ZM11.2941 70.1084C8.00734 68.9431 5.64706 65.8027 5.64706 62.1216V16.4614C6.53045 16.7746 7.48104 16.9451 8.47059 16.9451H11.2941V70.1084ZM22.0356 62.1218L41.6471 30.7432L61.2585 62.1216H22.0356V62.1218ZM67.9177 62.1218L54.9594 41.3884L59.1377 35.9187L76.6063 62.1218H67.9177ZM90.3529 62.1218C90.3529 65.8029 87.9927 68.9433 84.7059 70.1086V16.9453H87.5294C88.519 16.9453 89.4696 16.7748 90.3529 16.4616V62.1218ZM87.5294 11.2983H79.0588V55.6198L59.4504 26.2071L51.7619 36.272L41.6471 20.0885L16.9412 59.6179V11.2983H8.47059C6.91369 11.2983 5.64706 10.0316 5.64706 8.47474C5.64706 6.91784 6.91369 5.65121 8.47059 5.65121H87.5294C89.0863 5.65121 90.3529 6.91784 90.3529 8.47474C90.3529 10.0316 89.0863 11.2983 87.5294 11.2983Z" fill="#0000FF"/>
<path d="M19.7647 84.71C19.7647 99.7548 73.4118 99.7613 73.4118 84.71C73.4118 69.6565 19.7647 69.6612 19.7647 84.71ZM62.6191 88.0369C53.8592 91.1287 39.3436 91.1381 30.5574 88.0369C26.7074 86.6782 25.4118 85.1833 25.4118 84.71C25.4118 84.2366 26.7074 82.7417 30.5574 81.383C39.3173 78.2912 53.8329 78.2818 62.6191 81.383C66.4691 82.7417 67.7647 84.2366 67.7647 84.71C67.7647 85.1833 66.4691 86.6782 62.6191 88.0369Z" fill="#0000FF"/>
<path d="M48 11.2983H62.1176V16.9454H48V11.2983Z" fill="#0000FF"/>
<path d="M67.7647 11.2983H73.4118V16.9454H67.7647V11.2983Z" fill="#0000FF"/>
</svg>
