<svg width="96" height="96" viewBox="0 0 96 96" fill="none" xmlns="http://www.w3.org/2000/svg">
<path d="M28.3125 18.5222V28.3125H0V96H50.8125V84.75H96V0H46.8347L28.3125 18.5222ZM45.1875 9.60278V16.875H37.9153L45.1875 9.60278ZM45.1875 33.9375V45.1875H5.625V33.9375H45.1875ZM5.625 90.375V50.8125H45.1875V90.375H5.625ZM90.375 79.125H50.8125V28.3125H33.9375V22.5H50.8125V5.625H90.375V79.125Z" fill="#0000FF"/>
<path d="M70.5 39.5625C68.9495 39.5625 67.6875 38.3005 67.6875 36.75H62.0625C62.0625 40.4165 64.4136 43.5425 67.6875 44.7041V50.8125H73.3125V44.7041C76.5864 43.5425 78.9375 40.4165 78.9375 36.75C78.9375 32.0977 75.1523 28.3125 70.5 28.3125C69.0022 28.3125 67.6875 26.9106 67.6875 25.3125C67.6875 23.762 68.9495 22.5 70.5 22.5C72.0505 22.5 73.3125 23.762 73.3125 25.3125H78.9375C78.9375 21.646 76.5864 18.52 73.3125 17.3584V11.25H67.6875V17.3584C64.4136 18.52 62.0625 21.646 62.0625 25.3125C62.0625 27.5537 62.9246 29.6902 64.4897 31.3271C66.0989 33.0103 68.2332 33.9375 70.5 33.9375C72.0505 33.9375 73.3125 35.1995 73.3125 36.75C73.3125 38.3005 72.0505 39.5625 70.5 39.5625Z" fill="#0000FF"/>
<path d="M11.4375 67.6875H17.0625V73.3125H11.4375V67.6875Z" fill="#0000FF"/>
<path d="M22.6875 67.6875H28.3125V73.3125H22.6875V67.6875Z" fill="#0000FF"/>
<path d="M11.4375 56.4375H17.0625V62.0625H11.4375V56.4375Z" fill="#0000FF"/>
<path d="M22.6875 56.4375H28.3125V62.0625H22.6875V56.4375Z" fill="#0000FF"/>
<path d="M56.4375 67.6875H84.75V73.3125H56.4375V67.6875Z" fill="#0000FF"/>
<path d="M56.4375 56.4375H84.75V62.0625H56.4375V56.4375Z" fill="#0000FF"/>
<path d="M33.9375 56.4375H39.5625V62.0625H33.9375V56.4375Z" fill="#0000FF"/>
<path d="M11.4375 79.125H17.0625V84.75H11.4375V79.125Z" fill="#0000FF"/>
<path d="M22.6875 79.125H28.3125V84.75H22.6875V79.125Z" fill="#0000FF"/>
<path d="M33.9375 67.6875H39.5625V84.75H33.9375V67.6875Z" fill="#0000FF"/>
</svg>
